G04 #@! TF.GenerationSoftware,KiCad,Pcbnew,8.0.6*
G04 #@! TF.CreationDate,2024-10-16T19:18:14+02:00*
G04 #@! TF.ProjectId,esp_music_vis,6573705f-6d75-4736-9963-5f7669732e6b,rev?*
G04 #@! TF.SameCoordinates,Original*
G04 #@! TF.FileFunction,Soldermask,Top*
G04 #@! TF.FilePolarity,Negative*
%FSLAX46Y46*%
G04 Gerber Fmt 4.6, Leading zero omitted, Abs format (unit mm)*
G04 Created by KiCad (PCBNEW 8.0.6) date 2024-10-16 19:18:14*
%MOMM*%
%LPD*%
G01*
G04 APERTURE LIST*
G04 Aperture macros list*
%AMRoundRect*
0 Rectangle with rounded corners*
0 $1 Rounding radius*
0 $2 $3 $4 $5 $6 $7 $8 $9 X,Y pos of 4 corners*
0 Add a 4 corners polygon primitive as box body*
4,1,4,$2,$3,$4,$5,$6,$7,$8,$9,$2,$3,0*
0 Add four circle primitives for the rounded corners*
1,1,$1+$1,$2,$3*
1,1,$1+$1,$4,$5*
1,1,$1+$1,$6,$7*
1,1,$1+$1,$8,$9*
0 Add four rect primitives between the rounded corners*
20,1,$1+$1,$2,$3,$4,$5,0*
20,1,$1+$1,$4,$5,$6,$7,0*
20,1,$1+$1,$6,$7,$8,$9,0*
20,1,$1+$1,$8,$9,$2,$3,0*%
G04 Aperture macros list end*
%ADD10RoundRect,1.062500X-1.187500X-1.062500X1.187500X-1.062500X1.187500X1.062500X-1.187500X1.062500X0*%
%ADD11RoundRect,0.500000X0.500000X-4.000000X0.500000X4.000000X-0.500000X4.000000X-0.500000X-4.000000X0*%
%ADD12RoundRect,0.500000X-1.000000X0.500000X-1.000000X-0.500000X1.000000X-0.500000X1.000000X0.500000X0*%
%ADD13RoundRect,0.500000X-0.500000X-1.000000X0.500000X-1.000000X0.500000X1.000000X-0.500000X1.000000X0*%
%ADD14RoundRect,0.500000X-5.000000X-0.500000X5.000000X-0.500000X5.000000X0.500000X-5.000000X0.500000X0*%
%ADD15RoundRect,0.250000X-1.550000X0.650000X-1.550000X-0.650000X1.550000X-0.650000X1.550000X0.650000X0*%
%ADD16O,3.600000X1.800000*%
%ADD17R,1.700000X1.700000*%
%ADD18O,1.700000X1.700000*%
%ADD19C,1.600000*%
%ADD20O,1.600000X1.600000*%
%ADD21R,3.000000X3.000000*%
%ADD22C,3.000000*%
%ADD23R,1.800000X1.800000*%
%ADD24C,1.800000*%
%ADD25RoundRect,0.250000X1.550000X-0.650000X1.550000X0.650000X-1.550000X0.650000X-1.550000X-0.650000X0*%
%ADD26RoundRect,0.250000X-0.650000X-1.550000X0.650000X-1.550000X0.650000X1.550000X-0.650000X1.550000X0*%
%ADD27O,1.800000X3.600000*%
G04 APERTURE END LIST*
D10*
X138450000Y-147200000D03*
X122162500Y-147200000D03*
X105875000Y-147200000D03*
D11*
X148875000Y-55200000D03*
X51100000Y-55000000D03*
D12*
X102300000Y-51900000D03*
X102325000Y-58000000D03*
X102300000Y-54900000D03*
X98125000Y-58000000D03*
X98100000Y-51900000D03*
X98100000Y-54900000D03*
D11*
X148875000Y-65100000D03*
D12*
X57275000Y-65000000D03*
X57300000Y-68100000D03*
X57275000Y-62000000D03*
D11*
X51075000Y-65000000D03*
D12*
X57300000Y-75000000D03*
X57300000Y-72000000D03*
X57325000Y-78100000D03*
D11*
X148900000Y-75100000D03*
X51100000Y-75000000D03*
D13*
X126400000Y-87125000D03*
X128900000Y-87100000D03*
D14*
X127700000Y-92250000D03*
D13*
X131450000Y-87100000D03*
X123850000Y-87125000D03*
D14*
X100100000Y-92250000D03*
D13*
X103850000Y-87100000D03*
X96250000Y-87125000D03*
X98800000Y-87125000D03*
X101300000Y-87100000D03*
X73550000Y-87100000D03*
X68500000Y-87125000D03*
X71050000Y-87125000D03*
X76100000Y-87100000D03*
D14*
X72350000Y-92250000D03*
D15*
X61800000Y-84900000D03*
D16*
X61800000Y-89980000D03*
X61800000Y-95060000D03*
D17*
X54100000Y-140100000D03*
D18*
X54100000Y-142640000D03*
X54100000Y-145180000D03*
D19*
X84900000Y-136080000D03*
D20*
X84900000Y-125920000D03*
D19*
X54200000Y-134880000D03*
D20*
X54200000Y-124720000D03*
D19*
X59200000Y-124620000D03*
D20*
X59200000Y-134780000D03*
D21*
X144780000Y-111680000D03*
D22*
X144780000Y-106680000D03*
D23*
X88925000Y-143600000D03*
D24*
X91465000Y-143600000D03*
D19*
X88800000Y-136080000D03*
D20*
X88800000Y-125920000D03*
D23*
X72481666Y-143600000D03*
D24*
X75021666Y-143600000D03*
D17*
X59600000Y-140060000D03*
D18*
X59600000Y-142600000D03*
X59600000Y-145140000D03*
D19*
X72750000Y-136080000D03*
D20*
X72750000Y-125920000D03*
D19*
X91900000Y-117600000D03*
X88900000Y-117600000D03*
D16*
X138200000Y-84940000D03*
X138200000Y-90020000D03*
D25*
X138200000Y-95100000D03*
D26*
X53357500Y-107422500D03*
D27*
X58437500Y-107422500D03*
X63517500Y-107422500D03*
D23*
X80703332Y-143600000D03*
D24*
X83243332Y-143600000D03*
D19*
X80850000Y-136080000D03*
D20*
X80850000Y-125920000D03*
D23*
X64260000Y-143600000D03*
D24*
X66800000Y-143600000D03*
D19*
X76800000Y-136080000D03*
D20*
X76800000Y-125920000D03*
D18*
X140200000Y-117200000D03*
X137660000Y-117200000D03*
X135120000Y-117200000D03*
X132580000Y-117200000D03*
X130040000Y-117200000D03*
X127500000Y-117200000D03*
X124960000Y-117200000D03*
X122420000Y-117200000D03*
X119880000Y-117200000D03*
X117340000Y-117200000D03*
X114800000Y-117200000D03*
X112260000Y-117200000D03*
X109720000Y-117200000D03*
X107180000Y-117200000D03*
D17*
X104640000Y-117200000D03*
D18*
X140280000Y-142200000D03*
X137740000Y-142200000D03*
X135200000Y-142200000D03*
X132660000Y-142200000D03*
X130120000Y-142200000D03*
X127580000Y-142200000D03*
X125040000Y-142200000D03*
X122500000Y-142200000D03*
X119960000Y-142200000D03*
X117420000Y-142200000D03*
X114880000Y-142200000D03*
X112340000Y-142200000D03*
X109800000Y-142200000D03*
X107260000Y-142200000D03*
D17*
X104720000Y-142200000D03*
M02*
