G04 #@! TF.GenerationSoftware,KiCad,Pcbnew,8.0.6*
G04 #@! TF.CreationDate,2024-10-17T13:08:26+02:00*
G04 #@! TF.ProjectId,esp_music_vis,6573705f-6d75-4736-9963-5f7669732e6b,rev?*
G04 #@! TF.SameCoordinates,Original*
G04 #@! TF.FileFunction,Legend,Bot*
G04 #@! TF.FilePolarity,Positive*
%FSLAX46Y46*%
G04 Gerber Fmt 4.6, Leading zero omitted, Abs format (unit mm)*
G04 Created by KiCad (PCBNEW 8.0.6) date 2024-10-17 13:08:26*
%MOMM*%
%LPD*%
G01*
G04 APERTURE LIST*
G04 Aperture macros list*
%AMRoundRect*
0 Rectangle with rounded corners*
0 $1 Rounding radius*
0 $2 $3 $4 $5 $6 $7 $8 $9 X,Y pos of 4 corners*
0 Add a 4 corners polygon primitive as box body*
4,1,4,$2,$3,$4,$5,$6,$7,$8,$9,$2,$3,0*
0 Add four circle primitives for the rounded corners*
1,1,$1+$1,$2,$3*
1,1,$1+$1,$4,$5*
1,1,$1+$1,$6,$7*
1,1,$1+$1,$8,$9*
0 Add four rect primitives between the rounded corners*
20,1,$1+$1,$2,$3,$4,$5,0*
20,1,$1+$1,$4,$5,$6,$7,0*
20,1,$1+$1,$6,$7,$8,$9,0*
20,1,$1+$1,$8,$9,$2,$3,0*%
G04 Aperture macros list end*
%ADD10R,1.700000X1.700000*%
%ADD11O,1.700000X1.700000*%
%ADD12RoundRect,0.500000X-1.000000X0.500000X-1.000000X-0.500000X1.000000X-0.500000X1.000000X0.500000X0*%
%ADD13C,1.600000*%
%ADD14O,1.600000X1.600000*%
%ADD15R,3.000000X3.000000*%
%ADD16C,3.000000*%
%ADD17R,1.800000X1.800000*%
%ADD18C,1.800000*%
%ADD19RoundRect,0.250000X1.550000X-0.650000X1.550000X0.650000X-1.550000X0.650000X-1.550000X-0.650000X0*%
%ADD20O,3.600000X1.800000*%
%ADD21RoundRect,0.250000X-0.650000X-1.550000X0.650000X-1.550000X0.650000X1.550000X-0.650000X1.550000X0*%
%ADD22O,1.800000X3.600000*%
%ADD23RoundRect,0.250000X-1.550000X0.650000X-1.550000X-0.650000X1.550000X-0.650000X1.550000X0.650000X0*%
G04 APERTURE END LIST*
%LPC*%
D10*
X54100000Y-140100000D03*
D11*
X54100000Y-142640000D03*
X54100000Y-145180000D03*
D10*
X104720000Y-142200000D03*
D11*
X107260000Y-142200000D03*
X109800000Y-142200000D03*
X112340000Y-142200000D03*
X114880000Y-142200000D03*
X117420000Y-142200000D03*
X119960000Y-142200000D03*
X122500000Y-142200000D03*
X125040000Y-142200000D03*
X127580000Y-142200000D03*
X130120000Y-142200000D03*
X132660000Y-142200000D03*
X135200000Y-142200000D03*
X137740000Y-142200000D03*
X140280000Y-142200000D03*
D10*
X104640000Y-117200000D03*
D11*
X107180000Y-117200000D03*
X109720000Y-117200000D03*
X112260000Y-117200000D03*
X114800000Y-117200000D03*
X117340000Y-117200000D03*
X119880000Y-117200000D03*
X122420000Y-117200000D03*
X124960000Y-117200000D03*
X127500000Y-117200000D03*
X130040000Y-117200000D03*
X132580000Y-117200000D03*
X135120000Y-117200000D03*
X137660000Y-117200000D03*
X140200000Y-117200000D03*
D12*
X51700000Y-51150000D03*
D13*
X84900000Y-136080000D03*
D14*
X84900000Y-125920000D03*
D13*
X54200000Y-134880000D03*
D14*
X54200000Y-124720000D03*
D13*
X59200000Y-124620000D03*
D14*
X59200000Y-134780000D03*
D15*
X144780000Y-111680000D03*
D16*
X144780000Y-106680000D03*
D12*
X51675000Y-61150000D03*
D17*
X88925000Y-143600000D03*
D18*
X91465000Y-143600000D03*
D13*
X88800000Y-136080000D03*
D14*
X88800000Y-125920000D03*
D17*
X72481666Y-143600000D03*
D18*
X75021666Y-143600000D03*
D10*
X59600000Y-140060000D03*
D11*
X59600000Y-142600000D03*
X59600000Y-145140000D03*
D13*
X72750000Y-136080000D03*
D14*
X72750000Y-125920000D03*
D13*
X91900000Y-117600000D03*
X88900000Y-117600000D03*
D19*
X138200000Y-95100000D03*
D20*
X138200000Y-90020000D03*
X138200000Y-84940000D03*
D21*
X53357500Y-107422500D03*
D22*
X58437500Y-107422500D03*
X63517500Y-107422500D03*
D17*
X80703332Y-143600000D03*
D18*
X83243332Y-143600000D03*
D13*
X80850000Y-136080000D03*
D14*
X80850000Y-125920000D03*
D17*
X64260000Y-143600000D03*
D18*
X66800000Y-143600000D03*
D13*
X76800000Y-136080000D03*
D14*
X76800000Y-125920000D03*
D12*
X148375000Y-56250000D03*
D23*
X61800000Y-84900000D03*
D20*
X61800000Y-89980000D03*
X61800000Y-95060000D03*
D12*
X148400000Y-76150000D03*
X148425000Y-73650000D03*
X148400000Y-53750000D03*
X148425000Y-71100000D03*
X51675000Y-76200000D03*
X148400000Y-78700000D03*
X51700000Y-53700000D03*
X148400000Y-61100000D03*
X148375000Y-58800000D03*
X148400000Y-51200000D03*
X51675000Y-63700000D03*
X148400000Y-63650000D03*
X51650000Y-66200000D03*
X51700000Y-73700000D03*
X148375000Y-66150000D03*
X51675000Y-56200000D03*
X51650000Y-68750000D03*
X148375000Y-68700000D03*
X51700000Y-71150000D03*
X51675000Y-78750000D03*
X51675000Y-58750000D03*
%LPD*%
M02*
