M48
; DRILL file {KiCad 8.0.6} date 2024-10-16T19:18:19+0200
; FORMAT={-:-/ absolute / metric / decimal}
; #@! TF.CreationDate,2024-10-16T19:18:19+02:00
; #@! TF.GenerationSoftware,Kicad,Pcbnew,8.0.6
; #@! TF.FileFunction,Plated,1,2,PTH
FMAT,2
METRIC
; #@! TA.AperFunction,Plated,PTH,ViaDrill
T1C0.400
; #@! TA.AperFunction,Plated,PTH,ViaDrill
T2C0.800
; #@! TA.AperFunction,Plated,PTH,ComponentDrill
T3C0.800
; #@! TA.AperFunction,Plated,PTH,ComponentDrill
T4C0.900
; #@! TA.AperFunction,Plated,PTH,ComponentDrill
T5C1.000
; #@! TA.AperFunction,Plated,PTH,ComponentDrill
T6C1.200
; #@! TA.AperFunction,Plated,PTH,ComponentDrill
T7C1.800
%
G90
G05
T1
X54.475Y-65.0
X54.5Y-75.0
X66.9Y-148.1
X83.6Y-56.1
X106.0Y-145.8
X116.95Y-55.15
X122.2Y-145.9
X127.7Y-130.4
X128.9Y-84.3
X138.5Y-146.0
X138.9Y-122.8
X146.5Y-121.2
T2
X60.975Y-64.6
X61.0Y-74.6
X63.575Y-62.0
X63.6Y-72.0
X68.6Y-84.4
X77.8Y-56.2
X79.8Y-91.9
X92.4Y-57.9
X96.2Y-84.4
X107.4Y-91.9
X107.9Y-58.0
X119.4Y-92.0
X122.75Y-56.15
X123.85Y-84.9
T3
X54.2Y-124.72
X54.2Y-134.88
X59.2Y-124.62
X59.2Y-134.78
X72.75Y-125.92
X72.75Y-136.08
X76.8Y-125.92
X76.8Y-136.08
X80.85Y-125.92
X80.85Y-136.08
X84.9Y-125.92
X84.9Y-136.08
X88.8Y-125.92
X88.8Y-136.08
X88.9Y-117.6
X91.9Y-117.6
T4
X64.26Y-143.6
X66.8Y-143.6
X72.482Y-143.6
X75.022Y-143.6
X80.703Y-143.6
X83.243Y-143.6
X88.925Y-143.6
X91.465Y-143.6
T5
X54.1Y-140.1
X54.1Y-142.64
X54.1Y-145.18
X59.6Y-140.06
X59.6Y-142.6
X59.6Y-145.14
X104.64Y-117.2
X104.72Y-142.2
X107.18Y-117.2
X107.26Y-142.2
X109.72Y-117.2
X109.8Y-142.2
X112.26Y-117.2
X112.34Y-142.2
X114.8Y-117.2
X114.88Y-142.2
X117.34Y-117.2
X117.42Y-142.2
X119.88Y-117.2
X119.96Y-142.2
X122.42Y-117.2
X122.5Y-142.2
X124.96Y-117.2
X125.04Y-142.2
X127.5Y-117.2
X127.58Y-142.2
X130.04Y-117.2
X130.12Y-142.2
X132.58Y-117.2
X132.66Y-142.2
X135.12Y-117.2
X135.2Y-142.2
X137.66Y-117.2
X137.74Y-142.2
X140.2Y-117.2
X140.28Y-142.2
T6
X53.357Y-107.422
X58.438Y-107.422
X61.8Y-84.9
X61.8Y-89.98
X61.8Y-95.06
X63.517Y-107.422
X138.2Y-84.94
X138.2Y-90.02
X138.2Y-95.1
T7
X144.78Y-106.68
X144.78Y-111.68
M30
