%TF.GenerationSoftware,KiCad,Pcbnew,8.0.6*%
%TF.CreationDate,2024-10-17T13:08:30+02:00*%
%TF.ProjectId,esp_music_vis,6573705f-6d75-4736-9963-5f7669732e6b,rev?*%
%TF.SameCoordinates,Original*%
%TF.FileFunction,Drillmap*%
%TF.FilePolarity,Positive*%
%FSLAX45Y45*%
G04 Gerber Fmt 4.5, Leading zero omitted, Abs format (unit mm)*
G04 Created by KiCad (PCBNEW 8.0.6) date 2024-10-17 13:08:30*
%MOMM*%
%LPD*%
G01*
G04 APERTURE LIST*
%ADD10C,0.100000*%
%ADD11C,0.200000*%
%ADD12C,0.120000*%
%ADD13C,0.180000*%
G04 APERTURE END LIST*
D10*
X7320000Y-9000000D02*
G75*
G02*
X7122010Y-9000000I-98995J0D01*
G01*
X7122010Y-9000000D02*
G75*
G02*
X7320000Y-9000000I98995J0D01*
G01*
X6880000Y-9000000D02*
G75*
G02*
X6682010Y-9000000I-98995J0D01*
G01*
X6682010Y-9000000D02*
G75*
G02*
X6880000Y-9000000I98995J0D01*
G01*
X7780000Y-8996250D02*
G75*
G02*
X7582010Y-8996250I-98995J0D01*
G01*
X7582010Y-8996250D02*
G75*
G02*
X7780000Y-8996250I98995J0D01*
G01*
X10100000Y-9000000D02*
G75*
G02*
X9902010Y-9000000I-98995J0D01*
G01*
X9902010Y-9000000D02*
G75*
G02*
X10100000Y-9000000I98995J0D01*
G01*
X9660000Y-9000000D02*
G75*
G02*
X9462010Y-9000000I-98995J0D01*
G01*
X9462010Y-9000000D02*
G75*
G02*
X9660000Y-9000000I98995J0D01*
G01*
X10555000Y-8996250D02*
G75*
G02*
X10357010Y-8996250I-98995J0D01*
G01*
X10357010Y-8996250D02*
G75*
G02*
X10555000Y-8996250I98995J0D01*
G01*
X12875838Y-8999432D02*
G75*
G02*
X12677849Y-8999432I-98995J0D01*
G01*
X12677849Y-8999432D02*
G75*
G02*
X12875838Y-8999432I98995J0D01*
G01*
X13315000Y-8996250D02*
G75*
G02*
X13117010Y-8996250I-98995J0D01*
G01*
X13117010Y-8996250D02*
G75*
G02*
X13315000Y-8996250I98995J0D01*
G01*
X12418995Y-8998995D02*
G75*
G02*
X12221005Y-8998995I-98995J0D01*
G01*
X12221005Y-8998995D02*
G75*
G02*
X12418995Y-8998995I98995J0D01*
G01*
X8240000Y-11680000D02*
G75*
G02*
X7900000Y-11680000I-170000J0D01*
G01*
X7900000Y-11680000D02*
G75*
G02*
X8240000Y-11680000I170000J0D01*
G01*
X14830000Y-14700000D02*
G75*
G02*
X14490000Y-14700000I-170000J0D01*
G01*
X14490000Y-14700000D02*
G75*
G02*
X14830000Y-14700000I170000J0D01*
G01*
X5750000Y-9000000D02*
G75*
G02*
X5410000Y-9000000I-170000J0D01*
G01*
X5410000Y-9000000D02*
G75*
G02*
X5750000Y-9000000I170000J0D01*
G01*
X6030000Y-11340000D02*
G75*
G02*
X5690000Y-11340000I-170000J0D01*
G01*
X5690000Y-11340000D02*
G75*
G02*
X6030000Y-11340000I170000J0D01*
G01*
X5000000Y-5000000D02*
X15000000Y-5000000D01*
X15000000Y-15000000D01*
X5000000Y-15000000D01*
X5000000Y-5000000D01*
X14590000Y-9000000D02*
G75*
G02*
X14250000Y-9000000I-170000J0D01*
G01*
X14250000Y-9000000D02*
G75*
G02*
X14590000Y-9000000I170000J0D01*
G01*
D11*
D10*
X5427500Y-6480000D02*
X5467500Y-6520000D01*
X5467500Y-6480000D02*
X5427500Y-6520000D01*
X5430000Y-7480000D02*
X5470000Y-7520000D01*
X5470000Y-7480000D02*
X5430000Y-7520000D01*
X6670000Y-14790000D02*
X6710000Y-14830000D01*
X6710000Y-14790000D02*
X6670000Y-14830000D01*
X8340000Y-5590000D02*
X8380000Y-5630000D01*
X8380000Y-5590000D02*
X8340000Y-5630000D01*
X10580000Y-14560000D02*
X10620000Y-14600000D01*
X10620000Y-14560000D02*
X10580000Y-14600000D01*
X11675000Y-5495000D02*
X11715000Y-5535000D01*
X11715000Y-5495000D02*
X11675000Y-5535000D01*
X12200000Y-14570000D02*
X12240000Y-14610000D01*
X12240000Y-14570000D02*
X12200000Y-14610000D01*
X12750000Y-13020000D02*
X12790000Y-13060000D01*
X12790000Y-13020000D02*
X12750000Y-13060000D01*
X12870000Y-8410000D02*
X12910000Y-8450000D01*
X12910000Y-8410000D02*
X12870000Y-8450000D01*
X13830000Y-14580000D02*
X13870000Y-14620000D01*
X13870000Y-14580000D02*
X13830000Y-14620000D01*
X13870000Y-12260000D02*
X13910000Y-12300000D01*
X13910000Y-12260000D02*
X13870000Y-12300000D01*
X14630000Y-12100000D02*
X14670000Y-12140000D01*
X14670000Y-12100000D02*
X14630000Y-12140000D01*
X6137500Y-6460000D02*
G75*
G02*
X6057500Y-6460000I-40000J0D01*
G01*
X6057500Y-6460000D02*
G75*
G02*
X6137500Y-6460000I40000J0D01*
G01*
X6140000Y-7460000D02*
G75*
G02*
X6060000Y-7460000I-40000J0D01*
G01*
X6060000Y-7460000D02*
G75*
G02*
X6140000Y-7460000I40000J0D01*
G01*
X6397500Y-6200000D02*
G75*
G02*
X6317500Y-6200000I-40000J0D01*
G01*
X6317500Y-6200000D02*
G75*
G02*
X6397500Y-6200000I40000J0D01*
G01*
X6400000Y-7200000D02*
G75*
G02*
X6320000Y-7200000I-40000J0D01*
G01*
X6320000Y-7200000D02*
G75*
G02*
X6400000Y-7200000I40000J0D01*
G01*
X6900000Y-8440000D02*
G75*
G02*
X6820000Y-8440000I-40000J0D01*
G01*
X6820000Y-8440000D02*
G75*
G02*
X6900000Y-8440000I40000J0D01*
G01*
X7820000Y-5620000D02*
G75*
G02*
X7740000Y-5620000I-40000J0D01*
G01*
X7740000Y-5620000D02*
G75*
G02*
X7820000Y-5620000I40000J0D01*
G01*
X8020000Y-9190000D02*
G75*
G02*
X7940000Y-9190000I-40000J0D01*
G01*
X7940000Y-9190000D02*
G75*
G02*
X8020000Y-9190000I40000J0D01*
G01*
X9280000Y-5790000D02*
G75*
G02*
X9200000Y-5790000I-40000J0D01*
G01*
X9200000Y-5790000D02*
G75*
G02*
X9280000Y-5790000I40000J0D01*
G01*
X9660000Y-8440000D02*
G75*
G02*
X9580000Y-8440000I-40000J0D01*
G01*
X9580000Y-8440000D02*
G75*
G02*
X9660000Y-8440000I40000J0D01*
G01*
X10780000Y-9190000D02*
G75*
G02*
X10700000Y-9190000I-40000J0D01*
G01*
X10700000Y-9190000D02*
G75*
G02*
X10780000Y-9190000I40000J0D01*
G01*
X10830000Y-5800000D02*
G75*
G02*
X10750000Y-5800000I-40000J0D01*
G01*
X10750000Y-5800000D02*
G75*
G02*
X10830000Y-5800000I40000J0D01*
G01*
X11980000Y-9200000D02*
G75*
G02*
X11900000Y-9200000I-40000J0D01*
G01*
X11900000Y-9200000D02*
G75*
G02*
X11980000Y-9200000I40000J0D01*
G01*
X12315000Y-5615000D02*
G75*
G02*
X12235000Y-5615000I-40000J0D01*
G01*
X12235000Y-5615000D02*
G75*
G02*
X12315000Y-5615000I40000J0D01*
G01*
X12425000Y-8490000D02*
G75*
G02*
X12345000Y-8490000I-40000J0D01*
G01*
X12345000Y-8490000D02*
G75*
G02*
X12425000Y-8490000I40000J0D01*
G01*
X5420000Y-12432000D02*
X5420000Y-12512000D01*
X5380000Y-12472000D02*
X5460000Y-12472000D01*
X5420000Y-13448000D02*
X5420000Y-13528000D01*
X5380000Y-13488000D02*
X5460000Y-13488000D01*
X5920000Y-12422000D02*
X5920000Y-12502000D01*
X5880000Y-12462000D02*
X5960000Y-12462000D01*
X5920000Y-13438000D02*
X5920000Y-13518000D01*
X5880000Y-13478000D02*
X5960000Y-13478000D01*
X7275000Y-12552000D02*
X7275000Y-12632000D01*
X7235000Y-12592000D02*
X7315000Y-12592000D01*
X7275000Y-13568000D02*
X7275000Y-13648000D01*
X7235000Y-13608000D02*
X7315000Y-13608000D01*
X7680000Y-12552000D02*
X7680000Y-12632000D01*
X7640000Y-12592000D02*
X7720000Y-12592000D01*
X7680000Y-13568000D02*
X7680000Y-13648000D01*
X7640000Y-13608000D02*
X7720000Y-13608000D01*
X8085000Y-12552000D02*
X8085000Y-12632000D01*
X8045000Y-12592000D02*
X8125000Y-12592000D01*
X8085000Y-13568000D02*
X8085000Y-13648000D01*
X8045000Y-13608000D02*
X8125000Y-13608000D01*
X8490000Y-12552000D02*
X8490000Y-12632000D01*
X8450000Y-12592000D02*
X8530000Y-12592000D01*
X8490000Y-13568000D02*
X8490000Y-13648000D01*
X8450000Y-13608000D02*
X8530000Y-13608000D01*
X8880000Y-12552000D02*
X8880000Y-12632000D01*
X8840000Y-12592000D02*
X8920000Y-12592000D01*
X8880000Y-13568000D02*
X8880000Y-13648000D01*
X8840000Y-13608000D02*
X8920000Y-13608000D01*
X8890000Y-11720000D02*
X8890000Y-11800000D01*
X8850000Y-11760000D02*
X8930000Y-11760000D01*
X9190000Y-11720000D02*
X9190000Y-11800000D01*
X9150000Y-11760000D02*
X9230000Y-11760000D01*
X6457820Y-14391820D02*
X6457820Y-14328180D01*
X6394180Y-14328180D01*
X6394180Y-14391820D01*
X6457820Y-14391820D01*
X6711820Y-14391820D02*
X6711820Y-14328180D01*
X6648180Y-14328180D01*
X6648180Y-14391820D01*
X6711820Y-14391820D01*
X7279987Y-14391820D02*
X7279987Y-14328180D01*
X7216346Y-14328180D01*
X7216346Y-14391820D01*
X7279987Y-14391820D01*
X7533987Y-14391820D02*
X7533987Y-14328180D01*
X7470346Y-14328180D01*
X7470346Y-14391820D01*
X7533987Y-14391820D01*
X8102153Y-14391820D02*
X8102153Y-14328180D01*
X8038513Y-14328180D01*
X8038513Y-14391820D01*
X8102153Y-14391820D01*
X8356153Y-14391820D02*
X8356153Y-14328180D01*
X8292513Y-14328180D01*
X8292513Y-14391820D01*
X8356153Y-14391820D01*
X8924320Y-14391820D02*
X8924320Y-14328180D01*
X8860680Y-14328180D01*
X8860680Y-14391820D01*
X8924320Y-14391820D01*
X9178320Y-14391820D02*
X9178320Y-14328180D01*
X9114680Y-14328180D01*
X9114680Y-14391820D01*
X9178320Y-14391820D01*
X5410000Y-14060000D02*
X5460000Y-14010000D01*
X5410000Y-13960000D01*
X5360000Y-14010000D01*
X5410000Y-14060000D01*
X5410000Y-14314000D02*
X5460000Y-14264000D01*
X5410000Y-14214000D01*
X5360000Y-14264000D01*
X5410000Y-14314000D01*
X5410000Y-14568000D02*
X5460000Y-14518000D01*
X5410000Y-14468000D01*
X5360000Y-14518000D01*
X5410000Y-14568000D01*
X5960000Y-14056000D02*
X6010000Y-14006000D01*
X5960000Y-13956000D01*
X5910000Y-14006000D01*
X5960000Y-14056000D01*
X5960000Y-14310000D02*
X6010000Y-14260000D01*
X5960000Y-14210000D01*
X5910000Y-14260000D01*
X5960000Y-14310000D01*
X5960000Y-14564000D02*
X6010000Y-14514000D01*
X5960000Y-14464000D01*
X5910000Y-14514000D01*
X5960000Y-14564000D01*
X10464000Y-11770000D02*
X10514000Y-11720000D01*
X10464000Y-11670000D01*
X10414000Y-11720000D01*
X10464000Y-11770000D01*
X10472000Y-14270000D02*
X10522000Y-14220000D01*
X10472000Y-14170000D01*
X10422000Y-14220000D01*
X10472000Y-14270000D01*
X10718000Y-11770000D02*
X10768000Y-11720000D01*
X10718000Y-11670000D01*
X10668000Y-11720000D01*
X10718000Y-11770000D01*
X10726000Y-14270000D02*
X10776000Y-14220000D01*
X10726000Y-14170000D01*
X10676000Y-14220000D01*
X10726000Y-14270000D01*
X10972000Y-11770000D02*
X11022000Y-11720000D01*
X10972000Y-11670000D01*
X10922000Y-11720000D01*
X10972000Y-11770000D01*
X10980000Y-14270000D02*
X11030000Y-14220000D01*
X10980000Y-14170000D01*
X10930000Y-14220000D01*
X10980000Y-14270000D01*
X11226000Y-11770000D02*
X11276000Y-11720000D01*
X11226000Y-11670000D01*
X11176000Y-11720000D01*
X11226000Y-11770000D01*
X11234000Y-14270000D02*
X11284000Y-14220000D01*
X11234000Y-14170000D01*
X11184000Y-14220000D01*
X11234000Y-14270000D01*
X11480000Y-11770000D02*
X11530000Y-11720000D01*
X11480000Y-11670000D01*
X11430000Y-11720000D01*
X11480000Y-11770000D01*
X11488000Y-14270000D02*
X11538000Y-14220000D01*
X11488000Y-14170000D01*
X11438000Y-14220000D01*
X11488000Y-14270000D01*
X11734000Y-11770000D02*
X11784000Y-11720000D01*
X11734000Y-11670000D01*
X11684000Y-11720000D01*
X11734000Y-11770000D01*
X11742000Y-14270000D02*
X11792000Y-14220000D01*
X11742000Y-14170000D01*
X11692000Y-14220000D01*
X11742000Y-14270000D01*
X11988000Y-11770000D02*
X12038000Y-11720000D01*
X11988000Y-11670000D01*
X11938000Y-11720000D01*
X11988000Y-11770000D01*
X11996000Y-14270000D02*
X12046000Y-14220000D01*
X11996000Y-14170000D01*
X11946000Y-14220000D01*
X11996000Y-14270000D01*
X12242000Y-11770000D02*
X12292000Y-11720000D01*
X12242000Y-11670000D01*
X12192000Y-11720000D01*
X12242000Y-11770000D01*
X12250000Y-14270000D02*
X12300000Y-14220000D01*
X12250000Y-14170000D01*
X12200000Y-14220000D01*
X12250000Y-14270000D01*
X12496000Y-11770000D02*
X12546000Y-11720000D01*
X12496000Y-11670000D01*
X12446000Y-11720000D01*
X12496000Y-11770000D01*
X12504000Y-14270000D02*
X12554000Y-14220000D01*
X12504000Y-14170000D01*
X12454000Y-14220000D01*
X12504000Y-14270000D01*
X12750000Y-11770000D02*
X12800000Y-11720000D01*
X12750000Y-11670000D01*
X12700000Y-11720000D01*
X12750000Y-11770000D01*
X12758000Y-14270000D02*
X12808000Y-14220000D01*
X12758000Y-14170000D01*
X12708000Y-14220000D01*
X12758000Y-14270000D01*
X13004000Y-11770000D02*
X13054000Y-11720000D01*
X13004000Y-11670000D01*
X12954000Y-11720000D01*
X13004000Y-11770000D01*
X13012000Y-14270000D02*
X13062000Y-14220000D01*
X13012000Y-14170000D01*
X12962000Y-14220000D01*
X13012000Y-14270000D01*
X13258000Y-11770000D02*
X13308000Y-11720000D01*
X13258000Y-11670000D01*
X13208000Y-11720000D01*
X13258000Y-11770000D01*
X13266000Y-14270000D02*
X13316000Y-14220000D01*
X13266000Y-14170000D01*
X13216000Y-14220000D01*
X13266000Y-14270000D01*
X13512000Y-11770000D02*
X13562000Y-11720000D01*
X13512000Y-11670000D01*
X13462000Y-11720000D01*
X13512000Y-11770000D01*
X13520000Y-14270000D02*
X13570000Y-14220000D01*
X13520000Y-14170000D01*
X13470000Y-14220000D01*
X13520000Y-14270000D01*
X13766000Y-11770000D02*
X13816000Y-11720000D01*
X13766000Y-11670000D01*
X13716000Y-11720000D01*
X13766000Y-11770000D01*
X13774000Y-14270000D02*
X13824000Y-14220000D01*
X13774000Y-14170000D01*
X13724000Y-14220000D01*
X13774000Y-14270000D01*
X14020000Y-11770000D02*
X14070000Y-11720000D01*
X14020000Y-11670000D01*
X13970000Y-11720000D01*
X14020000Y-11770000D01*
X14028000Y-14270000D02*
X14078000Y-14220000D01*
X14028000Y-14170000D01*
X13978000Y-14220000D01*
X14028000Y-14270000D01*
D12*
X5275750Y-10682250D02*
X5395750Y-10802250D01*
X5395750Y-10682250D02*
X5275750Y-10802250D01*
X5395750Y-10742250D02*
G75*
G02*
X5275750Y-10742250I-60000J0D01*
G01*
X5275750Y-10742250D02*
G75*
G02*
X5395750Y-10742250I60000J0D01*
G01*
X5783750Y-10682250D02*
X5903750Y-10802250D01*
X5903750Y-10682250D02*
X5783750Y-10802250D01*
X5903750Y-10742250D02*
G75*
G02*
X5783750Y-10742250I-60000J0D01*
G01*
X5783750Y-10742250D02*
G75*
G02*
X5903750Y-10742250I60000J0D01*
G01*
X6120000Y-8430000D02*
X6240000Y-8550000D01*
X6240000Y-8430000D02*
X6120000Y-8550000D01*
X6240000Y-8490000D02*
G75*
G02*
X6120000Y-8490000I-60000J0D01*
G01*
X6120000Y-8490000D02*
G75*
G02*
X6240000Y-8490000I60000J0D01*
G01*
X6120000Y-8938000D02*
X6240000Y-9058000D01*
X6240000Y-8938000D02*
X6120000Y-9058000D01*
X6240000Y-8998000D02*
G75*
G02*
X6120000Y-8998000I-60000J0D01*
G01*
X6120000Y-8998000D02*
G75*
G02*
X6240000Y-8998000I60000J0D01*
G01*
X6120000Y-9446000D02*
X6240000Y-9566000D01*
X6240000Y-9446000D02*
X6120000Y-9566000D01*
X6240000Y-9506000D02*
G75*
G02*
X6120000Y-9506000I-60000J0D01*
G01*
X6120000Y-9506000D02*
G75*
G02*
X6240000Y-9506000I60000J0D01*
G01*
X6291750Y-10682250D02*
X6411750Y-10802250D01*
X6411750Y-10682250D02*
X6291750Y-10802250D01*
X6411750Y-10742250D02*
G75*
G02*
X6291750Y-10742250I-60000J0D01*
G01*
X6291750Y-10742250D02*
G75*
G02*
X6411750Y-10742250I60000J0D01*
G01*
X13760000Y-8434000D02*
X13880000Y-8554000D01*
X13880000Y-8434000D02*
X13760000Y-8554000D01*
X13880000Y-8494000D02*
G75*
G02*
X13760000Y-8494000I-60000J0D01*
G01*
X13760000Y-8494000D02*
G75*
G02*
X13880000Y-8494000I60000J0D01*
G01*
X13760000Y-8942000D02*
X13880000Y-9062000D01*
X13880000Y-8942000D02*
X13760000Y-9062000D01*
X13880000Y-9002000D02*
G75*
G02*
X13760000Y-9002000I-60000J0D01*
G01*
X13760000Y-9002000D02*
G75*
G02*
X13880000Y-9002000I60000J0D01*
G01*
X13760000Y-9450000D02*
X13880000Y-9570000D01*
X13880000Y-9450000D02*
X13760000Y-9570000D01*
X13880000Y-9510000D02*
G75*
G02*
X13760000Y-9510000I-60000J0D01*
G01*
X13760000Y-9510000D02*
G75*
G02*
X13880000Y-9510000I60000J0D01*
G01*
D13*
X14388000Y-10578000D02*
X14568000Y-10758000D01*
X14568000Y-10578000D02*
X14388000Y-10758000D01*
X14478000Y-10578000D02*
X14478000Y-10758000D01*
X14388000Y-10668000D02*
X14568000Y-10668000D01*
X14388000Y-11078000D02*
X14568000Y-11258000D01*
X14568000Y-11078000D02*
X14388000Y-11258000D01*
X14478000Y-11078000D02*
X14478000Y-11258000D01*
X14388000Y-11168000D02*
X14568000Y-11168000D01*
D11*
X5255777Y-15316484D02*
X5255777Y-15116484D01*
X5255777Y-15116484D02*
X5303396Y-15116484D01*
X5303396Y-15116484D02*
X5331967Y-15126008D01*
X5331967Y-15126008D02*
X5351015Y-15145055D01*
X5351015Y-15145055D02*
X5360539Y-15164103D01*
X5360539Y-15164103D02*
X5370063Y-15202198D01*
X5370063Y-15202198D02*
X5370063Y-15230769D01*
X5370063Y-15230769D02*
X5360539Y-15268865D01*
X5360539Y-15268865D02*
X5351015Y-15287912D01*
X5351015Y-15287912D02*
X5331967Y-15306960D01*
X5331967Y-15306960D02*
X5303396Y-15316484D01*
X5303396Y-15316484D02*
X5255777Y-15316484D01*
X5455777Y-15316484D02*
X5455777Y-15183150D01*
X5455777Y-15221246D02*
X5465301Y-15202198D01*
X5465301Y-15202198D02*
X5474824Y-15192674D01*
X5474824Y-15192674D02*
X5493872Y-15183150D01*
X5493872Y-15183150D02*
X5512920Y-15183150D01*
X5579586Y-15316484D02*
X5579586Y-15183150D01*
X5579586Y-15116484D02*
X5570063Y-15126008D01*
X5570063Y-15126008D02*
X5579586Y-15135531D01*
X5579586Y-15135531D02*
X5589110Y-15126008D01*
X5589110Y-15126008D02*
X5579586Y-15116484D01*
X5579586Y-15116484D02*
X5579586Y-15135531D01*
X5703396Y-15316484D02*
X5684348Y-15306960D01*
X5684348Y-15306960D02*
X5674824Y-15287912D01*
X5674824Y-15287912D02*
X5674824Y-15116484D01*
X5808158Y-15316484D02*
X5789110Y-15306960D01*
X5789110Y-15306960D02*
X5779586Y-15287912D01*
X5779586Y-15287912D02*
X5779586Y-15116484D01*
X6036729Y-15316484D02*
X6036729Y-15116484D01*
X6036729Y-15116484D02*
X6103396Y-15259341D01*
X6103396Y-15259341D02*
X6170062Y-15116484D01*
X6170062Y-15116484D02*
X6170062Y-15316484D01*
X6351015Y-15316484D02*
X6351015Y-15211722D01*
X6351015Y-15211722D02*
X6341491Y-15192674D01*
X6341491Y-15192674D02*
X6322443Y-15183150D01*
X6322443Y-15183150D02*
X6284348Y-15183150D01*
X6284348Y-15183150D02*
X6265301Y-15192674D01*
X6351015Y-15306960D02*
X6331967Y-15316484D01*
X6331967Y-15316484D02*
X6284348Y-15316484D01*
X6284348Y-15316484D02*
X6265301Y-15306960D01*
X6265301Y-15306960D02*
X6255777Y-15287912D01*
X6255777Y-15287912D02*
X6255777Y-15268865D01*
X6255777Y-15268865D02*
X6265301Y-15249817D01*
X6265301Y-15249817D02*
X6284348Y-15240293D01*
X6284348Y-15240293D02*
X6331967Y-15240293D01*
X6331967Y-15240293D02*
X6351015Y-15230769D01*
X6446253Y-15183150D02*
X6446253Y-15383150D01*
X6446253Y-15192674D02*
X6465301Y-15183150D01*
X6465301Y-15183150D02*
X6503396Y-15183150D01*
X6503396Y-15183150D02*
X6522443Y-15192674D01*
X6522443Y-15192674D02*
X6531967Y-15202198D01*
X6531967Y-15202198D02*
X6541491Y-15221246D01*
X6541491Y-15221246D02*
X6541491Y-15278388D01*
X6541491Y-15278388D02*
X6531967Y-15297436D01*
X6531967Y-15297436D02*
X6522443Y-15306960D01*
X6522443Y-15306960D02*
X6503396Y-15316484D01*
X6503396Y-15316484D02*
X6465301Y-15316484D01*
X6465301Y-15316484D02*
X6446253Y-15306960D01*
X6627205Y-15297436D02*
X6636729Y-15306960D01*
X6636729Y-15306960D02*
X6627205Y-15316484D01*
X6627205Y-15316484D02*
X6617682Y-15306960D01*
X6617682Y-15306960D02*
X6627205Y-15297436D01*
X6627205Y-15297436D02*
X6627205Y-15316484D01*
X6627205Y-15192674D02*
X6636729Y-15202198D01*
X6636729Y-15202198D02*
X6627205Y-15211722D01*
X6627205Y-15211722D02*
X6617682Y-15202198D01*
X6617682Y-15202198D02*
X6627205Y-15192674D01*
X6627205Y-15192674D02*
X6627205Y-15211722D01*
D10*
X4955000Y-15625000D02*
X4995000Y-15665000D01*
X4995000Y-15625000D02*
X4955000Y-15665000D01*
D11*
X5293872Y-15536484D02*
X5312920Y-15536484D01*
X5312920Y-15536484D02*
X5331967Y-15546008D01*
X5331967Y-15546008D02*
X5341491Y-15555531D01*
X5341491Y-15555531D02*
X5351015Y-15574579D01*
X5351015Y-15574579D02*
X5360539Y-15612674D01*
X5360539Y-15612674D02*
X5360539Y-15660293D01*
X5360539Y-15660293D02*
X5351015Y-15698388D01*
X5351015Y-15698388D02*
X5341491Y-15717436D01*
X5341491Y-15717436D02*
X5331967Y-15726960D01*
X5331967Y-15726960D02*
X5312920Y-15736484D01*
X5312920Y-15736484D02*
X5293872Y-15736484D01*
X5293872Y-15736484D02*
X5274824Y-15726960D01*
X5274824Y-15726960D02*
X5265301Y-15717436D01*
X5265301Y-15717436D02*
X5255777Y-15698388D01*
X5255777Y-15698388D02*
X5246253Y-15660293D01*
X5246253Y-15660293D02*
X5246253Y-15612674D01*
X5246253Y-15612674D02*
X5255777Y-15574579D01*
X5255777Y-15574579D02*
X5265301Y-15555531D01*
X5265301Y-15555531D02*
X5274824Y-15546008D01*
X5274824Y-15546008D02*
X5293872Y-15536484D01*
X5446253Y-15717436D02*
X5455777Y-15726960D01*
X5455777Y-15726960D02*
X5446253Y-15736484D01*
X5446253Y-15736484D02*
X5436729Y-15726960D01*
X5436729Y-15726960D02*
X5446253Y-15717436D01*
X5446253Y-15717436D02*
X5446253Y-15736484D01*
X5627205Y-15603150D02*
X5627205Y-15736484D01*
X5579586Y-15526960D02*
X5531967Y-15669817D01*
X5531967Y-15669817D02*
X5655777Y-15669817D01*
X5770062Y-15536484D02*
X5789110Y-15536484D01*
X5789110Y-15536484D02*
X5808158Y-15546008D01*
X5808158Y-15546008D02*
X5817682Y-15555531D01*
X5817682Y-15555531D02*
X5827205Y-15574579D01*
X5827205Y-15574579D02*
X5836729Y-15612674D01*
X5836729Y-15612674D02*
X5836729Y-15660293D01*
X5836729Y-15660293D02*
X5827205Y-15698388D01*
X5827205Y-15698388D02*
X5817682Y-15717436D01*
X5817682Y-15717436D02*
X5808158Y-15726960D01*
X5808158Y-15726960D02*
X5789110Y-15736484D01*
X5789110Y-15736484D02*
X5770062Y-15736484D01*
X5770062Y-15736484D02*
X5751015Y-15726960D01*
X5751015Y-15726960D02*
X5741491Y-15717436D01*
X5741491Y-15717436D02*
X5731967Y-15698388D01*
X5731967Y-15698388D02*
X5722443Y-15660293D01*
X5722443Y-15660293D02*
X5722443Y-15612674D01*
X5722443Y-15612674D02*
X5731967Y-15574579D01*
X5731967Y-15574579D02*
X5741491Y-15555531D01*
X5741491Y-15555531D02*
X5751015Y-15546008D01*
X5751015Y-15546008D02*
X5770062Y-15536484D01*
X5960539Y-15536484D02*
X5979586Y-15536484D01*
X5979586Y-15536484D02*
X5998634Y-15546008D01*
X5998634Y-15546008D02*
X6008158Y-15555531D01*
X6008158Y-15555531D02*
X6017682Y-15574579D01*
X6017682Y-15574579D02*
X6027205Y-15612674D01*
X6027205Y-15612674D02*
X6027205Y-15660293D01*
X6027205Y-15660293D02*
X6017682Y-15698388D01*
X6017682Y-15698388D02*
X6008158Y-15717436D01*
X6008158Y-15717436D02*
X5998634Y-15726960D01*
X5998634Y-15726960D02*
X5979586Y-15736484D01*
X5979586Y-15736484D02*
X5960539Y-15736484D01*
X5960539Y-15736484D02*
X5941491Y-15726960D01*
X5941491Y-15726960D02*
X5931967Y-15717436D01*
X5931967Y-15717436D02*
X5922443Y-15698388D01*
X5922443Y-15698388D02*
X5912920Y-15660293D01*
X5912920Y-15660293D02*
X5912920Y-15612674D01*
X5912920Y-15612674D02*
X5922443Y-15574579D01*
X5922443Y-15574579D02*
X5931967Y-15555531D01*
X5931967Y-15555531D02*
X5941491Y-15546008D01*
X5941491Y-15546008D02*
X5960539Y-15536484D01*
X6112920Y-15736484D02*
X6112920Y-15603150D01*
X6112920Y-15622198D02*
X6122443Y-15612674D01*
X6122443Y-15612674D02*
X6141491Y-15603150D01*
X6141491Y-15603150D02*
X6170063Y-15603150D01*
X6170063Y-15603150D02*
X6189110Y-15612674D01*
X6189110Y-15612674D02*
X6198634Y-15631722D01*
X6198634Y-15631722D02*
X6198634Y-15736484D01*
X6198634Y-15631722D02*
X6208158Y-15612674D01*
X6208158Y-15612674D02*
X6227205Y-15603150D01*
X6227205Y-15603150D02*
X6255777Y-15603150D01*
X6255777Y-15603150D02*
X6274824Y-15612674D01*
X6274824Y-15612674D02*
X6284348Y-15631722D01*
X6284348Y-15631722D02*
X6284348Y-15736484D01*
X6379586Y-15736484D02*
X6379586Y-15603150D01*
X6379586Y-15622198D02*
X6389110Y-15612674D01*
X6389110Y-15612674D02*
X6408158Y-15603150D01*
X6408158Y-15603150D02*
X6436729Y-15603150D01*
X6436729Y-15603150D02*
X6455777Y-15612674D01*
X6455777Y-15612674D02*
X6465301Y-15631722D01*
X6465301Y-15631722D02*
X6465301Y-15736484D01*
X6465301Y-15631722D02*
X6474824Y-15612674D01*
X6474824Y-15612674D02*
X6493872Y-15603150D01*
X6493872Y-15603150D02*
X6522443Y-15603150D01*
X6522443Y-15603150D02*
X6541491Y-15612674D01*
X6541491Y-15612674D02*
X6551015Y-15631722D01*
X6551015Y-15631722D02*
X6551015Y-15736484D01*
X6941491Y-15526960D02*
X6770063Y-15784103D01*
X7198634Y-15536484D02*
X7217682Y-15536484D01*
X7217682Y-15536484D02*
X7236729Y-15546008D01*
X7236729Y-15546008D02*
X7246253Y-15555531D01*
X7246253Y-15555531D02*
X7255777Y-15574579D01*
X7255777Y-15574579D02*
X7265301Y-15612674D01*
X7265301Y-15612674D02*
X7265301Y-15660293D01*
X7265301Y-15660293D02*
X7255777Y-15698388D01*
X7255777Y-15698388D02*
X7246253Y-15717436D01*
X7246253Y-15717436D02*
X7236729Y-15726960D01*
X7236729Y-15726960D02*
X7217682Y-15736484D01*
X7217682Y-15736484D02*
X7198634Y-15736484D01*
X7198634Y-15736484D02*
X7179586Y-15726960D01*
X7179586Y-15726960D02*
X7170063Y-15717436D01*
X7170063Y-15717436D02*
X7160539Y-15698388D01*
X7160539Y-15698388D02*
X7151015Y-15660293D01*
X7151015Y-15660293D02*
X7151015Y-15612674D01*
X7151015Y-15612674D02*
X7160539Y-15574579D01*
X7160539Y-15574579D02*
X7170063Y-15555531D01*
X7170063Y-15555531D02*
X7179586Y-15546008D01*
X7179586Y-15546008D02*
X7198634Y-15536484D01*
X7351015Y-15717436D02*
X7360539Y-15726960D01*
X7360539Y-15726960D02*
X7351015Y-15736484D01*
X7351015Y-15736484D02*
X7341491Y-15726960D01*
X7341491Y-15726960D02*
X7351015Y-15717436D01*
X7351015Y-15717436D02*
X7351015Y-15736484D01*
X7484348Y-15536484D02*
X7503396Y-15536484D01*
X7503396Y-15536484D02*
X7522444Y-15546008D01*
X7522444Y-15546008D02*
X7531967Y-15555531D01*
X7531967Y-15555531D02*
X7541491Y-15574579D01*
X7541491Y-15574579D02*
X7551015Y-15612674D01*
X7551015Y-15612674D02*
X7551015Y-15660293D01*
X7551015Y-15660293D02*
X7541491Y-15698388D01*
X7541491Y-15698388D02*
X7531967Y-15717436D01*
X7531967Y-15717436D02*
X7522444Y-15726960D01*
X7522444Y-15726960D02*
X7503396Y-15736484D01*
X7503396Y-15736484D02*
X7484348Y-15736484D01*
X7484348Y-15736484D02*
X7465301Y-15726960D01*
X7465301Y-15726960D02*
X7455777Y-15717436D01*
X7455777Y-15717436D02*
X7446253Y-15698388D01*
X7446253Y-15698388D02*
X7436729Y-15660293D01*
X7436729Y-15660293D02*
X7436729Y-15612674D01*
X7436729Y-15612674D02*
X7446253Y-15574579D01*
X7446253Y-15574579D02*
X7455777Y-15555531D01*
X7455777Y-15555531D02*
X7465301Y-15546008D01*
X7465301Y-15546008D02*
X7484348Y-15536484D01*
X7741491Y-15736484D02*
X7627206Y-15736484D01*
X7684348Y-15736484D02*
X7684348Y-15536484D01*
X7684348Y-15536484D02*
X7665301Y-15565055D01*
X7665301Y-15565055D02*
X7646253Y-15584103D01*
X7646253Y-15584103D02*
X7627206Y-15593627D01*
X7922444Y-15536484D02*
X7827206Y-15536484D01*
X7827206Y-15536484D02*
X7817682Y-15631722D01*
X7817682Y-15631722D02*
X7827206Y-15622198D01*
X7827206Y-15622198D02*
X7846253Y-15612674D01*
X7846253Y-15612674D02*
X7893872Y-15612674D01*
X7893872Y-15612674D02*
X7912920Y-15622198D01*
X7912920Y-15622198D02*
X7922444Y-15631722D01*
X7922444Y-15631722D02*
X7931967Y-15650769D01*
X7931967Y-15650769D02*
X7931967Y-15698388D01*
X7931967Y-15698388D02*
X7922444Y-15717436D01*
X7922444Y-15717436D02*
X7912920Y-15726960D01*
X7912920Y-15726960D02*
X7893872Y-15736484D01*
X7893872Y-15736484D02*
X7846253Y-15736484D01*
X7846253Y-15736484D02*
X7827206Y-15726960D01*
X7827206Y-15726960D02*
X7817682Y-15717436D01*
X7998634Y-15536484D02*
X8131967Y-15536484D01*
X8131967Y-15536484D02*
X8046253Y-15736484D01*
X8198634Y-15536484D02*
X8198634Y-15574579D01*
X8274825Y-15536484D02*
X8274825Y-15574579D01*
X8570063Y-15812674D02*
X8560539Y-15803150D01*
X8560539Y-15803150D02*
X8541491Y-15774579D01*
X8541491Y-15774579D02*
X8531968Y-15755531D01*
X8531968Y-15755531D02*
X8522444Y-15726960D01*
X8522444Y-15726960D02*
X8512920Y-15679341D01*
X8512920Y-15679341D02*
X8512920Y-15641246D01*
X8512920Y-15641246D02*
X8522444Y-15593627D01*
X8522444Y-15593627D02*
X8531968Y-15565055D01*
X8531968Y-15565055D02*
X8541491Y-15546008D01*
X8541491Y-15546008D02*
X8560539Y-15517436D01*
X8560539Y-15517436D02*
X8570063Y-15507912D01*
X8751015Y-15736484D02*
X8636730Y-15736484D01*
X8693872Y-15736484D02*
X8693872Y-15536484D01*
X8693872Y-15536484D02*
X8674825Y-15565055D01*
X8674825Y-15565055D02*
X8655777Y-15584103D01*
X8655777Y-15584103D02*
X8636730Y-15593627D01*
X8827206Y-15555531D02*
X8836730Y-15546008D01*
X8836730Y-15546008D02*
X8855777Y-15536484D01*
X8855777Y-15536484D02*
X8903396Y-15536484D01*
X8903396Y-15536484D02*
X8922444Y-15546008D01*
X8922444Y-15546008D02*
X8931968Y-15555531D01*
X8931968Y-15555531D02*
X8941491Y-15574579D01*
X8941491Y-15574579D02*
X8941491Y-15593627D01*
X8941491Y-15593627D02*
X8931968Y-15622198D01*
X8931968Y-15622198D02*
X8817682Y-15736484D01*
X8817682Y-15736484D02*
X8941491Y-15736484D01*
X9179587Y-15736484D02*
X9179587Y-15536484D01*
X9265301Y-15736484D02*
X9265301Y-15631722D01*
X9265301Y-15631722D02*
X9255777Y-15612674D01*
X9255777Y-15612674D02*
X9236730Y-15603150D01*
X9236730Y-15603150D02*
X9208158Y-15603150D01*
X9208158Y-15603150D02*
X9189111Y-15612674D01*
X9189111Y-15612674D02*
X9179587Y-15622198D01*
X9389111Y-15736484D02*
X9370063Y-15726960D01*
X9370063Y-15726960D02*
X9360539Y-15717436D01*
X9360539Y-15717436D02*
X9351015Y-15698388D01*
X9351015Y-15698388D02*
X9351015Y-15641246D01*
X9351015Y-15641246D02*
X9360539Y-15622198D01*
X9360539Y-15622198D02*
X9370063Y-15612674D01*
X9370063Y-15612674D02*
X9389111Y-15603150D01*
X9389111Y-15603150D02*
X9417682Y-15603150D01*
X9417682Y-15603150D02*
X9436730Y-15612674D01*
X9436730Y-15612674D02*
X9446253Y-15622198D01*
X9446253Y-15622198D02*
X9455777Y-15641246D01*
X9455777Y-15641246D02*
X9455777Y-15698388D01*
X9455777Y-15698388D02*
X9446253Y-15717436D01*
X9446253Y-15717436D02*
X9436730Y-15726960D01*
X9436730Y-15726960D02*
X9417682Y-15736484D01*
X9417682Y-15736484D02*
X9389111Y-15736484D01*
X9570063Y-15736484D02*
X9551015Y-15726960D01*
X9551015Y-15726960D02*
X9541492Y-15707912D01*
X9541492Y-15707912D02*
X9541492Y-15536484D01*
X9722444Y-15726960D02*
X9703396Y-15736484D01*
X9703396Y-15736484D02*
X9665301Y-15736484D01*
X9665301Y-15736484D02*
X9646253Y-15726960D01*
X9646253Y-15726960D02*
X9636730Y-15707912D01*
X9636730Y-15707912D02*
X9636730Y-15631722D01*
X9636730Y-15631722D02*
X9646253Y-15612674D01*
X9646253Y-15612674D02*
X9665301Y-15603150D01*
X9665301Y-15603150D02*
X9703396Y-15603150D01*
X9703396Y-15603150D02*
X9722444Y-15612674D01*
X9722444Y-15612674D02*
X9731968Y-15631722D01*
X9731968Y-15631722D02*
X9731968Y-15650769D01*
X9731968Y-15650769D02*
X9636730Y-15669817D01*
X9808158Y-15726960D02*
X9827206Y-15736484D01*
X9827206Y-15736484D02*
X9865301Y-15736484D01*
X9865301Y-15736484D02*
X9884349Y-15726960D01*
X9884349Y-15726960D02*
X9893873Y-15707912D01*
X9893873Y-15707912D02*
X9893873Y-15698388D01*
X9893873Y-15698388D02*
X9884349Y-15679341D01*
X9884349Y-15679341D02*
X9865301Y-15669817D01*
X9865301Y-15669817D02*
X9836730Y-15669817D01*
X9836730Y-15669817D02*
X9817682Y-15660293D01*
X9817682Y-15660293D02*
X9808158Y-15641246D01*
X9808158Y-15641246D02*
X9808158Y-15631722D01*
X9808158Y-15631722D02*
X9817682Y-15612674D01*
X9817682Y-15612674D02*
X9836730Y-15603150D01*
X9836730Y-15603150D02*
X9865301Y-15603150D01*
X9865301Y-15603150D02*
X9884349Y-15612674D01*
X9960539Y-15812674D02*
X9970063Y-15803150D01*
X9970063Y-15803150D02*
X9989111Y-15774579D01*
X9989111Y-15774579D02*
X9998634Y-15755531D01*
X9998634Y-15755531D02*
X10008158Y-15726960D01*
X10008158Y-15726960D02*
X10017682Y-15679341D01*
X10017682Y-15679341D02*
X10017682Y-15641246D01*
X10017682Y-15641246D02*
X10008158Y-15593627D01*
X10008158Y-15593627D02*
X9998634Y-15565055D01*
X9998634Y-15565055D02*
X9989111Y-15546008D01*
X9989111Y-15546008D02*
X9970063Y-15517436D01*
X9970063Y-15517436D02*
X9960539Y-15507912D01*
D10*
X4995000Y-15909000D02*
G75*
G02*
X4915000Y-15909000I-40000J0D01*
G01*
X4915000Y-15909000D02*
G75*
G02*
X4995000Y-15909000I40000J0D01*
G01*
D11*
X5293872Y-15800484D02*
X5312920Y-15800484D01*
X5312920Y-15800484D02*
X5331967Y-15810008D01*
X5331967Y-15810008D02*
X5341491Y-15819531D01*
X5341491Y-15819531D02*
X5351015Y-15838579D01*
X5351015Y-15838579D02*
X5360539Y-15876674D01*
X5360539Y-15876674D02*
X5360539Y-15924293D01*
X5360539Y-15924293D02*
X5351015Y-15962388D01*
X5351015Y-15962388D02*
X5341491Y-15981436D01*
X5341491Y-15981436D02*
X5331967Y-15990960D01*
X5331967Y-15990960D02*
X5312920Y-16000484D01*
X5312920Y-16000484D02*
X5293872Y-16000484D01*
X5293872Y-16000484D02*
X5274824Y-15990960D01*
X5274824Y-15990960D02*
X5265301Y-15981436D01*
X5265301Y-15981436D02*
X5255777Y-15962388D01*
X5255777Y-15962388D02*
X5246253Y-15924293D01*
X5246253Y-15924293D02*
X5246253Y-15876674D01*
X5246253Y-15876674D02*
X5255777Y-15838579D01*
X5255777Y-15838579D02*
X5265301Y-15819531D01*
X5265301Y-15819531D02*
X5274824Y-15810008D01*
X5274824Y-15810008D02*
X5293872Y-15800484D01*
X5446253Y-15981436D02*
X5455777Y-15990960D01*
X5455777Y-15990960D02*
X5446253Y-16000484D01*
X5446253Y-16000484D02*
X5436729Y-15990960D01*
X5436729Y-15990960D02*
X5446253Y-15981436D01*
X5446253Y-15981436D02*
X5446253Y-16000484D01*
X5570063Y-15886198D02*
X5551015Y-15876674D01*
X5551015Y-15876674D02*
X5541491Y-15867150D01*
X5541491Y-15867150D02*
X5531967Y-15848103D01*
X5531967Y-15848103D02*
X5531967Y-15838579D01*
X5531967Y-15838579D02*
X5541491Y-15819531D01*
X5541491Y-15819531D02*
X5551015Y-15810008D01*
X5551015Y-15810008D02*
X5570063Y-15800484D01*
X5570063Y-15800484D02*
X5608158Y-15800484D01*
X5608158Y-15800484D02*
X5627205Y-15810008D01*
X5627205Y-15810008D02*
X5636729Y-15819531D01*
X5636729Y-15819531D02*
X5646253Y-15838579D01*
X5646253Y-15838579D02*
X5646253Y-15848103D01*
X5646253Y-15848103D02*
X5636729Y-15867150D01*
X5636729Y-15867150D02*
X5627205Y-15876674D01*
X5627205Y-15876674D02*
X5608158Y-15886198D01*
X5608158Y-15886198D02*
X5570063Y-15886198D01*
X5570063Y-15886198D02*
X5551015Y-15895722D01*
X5551015Y-15895722D02*
X5541491Y-15905246D01*
X5541491Y-15905246D02*
X5531967Y-15924293D01*
X5531967Y-15924293D02*
X5531967Y-15962388D01*
X5531967Y-15962388D02*
X5541491Y-15981436D01*
X5541491Y-15981436D02*
X5551015Y-15990960D01*
X5551015Y-15990960D02*
X5570063Y-16000484D01*
X5570063Y-16000484D02*
X5608158Y-16000484D01*
X5608158Y-16000484D02*
X5627205Y-15990960D01*
X5627205Y-15990960D02*
X5636729Y-15981436D01*
X5636729Y-15981436D02*
X5646253Y-15962388D01*
X5646253Y-15962388D02*
X5646253Y-15924293D01*
X5646253Y-15924293D02*
X5636729Y-15905246D01*
X5636729Y-15905246D02*
X5627205Y-15895722D01*
X5627205Y-15895722D02*
X5608158Y-15886198D01*
X5770062Y-15800484D02*
X5789110Y-15800484D01*
X5789110Y-15800484D02*
X5808158Y-15810008D01*
X5808158Y-15810008D02*
X5817682Y-15819531D01*
X5817682Y-15819531D02*
X5827205Y-15838579D01*
X5827205Y-15838579D02*
X5836729Y-15876674D01*
X5836729Y-15876674D02*
X5836729Y-15924293D01*
X5836729Y-15924293D02*
X5827205Y-15962388D01*
X5827205Y-15962388D02*
X5817682Y-15981436D01*
X5817682Y-15981436D02*
X5808158Y-15990960D01*
X5808158Y-15990960D02*
X5789110Y-16000484D01*
X5789110Y-16000484D02*
X5770062Y-16000484D01*
X5770062Y-16000484D02*
X5751015Y-15990960D01*
X5751015Y-15990960D02*
X5741491Y-15981436D01*
X5741491Y-15981436D02*
X5731967Y-15962388D01*
X5731967Y-15962388D02*
X5722443Y-15924293D01*
X5722443Y-15924293D02*
X5722443Y-15876674D01*
X5722443Y-15876674D02*
X5731967Y-15838579D01*
X5731967Y-15838579D02*
X5741491Y-15819531D01*
X5741491Y-15819531D02*
X5751015Y-15810008D01*
X5751015Y-15810008D02*
X5770062Y-15800484D01*
X5960539Y-15800484D02*
X5979586Y-15800484D01*
X5979586Y-15800484D02*
X5998634Y-15810008D01*
X5998634Y-15810008D02*
X6008158Y-15819531D01*
X6008158Y-15819531D02*
X6017682Y-15838579D01*
X6017682Y-15838579D02*
X6027205Y-15876674D01*
X6027205Y-15876674D02*
X6027205Y-15924293D01*
X6027205Y-15924293D02*
X6017682Y-15962388D01*
X6017682Y-15962388D02*
X6008158Y-15981436D01*
X6008158Y-15981436D02*
X5998634Y-15990960D01*
X5998634Y-15990960D02*
X5979586Y-16000484D01*
X5979586Y-16000484D02*
X5960539Y-16000484D01*
X5960539Y-16000484D02*
X5941491Y-15990960D01*
X5941491Y-15990960D02*
X5931967Y-15981436D01*
X5931967Y-15981436D02*
X5922443Y-15962388D01*
X5922443Y-15962388D02*
X5912920Y-15924293D01*
X5912920Y-15924293D02*
X5912920Y-15876674D01*
X5912920Y-15876674D02*
X5922443Y-15838579D01*
X5922443Y-15838579D02*
X5931967Y-15819531D01*
X5931967Y-15819531D02*
X5941491Y-15810008D01*
X5941491Y-15810008D02*
X5960539Y-15800484D01*
X6112920Y-16000484D02*
X6112920Y-15867150D01*
X6112920Y-15886198D02*
X6122443Y-15876674D01*
X6122443Y-15876674D02*
X6141491Y-15867150D01*
X6141491Y-15867150D02*
X6170063Y-15867150D01*
X6170063Y-15867150D02*
X6189110Y-15876674D01*
X6189110Y-15876674D02*
X6198634Y-15895722D01*
X6198634Y-15895722D02*
X6198634Y-16000484D01*
X6198634Y-15895722D02*
X6208158Y-15876674D01*
X6208158Y-15876674D02*
X6227205Y-15867150D01*
X6227205Y-15867150D02*
X6255777Y-15867150D01*
X6255777Y-15867150D02*
X6274824Y-15876674D01*
X6274824Y-15876674D02*
X6284348Y-15895722D01*
X6284348Y-15895722D02*
X6284348Y-16000484D01*
X6379586Y-16000484D02*
X6379586Y-15867150D01*
X6379586Y-15886198D02*
X6389110Y-15876674D01*
X6389110Y-15876674D02*
X6408158Y-15867150D01*
X6408158Y-15867150D02*
X6436729Y-15867150D01*
X6436729Y-15867150D02*
X6455777Y-15876674D01*
X6455777Y-15876674D02*
X6465301Y-15895722D01*
X6465301Y-15895722D02*
X6465301Y-16000484D01*
X6465301Y-15895722D02*
X6474824Y-15876674D01*
X6474824Y-15876674D02*
X6493872Y-15867150D01*
X6493872Y-15867150D02*
X6522443Y-15867150D01*
X6522443Y-15867150D02*
X6541491Y-15876674D01*
X6541491Y-15876674D02*
X6551015Y-15895722D01*
X6551015Y-15895722D02*
X6551015Y-16000484D01*
X6941491Y-15790960D02*
X6770063Y-16048103D01*
X7198634Y-15800484D02*
X7217682Y-15800484D01*
X7217682Y-15800484D02*
X7236729Y-15810008D01*
X7236729Y-15810008D02*
X7246253Y-15819531D01*
X7246253Y-15819531D02*
X7255777Y-15838579D01*
X7255777Y-15838579D02*
X7265301Y-15876674D01*
X7265301Y-15876674D02*
X7265301Y-15924293D01*
X7265301Y-15924293D02*
X7255777Y-15962388D01*
X7255777Y-15962388D02*
X7246253Y-15981436D01*
X7246253Y-15981436D02*
X7236729Y-15990960D01*
X7236729Y-15990960D02*
X7217682Y-16000484D01*
X7217682Y-16000484D02*
X7198634Y-16000484D01*
X7198634Y-16000484D02*
X7179586Y-15990960D01*
X7179586Y-15990960D02*
X7170063Y-15981436D01*
X7170063Y-15981436D02*
X7160539Y-15962388D01*
X7160539Y-15962388D02*
X7151015Y-15924293D01*
X7151015Y-15924293D02*
X7151015Y-15876674D01*
X7151015Y-15876674D02*
X7160539Y-15838579D01*
X7160539Y-15838579D02*
X7170063Y-15819531D01*
X7170063Y-15819531D02*
X7179586Y-15810008D01*
X7179586Y-15810008D02*
X7198634Y-15800484D01*
X7351015Y-15981436D02*
X7360539Y-15990960D01*
X7360539Y-15990960D02*
X7351015Y-16000484D01*
X7351015Y-16000484D02*
X7341491Y-15990960D01*
X7341491Y-15990960D02*
X7351015Y-15981436D01*
X7351015Y-15981436D02*
X7351015Y-16000484D01*
X7484348Y-15800484D02*
X7503396Y-15800484D01*
X7503396Y-15800484D02*
X7522444Y-15810008D01*
X7522444Y-15810008D02*
X7531967Y-15819531D01*
X7531967Y-15819531D02*
X7541491Y-15838579D01*
X7541491Y-15838579D02*
X7551015Y-15876674D01*
X7551015Y-15876674D02*
X7551015Y-15924293D01*
X7551015Y-15924293D02*
X7541491Y-15962388D01*
X7541491Y-15962388D02*
X7531967Y-15981436D01*
X7531967Y-15981436D02*
X7522444Y-15990960D01*
X7522444Y-15990960D02*
X7503396Y-16000484D01*
X7503396Y-16000484D02*
X7484348Y-16000484D01*
X7484348Y-16000484D02*
X7465301Y-15990960D01*
X7465301Y-15990960D02*
X7455777Y-15981436D01*
X7455777Y-15981436D02*
X7446253Y-15962388D01*
X7446253Y-15962388D02*
X7436729Y-15924293D01*
X7436729Y-15924293D02*
X7436729Y-15876674D01*
X7436729Y-15876674D02*
X7446253Y-15838579D01*
X7446253Y-15838579D02*
X7455777Y-15819531D01*
X7455777Y-15819531D02*
X7465301Y-15810008D01*
X7465301Y-15810008D02*
X7484348Y-15800484D01*
X7617682Y-15800484D02*
X7741491Y-15800484D01*
X7741491Y-15800484D02*
X7674825Y-15876674D01*
X7674825Y-15876674D02*
X7703396Y-15876674D01*
X7703396Y-15876674D02*
X7722444Y-15886198D01*
X7722444Y-15886198D02*
X7731967Y-15895722D01*
X7731967Y-15895722D02*
X7741491Y-15914769D01*
X7741491Y-15914769D02*
X7741491Y-15962388D01*
X7741491Y-15962388D02*
X7731967Y-15981436D01*
X7731967Y-15981436D02*
X7722444Y-15990960D01*
X7722444Y-15990960D02*
X7703396Y-16000484D01*
X7703396Y-16000484D02*
X7646253Y-16000484D01*
X7646253Y-16000484D02*
X7627206Y-15990960D01*
X7627206Y-15990960D02*
X7617682Y-15981436D01*
X7931967Y-16000484D02*
X7817682Y-16000484D01*
X7874825Y-16000484D02*
X7874825Y-15800484D01*
X7874825Y-15800484D02*
X7855777Y-15829055D01*
X7855777Y-15829055D02*
X7836729Y-15848103D01*
X7836729Y-15848103D02*
X7817682Y-15857627D01*
X8112920Y-15800484D02*
X8017682Y-15800484D01*
X8017682Y-15800484D02*
X8008158Y-15895722D01*
X8008158Y-15895722D02*
X8017682Y-15886198D01*
X8017682Y-15886198D02*
X8036729Y-15876674D01*
X8036729Y-15876674D02*
X8084348Y-15876674D01*
X8084348Y-15876674D02*
X8103396Y-15886198D01*
X8103396Y-15886198D02*
X8112920Y-15895722D01*
X8112920Y-15895722D02*
X8122444Y-15914769D01*
X8122444Y-15914769D02*
X8122444Y-15962388D01*
X8122444Y-15962388D02*
X8112920Y-15981436D01*
X8112920Y-15981436D02*
X8103396Y-15990960D01*
X8103396Y-15990960D02*
X8084348Y-16000484D01*
X8084348Y-16000484D02*
X8036729Y-16000484D01*
X8036729Y-16000484D02*
X8017682Y-15990960D01*
X8017682Y-15990960D02*
X8008158Y-15981436D01*
X8198634Y-15800484D02*
X8198634Y-15838579D01*
X8274825Y-15800484D02*
X8274825Y-15838579D01*
X8570063Y-16076674D02*
X8560539Y-16067150D01*
X8560539Y-16067150D02*
X8541491Y-16038579D01*
X8541491Y-16038579D02*
X8531968Y-16019531D01*
X8531968Y-16019531D02*
X8522444Y-15990960D01*
X8522444Y-15990960D02*
X8512920Y-15943341D01*
X8512920Y-15943341D02*
X8512920Y-15905246D01*
X8512920Y-15905246D02*
X8522444Y-15857627D01*
X8522444Y-15857627D02*
X8531968Y-15829055D01*
X8531968Y-15829055D02*
X8541491Y-15810008D01*
X8541491Y-15810008D02*
X8560539Y-15781436D01*
X8560539Y-15781436D02*
X8570063Y-15771912D01*
X8751015Y-16000484D02*
X8636730Y-16000484D01*
X8693872Y-16000484D02*
X8693872Y-15800484D01*
X8693872Y-15800484D02*
X8674825Y-15829055D01*
X8674825Y-15829055D02*
X8655777Y-15848103D01*
X8655777Y-15848103D02*
X8636730Y-15857627D01*
X8922444Y-15867150D02*
X8922444Y-16000484D01*
X8874825Y-15790960D02*
X8827206Y-15933817D01*
X8827206Y-15933817D02*
X8951015Y-15933817D01*
X9179587Y-16000484D02*
X9179587Y-15800484D01*
X9265301Y-16000484D02*
X9265301Y-15895722D01*
X9265301Y-15895722D02*
X9255777Y-15876674D01*
X9255777Y-15876674D02*
X9236730Y-15867150D01*
X9236730Y-15867150D02*
X9208158Y-15867150D01*
X9208158Y-15867150D02*
X9189111Y-15876674D01*
X9189111Y-15876674D02*
X9179587Y-15886198D01*
X9389111Y-16000484D02*
X9370063Y-15990960D01*
X9370063Y-15990960D02*
X9360539Y-15981436D01*
X9360539Y-15981436D02*
X9351015Y-15962388D01*
X9351015Y-15962388D02*
X9351015Y-15905246D01*
X9351015Y-15905246D02*
X9360539Y-15886198D01*
X9360539Y-15886198D02*
X9370063Y-15876674D01*
X9370063Y-15876674D02*
X9389111Y-15867150D01*
X9389111Y-15867150D02*
X9417682Y-15867150D01*
X9417682Y-15867150D02*
X9436730Y-15876674D01*
X9436730Y-15876674D02*
X9446253Y-15886198D01*
X9446253Y-15886198D02*
X9455777Y-15905246D01*
X9455777Y-15905246D02*
X9455777Y-15962388D01*
X9455777Y-15962388D02*
X9446253Y-15981436D01*
X9446253Y-15981436D02*
X9436730Y-15990960D01*
X9436730Y-15990960D02*
X9417682Y-16000484D01*
X9417682Y-16000484D02*
X9389111Y-16000484D01*
X9570063Y-16000484D02*
X9551015Y-15990960D01*
X9551015Y-15990960D02*
X9541492Y-15971912D01*
X9541492Y-15971912D02*
X9541492Y-15800484D01*
X9722444Y-15990960D02*
X9703396Y-16000484D01*
X9703396Y-16000484D02*
X9665301Y-16000484D01*
X9665301Y-16000484D02*
X9646253Y-15990960D01*
X9646253Y-15990960D02*
X9636730Y-15971912D01*
X9636730Y-15971912D02*
X9636730Y-15895722D01*
X9636730Y-15895722D02*
X9646253Y-15876674D01*
X9646253Y-15876674D02*
X9665301Y-15867150D01*
X9665301Y-15867150D02*
X9703396Y-15867150D01*
X9703396Y-15867150D02*
X9722444Y-15876674D01*
X9722444Y-15876674D02*
X9731968Y-15895722D01*
X9731968Y-15895722D02*
X9731968Y-15914769D01*
X9731968Y-15914769D02*
X9636730Y-15933817D01*
X9808158Y-15990960D02*
X9827206Y-16000484D01*
X9827206Y-16000484D02*
X9865301Y-16000484D01*
X9865301Y-16000484D02*
X9884349Y-15990960D01*
X9884349Y-15990960D02*
X9893873Y-15971912D01*
X9893873Y-15971912D02*
X9893873Y-15962388D01*
X9893873Y-15962388D02*
X9884349Y-15943341D01*
X9884349Y-15943341D02*
X9865301Y-15933817D01*
X9865301Y-15933817D02*
X9836730Y-15933817D01*
X9836730Y-15933817D02*
X9817682Y-15924293D01*
X9817682Y-15924293D02*
X9808158Y-15905246D01*
X9808158Y-15905246D02*
X9808158Y-15895722D01*
X9808158Y-15895722D02*
X9817682Y-15876674D01*
X9817682Y-15876674D02*
X9836730Y-15867150D01*
X9836730Y-15867150D02*
X9865301Y-15867150D01*
X9865301Y-15867150D02*
X9884349Y-15876674D01*
X9960539Y-16076674D02*
X9970063Y-16067150D01*
X9970063Y-16067150D02*
X9989111Y-16038579D01*
X9989111Y-16038579D02*
X9998634Y-16019531D01*
X9998634Y-16019531D02*
X10008158Y-15990960D01*
X10008158Y-15990960D02*
X10017682Y-15943341D01*
X10017682Y-15943341D02*
X10017682Y-15905246D01*
X10017682Y-15905246D02*
X10008158Y-15857627D01*
X10008158Y-15857627D02*
X9998634Y-15829055D01*
X9998634Y-15829055D02*
X9989111Y-15810008D01*
X9989111Y-15810008D02*
X9970063Y-15781436D01*
X9970063Y-15781436D02*
X9960539Y-15771912D01*
D10*
X4955000Y-16133000D02*
X4955000Y-16213000D01*
X4915000Y-16173000D02*
X4995000Y-16173000D01*
D11*
X5293872Y-16064484D02*
X5312920Y-16064484D01*
X5312920Y-16064484D02*
X5331967Y-16074008D01*
X5331967Y-16074008D02*
X5341491Y-16083531D01*
X5341491Y-16083531D02*
X5351015Y-16102579D01*
X5351015Y-16102579D02*
X5360539Y-16140674D01*
X5360539Y-16140674D02*
X5360539Y-16188293D01*
X5360539Y-16188293D02*
X5351015Y-16226388D01*
X5351015Y-16226388D02*
X5341491Y-16245436D01*
X5341491Y-16245436D02*
X5331967Y-16254960D01*
X5331967Y-16254960D02*
X5312920Y-16264484D01*
X5312920Y-16264484D02*
X5293872Y-16264484D01*
X5293872Y-16264484D02*
X5274824Y-16254960D01*
X5274824Y-16254960D02*
X5265301Y-16245436D01*
X5265301Y-16245436D02*
X5255777Y-16226388D01*
X5255777Y-16226388D02*
X5246253Y-16188293D01*
X5246253Y-16188293D02*
X5246253Y-16140674D01*
X5246253Y-16140674D02*
X5255777Y-16102579D01*
X5255777Y-16102579D02*
X5265301Y-16083531D01*
X5265301Y-16083531D02*
X5274824Y-16074008D01*
X5274824Y-16074008D02*
X5293872Y-16064484D01*
X5446253Y-16245436D02*
X5455777Y-16254960D01*
X5455777Y-16254960D02*
X5446253Y-16264484D01*
X5446253Y-16264484D02*
X5436729Y-16254960D01*
X5436729Y-16254960D02*
X5446253Y-16245436D01*
X5446253Y-16245436D02*
X5446253Y-16264484D01*
X5570063Y-16150198D02*
X5551015Y-16140674D01*
X5551015Y-16140674D02*
X5541491Y-16131150D01*
X5541491Y-16131150D02*
X5531967Y-16112103D01*
X5531967Y-16112103D02*
X5531967Y-16102579D01*
X5531967Y-16102579D02*
X5541491Y-16083531D01*
X5541491Y-16083531D02*
X5551015Y-16074008D01*
X5551015Y-16074008D02*
X5570063Y-16064484D01*
X5570063Y-16064484D02*
X5608158Y-16064484D01*
X5608158Y-16064484D02*
X5627205Y-16074008D01*
X5627205Y-16074008D02*
X5636729Y-16083531D01*
X5636729Y-16083531D02*
X5646253Y-16102579D01*
X5646253Y-16102579D02*
X5646253Y-16112103D01*
X5646253Y-16112103D02*
X5636729Y-16131150D01*
X5636729Y-16131150D02*
X5627205Y-16140674D01*
X5627205Y-16140674D02*
X5608158Y-16150198D01*
X5608158Y-16150198D02*
X5570063Y-16150198D01*
X5570063Y-16150198D02*
X5551015Y-16159722D01*
X5551015Y-16159722D02*
X5541491Y-16169246D01*
X5541491Y-16169246D02*
X5531967Y-16188293D01*
X5531967Y-16188293D02*
X5531967Y-16226388D01*
X5531967Y-16226388D02*
X5541491Y-16245436D01*
X5541491Y-16245436D02*
X5551015Y-16254960D01*
X5551015Y-16254960D02*
X5570063Y-16264484D01*
X5570063Y-16264484D02*
X5608158Y-16264484D01*
X5608158Y-16264484D02*
X5627205Y-16254960D01*
X5627205Y-16254960D02*
X5636729Y-16245436D01*
X5636729Y-16245436D02*
X5646253Y-16226388D01*
X5646253Y-16226388D02*
X5646253Y-16188293D01*
X5646253Y-16188293D02*
X5636729Y-16169246D01*
X5636729Y-16169246D02*
X5627205Y-16159722D01*
X5627205Y-16159722D02*
X5608158Y-16150198D01*
X5770062Y-16064484D02*
X5789110Y-16064484D01*
X5789110Y-16064484D02*
X5808158Y-16074008D01*
X5808158Y-16074008D02*
X5817682Y-16083531D01*
X5817682Y-16083531D02*
X5827205Y-16102579D01*
X5827205Y-16102579D02*
X5836729Y-16140674D01*
X5836729Y-16140674D02*
X5836729Y-16188293D01*
X5836729Y-16188293D02*
X5827205Y-16226388D01*
X5827205Y-16226388D02*
X5817682Y-16245436D01*
X5817682Y-16245436D02*
X5808158Y-16254960D01*
X5808158Y-16254960D02*
X5789110Y-16264484D01*
X5789110Y-16264484D02*
X5770062Y-16264484D01*
X5770062Y-16264484D02*
X5751015Y-16254960D01*
X5751015Y-16254960D02*
X5741491Y-16245436D01*
X5741491Y-16245436D02*
X5731967Y-16226388D01*
X5731967Y-16226388D02*
X5722443Y-16188293D01*
X5722443Y-16188293D02*
X5722443Y-16140674D01*
X5722443Y-16140674D02*
X5731967Y-16102579D01*
X5731967Y-16102579D02*
X5741491Y-16083531D01*
X5741491Y-16083531D02*
X5751015Y-16074008D01*
X5751015Y-16074008D02*
X5770062Y-16064484D01*
X5960539Y-16064484D02*
X5979586Y-16064484D01*
X5979586Y-16064484D02*
X5998634Y-16074008D01*
X5998634Y-16074008D02*
X6008158Y-16083531D01*
X6008158Y-16083531D02*
X6017682Y-16102579D01*
X6017682Y-16102579D02*
X6027205Y-16140674D01*
X6027205Y-16140674D02*
X6027205Y-16188293D01*
X6027205Y-16188293D02*
X6017682Y-16226388D01*
X6017682Y-16226388D02*
X6008158Y-16245436D01*
X6008158Y-16245436D02*
X5998634Y-16254960D01*
X5998634Y-16254960D02*
X5979586Y-16264484D01*
X5979586Y-16264484D02*
X5960539Y-16264484D01*
X5960539Y-16264484D02*
X5941491Y-16254960D01*
X5941491Y-16254960D02*
X5931967Y-16245436D01*
X5931967Y-16245436D02*
X5922443Y-16226388D01*
X5922443Y-16226388D02*
X5912920Y-16188293D01*
X5912920Y-16188293D02*
X5912920Y-16140674D01*
X5912920Y-16140674D02*
X5922443Y-16102579D01*
X5922443Y-16102579D02*
X5931967Y-16083531D01*
X5931967Y-16083531D02*
X5941491Y-16074008D01*
X5941491Y-16074008D02*
X5960539Y-16064484D01*
X6112920Y-16264484D02*
X6112920Y-16131150D01*
X6112920Y-16150198D02*
X6122443Y-16140674D01*
X6122443Y-16140674D02*
X6141491Y-16131150D01*
X6141491Y-16131150D02*
X6170063Y-16131150D01*
X6170063Y-16131150D02*
X6189110Y-16140674D01*
X6189110Y-16140674D02*
X6198634Y-16159722D01*
X6198634Y-16159722D02*
X6198634Y-16264484D01*
X6198634Y-16159722D02*
X6208158Y-16140674D01*
X6208158Y-16140674D02*
X6227205Y-16131150D01*
X6227205Y-16131150D02*
X6255777Y-16131150D01*
X6255777Y-16131150D02*
X6274824Y-16140674D01*
X6274824Y-16140674D02*
X6284348Y-16159722D01*
X6284348Y-16159722D02*
X6284348Y-16264484D01*
X6379586Y-16264484D02*
X6379586Y-16131150D01*
X6379586Y-16150198D02*
X6389110Y-16140674D01*
X6389110Y-16140674D02*
X6408158Y-16131150D01*
X6408158Y-16131150D02*
X6436729Y-16131150D01*
X6436729Y-16131150D02*
X6455777Y-16140674D01*
X6455777Y-16140674D02*
X6465301Y-16159722D01*
X6465301Y-16159722D02*
X6465301Y-16264484D01*
X6465301Y-16159722D02*
X6474824Y-16140674D01*
X6474824Y-16140674D02*
X6493872Y-16131150D01*
X6493872Y-16131150D02*
X6522443Y-16131150D01*
X6522443Y-16131150D02*
X6541491Y-16140674D01*
X6541491Y-16140674D02*
X6551015Y-16159722D01*
X6551015Y-16159722D02*
X6551015Y-16264484D01*
X6941491Y-16054960D02*
X6770063Y-16312103D01*
X7198634Y-16064484D02*
X7217682Y-16064484D01*
X7217682Y-16064484D02*
X7236729Y-16074008D01*
X7236729Y-16074008D02*
X7246253Y-16083531D01*
X7246253Y-16083531D02*
X7255777Y-16102579D01*
X7255777Y-16102579D02*
X7265301Y-16140674D01*
X7265301Y-16140674D02*
X7265301Y-16188293D01*
X7265301Y-16188293D02*
X7255777Y-16226388D01*
X7255777Y-16226388D02*
X7246253Y-16245436D01*
X7246253Y-16245436D02*
X7236729Y-16254960D01*
X7236729Y-16254960D02*
X7217682Y-16264484D01*
X7217682Y-16264484D02*
X7198634Y-16264484D01*
X7198634Y-16264484D02*
X7179586Y-16254960D01*
X7179586Y-16254960D02*
X7170063Y-16245436D01*
X7170063Y-16245436D02*
X7160539Y-16226388D01*
X7160539Y-16226388D02*
X7151015Y-16188293D01*
X7151015Y-16188293D02*
X7151015Y-16140674D01*
X7151015Y-16140674D02*
X7160539Y-16102579D01*
X7160539Y-16102579D02*
X7170063Y-16083531D01*
X7170063Y-16083531D02*
X7179586Y-16074008D01*
X7179586Y-16074008D02*
X7198634Y-16064484D01*
X7351015Y-16245436D02*
X7360539Y-16254960D01*
X7360539Y-16254960D02*
X7351015Y-16264484D01*
X7351015Y-16264484D02*
X7341491Y-16254960D01*
X7341491Y-16254960D02*
X7351015Y-16245436D01*
X7351015Y-16245436D02*
X7351015Y-16264484D01*
X7484348Y-16064484D02*
X7503396Y-16064484D01*
X7503396Y-16064484D02*
X7522444Y-16074008D01*
X7522444Y-16074008D02*
X7531967Y-16083531D01*
X7531967Y-16083531D02*
X7541491Y-16102579D01*
X7541491Y-16102579D02*
X7551015Y-16140674D01*
X7551015Y-16140674D02*
X7551015Y-16188293D01*
X7551015Y-16188293D02*
X7541491Y-16226388D01*
X7541491Y-16226388D02*
X7531967Y-16245436D01*
X7531967Y-16245436D02*
X7522444Y-16254960D01*
X7522444Y-16254960D02*
X7503396Y-16264484D01*
X7503396Y-16264484D02*
X7484348Y-16264484D01*
X7484348Y-16264484D02*
X7465301Y-16254960D01*
X7465301Y-16254960D02*
X7455777Y-16245436D01*
X7455777Y-16245436D02*
X7446253Y-16226388D01*
X7446253Y-16226388D02*
X7436729Y-16188293D01*
X7436729Y-16188293D02*
X7436729Y-16140674D01*
X7436729Y-16140674D02*
X7446253Y-16102579D01*
X7446253Y-16102579D02*
X7455777Y-16083531D01*
X7455777Y-16083531D02*
X7465301Y-16074008D01*
X7465301Y-16074008D02*
X7484348Y-16064484D01*
X7617682Y-16064484D02*
X7741491Y-16064484D01*
X7741491Y-16064484D02*
X7674825Y-16140674D01*
X7674825Y-16140674D02*
X7703396Y-16140674D01*
X7703396Y-16140674D02*
X7722444Y-16150198D01*
X7722444Y-16150198D02*
X7731967Y-16159722D01*
X7731967Y-16159722D02*
X7741491Y-16178769D01*
X7741491Y-16178769D02*
X7741491Y-16226388D01*
X7741491Y-16226388D02*
X7731967Y-16245436D01*
X7731967Y-16245436D02*
X7722444Y-16254960D01*
X7722444Y-16254960D02*
X7703396Y-16264484D01*
X7703396Y-16264484D02*
X7646253Y-16264484D01*
X7646253Y-16264484D02*
X7627206Y-16254960D01*
X7627206Y-16254960D02*
X7617682Y-16245436D01*
X7931967Y-16264484D02*
X7817682Y-16264484D01*
X7874825Y-16264484D02*
X7874825Y-16064484D01*
X7874825Y-16064484D02*
X7855777Y-16093055D01*
X7855777Y-16093055D02*
X7836729Y-16112103D01*
X7836729Y-16112103D02*
X7817682Y-16121627D01*
X8112920Y-16064484D02*
X8017682Y-16064484D01*
X8017682Y-16064484D02*
X8008158Y-16159722D01*
X8008158Y-16159722D02*
X8017682Y-16150198D01*
X8017682Y-16150198D02*
X8036729Y-16140674D01*
X8036729Y-16140674D02*
X8084348Y-16140674D01*
X8084348Y-16140674D02*
X8103396Y-16150198D01*
X8103396Y-16150198D02*
X8112920Y-16159722D01*
X8112920Y-16159722D02*
X8122444Y-16178769D01*
X8122444Y-16178769D02*
X8122444Y-16226388D01*
X8122444Y-16226388D02*
X8112920Y-16245436D01*
X8112920Y-16245436D02*
X8103396Y-16254960D01*
X8103396Y-16254960D02*
X8084348Y-16264484D01*
X8084348Y-16264484D02*
X8036729Y-16264484D01*
X8036729Y-16264484D02*
X8017682Y-16254960D01*
X8017682Y-16254960D02*
X8008158Y-16245436D01*
X8198634Y-16064484D02*
X8198634Y-16102579D01*
X8274825Y-16064484D02*
X8274825Y-16102579D01*
X8570063Y-16340674D02*
X8560539Y-16331150D01*
X8560539Y-16331150D02*
X8541491Y-16302579D01*
X8541491Y-16302579D02*
X8531968Y-16283531D01*
X8531968Y-16283531D02*
X8522444Y-16254960D01*
X8522444Y-16254960D02*
X8512920Y-16207341D01*
X8512920Y-16207341D02*
X8512920Y-16169246D01*
X8512920Y-16169246D02*
X8522444Y-16121627D01*
X8522444Y-16121627D02*
X8531968Y-16093055D01*
X8531968Y-16093055D02*
X8541491Y-16074008D01*
X8541491Y-16074008D02*
X8560539Y-16045436D01*
X8560539Y-16045436D02*
X8570063Y-16035912D01*
X8751015Y-16264484D02*
X8636730Y-16264484D01*
X8693872Y-16264484D02*
X8693872Y-16064484D01*
X8693872Y-16064484D02*
X8674825Y-16093055D01*
X8674825Y-16093055D02*
X8655777Y-16112103D01*
X8655777Y-16112103D02*
X8636730Y-16121627D01*
X8922444Y-16064484D02*
X8884349Y-16064484D01*
X8884349Y-16064484D02*
X8865301Y-16074008D01*
X8865301Y-16074008D02*
X8855777Y-16083531D01*
X8855777Y-16083531D02*
X8836730Y-16112103D01*
X8836730Y-16112103D02*
X8827206Y-16150198D01*
X8827206Y-16150198D02*
X8827206Y-16226388D01*
X8827206Y-16226388D02*
X8836730Y-16245436D01*
X8836730Y-16245436D02*
X8846253Y-16254960D01*
X8846253Y-16254960D02*
X8865301Y-16264484D01*
X8865301Y-16264484D02*
X8903396Y-16264484D01*
X8903396Y-16264484D02*
X8922444Y-16254960D01*
X8922444Y-16254960D02*
X8931968Y-16245436D01*
X8931968Y-16245436D02*
X8941491Y-16226388D01*
X8941491Y-16226388D02*
X8941491Y-16178769D01*
X8941491Y-16178769D02*
X8931968Y-16159722D01*
X8931968Y-16159722D02*
X8922444Y-16150198D01*
X8922444Y-16150198D02*
X8903396Y-16140674D01*
X8903396Y-16140674D02*
X8865301Y-16140674D01*
X8865301Y-16140674D02*
X8846253Y-16150198D01*
X8846253Y-16150198D02*
X8836730Y-16159722D01*
X8836730Y-16159722D02*
X8827206Y-16178769D01*
X9179587Y-16264484D02*
X9179587Y-16064484D01*
X9265301Y-16264484D02*
X9265301Y-16159722D01*
X9265301Y-16159722D02*
X9255777Y-16140674D01*
X9255777Y-16140674D02*
X9236730Y-16131150D01*
X9236730Y-16131150D02*
X9208158Y-16131150D01*
X9208158Y-16131150D02*
X9189111Y-16140674D01*
X9189111Y-16140674D02*
X9179587Y-16150198D01*
X9389111Y-16264484D02*
X9370063Y-16254960D01*
X9370063Y-16254960D02*
X9360539Y-16245436D01*
X9360539Y-16245436D02*
X9351015Y-16226388D01*
X9351015Y-16226388D02*
X9351015Y-16169246D01*
X9351015Y-16169246D02*
X9360539Y-16150198D01*
X9360539Y-16150198D02*
X9370063Y-16140674D01*
X9370063Y-16140674D02*
X9389111Y-16131150D01*
X9389111Y-16131150D02*
X9417682Y-16131150D01*
X9417682Y-16131150D02*
X9436730Y-16140674D01*
X9436730Y-16140674D02*
X9446253Y-16150198D01*
X9446253Y-16150198D02*
X9455777Y-16169246D01*
X9455777Y-16169246D02*
X9455777Y-16226388D01*
X9455777Y-16226388D02*
X9446253Y-16245436D01*
X9446253Y-16245436D02*
X9436730Y-16254960D01*
X9436730Y-16254960D02*
X9417682Y-16264484D01*
X9417682Y-16264484D02*
X9389111Y-16264484D01*
X9570063Y-16264484D02*
X9551015Y-16254960D01*
X9551015Y-16254960D02*
X9541492Y-16235912D01*
X9541492Y-16235912D02*
X9541492Y-16064484D01*
X9722444Y-16254960D02*
X9703396Y-16264484D01*
X9703396Y-16264484D02*
X9665301Y-16264484D01*
X9665301Y-16264484D02*
X9646253Y-16254960D01*
X9646253Y-16254960D02*
X9636730Y-16235912D01*
X9636730Y-16235912D02*
X9636730Y-16159722D01*
X9636730Y-16159722D02*
X9646253Y-16140674D01*
X9646253Y-16140674D02*
X9665301Y-16131150D01*
X9665301Y-16131150D02*
X9703396Y-16131150D01*
X9703396Y-16131150D02*
X9722444Y-16140674D01*
X9722444Y-16140674D02*
X9731968Y-16159722D01*
X9731968Y-16159722D02*
X9731968Y-16178769D01*
X9731968Y-16178769D02*
X9636730Y-16197817D01*
X9808158Y-16254960D02*
X9827206Y-16264484D01*
X9827206Y-16264484D02*
X9865301Y-16264484D01*
X9865301Y-16264484D02*
X9884349Y-16254960D01*
X9884349Y-16254960D02*
X9893873Y-16235912D01*
X9893873Y-16235912D02*
X9893873Y-16226388D01*
X9893873Y-16226388D02*
X9884349Y-16207341D01*
X9884349Y-16207341D02*
X9865301Y-16197817D01*
X9865301Y-16197817D02*
X9836730Y-16197817D01*
X9836730Y-16197817D02*
X9817682Y-16188293D01*
X9817682Y-16188293D02*
X9808158Y-16169246D01*
X9808158Y-16169246D02*
X9808158Y-16159722D01*
X9808158Y-16159722D02*
X9817682Y-16140674D01*
X9817682Y-16140674D02*
X9836730Y-16131150D01*
X9836730Y-16131150D02*
X9865301Y-16131150D01*
X9865301Y-16131150D02*
X9884349Y-16140674D01*
X9960539Y-16340674D02*
X9970063Y-16331150D01*
X9970063Y-16331150D02*
X9989111Y-16302579D01*
X9989111Y-16302579D02*
X9998634Y-16283531D01*
X9998634Y-16283531D02*
X10008158Y-16254960D01*
X10008158Y-16254960D02*
X10017682Y-16207341D01*
X10017682Y-16207341D02*
X10017682Y-16169246D01*
X10017682Y-16169246D02*
X10008158Y-16121627D01*
X10008158Y-16121627D02*
X9998634Y-16093055D01*
X9998634Y-16093055D02*
X9989111Y-16074008D01*
X9989111Y-16074008D02*
X9970063Y-16045436D01*
X9970063Y-16045436D02*
X9960539Y-16035912D01*
D10*
X4981820Y-16468820D02*
X4981820Y-16405180D01*
X4918180Y-16405180D01*
X4918180Y-16468820D01*
X4981820Y-16468820D01*
D11*
X5293872Y-16328484D02*
X5312920Y-16328484D01*
X5312920Y-16328484D02*
X5331967Y-16338008D01*
X5331967Y-16338008D02*
X5341491Y-16347531D01*
X5341491Y-16347531D02*
X5351015Y-16366579D01*
X5351015Y-16366579D02*
X5360539Y-16404674D01*
X5360539Y-16404674D02*
X5360539Y-16452293D01*
X5360539Y-16452293D02*
X5351015Y-16490388D01*
X5351015Y-16490388D02*
X5341491Y-16509436D01*
X5341491Y-16509436D02*
X5331967Y-16518960D01*
X5331967Y-16518960D02*
X5312920Y-16528484D01*
X5312920Y-16528484D02*
X5293872Y-16528484D01*
X5293872Y-16528484D02*
X5274824Y-16518960D01*
X5274824Y-16518960D02*
X5265301Y-16509436D01*
X5265301Y-16509436D02*
X5255777Y-16490388D01*
X5255777Y-16490388D02*
X5246253Y-16452293D01*
X5246253Y-16452293D02*
X5246253Y-16404674D01*
X5246253Y-16404674D02*
X5255777Y-16366579D01*
X5255777Y-16366579D02*
X5265301Y-16347531D01*
X5265301Y-16347531D02*
X5274824Y-16338008D01*
X5274824Y-16338008D02*
X5293872Y-16328484D01*
X5446253Y-16509436D02*
X5455777Y-16518960D01*
X5455777Y-16518960D02*
X5446253Y-16528484D01*
X5446253Y-16528484D02*
X5436729Y-16518960D01*
X5436729Y-16518960D02*
X5446253Y-16509436D01*
X5446253Y-16509436D02*
X5446253Y-16528484D01*
X5551015Y-16528484D02*
X5589110Y-16528484D01*
X5589110Y-16528484D02*
X5608158Y-16518960D01*
X5608158Y-16518960D02*
X5617682Y-16509436D01*
X5617682Y-16509436D02*
X5636729Y-16480865D01*
X5636729Y-16480865D02*
X5646253Y-16442769D01*
X5646253Y-16442769D02*
X5646253Y-16366579D01*
X5646253Y-16366579D02*
X5636729Y-16347531D01*
X5636729Y-16347531D02*
X5627205Y-16338008D01*
X5627205Y-16338008D02*
X5608158Y-16328484D01*
X5608158Y-16328484D02*
X5570063Y-16328484D01*
X5570063Y-16328484D02*
X5551015Y-16338008D01*
X5551015Y-16338008D02*
X5541491Y-16347531D01*
X5541491Y-16347531D02*
X5531967Y-16366579D01*
X5531967Y-16366579D02*
X5531967Y-16414198D01*
X5531967Y-16414198D02*
X5541491Y-16433246D01*
X5541491Y-16433246D02*
X5551015Y-16442769D01*
X5551015Y-16442769D02*
X5570063Y-16452293D01*
X5570063Y-16452293D02*
X5608158Y-16452293D01*
X5608158Y-16452293D02*
X5627205Y-16442769D01*
X5627205Y-16442769D02*
X5636729Y-16433246D01*
X5636729Y-16433246D02*
X5646253Y-16414198D01*
X5770062Y-16328484D02*
X5789110Y-16328484D01*
X5789110Y-16328484D02*
X5808158Y-16338008D01*
X5808158Y-16338008D02*
X5817682Y-16347531D01*
X5817682Y-16347531D02*
X5827205Y-16366579D01*
X5827205Y-16366579D02*
X5836729Y-16404674D01*
X5836729Y-16404674D02*
X5836729Y-16452293D01*
X5836729Y-16452293D02*
X5827205Y-16490388D01*
X5827205Y-16490388D02*
X5817682Y-16509436D01*
X5817682Y-16509436D02*
X5808158Y-16518960D01*
X5808158Y-16518960D02*
X5789110Y-16528484D01*
X5789110Y-16528484D02*
X5770062Y-16528484D01*
X5770062Y-16528484D02*
X5751015Y-16518960D01*
X5751015Y-16518960D02*
X5741491Y-16509436D01*
X5741491Y-16509436D02*
X5731967Y-16490388D01*
X5731967Y-16490388D02*
X5722443Y-16452293D01*
X5722443Y-16452293D02*
X5722443Y-16404674D01*
X5722443Y-16404674D02*
X5731967Y-16366579D01*
X5731967Y-16366579D02*
X5741491Y-16347531D01*
X5741491Y-16347531D02*
X5751015Y-16338008D01*
X5751015Y-16338008D02*
X5770062Y-16328484D01*
X5960539Y-16328484D02*
X5979586Y-16328484D01*
X5979586Y-16328484D02*
X5998634Y-16338008D01*
X5998634Y-16338008D02*
X6008158Y-16347531D01*
X6008158Y-16347531D02*
X6017682Y-16366579D01*
X6017682Y-16366579D02*
X6027205Y-16404674D01*
X6027205Y-16404674D02*
X6027205Y-16452293D01*
X6027205Y-16452293D02*
X6017682Y-16490388D01*
X6017682Y-16490388D02*
X6008158Y-16509436D01*
X6008158Y-16509436D02*
X5998634Y-16518960D01*
X5998634Y-16518960D02*
X5979586Y-16528484D01*
X5979586Y-16528484D02*
X5960539Y-16528484D01*
X5960539Y-16528484D02*
X5941491Y-16518960D01*
X5941491Y-16518960D02*
X5931967Y-16509436D01*
X5931967Y-16509436D02*
X5922443Y-16490388D01*
X5922443Y-16490388D02*
X5912920Y-16452293D01*
X5912920Y-16452293D02*
X5912920Y-16404674D01*
X5912920Y-16404674D02*
X5922443Y-16366579D01*
X5922443Y-16366579D02*
X5931967Y-16347531D01*
X5931967Y-16347531D02*
X5941491Y-16338008D01*
X5941491Y-16338008D02*
X5960539Y-16328484D01*
X6112920Y-16528484D02*
X6112920Y-16395150D01*
X6112920Y-16414198D02*
X6122443Y-16404674D01*
X6122443Y-16404674D02*
X6141491Y-16395150D01*
X6141491Y-16395150D02*
X6170063Y-16395150D01*
X6170063Y-16395150D02*
X6189110Y-16404674D01*
X6189110Y-16404674D02*
X6198634Y-16423722D01*
X6198634Y-16423722D02*
X6198634Y-16528484D01*
X6198634Y-16423722D02*
X6208158Y-16404674D01*
X6208158Y-16404674D02*
X6227205Y-16395150D01*
X6227205Y-16395150D02*
X6255777Y-16395150D01*
X6255777Y-16395150D02*
X6274824Y-16404674D01*
X6274824Y-16404674D02*
X6284348Y-16423722D01*
X6284348Y-16423722D02*
X6284348Y-16528484D01*
X6379586Y-16528484D02*
X6379586Y-16395150D01*
X6379586Y-16414198D02*
X6389110Y-16404674D01*
X6389110Y-16404674D02*
X6408158Y-16395150D01*
X6408158Y-16395150D02*
X6436729Y-16395150D01*
X6436729Y-16395150D02*
X6455777Y-16404674D01*
X6455777Y-16404674D02*
X6465301Y-16423722D01*
X6465301Y-16423722D02*
X6465301Y-16528484D01*
X6465301Y-16423722D02*
X6474824Y-16404674D01*
X6474824Y-16404674D02*
X6493872Y-16395150D01*
X6493872Y-16395150D02*
X6522443Y-16395150D01*
X6522443Y-16395150D02*
X6541491Y-16404674D01*
X6541491Y-16404674D02*
X6551015Y-16423722D01*
X6551015Y-16423722D02*
X6551015Y-16528484D01*
X6941491Y-16318960D02*
X6770063Y-16576103D01*
X7198634Y-16328484D02*
X7217682Y-16328484D01*
X7217682Y-16328484D02*
X7236729Y-16338008D01*
X7236729Y-16338008D02*
X7246253Y-16347531D01*
X7246253Y-16347531D02*
X7255777Y-16366579D01*
X7255777Y-16366579D02*
X7265301Y-16404674D01*
X7265301Y-16404674D02*
X7265301Y-16452293D01*
X7265301Y-16452293D02*
X7255777Y-16490388D01*
X7255777Y-16490388D02*
X7246253Y-16509436D01*
X7246253Y-16509436D02*
X7236729Y-16518960D01*
X7236729Y-16518960D02*
X7217682Y-16528484D01*
X7217682Y-16528484D02*
X7198634Y-16528484D01*
X7198634Y-16528484D02*
X7179586Y-16518960D01*
X7179586Y-16518960D02*
X7170063Y-16509436D01*
X7170063Y-16509436D02*
X7160539Y-16490388D01*
X7160539Y-16490388D02*
X7151015Y-16452293D01*
X7151015Y-16452293D02*
X7151015Y-16404674D01*
X7151015Y-16404674D02*
X7160539Y-16366579D01*
X7160539Y-16366579D02*
X7170063Y-16347531D01*
X7170063Y-16347531D02*
X7179586Y-16338008D01*
X7179586Y-16338008D02*
X7198634Y-16328484D01*
X7351015Y-16509436D02*
X7360539Y-16518960D01*
X7360539Y-16518960D02*
X7351015Y-16528484D01*
X7351015Y-16528484D02*
X7341491Y-16518960D01*
X7341491Y-16518960D02*
X7351015Y-16509436D01*
X7351015Y-16509436D02*
X7351015Y-16528484D01*
X7484348Y-16328484D02*
X7503396Y-16328484D01*
X7503396Y-16328484D02*
X7522444Y-16338008D01*
X7522444Y-16338008D02*
X7531967Y-16347531D01*
X7531967Y-16347531D02*
X7541491Y-16366579D01*
X7541491Y-16366579D02*
X7551015Y-16404674D01*
X7551015Y-16404674D02*
X7551015Y-16452293D01*
X7551015Y-16452293D02*
X7541491Y-16490388D01*
X7541491Y-16490388D02*
X7531967Y-16509436D01*
X7531967Y-16509436D02*
X7522444Y-16518960D01*
X7522444Y-16518960D02*
X7503396Y-16528484D01*
X7503396Y-16528484D02*
X7484348Y-16528484D01*
X7484348Y-16528484D02*
X7465301Y-16518960D01*
X7465301Y-16518960D02*
X7455777Y-16509436D01*
X7455777Y-16509436D02*
X7446253Y-16490388D01*
X7446253Y-16490388D02*
X7436729Y-16452293D01*
X7436729Y-16452293D02*
X7436729Y-16404674D01*
X7436729Y-16404674D02*
X7446253Y-16366579D01*
X7446253Y-16366579D02*
X7455777Y-16347531D01*
X7455777Y-16347531D02*
X7465301Y-16338008D01*
X7465301Y-16338008D02*
X7484348Y-16328484D01*
X7617682Y-16328484D02*
X7741491Y-16328484D01*
X7741491Y-16328484D02*
X7674825Y-16404674D01*
X7674825Y-16404674D02*
X7703396Y-16404674D01*
X7703396Y-16404674D02*
X7722444Y-16414198D01*
X7722444Y-16414198D02*
X7731967Y-16423722D01*
X7731967Y-16423722D02*
X7741491Y-16442769D01*
X7741491Y-16442769D02*
X7741491Y-16490388D01*
X7741491Y-16490388D02*
X7731967Y-16509436D01*
X7731967Y-16509436D02*
X7722444Y-16518960D01*
X7722444Y-16518960D02*
X7703396Y-16528484D01*
X7703396Y-16528484D02*
X7646253Y-16528484D01*
X7646253Y-16528484D02*
X7627206Y-16518960D01*
X7627206Y-16518960D02*
X7617682Y-16509436D01*
X7922444Y-16328484D02*
X7827206Y-16328484D01*
X7827206Y-16328484D02*
X7817682Y-16423722D01*
X7817682Y-16423722D02*
X7827206Y-16414198D01*
X7827206Y-16414198D02*
X7846253Y-16404674D01*
X7846253Y-16404674D02*
X7893872Y-16404674D01*
X7893872Y-16404674D02*
X7912920Y-16414198D01*
X7912920Y-16414198D02*
X7922444Y-16423722D01*
X7922444Y-16423722D02*
X7931967Y-16442769D01*
X7931967Y-16442769D02*
X7931967Y-16490388D01*
X7931967Y-16490388D02*
X7922444Y-16509436D01*
X7922444Y-16509436D02*
X7912920Y-16518960D01*
X7912920Y-16518960D02*
X7893872Y-16528484D01*
X7893872Y-16528484D02*
X7846253Y-16528484D01*
X7846253Y-16528484D02*
X7827206Y-16518960D01*
X7827206Y-16518960D02*
X7817682Y-16509436D01*
X8103396Y-16395150D02*
X8103396Y-16528484D01*
X8055777Y-16318960D02*
X8008158Y-16461817D01*
X8008158Y-16461817D02*
X8131967Y-16461817D01*
X8198634Y-16328484D02*
X8198634Y-16366579D01*
X8274825Y-16328484D02*
X8274825Y-16366579D01*
X8570063Y-16604674D02*
X8560539Y-16595150D01*
X8560539Y-16595150D02*
X8541491Y-16566579D01*
X8541491Y-16566579D02*
X8531968Y-16547531D01*
X8531968Y-16547531D02*
X8522444Y-16518960D01*
X8522444Y-16518960D02*
X8512920Y-16471341D01*
X8512920Y-16471341D02*
X8512920Y-16433246D01*
X8512920Y-16433246D02*
X8522444Y-16385627D01*
X8522444Y-16385627D02*
X8531968Y-16357055D01*
X8531968Y-16357055D02*
X8541491Y-16338008D01*
X8541491Y-16338008D02*
X8560539Y-16309436D01*
X8560539Y-16309436D02*
X8570063Y-16299912D01*
X8674825Y-16414198D02*
X8655777Y-16404674D01*
X8655777Y-16404674D02*
X8646253Y-16395150D01*
X8646253Y-16395150D02*
X8636730Y-16376103D01*
X8636730Y-16376103D02*
X8636730Y-16366579D01*
X8636730Y-16366579D02*
X8646253Y-16347531D01*
X8646253Y-16347531D02*
X8655777Y-16338008D01*
X8655777Y-16338008D02*
X8674825Y-16328484D01*
X8674825Y-16328484D02*
X8712920Y-16328484D01*
X8712920Y-16328484D02*
X8731968Y-16338008D01*
X8731968Y-16338008D02*
X8741491Y-16347531D01*
X8741491Y-16347531D02*
X8751015Y-16366579D01*
X8751015Y-16366579D02*
X8751015Y-16376103D01*
X8751015Y-16376103D02*
X8741491Y-16395150D01*
X8741491Y-16395150D02*
X8731968Y-16404674D01*
X8731968Y-16404674D02*
X8712920Y-16414198D01*
X8712920Y-16414198D02*
X8674825Y-16414198D01*
X8674825Y-16414198D02*
X8655777Y-16423722D01*
X8655777Y-16423722D02*
X8646253Y-16433246D01*
X8646253Y-16433246D02*
X8636730Y-16452293D01*
X8636730Y-16452293D02*
X8636730Y-16490388D01*
X8636730Y-16490388D02*
X8646253Y-16509436D01*
X8646253Y-16509436D02*
X8655777Y-16518960D01*
X8655777Y-16518960D02*
X8674825Y-16528484D01*
X8674825Y-16528484D02*
X8712920Y-16528484D01*
X8712920Y-16528484D02*
X8731968Y-16518960D01*
X8731968Y-16518960D02*
X8741491Y-16509436D01*
X8741491Y-16509436D02*
X8751015Y-16490388D01*
X8751015Y-16490388D02*
X8751015Y-16452293D01*
X8751015Y-16452293D02*
X8741491Y-16433246D01*
X8741491Y-16433246D02*
X8731968Y-16423722D01*
X8731968Y-16423722D02*
X8712920Y-16414198D01*
X8989111Y-16528484D02*
X8989111Y-16328484D01*
X9074825Y-16528484D02*
X9074825Y-16423722D01*
X9074825Y-16423722D02*
X9065301Y-16404674D01*
X9065301Y-16404674D02*
X9046253Y-16395150D01*
X9046253Y-16395150D02*
X9017682Y-16395150D01*
X9017682Y-16395150D02*
X8998634Y-16404674D01*
X8998634Y-16404674D02*
X8989111Y-16414198D01*
X9198634Y-16528484D02*
X9179587Y-16518960D01*
X9179587Y-16518960D02*
X9170063Y-16509436D01*
X9170063Y-16509436D02*
X9160539Y-16490388D01*
X9160539Y-16490388D02*
X9160539Y-16433246D01*
X9160539Y-16433246D02*
X9170063Y-16414198D01*
X9170063Y-16414198D02*
X9179587Y-16404674D01*
X9179587Y-16404674D02*
X9198634Y-16395150D01*
X9198634Y-16395150D02*
X9227206Y-16395150D01*
X9227206Y-16395150D02*
X9246253Y-16404674D01*
X9246253Y-16404674D02*
X9255777Y-16414198D01*
X9255777Y-16414198D02*
X9265301Y-16433246D01*
X9265301Y-16433246D02*
X9265301Y-16490388D01*
X9265301Y-16490388D02*
X9255777Y-16509436D01*
X9255777Y-16509436D02*
X9246253Y-16518960D01*
X9246253Y-16518960D02*
X9227206Y-16528484D01*
X9227206Y-16528484D02*
X9198634Y-16528484D01*
X9379587Y-16528484D02*
X9360539Y-16518960D01*
X9360539Y-16518960D02*
X9351015Y-16499912D01*
X9351015Y-16499912D02*
X9351015Y-16328484D01*
X9531968Y-16518960D02*
X9512920Y-16528484D01*
X9512920Y-16528484D02*
X9474825Y-16528484D01*
X9474825Y-16528484D02*
X9455777Y-16518960D01*
X9455777Y-16518960D02*
X9446253Y-16499912D01*
X9446253Y-16499912D02*
X9446253Y-16423722D01*
X9446253Y-16423722D02*
X9455777Y-16404674D01*
X9455777Y-16404674D02*
X9474825Y-16395150D01*
X9474825Y-16395150D02*
X9512920Y-16395150D01*
X9512920Y-16395150D02*
X9531968Y-16404674D01*
X9531968Y-16404674D02*
X9541492Y-16423722D01*
X9541492Y-16423722D02*
X9541492Y-16442769D01*
X9541492Y-16442769D02*
X9446253Y-16461817D01*
X9617682Y-16518960D02*
X9636730Y-16528484D01*
X9636730Y-16528484D02*
X9674825Y-16528484D01*
X9674825Y-16528484D02*
X9693873Y-16518960D01*
X9693873Y-16518960D02*
X9703396Y-16499912D01*
X9703396Y-16499912D02*
X9703396Y-16490388D01*
X9703396Y-16490388D02*
X9693873Y-16471341D01*
X9693873Y-16471341D02*
X9674825Y-16461817D01*
X9674825Y-16461817D02*
X9646253Y-16461817D01*
X9646253Y-16461817D02*
X9627206Y-16452293D01*
X9627206Y-16452293D02*
X9617682Y-16433246D01*
X9617682Y-16433246D02*
X9617682Y-16423722D01*
X9617682Y-16423722D02*
X9627206Y-16404674D01*
X9627206Y-16404674D02*
X9646253Y-16395150D01*
X9646253Y-16395150D02*
X9674825Y-16395150D01*
X9674825Y-16395150D02*
X9693873Y-16404674D01*
X9770063Y-16604674D02*
X9779587Y-16595150D01*
X9779587Y-16595150D02*
X9798634Y-16566579D01*
X9798634Y-16566579D02*
X9808158Y-16547531D01*
X9808158Y-16547531D02*
X9817682Y-16518960D01*
X9817682Y-16518960D02*
X9827206Y-16471341D01*
X9827206Y-16471341D02*
X9827206Y-16433246D01*
X9827206Y-16433246D02*
X9817682Y-16385627D01*
X9817682Y-16385627D02*
X9808158Y-16357055D01*
X9808158Y-16357055D02*
X9798634Y-16338008D01*
X9798634Y-16338008D02*
X9779587Y-16309436D01*
X9779587Y-16309436D02*
X9770063Y-16299912D01*
D10*
X4945000Y-16751000D02*
X4995000Y-16701000D01*
X4945000Y-16651000D01*
X4895000Y-16701000D01*
X4945000Y-16751000D01*
D11*
X5360539Y-16792484D02*
X5246253Y-16792484D01*
X5303396Y-16792484D02*
X5303396Y-16592484D01*
X5303396Y-16592484D02*
X5284348Y-16621055D01*
X5284348Y-16621055D02*
X5265301Y-16640103D01*
X5265301Y-16640103D02*
X5246253Y-16649627D01*
X5446253Y-16773436D02*
X5455777Y-16782960D01*
X5455777Y-16782960D02*
X5446253Y-16792484D01*
X5446253Y-16792484D02*
X5436729Y-16782960D01*
X5436729Y-16782960D02*
X5446253Y-16773436D01*
X5446253Y-16773436D02*
X5446253Y-16792484D01*
X5579586Y-16592484D02*
X5598634Y-16592484D01*
X5598634Y-16592484D02*
X5617682Y-16602008D01*
X5617682Y-16602008D02*
X5627205Y-16611531D01*
X5627205Y-16611531D02*
X5636729Y-16630579D01*
X5636729Y-16630579D02*
X5646253Y-16668674D01*
X5646253Y-16668674D02*
X5646253Y-16716293D01*
X5646253Y-16716293D02*
X5636729Y-16754388D01*
X5636729Y-16754388D02*
X5627205Y-16773436D01*
X5627205Y-16773436D02*
X5617682Y-16782960D01*
X5617682Y-16782960D02*
X5598634Y-16792484D01*
X5598634Y-16792484D02*
X5579586Y-16792484D01*
X5579586Y-16792484D02*
X5560539Y-16782960D01*
X5560539Y-16782960D02*
X5551015Y-16773436D01*
X5551015Y-16773436D02*
X5541491Y-16754388D01*
X5541491Y-16754388D02*
X5531967Y-16716293D01*
X5531967Y-16716293D02*
X5531967Y-16668674D01*
X5531967Y-16668674D02*
X5541491Y-16630579D01*
X5541491Y-16630579D02*
X5551015Y-16611531D01*
X5551015Y-16611531D02*
X5560539Y-16602008D01*
X5560539Y-16602008D02*
X5579586Y-16592484D01*
X5770062Y-16592484D02*
X5789110Y-16592484D01*
X5789110Y-16592484D02*
X5808158Y-16602008D01*
X5808158Y-16602008D02*
X5817682Y-16611531D01*
X5817682Y-16611531D02*
X5827205Y-16630579D01*
X5827205Y-16630579D02*
X5836729Y-16668674D01*
X5836729Y-16668674D02*
X5836729Y-16716293D01*
X5836729Y-16716293D02*
X5827205Y-16754388D01*
X5827205Y-16754388D02*
X5817682Y-16773436D01*
X5817682Y-16773436D02*
X5808158Y-16782960D01*
X5808158Y-16782960D02*
X5789110Y-16792484D01*
X5789110Y-16792484D02*
X5770062Y-16792484D01*
X5770062Y-16792484D02*
X5751015Y-16782960D01*
X5751015Y-16782960D02*
X5741491Y-16773436D01*
X5741491Y-16773436D02*
X5731967Y-16754388D01*
X5731967Y-16754388D02*
X5722443Y-16716293D01*
X5722443Y-16716293D02*
X5722443Y-16668674D01*
X5722443Y-16668674D02*
X5731967Y-16630579D01*
X5731967Y-16630579D02*
X5741491Y-16611531D01*
X5741491Y-16611531D02*
X5751015Y-16602008D01*
X5751015Y-16602008D02*
X5770062Y-16592484D01*
X5960539Y-16592484D02*
X5979586Y-16592484D01*
X5979586Y-16592484D02*
X5998634Y-16602008D01*
X5998634Y-16602008D02*
X6008158Y-16611531D01*
X6008158Y-16611531D02*
X6017682Y-16630579D01*
X6017682Y-16630579D02*
X6027205Y-16668674D01*
X6027205Y-16668674D02*
X6027205Y-16716293D01*
X6027205Y-16716293D02*
X6017682Y-16754388D01*
X6017682Y-16754388D02*
X6008158Y-16773436D01*
X6008158Y-16773436D02*
X5998634Y-16782960D01*
X5998634Y-16782960D02*
X5979586Y-16792484D01*
X5979586Y-16792484D02*
X5960539Y-16792484D01*
X5960539Y-16792484D02*
X5941491Y-16782960D01*
X5941491Y-16782960D02*
X5931967Y-16773436D01*
X5931967Y-16773436D02*
X5922443Y-16754388D01*
X5922443Y-16754388D02*
X5912920Y-16716293D01*
X5912920Y-16716293D02*
X5912920Y-16668674D01*
X5912920Y-16668674D02*
X5922443Y-16630579D01*
X5922443Y-16630579D02*
X5931967Y-16611531D01*
X5931967Y-16611531D02*
X5941491Y-16602008D01*
X5941491Y-16602008D02*
X5960539Y-16592484D01*
X6112920Y-16792484D02*
X6112920Y-16659150D01*
X6112920Y-16678198D02*
X6122443Y-16668674D01*
X6122443Y-16668674D02*
X6141491Y-16659150D01*
X6141491Y-16659150D02*
X6170063Y-16659150D01*
X6170063Y-16659150D02*
X6189110Y-16668674D01*
X6189110Y-16668674D02*
X6198634Y-16687722D01*
X6198634Y-16687722D02*
X6198634Y-16792484D01*
X6198634Y-16687722D02*
X6208158Y-16668674D01*
X6208158Y-16668674D02*
X6227205Y-16659150D01*
X6227205Y-16659150D02*
X6255777Y-16659150D01*
X6255777Y-16659150D02*
X6274824Y-16668674D01*
X6274824Y-16668674D02*
X6284348Y-16687722D01*
X6284348Y-16687722D02*
X6284348Y-16792484D01*
X6379586Y-16792484D02*
X6379586Y-16659150D01*
X6379586Y-16678198D02*
X6389110Y-16668674D01*
X6389110Y-16668674D02*
X6408158Y-16659150D01*
X6408158Y-16659150D02*
X6436729Y-16659150D01*
X6436729Y-16659150D02*
X6455777Y-16668674D01*
X6455777Y-16668674D02*
X6465301Y-16687722D01*
X6465301Y-16687722D02*
X6465301Y-16792484D01*
X6465301Y-16687722D02*
X6474824Y-16668674D01*
X6474824Y-16668674D02*
X6493872Y-16659150D01*
X6493872Y-16659150D02*
X6522443Y-16659150D01*
X6522443Y-16659150D02*
X6541491Y-16668674D01*
X6541491Y-16668674D02*
X6551015Y-16687722D01*
X6551015Y-16687722D02*
X6551015Y-16792484D01*
X6941491Y-16582960D02*
X6770063Y-16840103D01*
X7198634Y-16592484D02*
X7217682Y-16592484D01*
X7217682Y-16592484D02*
X7236729Y-16602008D01*
X7236729Y-16602008D02*
X7246253Y-16611531D01*
X7246253Y-16611531D02*
X7255777Y-16630579D01*
X7255777Y-16630579D02*
X7265301Y-16668674D01*
X7265301Y-16668674D02*
X7265301Y-16716293D01*
X7265301Y-16716293D02*
X7255777Y-16754388D01*
X7255777Y-16754388D02*
X7246253Y-16773436D01*
X7246253Y-16773436D02*
X7236729Y-16782960D01*
X7236729Y-16782960D02*
X7217682Y-16792484D01*
X7217682Y-16792484D02*
X7198634Y-16792484D01*
X7198634Y-16792484D02*
X7179586Y-16782960D01*
X7179586Y-16782960D02*
X7170063Y-16773436D01*
X7170063Y-16773436D02*
X7160539Y-16754388D01*
X7160539Y-16754388D02*
X7151015Y-16716293D01*
X7151015Y-16716293D02*
X7151015Y-16668674D01*
X7151015Y-16668674D02*
X7160539Y-16630579D01*
X7160539Y-16630579D02*
X7170063Y-16611531D01*
X7170063Y-16611531D02*
X7179586Y-16602008D01*
X7179586Y-16602008D02*
X7198634Y-16592484D01*
X7351015Y-16773436D02*
X7360539Y-16782960D01*
X7360539Y-16782960D02*
X7351015Y-16792484D01*
X7351015Y-16792484D02*
X7341491Y-16782960D01*
X7341491Y-16782960D02*
X7351015Y-16773436D01*
X7351015Y-16773436D02*
X7351015Y-16792484D01*
X7484348Y-16592484D02*
X7503396Y-16592484D01*
X7503396Y-16592484D02*
X7522444Y-16602008D01*
X7522444Y-16602008D02*
X7531967Y-16611531D01*
X7531967Y-16611531D02*
X7541491Y-16630579D01*
X7541491Y-16630579D02*
X7551015Y-16668674D01*
X7551015Y-16668674D02*
X7551015Y-16716293D01*
X7551015Y-16716293D02*
X7541491Y-16754388D01*
X7541491Y-16754388D02*
X7531967Y-16773436D01*
X7531967Y-16773436D02*
X7522444Y-16782960D01*
X7522444Y-16782960D02*
X7503396Y-16792484D01*
X7503396Y-16792484D02*
X7484348Y-16792484D01*
X7484348Y-16792484D02*
X7465301Y-16782960D01*
X7465301Y-16782960D02*
X7455777Y-16773436D01*
X7455777Y-16773436D02*
X7446253Y-16754388D01*
X7446253Y-16754388D02*
X7436729Y-16716293D01*
X7436729Y-16716293D02*
X7436729Y-16668674D01*
X7436729Y-16668674D02*
X7446253Y-16630579D01*
X7446253Y-16630579D02*
X7455777Y-16611531D01*
X7455777Y-16611531D02*
X7465301Y-16602008D01*
X7465301Y-16602008D02*
X7484348Y-16592484D01*
X7617682Y-16592484D02*
X7741491Y-16592484D01*
X7741491Y-16592484D02*
X7674825Y-16668674D01*
X7674825Y-16668674D02*
X7703396Y-16668674D01*
X7703396Y-16668674D02*
X7722444Y-16678198D01*
X7722444Y-16678198D02*
X7731967Y-16687722D01*
X7731967Y-16687722D02*
X7741491Y-16706769D01*
X7741491Y-16706769D02*
X7741491Y-16754388D01*
X7741491Y-16754388D02*
X7731967Y-16773436D01*
X7731967Y-16773436D02*
X7722444Y-16782960D01*
X7722444Y-16782960D02*
X7703396Y-16792484D01*
X7703396Y-16792484D02*
X7646253Y-16792484D01*
X7646253Y-16792484D02*
X7627206Y-16782960D01*
X7627206Y-16782960D02*
X7617682Y-16773436D01*
X7836729Y-16792484D02*
X7874825Y-16792484D01*
X7874825Y-16792484D02*
X7893872Y-16782960D01*
X7893872Y-16782960D02*
X7903396Y-16773436D01*
X7903396Y-16773436D02*
X7922444Y-16744865D01*
X7922444Y-16744865D02*
X7931967Y-16706769D01*
X7931967Y-16706769D02*
X7931967Y-16630579D01*
X7931967Y-16630579D02*
X7922444Y-16611531D01*
X7922444Y-16611531D02*
X7912920Y-16602008D01*
X7912920Y-16602008D02*
X7893872Y-16592484D01*
X7893872Y-16592484D02*
X7855777Y-16592484D01*
X7855777Y-16592484D02*
X7836729Y-16602008D01*
X7836729Y-16602008D02*
X7827206Y-16611531D01*
X7827206Y-16611531D02*
X7817682Y-16630579D01*
X7817682Y-16630579D02*
X7817682Y-16678198D01*
X7817682Y-16678198D02*
X7827206Y-16697246D01*
X7827206Y-16697246D02*
X7836729Y-16706769D01*
X7836729Y-16706769D02*
X7855777Y-16716293D01*
X7855777Y-16716293D02*
X7893872Y-16716293D01*
X7893872Y-16716293D02*
X7912920Y-16706769D01*
X7912920Y-16706769D02*
X7922444Y-16697246D01*
X7922444Y-16697246D02*
X7931967Y-16678198D01*
X8103396Y-16659150D02*
X8103396Y-16792484D01*
X8055777Y-16582960D02*
X8008158Y-16725817D01*
X8008158Y-16725817D02*
X8131967Y-16725817D01*
X8198634Y-16592484D02*
X8198634Y-16630579D01*
X8274825Y-16592484D02*
X8274825Y-16630579D01*
X8570063Y-16868674D02*
X8560539Y-16859150D01*
X8560539Y-16859150D02*
X8541491Y-16830579D01*
X8541491Y-16830579D02*
X8531968Y-16811531D01*
X8531968Y-16811531D02*
X8522444Y-16782960D01*
X8522444Y-16782960D02*
X8512920Y-16735341D01*
X8512920Y-16735341D02*
X8512920Y-16697246D01*
X8512920Y-16697246D02*
X8522444Y-16649627D01*
X8522444Y-16649627D02*
X8531968Y-16621055D01*
X8531968Y-16621055D02*
X8541491Y-16602008D01*
X8541491Y-16602008D02*
X8560539Y-16573436D01*
X8560539Y-16573436D02*
X8570063Y-16563912D01*
X8627206Y-16592484D02*
X8751015Y-16592484D01*
X8751015Y-16592484D02*
X8684349Y-16668674D01*
X8684349Y-16668674D02*
X8712920Y-16668674D01*
X8712920Y-16668674D02*
X8731968Y-16678198D01*
X8731968Y-16678198D02*
X8741491Y-16687722D01*
X8741491Y-16687722D02*
X8751015Y-16706769D01*
X8751015Y-16706769D02*
X8751015Y-16754388D01*
X8751015Y-16754388D02*
X8741491Y-16773436D01*
X8741491Y-16773436D02*
X8731968Y-16782960D01*
X8731968Y-16782960D02*
X8712920Y-16792484D01*
X8712920Y-16792484D02*
X8655777Y-16792484D01*
X8655777Y-16792484D02*
X8636730Y-16782960D01*
X8636730Y-16782960D02*
X8627206Y-16773436D01*
X8922444Y-16592484D02*
X8884349Y-16592484D01*
X8884349Y-16592484D02*
X8865301Y-16602008D01*
X8865301Y-16602008D02*
X8855777Y-16611531D01*
X8855777Y-16611531D02*
X8836730Y-16640103D01*
X8836730Y-16640103D02*
X8827206Y-16678198D01*
X8827206Y-16678198D02*
X8827206Y-16754388D01*
X8827206Y-16754388D02*
X8836730Y-16773436D01*
X8836730Y-16773436D02*
X8846253Y-16782960D01*
X8846253Y-16782960D02*
X8865301Y-16792484D01*
X8865301Y-16792484D02*
X8903396Y-16792484D01*
X8903396Y-16792484D02*
X8922444Y-16782960D01*
X8922444Y-16782960D02*
X8931968Y-16773436D01*
X8931968Y-16773436D02*
X8941491Y-16754388D01*
X8941491Y-16754388D02*
X8941491Y-16706769D01*
X8941491Y-16706769D02*
X8931968Y-16687722D01*
X8931968Y-16687722D02*
X8922444Y-16678198D01*
X8922444Y-16678198D02*
X8903396Y-16668674D01*
X8903396Y-16668674D02*
X8865301Y-16668674D01*
X8865301Y-16668674D02*
X8846253Y-16678198D01*
X8846253Y-16678198D02*
X8836730Y-16687722D01*
X8836730Y-16687722D02*
X8827206Y-16706769D01*
X9179587Y-16792484D02*
X9179587Y-16592484D01*
X9265301Y-16792484D02*
X9265301Y-16687722D01*
X9265301Y-16687722D02*
X9255777Y-16668674D01*
X9255777Y-16668674D02*
X9236730Y-16659150D01*
X9236730Y-16659150D02*
X9208158Y-16659150D01*
X9208158Y-16659150D02*
X9189111Y-16668674D01*
X9189111Y-16668674D02*
X9179587Y-16678198D01*
X9389111Y-16792484D02*
X9370063Y-16782960D01*
X9370063Y-16782960D02*
X9360539Y-16773436D01*
X9360539Y-16773436D02*
X9351015Y-16754388D01*
X9351015Y-16754388D02*
X9351015Y-16697246D01*
X9351015Y-16697246D02*
X9360539Y-16678198D01*
X9360539Y-16678198D02*
X9370063Y-16668674D01*
X9370063Y-16668674D02*
X9389111Y-16659150D01*
X9389111Y-16659150D02*
X9417682Y-16659150D01*
X9417682Y-16659150D02*
X9436730Y-16668674D01*
X9436730Y-16668674D02*
X9446253Y-16678198D01*
X9446253Y-16678198D02*
X9455777Y-16697246D01*
X9455777Y-16697246D02*
X9455777Y-16754388D01*
X9455777Y-16754388D02*
X9446253Y-16773436D01*
X9446253Y-16773436D02*
X9436730Y-16782960D01*
X9436730Y-16782960D02*
X9417682Y-16792484D01*
X9417682Y-16792484D02*
X9389111Y-16792484D01*
X9570063Y-16792484D02*
X9551015Y-16782960D01*
X9551015Y-16782960D02*
X9541492Y-16763912D01*
X9541492Y-16763912D02*
X9541492Y-16592484D01*
X9722444Y-16782960D02*
X9703396Y-16792484D01*
X9703396Y-16792484D02*
X9665301Y-16792484D01*
X9665301Y-16792484D02*
X9646253Y-16782960D01*
X9646253Y-16782960D02*
X9636730Y-16763912D01*
X9636730Y-16763912D02*
X9636730Y-16687722D01*
X9636730Y-16687722D02*
X9646253Y-16668674D01*
X9646253Y-16668674D02*
X9665301Y-16659150D01*
X9665301Y-16659150D02*
X9703396Y-16659150D01*
X9703396Y-16659150D02*
X9722444Y-16668674D01*
X9722444Y-16668674D02*
X9731968Y-16687722D01*
X9731968Y-16687722D02*
X9731968Y-16706769D01*
X9731968Y-16706769D02*
X9636730Y-16725817D01*
X9808158Y-16782960D02*
X9827206Y-16792484D01*
X9827206Y-16792484D02*
X9865301Y-16792484D01*
X9865301Y-16792484D02*
X9884349Y-16782960D01*
X9884349Y-16782960D02*
X9893873Y-16763912D01*
X9893873Y-16763912D02*
X9893873Y-16754388D01*
X9893873Y-16754388D02*
X9884349Y-16735341D01*
X9884349Y-16735341D02*
X9865301Y-16725817D01*
X9865301Y-16725817D02*
X9836730Y-16725817D01*
X9836730Y-16725817D02*
X9817682Y-16716293D01*
X9817682Y-16716293D02*
X9808158Y-16697246D01*
X9808158Y-16697246D02*
X9808158Y-16687722D01*
X9808158Y-16687722D02*
X9817682Y-16668674D01*
X9817682Y-16668674D02*
X9836730Y-16659150D01*
X9836730Y-16659150D02*
X9865301Y-16659150D01*
X9865301Y-16659150D02*
X9884349Y-16668674D01*
X9960539Y-16868674D02*
X9970063Y-16859150D01*
X9970063Y-16859150D02*
X9989111Y-16830579D01*
X9989111Y-16830579D02*
X9998634Y-16811531D01*
X9998634Y-16811531D02*
X10008158Y-16782960D01*
X10008158Y-16782960D02*
X10017682Y-16735341D01*
X10017682Y-16735341D02*
X10017682Y-16697246D01*
X10017682Y-16697246D02*
X10008158Y-16649627D01*
X10008158Y-16649627D02*
X9998634Y-16621055D01*
X9998634Y-16621055D02*
X9989111Y-16602008D01*
X9989111Y-16602008D02*
X9970063Y-16573436D01*
X9970063Y-16573436D02*
X9960539Y-16563912D01*
D12*
X4875000Y-16905000D02*
X4995000Y-17025000D01*
X4995000Y-16905000D02*
X4875000Y-17025000D01*
X4995000Y-16965000D02*
G75*
G02*
X4875000Y-16965000I-60000J0D01*
G01*
X4875000Y-16965000D02*
G75*
G02*
X4995000Y-16965000I60000J0D01*
G01*
D11*
X5360539Y-17056484D02*
X5246253Y-17056484D01*
X5303396Y-17056484D02*
X5303396Y-16856484D01*
X5303396Y-16856484D02*
X5284348Y-16885055D01*
X5284348Y-16885055D02*
X5265301Y-16904103D01*
X5265301Y-16904103D02*
X5246253Y-16913627D01*
X5446253Y-17037436D02*
X5455777Y-17046960D01*
X5455777Y-17046960D02*
X5446253Y-17056484D01*
X5446253Y-17056484D02*
X5436729Y-17046960D01*
X5436729Y-17046960D02*
X5446253Y-17037436D01*
X5446253Y-17037436D02*
X5446253Y-17056484D01*
X5531967Y-16875531D02*
X5541491Y-16866008D01*
X5541491Y-16866008D02*
X5560539Y-16856484D01*
X5560539Y-16856484D02*
X5608158Y-16856484D01*
X5608158Y-16856484D02*
X5627205Y-16866008D01*
X5627205Y-16866008D02*
X5636729Y-16875531D01*
X5636729Y-16875531D02*
X5646253Y-16894579D01*
X5646253Y-16894579D02*
X5646253Y-16913627D01*
X5646253Y-16913627D02*
X5636729Y-16942198D01*
X5636729Y-16942198D02*
X5522444Y-17056484D01*
X5522444Y-17056484D02*
X5646253Y-17056484D01*
X5770062Y-16856484D02*
X5789110Y-16856484D01*
X5789110Y-16856484D02*
X5808158Y-16866008D01*
X5808158Y-16866008D02*
X5817682Y-16875531D01*
X5817682Y-16875531D02*
X5827205Y-16894579D01*
X5827205Y-16894579D02*
X5836729Y-16932674D01*
X5836729Y-16932674D02*
X5836729Y-16980293D01*
X5836729Y-16980293D02*
X5827205Y-17018389D01*
X5827205Y-17018389D02*
X5817682Y-17037436D01*
X5817682Y-17037436D02*
X5808158Y-17046960D01*
X5808158Y-17046960D02*
X5789110Y-17056484D01*
X5789110Y-17056484D02*
X5770062Y-17056484D01*
X5770062Y-17056484D02*
X5751015Y-17046960D01*
X5751015Y-17046960D02*
X5741491Y-17037436D01*
X5741491Y-17037436D02*
X5731967Y-17018389D01*
X5731967Y-17018389D02*
X5722443Y-16980293D01*
X5722443Y-16980293D02*
X5722443Y-16932674D01*
X5722443Y-16932674D02*
X5731967Y-16894579D01*
X5731967Y-16894579D02*
X5741491Y-16875531D01*
X5741491Y-16875531D02*
X5751015Y-16866008D01*
X5751015Y-16866008D02*
X5770062Y-16856484D01*
X5960539Y-16856484D02*
X5979586Y-16856484D01*
X5979586Y-16856484D02*
X5998634Y-16866008D01*
X5998634Y-16866008D02*
X6008158Y-16875531D01*
X6008158Y-16875531D02*
X6017682Y-16894579D01*
X6017682Y-16894579D02*
X6027205Y-16932674D01*
X6027205Y-16932674D02*
X6027205Y-16980293D01*
X6027205Y-16980293D02*
X6017682Y-17018389D01*
X6017682Y-17018389D02*
X6008158Y-17037436D01*
X6008158Y-17037436D02*
X5998634Y-17046960D01*
X5998634Y-17046960D02*
X5979586Y-17056484D01*
X5979586Y-17056484D02*
X5960539Y-17056484D01*
X5960539Y-17056484D02*
X5941491Y-17046960D01*
X5941491Y-17046960D02*
X5931967Y-17037436D01*
X5931967Y-17037436D02*
X5922443Y-17018389D01*
X5922443Y-17018389D02*
X5912920Y-16980293D01*
X5912920Y-16980293D02*
X5912920Y-16932674D01*
X5912920Y-16932674D02*
X5922443Y-16894579D01*
X5922443Y-16894579D02*
X5931967Y-16875531D01*
X5931967Y-16875531D02*
X5941491Y-16866008D01*
X5941491Y-16866008D02*
X5960539Y-16856484D01*
X6112920Y-17056484D02*
X6112920Y-16923150D01*
X6112920Y-16942198D02*
X6122443Y-16932674D01*
X6122443Y-16932674D02*
X6141491Y-16923150D01*
X6141491Y-16923150D02*
X6170063Y-16923150D01*
X6170063Y-16923150D02*
X6189110Y-16932674D01*
X6189110Y-16932674D02*
X6198634Y-16951722D01*
X6198634Y-16951722D02*
X6198634Y-17056484D01*
X6198634Y-16951722D02*
X6208158Y-16932674D01*
X6208158Y-16932674D02*
X6227205Y-16923150D01*
X6227205Y-16923150D02*
X6255777Y-16923150D01*
X6255777Y-16923150D02*
X6274824Y-16932674D01*
X6274824Y-16932674D02*
X6284348Y-16951722D01*
X6284348Y-16951722D02*
X6284348Y-17056484D01*
X6379586Y-17056484D02*
X6379586Y-16923150D01*
X6379586Y-16942198D02*
X6389110Y-16932674D01*
X6389110Y-16932674D02*
X6408158Y-16923150D01*
X6408158Y-16923150D02*
X6436729Y-16923150D01*
X6436729Y-16923150D02*
X6455777Y-16932674D01*
X6455777Y-16932674D02*
X6465301Y-16951722D01*
X6465301Y-16951722D02*
X6465301Y-17056484D01*
X6465301Y-16951722D02*
X6474824Y-16932674D01*
X6474824Y-16932674D02*
X6493872Y-16923150D01*
X6493872Y-16923150D02*
X6522443Y-16923150D01*
X6522443Y-16923150D02*
X6541491Y-16932674D01*
X6541491Y-16932674D02*
X6551015Y-16951722D01*
X6551015Y-16951722D02*
X6551015Y-17056484D01*
X6941491Y-16846960D02*
X6770063Y-17104103D01*
X7198634Y-16856484D02*
X7217682Y-16856484D01*
X7217682Y-16856484D02*
X7236729Y-16866008D01*
X7236729Y-16866008D02*
X7246253Y-16875531D01*
X7246253Y-16875531D02*
X7255777Y-16894579D01*
X7255777Y-16894579D02*
X7265301Y-16932674D01*
X7265301Y-16932674D02*
X7265301Y-16980293D01*
X7265301Y-16980293D02*
X7255777Y-17018389D01*
X7255777Y-17018389D02*
X7246253Y-17037436D01*
X7246253Y-17037436D02*
X7236729Y-17046960D01*
X7236729Y-17046960D02*
X7217682Y-17056484D01*
X7217682Y-17056484D02*
X7198634Y-17056484D01*
X7198634Y-17056484D02*
X7179586Y-17046960D01*
X7179586Y-17046960D02*
X7170063Y-17037436D01*
X7170063Y-17037436D02*
X7160539Y-17018389D01*
X7160539Y-17018389D02*
X7151015Y-16980293D01*
X7151015Y-16980293D02*
X7151015Y-16932674D01*
X7151015Y-16932674D02*
X7160539Y-16894579D01*
X7160539Y-16894579D02*
X7170063Y-16875531D01*
X7170063Y-16875531D02*
X7179586Y-16866008D01*
X7179586Y-16866008D02*
X7198634Y-16856484D01*
X7351015Y-17037436D02*
X7360539Y-17046960D01*
X7360539Y-17046960D02*
X7351015Y-17056484D01*
X7351015Y-17056484D02*
X7341491Y-17046960D01*
X7341491Y-17046960D02*
X7351015Y-17037436D01*
X7351015Y-17037436D02*
X7351015Y-17056484D01*
X7484348Y-16856484D02*
X7503396Y-16856484D01*
X7503396Y-16856484D02*
X7522444Y-16866008D01*
X7522444Y-16866008D02*
X7531967Y-16875531D01*
X7531967Y-16875531D02*
X7541491Y-16894579D01*
X7541491Y-16894579D02*
X7551015Y-16932674D01*
X7551015Y-16932674D02*
X7551015Y-16980293D01*
X7551015Y-16980293D02*
X7541491Y-17018389D01*
X7541491Y-17018389D02*
X7531967Y-17037436D01*
X7531967Y-17037436D02*
X7522444Y-17046960D01*
X7522444Y-17046960D02*
X7503396Y-17056484D01*
X7503396Y-17056484D02*
X7484348Y-17056484D01*
X7484348Y-17056484D02*
X7465301Y-17046960D01*
X7465301Y-17046960D02*
X7455777Y-17037436D01*
X7455777Y-17037436D02*
X7446253Y-17018389D01*
X7446253Y-17018389D02*
X7436729Y-16980293D01*
X7436729Y-16980293D02*
X7436729Y-16932674D01*
X7436729Y-16932674D02*
X7446253Y-16894579D01*
X7446253Y-16894579D02*
X7455777Y-16875531D01*
X7455777Y-16875531D02*
X7465301Y-16866008D01*
X7465301Y-16866008D02*
X7484348Y-16856484D01*
X7722444Y-16923150D02*
X7722444Y-17056484D01*
X7674825Y-16846960D02*
X7627206Y-16989817D01*
X7627206Y-16989817D02*
X7751015Y-16989817D01*
X7808158Y-16856484D02*
X7941491Y-16856484D01*
X7941491Y-16856484D02*
X7855777Y-17056484D01*
X8008158Y-16875531D02*
X8017682Y-16866008D01*
X8017682Y-16866008D02*
X8036729Y-16856484D01*
X8036729Y-16856484D02*
X8084348Y-16856484D01*
X8084348Y-16856484D02*
X8103396Y-16866008D01*
X8103396Y-16866008D02*
X8112920Y-16875531D01*
X8112920Y-16875531D02*
X8122444Y-16894579D01*
X8122444Y-16894579D02*
X8122444Y-16913627D01*
X8122444Y-16913627D02*
X8112920Y-16942198D01*
X8112920Y-16942198D02*
X7998634Y-17056484D01*
X7998634Y-17056484D02*
X8122444Y-17056484D01*
X8198634Y-16856484D02*
X8198634Y-16894579D01*
X8274825Y-16856484D02*
X8274825Y-16894579D01*
X8570063Y-17132674D02*
X8560539Y-17123150D01*
X8560539Y-17123150D02*
X8541491Y-17094579D01*
X8541491Y-17094579D02*
X8531968Y-17075531D01*
X8531968Y-17075531D02*
X8522444Y-17046960D01*
X8522444Y-17046960D02*
X8512920Y-16999341D01*
X8512920Y-16999341D02*
X8512920Y-16961246D01*
X8512920Y-16961246D02*
X8522444Y-16913627D01*
X8522444Y-16913627D02*
X8531968Y-16885055D01*
X8531968Y-16885055D02*
X8541491Y-16866008D01*
X8541491Y-16866008D02*
X8560539Y-16837436D01*
X8560539Y-16837436D02*
X8570063Y-16827912D01*
X8655777Y-17056484D02*
X8693872Y-17056484D01*
X8693872Y-17056484D02*
X8712920Y-17046960D01*
X8712920Y-17046960D02*
X8722444Y-17037436D01*
X8722444Y-17037436D02*
X8741491Y-17008865D01*
X8741491Y-17008865D02*
X8751015Y-16970770D01*
X8751015Y-16970770D02*
X8751015Y-16894579D01*
X8751015Y-16894579D02*
X8741491Y-16875531D01*
X8741491Y-16875531D02*
X8731968Y-16866008D01*
X8731968Y-16866008D02*
X8712920Y-16856484D01*
X8712920Y-16856484D02*
X8674825Y-16856484D01*
X8674825Y-16856484D02*
X8655777Y-16866008D01*
X8655777Y-16866008D02*
X8646253Y-16875531D01*
X8646253Y-16875531D02*
X8636730Y-16894579D01*
X8636730Y-16894579D02*
X8636730Y-16942198D01*
X8636730Y-16942198D02*
X8646253Y-16961246D01*
X8646253Y-16961246D02*
X8655777Y-16970770D01*
X8655777Y-16970770D02*
X8674825Y-16980293D01*
X8674825Y-16980293D02*
X8712920Y-16980293D01*
X8712920Y-16980293D02*
X8731968Y-16970770D01*
X8731968Y-16970770D02*
X8741491Y-16961246D01*
X8741491Y-16961246D02*
X8751015Y-16942198D01*
X8989111Y-17056484D02*
X8989111Y-16856484D01*
X9074825Y-17056484D02*
X9074825Y-16951722D01*
X9074825Y-16951722D02*
X9065301Y-16932674D01*
X9065301Y-16932674D02*
X9046253Y-16923150D01*
X9046253Y-16923150D02*
X9017682Y-16923150D01*
X9017682Y-16923150D02*
X8998634Y-16932674D01*
X8998634Y-16932674D02*
X8989111Y-16942198D01*
X9198634Y-17056484D02*
X9179587Y-17046960D01*
X9179587Y-17046960D02*
X9170063Y-17037436D01*
X9170063Y-17037436D02*
X9160539Y-17018389D01*
X9160539Y-17018389D02*
X9160539Y-16961246D01*
X9160539Y-16961246D02*
X9170063Y-16942198D01*
X9170063Y-16942198D02*
X9179587Y-16932674D01*
X9179587Y-16932674D02*
X9198634Y-16923150D01*
X9198634Y-16923150D02*
X9227206Y-16923150D01*
X9227206Y-16923150D02*
X9246253Y-16932674D01*
X9246253Y-16932674D02*
X9255777Y-16942198D01*
X9255777Y-16942198D02*
X9265301Y-16961246D01*
X9265301Y-16961246D02*
X9265301Y-17018389D01*
X9265301Y-17018389D02*
X9255777Y-17037436D01*
X9255777Y-17037436D02*
X9246253Y-17046960D01*
X9246253Y-17046960D02*
X9227206Y-17056484D01*
X9227206Y-17056484D02*
X9198634Y-17056484D01*
X9379587Y-17056484D02*
X9360539Y-17046960D01*
X9360539Y-17046960D02*
X9351015Y-17027912D01*
X9351015Y-17027912D02*
X9351015Y-16856484D01*
X9531968Y-17046960D02*
X9512920Y-17056484D01*
X9512920Y-17056484D02*
X9474825Y-17056484D01*
X9474825Y-17056484D02*
X9455777Y-17046960D01*
X9455777Y-17046960D02*
X9446253Y-17027912D01*
X9446253Y-17027912D02*
X9446253Y-16951722D01*
X9446253Y-16951722D02*
X9455777Y-16932674D01*
X9455777Y-16932674D02*
X9474825Y-16923150D01*
X9474825Y-16923150D02*
X9512920Y-16923150D01*
X9512920Y-16923150D02*
X9531968Y-16932674D01*
X9531968Y-16932674D02*
X9541492Y-16951722D01*
X9541492Y-16951722D02*
X9541492Y-16970770D01*
X9541492Y-16970770D02*
X9446253Y-16989817D01*
X9617682Y-17046960D02*
X9636730Y-17056484D01*
X9636730Y-17056484D02*
X9674825Y-17056484D01*
X9674825Y-17056484D02*
X9693873Y-17046960D01*
X9693873Y-17046960D02*
X9703396Y-17027912D01*
X9703396Y-17027912D02*
X9703396Y-17018389D01*
X9703396Y-17018389D02*
X9693873Y-16999341D01*
X9693873Y-16999341D02*
X9674825Y-16989817D01*
X9674825Y-16989817D02*
X9646253Y-16989817D01*
X9646253Y-16989817D02*
X9627206Y-16980293D01*
X9627206Y-16980293D02*
X9617682Y-16961246D01*
X9617682Y-16961246D02*
X9617682Y-16951722D01*
X9617682Y-16951722D02*
X9627206Y-16932674D01*
X9627206Y-16932674D02*
X9646253Y-16923150D01*
X9646253Y-16923150D02*
X9674825Y-16923150D01*
X9674825Y-16923150D02*
X9693873Y-16932674D01*
X9770063Y-17132674D02*
X9779587Y-17123150D01*
X9779587Y-17123150D02*
X9798634Y-17094579D01*
X9798634Y-17094579D02*
X9808158Y-17075531D01*
X9808158Y-17075531D02*
X9817682Y-17046960D01*
X9817682Y-17046960D02*
X9827206Y-16999341D01*
X9827206Y-16999341D02*
X9827206Y-16961246D01*
X9827206Y-16961246D02*
X9817682Y-16913627D01*
X9817682Y-16913627D02*
X9808158Y-16885055D01*
X9808158Y-16885055D02*
X9798634Y-16866008D01*
X9798634Y-16866008D02*
X9779587Y-16837436D01*
X9779587Y-16837436D02*
X9770063Y-16827912D01*
D13*
X4815000Y-17139000D02*
X4995000Y-17319000D01*
X4995000Y-17139000D02*
X4815000Y-17319000D01*
X4905000Y-17139000D02*
X4905000Y-17319000D01*
X4815000Y-17229000D02*
X4995000Y-17229000D01*
D11*
X5360539Y-17320484D02*
X5246253Y-17320484D01*
X5303396Y-17320484D02*
X5303396Y-17120484D01*
X5303396Y-17120484D02*
X5284348Y-17149055D01*
X5284348Y-17149055D02*
X5265301Y-17168103D01*
X5265301Y-17168103D02*
X5246253Y-17177627D01*
X5446253Y-17301436D02*
X5455777Y-17310960D01*
X5455777Y-17310960D02*
X5446253Y-17320484D01*
X5446253Y-17320484D02*
X5436729Y-17310960D01*
X5436729Y-17310960D02*
X5446253Y-17301436D01*
X5446253Y-17301436D02*
X5446253Y-17320484D01*
X5570063Y-17206198D02*
X5551015Y-17196674D01*
X5551015Y-17196674D02*
X5541491Y-17187150D01*
X5541491Y-17187150D02*
X5531967Y-17168103D01*
X5531967Y-17168103D02*
X5531967Y-17158579D01*
X5531967Y-17158579D02*
X5541491Y-17139531D01*
X5541491Y-17139531D02*
X5551015Y-17130008D01*
X5551015Y-17130008D02*
X5570063Y-17120484D01*
X5570063Y-17120484D02*
X5608158Y-17120484D01*
X5608158Y-17120484D02*
X5627205Y-17130008D01*
X5627205Y-17130008D02*
X5636729Y-17139531D01*
X5636729Y-17139531D02*
X5646253Y-17158579D01*
X5646253Y-17158579D02*
X5646253Y-17168103D01*
X5646253Y-17168103D02*
X5636729Y-17187150D01*
X5636729Y-17187150D02*
X5627205Y-17196674D01*
X5627205Y-17196674D02*
X5608158Y-17206198D01*
X5608158Y-17206198D02*
X5570063Y-17206198D01*
X5570063Y-17206198D02*
X5551015Y-17215722D01*
X5551015Y-17215722D02*
X5541491Y-17225246D01*
X5541491Y-17225246D02*
X5531967Y-17244293D01*
X5531967Y-17244293D02*
X5531967Y-17282389D01*
X5531967Y-17282389D02*
X5541491Y-17301436D01*
X5541491Y-17301436D02*
X5551015Y-17310960D01*
X5551015Y-17310960D02*
X5570063Y-17320484D01*
X5570063Y-17320484D02*
X5608158Y-17320484D01*
X5608158Y-17320484D02*
X5627205Y-17310960D01*
X5627205Y-17310960D02*
X5636729Y-17301436D01*
X5636729Y-17301436D02*
X5646253Y-17282389D01*
X5646253Y-17282389D02*
X5646253Y-17244293D01*
X5646253Y-17244293D02*
X5636729Y-17225246D01*
X5636729Y-17225246D02*
X5627205Y-17215722D01*
X5627205Y-17215722D02*
X5608158Y-17206198D01*
X5770062Y-17120484D02*
X5789110Y-17120484D01*
X5789110Y-17120484D02*
X5808158Y-17130008D01*
X5808158Y-17130008D02*
X5817682Y-17139531D01*
X5817682Y-17139531D02*
X5827205Y-17158579D01*
X5827205Y-17158579D02*
X5836729Y-17196674D01*
X5836729Y-17196674D02*
X5836729Y-17244293D01*
X5836729Y-17244293D02*
X5827205Y-17282389D01*
X5827205Y-17282389D02*
X5817682Y-17301436D01*
X5817682Y-17301436D02*
X5808158Y-17310960D01*
X5808158Y-17310960D02*
X5789110Y-17320484D01*
X5789110Y-17320484D02*
X5770062Y-17320484D01*
X5770062Y-17320484D02*
X5751015Y-17310960D01*
X5751015Y-17310960D02*
X5741491Y-17301436D01*
X5741491Y-17301436D02*
X5731967Y-17282389D01*
X5731967Y-17282389D02*
X5722443Y-17244293D01*
X5722443Y-17244293D02*
X5722443Y-17196674D01*
X5722443Y-17196674D02*
X5731967Y-17158579D01*
X5731967Y-17158579D02*
X5741491Y-17139531D01*
X5741491Y-17139531D02*
X5751015Y-17130008D01*
X5751015Y-17130008D02*
X5770062Y-17120484D01*
X5960539Y-17120484D02*
X5979586Y-17120484D01*
X5979586Y-17120484D02*
X5998634Y-17130008D01*
X5998634Y-17130008D02*
X6008158Y-17139531D01*
X6008158Y-17139531D02*
X6017682Y-17158579D01*
X6017682Y-17158579D02*
X6027205Y-17196674D01*
X6027205Y-17196674D02*
X6027205Y-17244293D01*
X6027205Y-17244293D02*
X6017682Y-17282389D01*
X6017682Y-17282389D02*
X6008158Y-17301436D01*
X6008158Y-17301436D02*
X5998634Y-17310960D01*
X5998634Y-17310960D02*
X5979586Y-17320484D01*
X5979586Y-17320484D02*
X5960539Y-17320484D01*
X5960539Y-17320484D02*
X5941491Y-17310960D01*
X5941491Y-17310960D02*
X5931967Y-17301436D01*
X5931967Y-17301436D02*
X5922443Y-17282389D01*
X5922443Y-17282389D02*
X5912920Y-17244293D01*
X5912920Y-17244293D02*
X5912920Y-17196674D01*
X5912920Y-17196674D02*
X5922443Y-17158579D01*
X5922443Y-17158579D02*
X5931967Y-17139531D01*
X5931967Y-17139531D02*
X5941491Y-17130008D01*
X5941491Y-17130008D02*
X5960539Y-17120484D01*
X6112920Y-17320484D02*
X6112920Y-17187150D01*
X6112920Y-17206198D02*
X6122443Y-17196674D01*
X6122443Y-17196674D02*
X6141491Y-17187150D01*
X6141491Y-17187150D02*
X6170063Y-17187150D01*
X6170063Y-17187150D02*
X6189110Y-17196674D01*
X6189110Y-17196674D02*
X6198634Y-17215722D01*
X6198634Y-17215722D02*
X6198634Y-17320484D01*
X6198634Y-17215722D02*
X6208158Y-17196674D01*
X6208158Y-17196674D02*
X6227205Y-17187150D01*
X6227205Y-17187150D02*
X6255777Y-17187150D01*
X6255777Y-17187150D02*
X6274824Y-17196674D01*
X6274824Y-17196674D02*
X6284348Y-17215722D01*
X6284348Y-17215722D02*
X6284348Y-17320484D01*
X6379586Y-17320484D02*
X6379586Y-17187150D01*
X6379586Y-17206198D02*
X6389110Y-17196674D01*
X6389110Y-17196674D02*
X6408158Y-17187150D01*
X6408158Y-17187150D02*
X6436729Y-17187150D01*
X6436729Y-17187150D02*
X6455777Y-17196674D01*
X6455777Y-17196674D02*
X6465301Y-17215722D01*
X6465301Y-17215722D02*
X6465301Y-17320484D01*
X6465301Y-17215722D02*
X6474824Y-17196674D01*
X6474824Y-17196674D02*
X6493872Y-17187150D01*
X6493872Y-17187150D02*
X6522443Y-17187150D01*
X6522443Y-17187150D02*
X6541491Y-17196674D01*
X6541491Y-17196674D02*
X6551015Y-17215722D01*
X6551015Y-17215722D02*
X6551015Y-17320484D01*
X6941491Y-17110960D02*
X6770063Y-17368103D01*
X7198634Y-17120484D02*
X7217682Y-17120484D01*
X7217682Y-17120484D02*
X7236729Y-17130008D01*
X7236729Y-17130008D02*
X7246253Y-17139531D01*
X7246253Y-17139531D02*
X7255777Y-17158579D01*
X7255777Y-17158579D02*
X7265301Y-17196674D01*
X7265301Y-17196674D02*
X7265301Y-17244293D01*
X7265301Y-17244293D02*
X7255777Y-17282389D01*
X7255777Y-17282389D02*
X7246253Y-17301436D01*
X7246253Y-17301436D02*
X7236729Y-17310960D01*
X7236729Y-17310960D02*
X7217682Y-17320484D01*
X7217682Y-17320484D02*
X7198634Y-17320484D01*
X7198634Y-17320484D02*
X7179586Y-17310960D01*
X7179586Y-17310960D02*
X7170063Y-17301436D01*
X7170063Y-17301436D02*
X7160539Y-17282389D01*
X7160539Y-17282389D02*
X7151015Y-17244293D01*
X7151015Y-17244293D02*
X7151015Y-17196674D01*
X7151015Y-17196674D02*
X7160539Y-17158579D01*
X7160539Y-17158579D02*
X7170063Y-17139531D01*
X7170063Y-17139531D02*
X7179586Y-17130008D01*
X7179586Y-17130008D02*
X7198634Y-17120484D01*
X7351015Y-17301436D02*
X7360539Y-17310960D01*
X7360539Y-17310960D02*
X7351015Y-17320484D01*
X7351015Y-17320484D02*
X7341491Y-17310960D01*
X7341491Y-17310960D02*
X7351015Y-17301436D01*
X7351015Y-17301436D02*
X7351015Y-17320484D01*
X7484348Y-17120484D02*
X7503396Y-17120484D01*
X7503396Y-17120484D02*
X7522444Y-17130008D01*
X7522444Y-17130008D02*
X7531967Y-17139531D01*
X7531967Y-17139531D02*
X7541491Y-17158579D01*
X7541491Y-17158579D02*
X7551015Y-17196674D01*
X7551015Y-17196674D02*
X7551015Y-17244293D01*
X7551015Y-17244293D02*
X7541491Y-17282389D01*
X7541491Y-17282389D02*
X7531967Y-17301436D01*
X7531967Y-17301436D02*
X7522444Y-17310960D01*
X7522444Y-17310960D02*
X7503396Y-17320484D01*
X7503396Y-17320484D02*
X7484348Y-17320484D01*
X7484348Y-17320484D02*
X7465301Y-17310960D01*
X7465301Y-17310960D02*
X7455777Y-17301436D01*
X7455777Y-17301436D02*
X7446253Y-17282389D01*
X7446253Y-17282389D02*
X7436729Y-17244293D01*
X7436729Y-17244293D02*
X7436729Y-17196674D01*
X7436729Y-17196674D02*
X7446253Y-17158579D01*
X7446253Y-17158579D02*
X7455777Y-17139531D01*
X7455777Y-17139531D02*
X7465301Y-17130008D01*
X7465301Y-17130008D02*
X7484348Y-17120484D01*
X7617682Y-17120484D02*
X7751015Y-17120484D01*
X7751015Y-17120484D02*
X7665301Y-17320484D01*
X7865301Y-17120484D02*
X7884348Y-17120484D01*
X7884348Y-17120484D02*
X7903396Y-17130008D01*
X7903396Y-17130008D02*
X7912920Y-17139531D01*
X7912920Y-17139531D02*
X7922444Y-17158579D01*
X7922444Y-17158579D02*
X7931967Y-17196674D01*
X7931967Y-17196674D02*
X7931967Y-17244293D01*
X7931967Y-17244293D02*
X7922444Y-17282389D01*
X7922444Y-17282389D02*
X7912920Y-17301436D01*
X7912920Y-17301436D02*
X7903396Y-17310960D01*
X7903396Y-17310960D02*
X7884348Y-17320484D01*
X7884348Y-17320484D02*
X7865301Y-17320484D01*
X7865301Y-17320484D02*
X7846253Y-17310960D01*
X7846253Y-17310960D02*
X7836729Y-17301436D01*
X7836729Y-17301436D02*
X7827206Y-17282389D01*
X7827206Y-17282389D02*
X7817682Y-17244293D01*
X7817682Y-17244293D02*
X7817682Y-17196674D01*
X7817682Y-17196674D02*
X7827206Y-17158579D01*
X7827206Y-17158579D02*
X7836729Y-17139531D01*
X7836729Y-17139531D02*
X7846253Y-17130008D01*
X7846253Y-17130008D02*
X7865301Y-17120484D01*
X8027206Y-17320484D02*
X8065301Y-17320484D01*
X8065301Y-17320484D02*
X8084348Y-17310960D01*
X8084348Y-17310960D02*
X8093872Y-17301436D01*
X8093872Y-17301436D02*
X8112920Y-17272865D01*
X8112920Y-17272865D02*
X8122444Y-17234770D01*
X8122444Y-17234770D02*
X8122444Y-17158579D01*
X8122444Y-17158579D02*
X8112920Y-17139531D01*
X8112920Y-17139531D02*
X8103396Y-17130008D01*
X8103396Y-17130008D02*
X8084348Y-17120484D01*
X8084348Y-17120484D02*
X8046253Y-17120484D01*
X8046253Y-17120484D02*
X8027206Y-17130008D01*
X8027206Y-17130008D02*
X8017682Y-17139531D01*
X8017682Y-17139531D02*
X8008158Y-17158579D01*
X8008158Y-17158579D02*
X8008158Y-17206198D01*
X8008158Y-17206198D02*
X8017682Y-17225246D01*
X8017682Y-17225246D02*
X8027206Y-17234770D01*
X8027206Y-17234770D02*
X8046253Y-17244293D01*
X8046253Y-17244293D02*
X8084348Y-17244293D01*
X8084348Y-17244293D02*
X8103396Y-17234770D01*
X8103396Y-17234770D02*
X8112920Y-17225246D01*
X8112920Y-17225246D02*
X8122444Y-17206198D01*
X8198634Y-17120484D02*
X8198634Y-17158579D01*
X8274825Y-17120484D02*
X8274825Y-17158579D01*
X8570063Y-17396674D02*
X8560539Y-17387150D01*
X8560539Y-17387150D02*
X8541491Y-17358579D01*
X8541491Y-17358579D02*
X8531968Y-17339531D01*
X8531968Y-17339531D02*
X8522444Y-17310960D01*
X8522444Y-17310960D02*
X8512920Y-17263341D01*
X8512920Y-17263341D02*
X8512920Y-17225246D01*
X8512920Y-17225246D02*
X8522444Y-17177627D01*
X8522444Y-17177627D02*
X8531968Y-17149055D01*
X8531968Y-17149055D02*
X8541491Y-17130008D01*
X8541491Y-17130008D02*
X8560539Y-17101436D01*
X8560539Y-17101436D02*
X8570063Y-17091912D01*
X8636730Y-17139531D02*
X8646253Y-17130008D01*
X8646253Y-17130008D02*
X8665301Y-17120484D01*
X8665301Y-17120484D02*
X8712920Y-17120484D01*
X8712920Y-17120484D02*
X8731968Y-17130008D01*
X8731968Y-17130008D02*
X8741491Y-17139531D01*
X8741491Y-17139531D02*
X8751015Y-17158579D01*
X8751015Y-17158579D02*
X8751015Y-17177627D01*
X8751015Y-17177627D02*
X8741491Y-17206198D01*
X8741491Y-17206198D02*
X8627206Y-17320484D01*
X8627206Y-17320484D02*
X8751015Y-17320484D01*
X8989111Y-17320484D02*
X8989111Y-17120484D01*
X9074825Y-17320484D02*
X9074825Y-17215722D01*
X9074825Y-17215722D02*
X9065301Y-17196674D01*
X9065301Y-17196674D02*
X9046253Y-17187150D01*
X9046253Y-17187150D02*
X9017682Y-17187150D01*
X9017682Y-17187150D02*
X8998634Y-17196674D01*
X8998634Y-17196674D02*
X8989111Y-17206198D01*
X9198634Y-17320484D02*
X9179587Y-17310960D01*
X9179587Y-17310960D02*
X9170063Y-17301436D01*
X9170063Y-17301436D02*
X9160539Y-17282389D01*
X9160539Y-17282389D02*
X9160539Y-17225246D01*
X9160539Y-17225246D02*
X9170063Y-17206198D01*
X9170063Y-17206198D02*
X9179587Y-17196674D01*
X9179587Y-17196674D02*
X9198634Y-17187150D01*
X9198634Y-17187150D02*
X9227206Y-17187150D01*
X9227206Y-17187150D02*
X9246253Y-17196674D01*
X9246253Y-17196674D02*
X9255777Y-17206198D01*
X9255777Y-17206198D02*
X9265301Y-17225246D01*
X9265301Y-17225246D02*
X9265301Y-17282389D01*
X9265301Y-17282389D02*
X9255777Y-17301436D01*
X9255777Y-17301436D02*
X9246253Y-17310960D01*
X9246253Y-17310960D02*
X9227206Y-17320484D01*
X9227206Y-17320484D02*
X9198634Y-17320484D01*
X9379587Y-17320484D02*
X9360539Y-17310960D01*
X9360539Y-17310960D02*
X9351015Y-17291912D01*
X9351015Y-17291912D02*
X9351015Y-17120484D01*
X9531968Y-17310960D02*
X9512920Y-17320484D01*
X9512920Y-17320484D02*
X9474825Y-17320484D01*
X9474825Y-17320484D02*
X9455777Y-17310960D01*
X9455777Y-17310960D02*
X9446253Y-17291912D01*
X9446253Y-17291912D02*
X9446253Y-17215722D01*
X9446253Y-17215722D02*
X9455777Y-17196674D01*
X9455777Y-17196674D02*
X9474825Y-17187150D01*
X9474825Y-17187150D02*
X9512920Y-17187150D01*
X9512920Y-17187150D02*
X9531968Y-17196674D01*
X9531968Y-17196674D02*
X9541492Y-17215722D01*
X9541492Y-17215722D02*
X9541492Y-17234770D01*
X9541492Y-17234770D02*
X9446253Y-17253817D01*
X9617682Y-17310960D02*
X9636730Y-17320484D01*
X9636730Y-17320484D02*
X9674825Y-17320484D01*
X9674825Y-17320484D02*
X9693873Y-17310960D01*
X9693873Y-17310960D02*
X9703396Y-17291912D01*
X9703396Y-17291912D02*
X9703396Y-17282389D01*
X9703396Y-17282389D02*
X9693873Y-17263341D01*
X9693873Y-17263341D02*
X9674825Y-17253817D01*
X9674825Y-17253817D02*
X9646253Y-17253817D01*
X9646253Y-17253817D02*
X9627206Y-17244293D01*
X9627206Y-17244293D02*
X9617682Y-17225246D01*
X9617682Y-17225246D02*
X9617682Y-17215722D01*
X9617682Y-17215722D02*
X9627206Y-17196674D01*
X9627206Y-17196674D02*
X9646253Y-17187150D01*
X9646253Y-17187150D02*
X9674825Y-17187150D01*
X9674825Y-17187150D02*
X9693873Y-17196674D01*
X9770063Y-17396674D02*
X9779587Y-17387150D01*
X9779587Y-17387150D02*
X9798634Y-17358579D01*
X9798634Y-17358579D02*
X9808158Y-17339531D01*
X9808158Y-17339531D02*
X9817682Y-17310960D01*
X9817682Y-17310960D02*
X9827206Y-17263341D01*
X9827206Y-17263341D02*
X9827206Y-17225246D01*
X9827206Y-17225246D02*
X9817682Y-17177627D01*
X9817682Y-17177627D02*
X9808158Y-17149055D01*
X9808158Y-17149055D02*
X9798634Y-17130008D01*
X9798634Y-17130008D02*
X9779587Y-17101436D01*
X9779587Y-17101436D02*
X9770063Y-17091912D01*
M02*
