G04 #@! TF.GenerationSoftware,KiCad,Pcbnew,8.0.6*
G04 #@! TF.CreationDate,2024-10-16T19:18:14+02:00*
G04 #@! TF.ProjectId,esp_music_vis,6573705f-6d75-4736-9963-5f7669732e6b,rev?*
G04 #@! TF.SameCoordinates,Original*
G04 #@! TF.FileFunction,Legend,Top*
G04 #@! TF.FilePolarity,Positive*
%FSLAX46Y46*%
G04 Gerber Fmt 4.6, Leading zero omitted, Abs format (unit mm)*
G04 Created by KiCad (PCBNEW 8.0.6) date 2024-10-16 19:18:14*
%MOMM*%
%LPD*%
G01*
G04 APERTURE LIST*
G04 Aperture macros list*
%AMRoundRect*
0 Rectangle with rounded corners*
0 $1 Rounding radius*
0 $2 $3 $4 $5 $6 $7 $8 $9 X,Y pos of 4 corners*
0 Add a 4 corners polygon primitive as box body*
4,1,4,$2,$3,$4,$5,$6,$7,$8,$9,$2,$3,0*
0 Add four circle primitives for the rounded corners*
1,1,$1+$1,$2,$3*
1,1,$1+$1,$4,$5*
1,1,$1+$1,$6,$7*
1,1,$1+$1,$8,$9*
0 Add four rect primitives between the rounded corners*
20,1,$1+$1,$2,$3,$4,$5,0*
20,1,$1+$1,$4,$5,$6,$7,0*
20,1,$1+$1,$6,$7,$8,$9,0*
20,1,$1+$1,$8,$9,$2,$3,0*%
G04 Aperture macros list end*
%ADD10C,0.250000*%
%ADD11C,0.300000*%
%ADD12C,1.000000*%
%ADD13C,0.150000*%
%ADD14C,0.500000*%
%ADD15C,0.350000*%
%ADD16C,0.120000*%
%ADD17RoundRect,1.062500X-1.187500X-1.062500X1.187500X-1.062500X1.187500X1.062500X-1.187500X1.062500X0*%
%ADD18RoundRect,0.500000X0.500000X-4.000000X0.500000X4.000000X-0.500000X4.000000X-0.500000X-4.000000X0*%
%ADD19RoundRect,0.500000X-1.000000X0.500000X-1.000000X-0.500000X1.000000X-0.500000X1.000000X0.500000X0*%
%ADD20RoundRect,0.500000X-0.500000X-1.000000X0.500000X-1.000000X0.500000X1.000000X-0.500000X1.000000X0*%
%ADD21RoundRect,0.500000X-5.000000X-0.500000X5.000000X-0.500000X5.000000X0.500000X-5.000000X0.500000X0*%
%ADD22RoundRect,0.250000X-1.550000X0.650000X-1.550000X-0.650000X1.550000X-0.650000X1.550000X0.650000X0*%
%ADD23O,3.600000X1.800000*%
%ADD24R,1.700000X1.700000*%
%ADD25O,1.700000X1.700000*%
%ADD26C,1.600000*%
%ADD27O,1.600000X1.600000*%
%ADD28R,3.000000X3.000000*%
%ADD29C,3.000000*%
%ADD30R,1.800000X1.800000*%
%ADD31C,1.800000*%
%ADD32RoundRect,0.250000X1.550000X-0.650000X1.550000X0.650000X-1.550000X0.650000X-1.550000X-0.650000X0*%
%ADD33RoundRect,0.250000X-0.650000X-1.550000X0.650000X-1.550000X0.650000X1.550000X-0.650000X1.550000X0*%
%ADD34O,1.800000X3.600000*%
G04 APERTURE END LIST*
D10*
X88893044Y-115042238D02*
X87940663Y-115042238D01*
X87940663Y-115042238D02*
X87940663Y-113042238D01*
X89559711Y-115042238D02*
X89559711Y-113042238D01*
X89559711Y-113042238D02*
X90035901Y-113042238D01*
X90035901Y-113042238D02*
X90321616Y-113137476D01*
X90321616Y-113137476D02*
X90512092Y-113327952D01*
X90512092Y-113327952D02*
X90607330Y-113518428D01*
X90607330Y-113518428D02*
X90702568Y-113899380D01*
X90702568Y-113899380D02*
X90702568Y-114185095D01*
X90702568Y-114185095D02*
X90607330Y-114566047D01*
X90607330Y-114566047D02*
X90512092Y-114756523D01*
X90512092Y-114756523D02*
X90321616Y-114947000D01*
X90321616Y-114947000D02*
X90035901Y-115042238D01*
X90035901Y-115042238D02*
X89559711Y-115042238D01*
X92702568Y-115042238D02*
X92035901Y-114089857D01*
X91559711Y-115042238D02*
X91559711Y-113042238D01*
X91559711Y-113042238D02*
X92321616Y-113042238D01*
X92321616Y-113042238D02*
X92512092Y-113137476D01*
X92512092Y-113137476D02*
X92607330Y-113232714D01*
X92607330Y-113232714D02*
X92702568Y-113423190D01*
X92702568Y-113423190D02*
X92702568Y-113708904D01*
X92702568Y-113708904D02*
X92607330Y-113899380D01*
X92607330Y-113899380D02*
X92512092Y-113994619D01*
X92512092Y-113994619D02*
X92321616Y-114089857D01*
X92321616Y-114089857D02*
X91559711Y-114089857D01*
X141454949Y-146242238D02*
X142597806Y-146242238D01*
X142026377Y-148242238D02*
X142026377Y-146242238D01*
X143073997Y-146242238D02*
X144312092Y-146242238D01*
X144312092Y-146242238D02*
X143645425Y-147004142D01*
X143645425Y-147004142D02*
X143931140Y-147004142D01*
X143931140Y-147004142D02*
X144121616Y-147099380D01*
X144121616Y-147099380D02*
X144216854Y-147194619D01*
X144216854Y-147194619D02*
X144312092Y-147385095D01*
X144312092Y-147385095D02*
X144312092Y-147861285D01*
X144312092Y-147861285D02*
X144216854Y-148051761D01*
X144216854Y-148051761D02*
X144121616Y-148147000D01*
X144121616Y-148147000D02*
X143931140Y-148242238D01*
X143931140Y-148242238D02*
X143359711Y-148242238D01*
X143359711Y-148242238D02*
X143169235Y-148147000D01*
X143169235Y-148147000D02*
X143073997Y-148051761D01*
X125554949Y-146242238D02*
X126697806Y-146242238D01*
X126126377Y-148242238D02*
X126126377Y-146242238D01*
X127269235Y-146432714D02*
X127364473Y-146337476D01*
X127364473Y-146337476D02*
X127554949Y-146242238D01*
X127554949Y-146242238D02*
X128031140Y-146242238D01*
X128031140Y-146242238D02*
X128221616Y-146337476D01*
X128221616Y-146337476D02*
X128316854Y-146432714D01*
X128316854Y-146432714D02*
X128412092Y-146623190D01*
X128412092Y-146623190D02*
X128412092Y-146813666D01*
X128412092Y-146813666D02*
X128316854Y-147099380D01*
X128316854Y-147099380D02*
X127173997Y-148242238D01*
X127173997Y-148242238D02*
X128412092Y-148242238D01*
X109354949Y-146242238D02*
X110497806Y-146242238D01*
X109926377Y-148242238D02*
X109926377Y-146242238D01*
X112212092Y-148242238D02*
X111069235Y-148242238D01*
X111640663Y-148242238D02*
X111640663Y-146242238D01*
X111640663Y-146242238D02*
X111450187Y-146527952D01*
X111450187Y-146527952D02*
X111259711Y-146718428D01*
X111259711Y-146718428D02*
X111069235Y-146813666D01*
D11*
X114373558Y-108219750D02*
X114373558Y-106219750D01*
X114373558Y-106219750D02*
X115135463Y-106219750D01*
X115135463Y-106219750D02*
X115325939Y-106314988D01*
X115325939Y-106314988D02*
X115421177Y-106410226D01*
X115421177Y-106410226D02*
X115516415Y-106600702D01*
X115516415Y-106600702D02*
X115516415Y-106886416D01*
X115516415Y-106886416D02*
X115421177Y-107076892D01*
X115421177Y-107076892D02*
X115325939Y-107172131D01*
X115325939Y-107172131D02*
X115135463Y-107267369D01*
X115135463Y-107267369D02*
X114373558Y-107267369D01*
X117230701Y-108219750D02*
X117230701Y-107172131D01*
X117230701Y-107172131D02*
X117135463Y-106981654D01*
X117135463Y-106981654D02*
X116944987Y-106886416D01*
X116944987Y-106886416D02*
X116564034Y-106886416D01*
X116564034Y-106886416D02*
X116373558Y-106981654D01*
X117230701Y-108124512D02*
X117040225Y-108219750D01*
X117040225Y-108219750D02*
X116564034Y-108219750D01*
X116564034Y-108219750D02*
X116373558Y-108124512D01*
X116373558Y-108124512D02*
X116278320Y-107934035D01*
X116278320Y-107934035D02*
X116278320Y-107743559D01*
X116278320Y-107743559D02*
X116373558Y-107553083D01*
X116373558Y-107553083D02*
X116564034Y-107457845D01*
X116564034Y-107457845D02*
X117040225Y-107457845D01*
X117040225Y-107457845D02*
X117230701Y-107362607D01*
X117992606Y-106886416D02*
X118373558Y-108219750D01*
X118373558Y-108219750D02*
X118754511Y-107267369D01*
X118754511Y-107267369D02*
X119135463Y-108219750D01*
X119135463Y-108219750D02*
X119516415Y-106886416D01*
X121040225Y-108124512D02*
X120849749Y-108219750D01*
X120849749Y-108219750D02*
X120468796Y-108219750D01*
X120468796Y-108219750D02*
X120278320Y-108124512D01*
X120278320Y-108124512D02*
X120183082Y-107934035D01*
X120183082Y-107934035D02*
X120183082Y-107172131D01*
X120183082Y-107172131D02*
X120278320Y-106981654D01*
X120278320Y-106981654D02*
X120468796Y-106886416D01*
X120468796Y-106886416D02*
X120849749Y-106886416D01*
X120849749Y-106886416D02*
X121040225Y-106981654D01*
X121040225Y-106981654D02*
X121135463Y-107172131D01*
X121135463Y-107172131D02*
X121135463Y-107362607D01*
X121135463Y-107362607D02*
X120183082Y-107553083D01*
X122278320Y-108219750D02*
X122087844Y-108124512D01*
X122087844Y-108124512D02*
X121992606Y-107934035D01*
X121992606Y-107934035D02*
X121992606Y-106219750D01*
X124373559Y-106219750D02*
X124849749Y-108219750D01*
X124849749Y-108219750D02*
X125230702Y-106791178D01*
X125230702Y-106791178D02*
X125611654Y-108219750D01*
X125611654Y-108219750D02*
X126087845Y-106219750D01*
X127706892Y-108219750D02*
X127706892Y-107172131D01*
X127706892Y-107172131D02*
X127611654Y-106981654D01*
X127611654Y-106981654D02*
X127421178Y-106886416D01*
X127421178Y-106886416D02*
X127040225Y-106886416D01*
X127040225Y-106886416D02*
X126849749Y-106981654D01*
X127706892Y-108124512D02*
X127516416Y-108219750D01*
X127516416Y-108219750D02*
X127040225Y-108219750D01*
X127040225Y-108219750D02*
X126849749Y-108124512D01*
X126849749Y-108124512D02*
X126754511Y-107934035D01*
X126754511Y-107934035D02*
X126754511Y-107743559D01*
X126754511Y-107743559D02*
X126849749Y-107553083D01*
X126849749Y-107553083D02*
X127040225Y-107457845D01*
X127040225Y-107457845D02*
X127516416Y-107457845D01*
X127516416Y-107457845D02*
X127706892Y-107362607D01*
X128468797Y-106886416D02*
X128849749Y-108219750D01*
X128849749Y-108219750D02*
X129230702Y-107267369D01*
X129230702Y-107267369D02*
X129611654Y-108219750D01*
X129611654Y-108219750D02*
X129992606Y-106886416D01*
X130754511Y-108219750D02*
X130754511Y-106886416D01*
X130754511Y-107267369D02*
X130849749Y-107076892D01*
X130849749Y-107076892D02*
X130944987Y-106981654D01*
X130944987Y-106981654D02*
X131135463Y-106886416D01*
X131135463Y-106886416D02*
X131325940Y-106886416D01*
X132278320Y-108219750D02*
X132087844Y-108124512D01*
X132087844Y-108124512D02*
X131992606Y-108029273D01*
X131992606Y-108029273D02*
X131897368Y-107838797D01*
X131897368Y-107838797D02*
X131897368Y-107267369D01*
X131897368Y-107267369D02*
X131992606Y-107076892D01*
X131992606Y-107076892D02*
X132087844Y-106981654D01*
X132087844Y-106981654D02*
X132278320Y-106886416D01*
X132278320Y-106886416D02*
X132564035Y-106886416D01*
X132564035Y-106886416D02*
X132754511Y-106981654D01*
X132754511Y-106981654D02*
X132849749Y-107076892D01*
X132849749Y-107076892D02*
X132944987Y-107267369D01*
X132944987Y-107267369D02*
X132944987Y-107838797D01*
X132944987Y-107838797D02*
X132849749Y-108029273D01*
X132849749Y-108029273D02*
X132754511Y-108124512D01*
X132754511Y-108124512D02*
X132564035Y-108219750D01*
X132564035Y-108219750D02*
X132278320Y-108219750D01*
X133611654Y-106886416D02*
X133992606Y-108219750D01*
X133992606Y-108219750D02*
X134373559Y-107267369D01*
X134373559Y-107267369D02*
X134754511Y-108219750D01*
X134754511Y-108219750D02*
X135135463Y-106886416D01*
X114373558Y-111439638D02*
X114373558Y-109439638D01*
X114373558Y-109439638D02*
X114849748Y-109439638D01*
X114849748Y-109439638D02*
X115135463Y-109534876D01*
X115135463Y-109534876D02*
X115325939Y-109725352D01*
X115325939Y-109725352D02*
X115421177Y-109915828D01*
X115421177Y-109915828D02*
X115516415Y-110296780D01*
X115516415Y-110296780D02*
X115516415Y-110582495D01*
X115516415Y-110582495D02*
X115421177Y-110963447D01*
X115421177Y-110963447D02*
X115325939Y-111153923D01*
X115325939Y-111153923D02*
X115135463Y-111344400D01*
X115135463Y-111344400D02*
X114849748Y-111439638D01*
X114849748Y-111439638D02*
X114373558Y-111439638D01*
X117230701Y-111439638D02*
X117230701Y-110392019D01*
X117230701Y-110392019D02*
X117135463Y-110201542D01*
X117135463Y-110201542D02*
X116944987Y-110106304D01*
X116944987Y-110106304D02*
X116564034Y-110106304D01*
X116564034Y-110106304D02*
X116373558Y-110201542D01*
X117230701Y-111344400D02*
X117040225Y-111439638D01*
X117040225Y-111439638D02*
X116564034Y-111439638D01*
X116564034Y-111439638D02*
X116373558Y-111344400D01*
X116373558Y-111344400D02*
X116278320Y-111153923D01*
X116278320Y-111153923D02*
X116278320Y-110963447D01*
X116278320Y-110963447D02*
X116373558Y-110772971D01*
X116373558Y-110772971D02*
X116564034Y-110677733D01*
X116564034Y-110677733D02*
X117040225Y-110677733D01*
X117040225Y-110677733D02*
X117230701Y-110582495D01*
X117992606Y-110106304D02*
X118373558Y-111439638D01*
X118373558Y-111439638D02*
X118754511Y-110487257D01*
X118754511Y-110487257D02*
X119135463Y-111439638D01*
X119135463Y-111439638D02*
X119516415Y-110106304D01*
X120278320Y-111439638D02*
X120278320Y-110106304D01*
X120278320Y-109439638D02*
X120183082Y-109534876D01*
X120183082Y-109534876D02*
X120278320Y-109630114D01*
X120278320Y-109630114D02*
X120373558Y-109534876D01*
X120373558Y-109534876D02*
X120278320Y-109439638D01*
X120278320Y-109439638D02*
X120278320Y-109630114D01*
X122087844Y-111439638D02*
X122087844Y-109439638D01*
X122087844Y-111344400D02*
X121897368Y-111439638D01*
X121897368Y-111439638D02*
X121516415Y-111439638D01*
X121516415Y-111439638D02*
X121325939Y-111344400D01*
X121325939Y-111344400D02*
X121230701Y-111249161D01*
X121230701Y-111249161D02*
X121135463Y-111058685D01*
X121135463Y-111058685D02*
X121135463Y-110487257D01*
X121135463Y-110487257D02*
X121230701Y-110296780D01*
X121230701Y-110296780D02*
X121325939Y-110201542D01*
X121325939Y-110201542D02*
X121516415Y-110106304D01*
X121516415Y-110106304D02*
X121897368Y-110106304D01*
X121897368Y-110106304D02*
X122087844Y-110201542D01*
X125611654Y-109534876D02*
X125421178Y-109439638D01*
X125421178Y-109439638D02*
X125135464Y-109439638D01*
X125135464Y-109439638D02*
X124849749Y-109534876D01*
X124849749Y-109534876D02*
X124659273Y-109725352D01*
X124659273Y-109725352D02*
X124564035Y-109915828D01*
X124564035Y-109915828D02*
X124468797Y-110296780D01*
X124468797Y-110296780D02*
X124468797Y-110582495D01*
X124468797Y-110582495D02*
X124564035Y-110963447D01*
X124564035Y-110963447D02*
X124659273Y-111153923D01*
X124659273Y-111153923D02*
X124849749Y-111344400D01*
X124849749Y-111344400D02*
X125135464Y-111439638D01*
X125135464Y-111439638D02*
X125325940Y-111439638D01*
X125325940Y-111439638D02*
X125611654Y-111344400D01*
X125611654Y-111344400D02*
X125706892Y-111249161D01*
X125706892Y-111249161D02*
X125706892Y-110582495D01*
X125706892Y-110582495D02*
X125325940Y-110582495D01*
X126849749Y-111439638D02*
X126659273Y-111344400D01*
X126659273Y-111344400D02*
X126564035Y-111249161D01*
X126564035Y-111249161D02*
X126468797Y-111058685D01*
X126468797Y-111058685D02*
X126468797Y-110487257D01*
X126468797Y-110487257D02*
X126564035Y-110296780D01*
X126564035Y-110296780D02*
X126659273Y-110201542D01*
X126659273Y-110201542D02*
X126849749Y-110106304D01*
X126849749Y-110106304D02*
X127135464Y-110106304D01*
X127135464Y-110106304D02*
X127325940Y-110201542D01*
X127325940Y-110201542D02*
X127421178Y-110296780D01*
X127421178Y-110296780D02*
X127516416Y-110487257D01*
X127516416Y-110487257D02*
X127516416Y-111058685D01*
X127516416Y-111058685D02*
X127421178Y-111249161D01*
X127421178Y-111249161D02*
X127325940Y-111344400D01*
X127325940Y-111344400D02*
X127135464Y-111439638D01*
X127135464Y-111439638D02*
X126849749Y-111439638D01*
X129230702Y-111439638D02*
X129230702Y-109439638D01*
X129230702Y-111344400D02*
X129040226Y-111439638D01*
X129040226Y-111439638D02*
X128659273Y-111439638D01*
X128659273Y-111439638D02*
X128468797Y-111344400D01*
X128468797Y-111344400D02*
X128373559Y-111249161D01*
X128373559Y-111249161D02*
X128278321Y-111058685D01*
X128278321Y-111058685D02*
X128278321Y-110487257D01*
X128278321Y-110487257D02*
X128373559Y-110296780D01*
X128373559Y-110296780D02*
X128468797Y-110201542D01*
X128468797Y-110201542D02*
X128659273Y-110106304D01*
X128659273Y-110106304D02*
X129040226Y-110106304D01*
X129040226Y-110106304D02*
X129230702Y-110201542D01*
X131040226Y-110106304D02*
X131040226Y-111439638D01*
X130183083Y-110106304D02*
X130183083Y-111153923D01*
X130183083Y-111153923D02*
X130278321Y-111344400D01*
X130278321Y-111344400D02*
X130468797Y-111439638D01*
X130468797Y-111439638D02*
X130754512Y-111439638D01*
X130754512Y-111439638D02*
X130944988Y-111344400D01*
X130944988Y-111344400D02*
X131040226Y-111249161D01*
X132278321Y-111439638D02*
X132087845Y-111344400D01*
X132087845Y-111344400D02*
X131992607Y-111153923D01*
X131992607Y-111153923D02*
X131992607Y-109439638D01*
X133897369Y-111439638D02*
X133897369Y-110392019D01*
X133897369Y-110392019D02*
X133802131Y-110201542D01*
X133802131Y-110201542D02*
X133611655Y-110106304D01*
X133611655Y-110106304D02*
X133230702Y-110106304D01*
X133230702Y-110106304D02*
X133040226Y-110201542D01*
X133897369Y-111344400D02*
X133706893Y-111439638D01*
X133706893Y-111439638D02*
X133230702Y-111439638D01*
X133230702Y-111439638D02*
X133040226Y-111344400D01*
X133040226Y-111344400D02*
X132944988Y-111153923D01*
X132944988Y-111153923D02*
X132944988Y-110963447D01*
X132944988Y-110963447D02*
X133040226Y-110772971D01*
X133040226Y-110772971D02*
X133230702Y-110677733D01*
X133230702Y-110677733D02*
X133706893Y-110677733D01*
X133706893Y-110677733D02*
X133897369Y-110582495D01*
D12*
X140900000Y-55000000D02*
X129500000Y-55000000D01*
X129500000Y-55000000D02*
X131700000Y-57200000D01*
X129500000Y-55000000D02*
X131800000Y-52700000D01*
X73300000Y-54800000D02*
X71000000Y-57100000D01*
X73300000Y-54800000D02*
X71100000Y-52600000D01*
X61900000Y-54800000D02*
X73300000Y-54800000D01*
X106800000Y-65700000D02*
X104500000Y-68000000D01*
X106800000Y-65700000D02*
X104600000Y-63500000D01*
X95400000Y-65700000D02*
X106800000Y-65700000D01*
X106700000Y-75000000D02*
X104400000Y-77300000D01*
X106700000Y-75000000D02*
X104500000Y-72800000D01*
X95300000Y-75000000D02*
X106700000Y-75000000D01*
X81700000Y-95900000D02*
X83900000Y-98100000D01*
X81700000Y-95900000D02*
X84000000Y-93600000D01*
X93100000Y-95900000D02*
X81700000Y-95900000D01*
D13*
X149579819Y-66433333D02*
X149103628Y-66766666D01*
X149579819Y-67004761D02*
X148579819Y-67004761D01*
X148579819Y-67004761D02*
X148579819Y-66623809D01*
X148579819Y-66623809D02*
X148627438Y-66528571D01*
X148627438Y-66528571D02*
X148675057Y-66480952D01*
X148675057Y-66480952D02*
X148770295Y-66433333D01*
X148770295Y-66433333D02*
X148913152Y-66433333D01*
X148913152Y-66433333D02*
X149008390Y-66480952D01*
X149008390Y-66480952D02*
X149056009Y-66528571D01*
X149056009Y-66528571D02*
X149103628Y-66623809D01*
X149103628Y-66623809D02*
X149103628Y-67004761D01*
X149056009Y-66004761D02*
X149056009Y-65671428D01*
X149579819Y-65528571D02*
X149579819Y-66004761D01*
X149579819Y-66004761D02*
X148579819Y-66004761D01*
X148579819Y-66004761D02*
X148579819Y-65528571D01*
X149056009Y-64766666D02*
X149056009Y-65099999D01*
X149579819Y-65099999D02*
X148579819Y-65099999D01*
X148579819Y-65099999D02*
X148579819Y-64623809D01*
X148579819Y-64099999D02*
X148817914Y-64099999D01*
X148722676Y-64338094D02*
X148817914Y-64099999D01*
X148817914Y-64099999D02*
X148722676Y-63861904D01*
X149008390Y-64242856D02*
X148817914Y-64099999D01*
X148817914Y-64099999D02*
X149008390Y-63957142D01*
X148579819Y-63338094D02*
X148817914Y-63338094D01*
X148722676Y-63576189D02*
X148817914Y-63338094D01*
X148817914Y-63338094D02*
X148722676Y-63099999D01*
X149008390Y-63480951D02*
X148817914Y-63338094D01*
X148817914Y-63338094D02*
X149008390Y-63195237D01*
X66750000Y-100000000D02*
X66750000Y-80000000D01*
X133250000Y-100000000D02*
X133250000Y-80000000D01*
D12*
X150000000Y-100000000D02*
X50000000Y-100000000D01*
D14*
X150000000Y-70000000D02*
X50000000Y-70000000D01*
X150000000Y-80000000D02*
X50000000Y-80000000D01*
X150000000Y-60000000D02*
X50000000Y-60000000D01*
D13*
X51779819Y-66333333D02*
X51303628Y-66666666D01*
X51779819Y-66904761D02*
X50779819Y-66904761D01*
X50779819Y-66904761D02*
X50779819Y-66523809D01*
X50779819Y-66523809D02*
X50827438Y-66428571D01*
X50827438Y-66428571D02*
X50875057Y-66380952D01*
X50875057Y-66380952D02*
X50970295Y-66333333D01*
X50970295Y-66333333D02*
X51113152Y-66333333D01*
X51113152Y-66333333D02*
X51208390Y-66380952D01*
X51208390Y-66380952D02*
X51256009Y-66428571D01*
X51256009Y-66428571D02*
X51303628Y-66523809D01*
X51303628Y-66523809D02*
X51303628Y-66904761D01*
X51256009Y-65904761D02*
X51256009Y-65571428D01*
X51779819Y-65428571D02*
X51779819Y-65904761D01*
X51779819Y-65904761D02*
X50779819Y-65904761D01*
X50779819Y-65904761D02*
X50779819Y-65428571D01*
X51256009Y-64666666D02*
X51256009Y-64999999D01*
X51779819Y-64999999D02*
X50779819Y-64999999D01*
X50779819Y-64999999D02*
X50779819Y-64523809D01*
X50779819Y-63999999D02*
X51017914Y-63999999D01*
X50922676Y-64238094D02*
X51017914Y-63999999D01*
X51017914Y-63999999D02*
X50922676Y-63761904D01*
X51208390Y-64142856D02*
X51017914Y-63999999D01*
X51017914Y-63999999D02*
X51208390Y-63857142D01*
X50779819Y-63238094D02*
X51017914Y-63238094D01*
X50922676Y-63476189D02*
X51017914Y-63238094D01*
X51017914Y-63238094D02*
X50922676Y-62999999D01*
X51208390Y-63380951D02*
X51017914Y-63238094D01*
X51017914Y-63238094D02*
X51208390Y-63095237D01*
X149604819Y-76433333D02*
X149128628Y-76766666D01*
X149604819Y-77004761D02*
X148604819Y-77004761D01*
X148604819Y-77004761D02*
X148604819Y-76623809D01*
X148604819Y-76623809D02*
X148652438Y-76528571D01*
X148652438Y-76528571D02*
X148700057Y-76480952D01*
X148700057Y-76480952D02*
X148795295Y-76433333D01*
X148795295Y-76433333D02*
X148938152Y-76433333D01*
X148938152Y-76433333D02*
X149033390Y-76480952D01*
X149033390Y-76480952D02*
X149081009Y-76528571D01*
X149081009Y-76528571D02*
X149128628Y-76623809D01*
X149128628Y-76623809D02*
X149128628Y-77004761D01*
X149081009Y-76004761D02*
X149081009Y-75671428D01*
X149604819Y-75528571D02*
X149604819Y-76004761D01*
X149604819Y-76004761D02*
X148604819Y-76004761D01*
X148604819Y-76004761D02*
X148604819Y-75528571D01*
X149081009Y-74766666D02*
X149081009Y-75099999D01*
X149604819Y-75099999D02*
X148604819Y-75099999D01*
X148604819Y-75099999D02*
X148604819Y-74623809D01*
X148604819Y-74099999D02*
X148842914Y-74099999D01*
X148747676Y-74338094D02*
X148842914Y-74099999D01*
X148842914Y-74099999D02*
X148747676Y-73861904D01*
X149033390Y-74242856D02*
X148842914Y-74099999D01*
X148842914Y-74099999D02*
X149033390Y-73957142D01*
X148604819Y-73338094D02*
X148842914Y-73338094D01*
X148747676Y-73576189D02*
X148842914Y-73338094D01*
X148842914Y-73338094D02*
X148747676Y-73099999D01*
X149033390Y-73480951D02*
X148842914Y-73338094D01*
X148842914Y-73338094D02*
X149033390Y-73195237D01*
X51804819Y-76333333D02*
X51328628Y-76666666D01*
X51804819Y-76904761D02*
X50804819Y-76904761D01*
X50804819Y-76904761D02*
X50804819Y-76523809D01*
X50804819Y-76523809D02*
X50852438Y-76428571D01*
X50852438Y-76428571D02*
X50900057Y-76380952D01*
X50900057Y-76380952D02*
X50995295Y-76333333D01*
X50995295Y-76333333D02*
X51138152Y-76333333D01*
X51138152Y-76333333D02*
X51233390Y-76380952D01*
X51233390Y-76380952D02*
X51281009Y-76428571D01*
X51281009Y-76428571D02*
X51328628Y-76523809D01*
X51328628Y-76523809D02*
X51328628Y-76904761D01*
X51281009Y-75904761D02*
X51281009Y-75571428D01*
X51804819Y-75428571D02*
X51804819Y-75904761D01*
X51804819Y-75904761D02*
X50804819Y-75904761D01*
X50804819Y-75904761D02*
X50804819Y-75428571D01*
X51281009Y-74666666D02*
X51281009Y-74999999D01*
X51804819Y-74999999D02*
X50804819Y-74999999D01*
X50804819Y-74999999D02*
X50804819Y-74523809D01*
X50804819Y-73999999D02*
X51042914Y-73999999D01*
X50947676Y-74238094D02*
X51042914Y-73999999D01*
X51042914Y-73999999D02*
X50947676Y-73761904D01*
X51233390Y-74142856D02*
X51042914Y-73999999D01*
X51042914Y-73999999D02*
X51233390Y-73857142D01*
X50804819Y-73238094D02*
X51042914Y-73238094D01*
X50947676Y-73476189D02*
X51042914Y-73238094D01*
X51042914Y-73238094D02*
X50947676Y-72999999D01*
X51233390Y-73380951D02*
X51042914Y-73238094D01*
X51042914Y-73238094D02*
X51233390Y-73095237D01*
X125366666Y-92954819D02*
X125033333Y-92478628D01*
X124795238Y-92954819D02*
X124795238Y-91954819D01*
X124795238Y-91954819D02*
X125176190Y-91954819D01*
X125176190Y-91954819D02*
X125271428Y-92002438D01*
X125271428Y-92002438D02*
X125319047Y-92050057D01*
X125319047Y-92050057D02*
X125366666Y-92145295D01*
X125366666Y-92145295D02*
X125366666Y-92288152D01*
X125366666Y-92288152D02*
X125319047Y-92383390D01*
X125319047Y-92383390D02*
X125271428Y-92431009D01*
X125271428Y-92431009D02*
X125176190Y-92478628D01*
X125176190Y-92478628D02*
X124795238Y-92478628D01*
X125795238Y-92431009D02*
X126128571Y-92431009D01*
X126271428Y-92954819D02*
X125795238Y-92954819D01*
X125795238Y-92954819D02*
X125795238Y-91954819D01*
X125795238Y-91954819D02*
X126271428Y-91954819D01*
X127033333Y-92431009D02*
X126700000Y-92431009D01*
X126700000Y-92954819D02*
X126700000Y-91954819D01*
X126700000Y-91954819D02*
X127176190Y-91954819D01*
X127700000Y-91954819D02*
X127700000Y-92192914D01*
X127461905Y-92097676D02*
X127700000Y-92192914D01*
X127700000Y-92192914D02*
X127938095Y-92097676D01*
X127557143Y-92383390D02*
X127700000Y-92192914D01*
X127700000Y-92192914D02*
X127842857Y-92383390D01*
X128461905Y-91954819D02*
X128461905Y-92192914D01*
X128223810Y-92097676D02*
X128461905Y-92192914D01*
X128461905Y-92192914D02*
X128700000Y-92097676D01*
X128319048Y-92383390D02*
X128461905Y-92192914D01*
X128461905Y-92192914D02*
X128604762Y-92383390D01*
X97766666Y-92954819D02*
X97433333Y-92478628D01*
X97195238Y-92954819D02*
X97195238Y-91954819D01*
X97195238Y-91954819D02*
X97576190Y-91954819D01*
X97576190Y-91954819D02*
X97671428Y-92002438D01*
X97671428Y-92002438D02*
X97719047Y-92050057D01*
X97719047Y-92050057D02*
X97766666Y-92145295D01*
X97766666Y-92145295D02*
X97766666Y-92288152D01*
X97766666Y-92288152D02*
X97719047Y-92383390D01*
X97719047Y-92383390D02*
X97671428Y-92431009D01*
X97671428Y-92431009D02*
X97576190Y-92478628D01*
X97576190Y-92478628D02*
X97195238Y-92478628D01*
X98195238Y-92431009D02*
X98528571Y-92431009D01*
X98671428Y-92954819D02*
X98195238Y-92954819D01*
X98195238Y-92954819D02*
X98195238Y-91954819D01*
X98195238Y-91954819D02*
X98671428Y-91954819D01*
X99433333Y-92431009D02*
X99100000Y-92431009D01*
X99100000Y-92954819D02*
X99100000Y-91954819D01*
X99100000Y-91954819D02*
X99576190Y-91954819D01*
X100100000Y-91954819D02*
X100100000Y-92192914D01*
X99861905Y-92097676D02*
X100100000Y-92192914D01*
X100100000Y-92192914D02*
X100338095Y-92097676D01*
X99957143Y-92383390D02*
X100100000Y-92192914D01*
X100100000Y-92192914D02*
X100242857Y-92383390D01*
X100861905Y-91954819D02*
X100861905Y-92192914D01*
X100623810Y-92097676D02*
X100861905Y-92192914D01*
X100861905Y-92192914D02*
X101100000Y-92097676D01*
X100719048Y-92383390D02*
X100861905Y-92192914D01*
X100861905Y-92192914D02*
X101004762Y-92383390D01*
X70016666Y-92954819D02*
X69683333Y-92478628D01*
X69445238Y-92954819D02*
X69445238Y-91954819D01*
X69445238Y-91954819D02*
X69826190Y-91954819D01*
X69826190Y-91954819D02*
X69921428Y-92002438D01*
X69921428Y-92002438D02*
X69969047Y-92050057D01*
X69969047Y-92050057D02*
X70016666Y-92145295D01*
X70016666Y-92145295D02*
X70016666Y-92288152D01*
X70016666Y-92288152D02*
X69969047Y-92383390D01*
X69969047Y-92383390D02*
X69921428Y-92431009D01*
X69921428Y-92431009D02*
X69826190Y-92478628D01*
X69826190Y-92478628D02*
X69445238Y-92478628D01*
X70445238Y-92431009D02*
X70778571Y-92431009D01*
X70921428Y-92954819D02*
X70445238Y-92954819D01*
X70445238Y-92954819D02*
X70445238Y-91954819D01*
X70445238Y-91954819D02*
X70921428Y-91954819D01*
X71683333Y-92431009D02*
X71350000Y-92431009D01*
X71350000Y-92954819D02*
X71350000Y-91954819D01*
X71350000Y-91954819D02*
X71826190Y-91954819D01*
X72350000Y-91954819D02*
X72350000Y-92192914D01*
X72111905Y-92097676D02*
X72350000Y-92192914D01*
X72350000Y-92192914D02*
X72588095Y-92097676D01*
X72207143Y-92383390D02*
X72350000Y-92192914D01*
X72350000Y-92192914D02*
X72492857Y-92383390D01*
X73111905Y-91954819D02*
X73111905Y-92192914D01*
X72873810Y-92097676D02*
X73111905Y-92192914D01*
X73111905Y-92192914D02*
X73350000Y-92097676D01*
X72969048Y-92383390D02*
X73111905Y-92192914D01*
X73111905Y-92192914D02*
X73254762Y-92383390D01*
X50854819Y-142933333D02*
X51569104Y-142933333D01*
X51569104Y-142933333D02*
X51711961Y-142980952D01*
X51711961Y-142980952D02*
X51807200Y-143076190D01*
X51807200Y-143076190D02*
X51854819Y-143219047D01*
X51854819Y-143219047D02*
X51854819Y-143314285D01*
X50950057Y-142504761D02*
X50902438Y-142457142D01*
X50902438Y-142457142D02*
X50854819Y-142361904D01*
X50854819Y-142361904D02*
X50854819Y-142123809D01*
X50854819Y-142123809D02*
X50902438Y-142028571D01*
X50902438Y-142028571D02*
X50950057Y-141980952D01*
X50950057Y-141980952D02*
X51045295Y-141933333D01*
X51045295Y-141933333D02*
X51140533Y-141933333D01*
X51140533Y-141933333D02*
X51283390Y-141980952D01*
X51283390Y-141980952D02*
X51854819Y-142552380D01*
X51854819Y-142552380D02*
X51854819Y-141933333D01*
X83929819Y-123866666D02*
X83453628Y-124199999D01*
X83929819Y-124438094D02*
X82929819Y-124438094D01*
X82929819Y-124438094D02*
X82929819Y-124057142D01*
X82929819Y-124057142D02*
X82977438Y-123961904D01*
X82977438Y-123961904D02*
X83025057Y-123914285D01*
X83025057Y-123914285D02*
X83120295Y-123866666D01*
X83120295Y-123866666D02*
X83263152Y-123866666D01*
X83263152Y-123866666D02*
X83358390Y-123914285D01*
X83358390Y-123914285D02*
X83406009Y-123961904D01*
X83406009Y-123961904D02*
X83453628Y-124057142D01*
X83453628Y-124057142D02*
X83453628Y-124438094D01*
X82929819Y-122961904D02*
X82929819Y-123438094D01*
X82929819Y-123438094D02*
X83406009Y-123485713D01*
X83406009Y-123485713D02*
X83358390Y-123438094D01*
X83358390Y-123438094D02*
X83310771Y-123342856D01*
X83310771Y-123342856D02*
X83310771Y-123104761D01*
X83310771Y-123104761D02*
X83358390Y-123009523D01*
X83358390Y-123009523D02*
X83406009Y-122961904D01*
X83406009Y-122961904D02*
X83501247Y-122914285D01*
X83501247Y-122914285D02*
X83739342Y-122914285D01*
X83739342Y-122914285D02*
X83834580Y-122961904D01*
X83834580Y-122961904D02*
X83882200Y-123009523D01*
X83882200Y-123009523D02*
X83929819Y-123104761D01*
X83929819Y-123104761D02*
X83929819Y-123342856D01*
X83929819Y-123342856D02*
X83882200Y-123438094D01*
X83882200Y-123438094D02*
X83834580Y-123485713D01*
X52284819Y-129566666D02*
X51808628Y-129899999D01*
X52284819Y-130138094D02*
X51284819Y-130138094D01*
X51284819Y-130138094D02*
X51284819Y-129757142D01*
X51284819Y-129757142D02*
X51332438Y-129661904D01*
X51332438Y-129661904D02*
X51380057Y-129614285D01*
X51380057Y-129614285D02*
X51475295Y-129566666D01*
X51475295Y-129566666D02*
X51618152Y-129566666D01*
X51618152Y-129566666D02*
X51713390Y-129614285D01*
X51713390Y-129614285D02*
X51761009Y-129661904D01*
X51761009Y-129661904D02*
X51808628Y-129757142D01*
X51808628Y-129757142D02*
X51808628Y-130138094D01*
X51713390Y-128995237D02*
X51665771Y-129090475D01*
X51665771Y-129090475D02*
X51618152Y-129138094D01*
X51618152Y-129138094D02*
X51522914Y-129185713D01*
X51522914Y-129185713D02*
X51475295Y-129185713D01*
X51475295Y-129185713D02*
X51380057Y-129138094D01*
X51380057Y-129138094D02*
X51332438Y-129090475D01*
X51332438Y-129090475D02*
X51284819Y-128995237D01*
X51284819Y-128995237D02*
X51284819Y-128804761D01*
X51284819Y-128804761D02*
X51332438Y-128709523D01*
X51332438Y-128709523D02*
X51380057Y-128661904D01*
X51380057Y-128661904D02*
X51475295Y-128614285D01*
X51475295Y-128614285D02*
X51522914Y-128614285D01*
X51522914Y-128614285D02*
X51618152Y-128661904D01*
X51618152Y-128661904D02*
X51665771Y-128709523D01*
X51665771Y-128709523D02*
X51713390Y-128804761D01*
X51713390Y-128804761D02*
X51713390Y-128995237D01*
X51713390Y-128995237D02*
X51761009Y-129090475D01*
X51761009Y-129090475D02*
X51808628Y-129138094D01*
X51808628Y-129138094D02*
X51903866Y-129185713D01*
X51903866Y-129185713D02*
X52094342Y-129185713D01*
X52094342Y-129185713D02*
X52189580Y-129138094D01*
X52189580Y-129138094D02*
X52237200Y-129090475D01*
X52237200Y-129090475D02*
X52284819Y-128995237D01*
X52284819Y-128995237D02*
X52284819Y-128804761D01*
X52284819Y-128804761D02*
X52237200Y-128709523D01*
X52237200Y-128709523D02*
X52189580Y-128661904D01*
X52189580Y-128661904D02*
X52094342Y-128614285D01*
X52094342Y-128614285D02*
X51903866Y-128614285D01*
X51903866Y-128614285D02*
X51808628Y-128661904D01*
X51808628Y-128661904D02*
X51761009Y-128709523D01*
X51761009Y-128709523D02*
X51713390Y-128804761D01*
X57354819Y-129566666D02*
X56878628Y-129899999D01*
X57354819Y-130138094D02*
X56354819Y-130138094D01*
X56354819Y-130138094D02*
X56354819Y-129757142D01*
X56354819Y-129757142D02*
X56402438Y-129661904D01*
X56402438Y-129661904D02*
X56450057Y-129614285D01*
X56450057Y-129614285D02*
X56545295Y-129566666D01*
X56545295Y-129566666D02*
X56688152Y-129566666D01*
X56688152Y-129566666D02*
X56783390Y-129614285D01*
X56783390Y-129614285D02*
X56831009Y-129661904D01*
X56831009Y-129661904D02*
X56878628Y-129757142D01*
X56878628Y-129757142D02*
X56878628Y-130138094D01*
X56354819Y-129233332D02*
X56354819Y-128566666D01*
X56354819Y-128566666D02*
X57354819Y-128995237D01*
X140234819Y-109513333D02*
X140949104Y-109513333D01*
X140949104Y-109513333D02*
X141091961Y-109560952D01*
X141091961Y-109560952D02*
X141187200Y-109656190D01*
X141187200Y-109656190D02*
X141234819Y-109799047D01*
X141234819Y-109799047D02*
X141234819Y-109894285D01*
X141234819Y-108513333D02*
X141234819Y-109084761D01*
X141234819Y-108799047D02*
X140234819Y-108799047D01*
X140234819Y-108799047D02*
X140377676Y-108894285D01*
X140377676Y-108894285D02*
X140472914Y-108989523D01*
X140472914Y-108989523D02*
X140520533Y-109084761D01*
X144894700Y-103251428D02*
X144894700Y-102108571D01*
X145466128Y-102679999D02*
X144323271Y-102679999D01*
X144894700Y-116251428D02*
X144894700Y-115108571D01*
D10*
X88738809Y-140552238D02*
X88738809Y-138552238D01*
X88738809Y-138552238D02*
X89214999Y-138552238D01*
X89214999Y-138552238D02*
X89500714Y-138647476D01*
X89500714Y-138647476D02*
X89691190Y-138837952D01*
X89691190Y-138837952D02*
X89786428Y-139028428D01*
X89786428Y-139028428D02*
X89881666Y-139409380D01*
X89881666Y-139409380D02*
X89881666Y-139695095D01*
X89881666Y-139695095D02*
X89786428Y-140076047D01*
X89786428Y-140076047D02*
X89691190Y-140266523D01*
X89691190Y-140266523D02*
X89500714Y-140457000D01*
X89500714Y-140457000D02*
X89214999Y-140552238D01*
X89214999Y-140552238D02*
X88738809Y-140552238D01*
X91595952Y-139218904D02*
X91595952Y-140552238D01*
X91119761Y-138457000D02*
X90643571Y-139885571D01*
X90643571Y-139885571D02*
X91881666Y-139885571D01*
D13*
X87954819Y-123866666D02*
X87478628Y-124199999D01*
X87954819Y-124438094D02*
X86954819Y-124438094D01*
X86954819Y-124438094D02*
X86954819Y-124057142D01*
X86954819Y-124057142D02*
X87002438Y-123961904D01*
X87002438Y-123961904D02*
X87050057Y-123914285D01*
X87050057Y-123914285D02*
X87145295Y-123866666D01*
X87145295Y-123866666D02*
X87288152Y-123866666D01*
X87288152Y-123866666D02*
X87383390Y-123914285D01*
X87383390Y-123914285D02*
X87431009Y-123961904D01*
X87431009Y-123961904D02*
X87478628Y-124057142D01*
X87478628Y-124057142D02*
X87478628Y-124438094D01*
X86954819Y-123009523D02*
X86954819Y-123199999D01*
X86954819Y-123199999D02*
X87002438Y-123295237D01*
X87002438Y-123295237D02*
X87050057Y-123342856D01*
X87050057Y-123342856D02*
X87192914Y-123438094D01*
X87192914Y-123438094D02*
X87383390Y-123485713D01*
X87383390Y-123485713D02*
X87764342Y-123485713D01*
X87764342Y-123485713D02*
X87859580Y-123438094D01*
X87859580Y-123438094D02*
X87907200Y-123390475D01*
X87907200Y-123390475D02*
X87954819Y-123295237D01*
X87954819Y-123295237D02*
X87954819Y-123104761D01*
X87954819Y-123104761D02*
X87907200Y-123009523D01*
X87907200Y-123009523D02*
X87859580Y-122961904D01*
X87859580Y-122961904D02*
X87764342Y-122914285D01*
X87764342Y-122914285D02*
X87526247Y-122914285D01*
X87526247Y-122914285D02*
X87431009Y-122961904D01*
X87431009Y-122961904D02*
X87383390Y-123009523D01*
X87383390Y-123009523D02*
X87335771Y-123104761D01*
X87335771Y-123104761D02*
X87335771Y-123295237D01*
X87335771Y-123295237D02*
X87383390Y-123390475D01*
X87383390Y-123390475D02*
X87431009Y-123438094D01*
X87431009Y-123438094D02*
X87526247Y-123485713D01*
D10*
X72295475Y-140552238D02*
X72295475Y-138552238D01*
X72295475Y-138552238D02*
X72771665Y-138552238D01*
X72771665Y-138552238D02*
X73057380Y-138647476D01*
X73057380Y-138647476D02*
X73247856Y-138837952D01*
X73247856Y-138837952D02*
X73343094Y-139028428D01*
X73343094Y-139028428D02*
X73438332Y-139409380D01*
X73438332Y-139409380D02*
X73438332Y-139695095D01*
X73438332Y-139695095D02*
X73343094Y-140076047D01*
X73343094Y-140076047D02*
X73247856Y-140266523D01*
X73247856Y-140266523D02*
X73057380Y-140457000D01*
X73057380Y-140457000D02*
X72771665Y-140552238D01*
X72771665Y-140552238D02*
X72295475Y-140552238D01*
X74200237Y-138742714D02*
X74295475Y-138647476D01*
X74295475Y-138647476D02*
X74485951Y-138552238D01*
X74485951Y-138552238D02*
X74962142Y-138552238D01*
X74962142Y-138552238D02*
X75152618Y-138647476D01*
X75152618Y-138647476D02*
X75247856Y-138742714D01*
X75247856Y-138742714D02*
X75343094Y-138933190D01*
X75343094Y-138933190D02*
X75343094Y-139123666D01*
X75343094Y-139123666D02*
X75247856Y-139409380D01*
X75247856Y-139409380D02*
X74104999Y-140552238D01*
X74104999Y-140552238D02*
X75343094Y-140552238D01*
D13*
X56554819Y-142833333D02*
X57269104Y-142833333D01*
X57269104Y-142833333D02*
X57411961Y-142880952D01*
X57411961Y-142880952D02*
X57507200Y-142976190D01*
X57507200Y-142976190D02*
X57554819Y-143119047D01*
X57554819Y-143119047D02*
X57554819Y-143214285D01*
X56554819Y-142452380D02*
X56554819Y-141833333D01*
X56554819Y-141833333D02*
X56935771Y-142166666D01*
X56935771Y-142166666D02*
X56935771Y-142023809D01*
X56935771Y-142023809D02*
X56983390Y-141928571D01*
X56983390Y-141928571D02*
X57031009Y-141880952D01*
X57031009Y-141880952D02*
X57126247Y-141833333D01*
X57126247Y-141833333D02*
X57364342Y-141833333D01*
X57364342Y-141833333D02*
X57459580Y-141880952D01*
X57459580Y-141880952D02*
X57507200Y-141928571D01*
X57507200Y-141928571D02*
X57554819Y-142023809D01*
X57554819Y-142023809D02*
X57554819Y-142309523D01*
X57554819Y-142309523D02*
X57507200Y-142404761D01*
X57507200Y-142404761D02*
X57459580Y-142452380D01*
X71854819Y-123866666D02*
X71378628Y-124199999D01*
X71854819Y-124438094D02*
X70854819Y-124438094D01*
X70854819Y-124438094D02*
X70854819Y-124057142D01*
X70854819Y-124057142D02*
X70902438Y-123961904D01*
X70902438Y-123961904D02*
X70950057Y-123914285D01*
X70950057Y-123914285D02*
X71045295Y-123866666D01*
X71045295Y-123866666D02*
X71188152Y-123866666D01*
X71188152Y-123866666D02*
X71283390Y-123914285D01*
X71283390Y-123914285D02*
X71331009Y-123961904D01*
X71331009Y-123961904D02*
X71378628Y-124057142D01*
X71378628Y-124057142D02*
X71378628Y-124438094D01*
X70950057Y-123485713D02*
X70902438Y-123438094D01*
X70902438Y-123438094D02*
X70854819Y-123342856D01*
X70854819Y-123342856D02*
X70854819Y-123104761D01*
X70854819Y-123104761D02*
X70902438Y-123009523D01*
X70902438Y-123009523D02*
X70950057Y-122961904D01*
X70950057Y-122961904D02*
X71045295Y-122914285D01*
X71045295Y-122914285D02*
X71140533Y-122914285D01*
X71140533Y-122914285D02*
X71283390Y-122961904D01*
X71283390Y-122961904D02*
X71854819Y-123533332D01*
X71854819Y-123533332D02*
X71854819Y-122914285D01*
X90233333Y-120954819D02*
X89900000Y-120478628D01*
X89661905Y-120954819D02*
X89661905Y-119954819D01*
X89661905Y-119954819D02*
X90042857Y-119954819D01*
X90042857Y-119954819D02*
X90138095Y-120002438D01*
X90138095Y-120002438D02*
X90185714Y-120050057D01*
X90185714Y-120050057D02*
X90233333Y-120145295D01*
X90233333Y-120145295D02*
X90233333Y-120288152D01*
X90233333Y-120288152D02*
X90185714Y-120383390D01*
X90185714Y-120383390D02*
X90138095Y-120431009D01*
X90138095Y-120431009D02*
X90042857Y-120478628D01*
X90042857Y-120478628D02*
X89661905Y-120478628D01*
X91185714Y-120954819D02*
X90614286Y-120954819D01*
X90900000Y-120954819D02*
X90900000Y-119954819D01*
X90900000Y-119954819D02*
X90804762Y-120097676D01*
X90804762Y-120097676D02*
X90709524Y-120192914D01*
X90709524Y-120192914D02*
X90614286Y-120240533D01*
X58104166Y-101327319D02*
X58104166Y-102041604D01*
X58104166Y-102041604D02*
X58056547Y-102184461D01*
X58056547Y-102184461D02*
X57961309Y-102279700D01*
X57961309Y-102279700D02*
X57818452Y-102327319D01*
X57818452Y-102327319D02*
X57723214Y-102327319D01*
X59008928Y-101660652D02*
X59008928Y-102327319D01*
X58770833Y-101279700D02*
X58532738Y-101993985D01*
X58532738Y-101993985D02*
X59151785Y-101993985D01*
D10*
X80517141Y-140552238D02*
X80517141Y-138552238D01*
X80517141Y-138552238D02*
X80993331Y-138552238D01*
X80993331Y-138552238D02*
X81279046Y-138647476D01*
X81279046Y-138647476D02*
X81469522Y-138837952D01*
X81469522Y-138837952D02*
X81564760Y-139028428D01*
X81564760Y-139028428D02*
X81659998Y-139409380D01*
X81659998Y-139409380D02*
X81659998Y-139695095D01*
X81659998Y-139695095D02*
X81564760Y-140076047D01*
X81564760Y-140076047D02*
X81469522Y-140266523D01*
X81469522Y-140266523D02*
X81279046Y-140457000D01*
X81279046Y-140457000D02*
X80993331Y-140552238D01*
X80993331Y-140552238D02*
X80517141Y-140552238D01*
X82326665Y-138552238D02*
X83564760Y-138552238D01*
X83564760Y-138552238D02*
X82898093Y-139314142D01*
X82898093Y-139314142D02*
X83183808Y-139314142D01*
X83183808Y-139314142D02*
X83374284Y-139409380D01*
X83374284Y-139409380D02*
X83469522Y-139504619D01*
X83469522Y-139504619D02*
X83564760Y-139695095D01*
X83564760Y-139695095D02*
X83564760Y-140171285D01*
X83564760Y-140171285D02*
X83469522Y-140361761D01*
X83469522Y-140361761D02*
X83374284Y-140457000D01*
X83374284Y-140457000D02*
X83183808Y-140552238D01*
X83183808Y-140552238D02*
X82612379Y-140552238D01*
X82612379Y-140552238D02*
X82421903Y-140457000D01*
X82421903Y-140457000D02*
X82326665Y-140361761D01*
D13*
X79904819Y-123866666D02*
X79428628Y-124199999D01*
X79904819Y-124438094D02*
X78904819Y-124438094D01*
X78904819Y-124438094D02*
X78904819Y-124057142D01*
X78904819Y-124057142D02*
X78952438Y-123961904D01*
X78952438Y-123961904D02*
X79000057Y-123914285D01*
X79000057Y-123914285D02*
X79095295Y-123866666D01*
X79095295Y-123866666D02*
X79238152Y-123866666D01*
X79238152Y-123866666D02*
X79333390Y-123914285D01*
X79333390Y-123914285D02*
X79381009Y-123961904D01*
X79381009Y-123961904D02*
X79428628Y-124057142D01*
X79428628Y-124057142D02*
X79428628Y-124438094D01*
X79238152Y-123009523D02*
X79904819Y-123009523D01*
X78857200Y-123247618D02*
X79571485Y-123485713D01*
X79571485Y-123485713D02*
X79571485Y-122866666D01*
D10*
X64073809Y-140552238D02*
X64073809Y-138552238D01*
X64073809Y-138552238D02*
X64549999Y-138552238D01*
X64549999Y-138552238D02*
X64835714Y-138647476D01*
X64835714Y-138647476D02*
X65026190Y-138837952D01*
X65026190Y-138837952D02*
X65121428Y-139028428D01*
X65121428Y-139028428D02*
X65216666Y-139409380D01*
X65216666Y-139409380D02*
X65216666Y-139695095D01*
X65216666Y-139695095D02*
X65121428Y-140076047D01*
X65121428Y-140076047D02*
X65026190Y-140266523D01*
X65026190Y-140266523D02*
X64835714Y-140457000D01*
X64835714Y-140457000D02*
X64549999Y-140552238D01*
X64549999Y-140552238D02*
X64073809Y-140552238D01*
X67121428Y-140552238D02*
X65978571Y-140552238D01*
X66549999Y-140552238D02*
X66549999Y-138552238D01*
X66549999Y-138552238D02*
X66359523Y-138837952D01*
X66359523Y-138837952D02*
X66169047Y-139028428D01*
X66169047Y-139028428D02*
X65978571Y-139123666D01*
D13*
X75879819Y-123866666D02*
X75403628Y-124199999D01*
X75879819Y-124438094D02*
X74879819Y-124438094D01*
X74879819Y-124438094D02*
X74879819Y-124057142D01*
X74879819Y-124057142D02*
X74927438Y-123961904D01*
X74927438Y-123961904D02*
X74975057Y-123914285D01*
X74975057Y-123914285D02*
X75070295Y-123866666D01*
X75070295Y-123866666D02*
X75213152Y-123866666D01*
X75213152Y-123866666D02*
X75308390Y-123914285D01*
X75308390Y-123914285D02*
X75356009Y-123961904D01*
X75356009Y-123961904D02*
X75403628Y-124057142D01*
X75403628Y-124057142D02*
X75403628Y-124438094D01*
X74879819Y-123533332D02*
X74879819Y-122914285D01*
X74879819Y-122914285D02*
X75260771Y-123247618D01*
X75260771Y-123247618D02*
X75260771Y-123104761D01*
X75260771Y-123104761D02*
X75308390Y-123009523D01*
X75308390Y-123009523D02*
X75356009Y-122961904D01*
X75356009Y-122961904D02*
X75451247Y-122914285D01*
X75451247Y-122914285D02*
X75689342Y-122914285D01*
X75689342Y-122914285D02*
X75784580Y-122961904D01*
X75784580Y-122961904D02*
X75832200Y-123009523D01*
X75832200Y-123009523D02*
X75879819Y-123104761D01*
X75879819Y-123104761D02*
X75879819Y-123390475D01*
X75879819Y-123390475D02*
X75832200Y-123485713D01*
X75832200Y-123485713D02*
X75784580Y-123533332D01*
X97794819Y-141461904D02*
X98604342Y-141461904D01*
X98604342Y-141461904D02*
X98699580Y-141414285D01*
X98699580Y-141414285D02*
X98747200Y-141366666D01*
X98747200Y-141366666D02*
X98794819Y-141271428D01*
X98794819Y-141271428D02*
X98794819Y-141080952D01*
X98794819Y-141080952D02*
X98747200Y-140985714D01*
X98747200Y-140985714D02*
X98699580Y-140938095D01*
X98699580Y-140938095D02*
X98604342Y-140890476D01*
X98604342Y-140890476D02*
X97794819Y-140890476D01*
X98794819Y-139890476D02*
X98794819Y-140461904D01*
X98794819Y-140176190D02*
X97794819Y-140176190D01*
X97794819Y-140176190D02*
X97937676Y-140271428D01*
X97937676Y-140271428D02*
X98032914Y-140366666D01*
X98032914Y-140366666D02*
X98080533Y-140461904D01*
D15*
X144209657Y-133485714D02*
X146638228Y-133485714D01*
X146638228Y-133485714D02*
X146923942Y-133342857D01*
X146923942Y-133342857D02*
X147066800Y-133200000D01*
X147066800Y-133200000D02*
X147209657Y-132914285D01*
X147209657Y-132914285D02*
X147209657Y-132342857D01*
X147209657Y-132342857D02*
X147066800Y-132057142D01*
X147066800Y-132057142D02*
X146923942Y-131914285D01*
X146923942Y-131914285D02*
X146638228Y-131771428D01*
X146638228Y-131771428D02*
X144209657Y-131771428D01*
X147066800Y-130485714D02*
X147209657Y-130057143D01*
X147209657Y-130057143D02*
X147209657Y-129342857D01*
X147209657Y-129342857D02*
X147066800Y-129057143D01*
X147066800Y-129057143D02*
X146923942Y-128914285D01*
X146923942Y-128914285D02*
X146638228Y-128771428D01*
X146638228Y-128771428D02*
X146352514Y-128771428D01*
X146352514Y-128771428D02*
X146066800Y-128914285D01*
X146066800Y-128914285D02*
X145923942Y-129057143D01*
X145923942Y-129057143D02*
X145781085Y-129342857D01*
X145781085Y-129342857D02*
X145638228Y-129914285D01*
X145638228Y-129914285D02*
X145495371Y-130200000D01*
X145495371Y-130200000D02*
X145352514Y-130342857D01*
X145352514Y-130342857D02*
X145066800Y-130485714D01*
X145066800Y-130485714D02*
X144781085Y-130485714D01*
X144781085Y-130485714D02*
X144495371Y-130342857D01*
X144495371Y-130342857D02*
X144352514Y-130200000D01*
X144352514Y-130200000D02*
X144209657Y-129914285D01*
X144209657Y-129914285D02*
X144209657Y-129200000D01*
X144209657Y-129200000D02*
X144352514Y-128771428D01*
X145638228Y-126485714D02*
X145781085Y-126057142D01*
X145781085Y-126057142D02*
X145923942Y-125914285D01*
X145923942Y-125914285D02*
X146209657Y-125771428D01*
X146209657Y-125771428D02*
X146638228Y-125771428D01*
X146638228Y-125771428D02*
X146923942Y-125914285D01*
X146923942Y-125914285D02*
X147066800Y-126057142D01*
X147066800Y-126057142D02*
X147209657Y-126342857D01*
X147209657Y-126342857D02*
X147209657Y-127485714D01*
X147209657Y-127485714D02*
X144209657Y-127485714D01*
X144209657Y-127485714D02*
X144209657Y-126485714D01*
X144209657Y-126485714D02*
X144352514Y-126200000D01*
X144352514Y-126200000D02*
X144495371Y-126057142D01*
X144495371Y-126057142D02*
X144781085Y-125914285D01*
X144781085Y-125914285D02*
X145066800Y-125914285D01*
X145066800Y-125914285D02*
X145352514Y-126057142D01*
X145352514Y-126057142D02*
X145495371Y-126200000D01*
X145495371Y-126200000D02*
X145638228Y-126485714D01*
X145638228Y-126485714D02*
X145638228Y-127485714D01*
D16*
X66650000Y-81860000D02*
X66650000Y-83860000D01*
X66260000Y-97710000D02*
X66260000Y-82250000D01*
X66260000Y-82250000D02*
X58790000Y-82250000D01*
X65400000Y-81860000D02*
X66650000Y-81860000D01*
X65300000Y-96560000D02*
X64300000Y-96310000D01*
X65300000Y-93560000D02*
X65300000Y-96560000D01*
X65300000Y-91480000D02*
X64300000Y-91230000D01*
X65300000Y-88480000D02*
X65300000Y-91480000D01*
X65300000Y-86400000D02*
X64300000Y-86150000D01*
X65300000Y-83400000D02*
X65300000Y-86400000D01*
X64300000Y-96310000D02*
X64300000Y-95810000D01*
X64300000Y-95810000D02*
X63950000Y-95810000D01*
X64300000Y-94310000D02*
X64300000Y-93810000D01*
X64300000Y-93810000D02*
X65300000Y-93560000D01*
X64300000Y-91230000D02*
X64300000Y-90730000D01*
X64300000Y-90730000D02*
X63950000Y-90730000D01*
X64300000Y-89230000D02*
X64300000Y-88730000D01*
X64300000Y-88730000D02*
X65300000Y-88480000D01*
X64300000Y-86150000D02*
X64300000Y-85650000D01*
X64300000Y-85650000D02*
X63950000Y-85650000D01*
X64300000Y-84150000D02*
X64300000Y-83650000D01*
X64300000Y-83650000D02*
X65300000Y-83400000D01*
X63950000Y-96560000D02*
X59650000Y-96560000D01*
X63950000Y-95810000D02*
X63950000Y-96560000D01*
X63950000Y-94310000D02*
X64300000Y-94310000D01*
X63950000Y-93560000D02*
X63950000Y-94310000D01*
X63950000Y-91480000D02*
X59650000Y-91480000D01*
X63950000Y-90730000D02*
X63950000Y-91480000D01*
X63950000Y-89230000D02*
X64300000Y-89230000D01*
X63950000Y-88480000D02*
X63950000Y-89230000D01*
X63950000Y-86400000D02*
X59650000Y-86400000D01*
X63950000Y-85650000D02*
X63950000Y-86400000D01*
X63950000Y-84150000D02*
X64300000Y-84150000D01*
X63950000Y-83400000D02*
X63950000Y-84150000D01*
X59650000Y-96560000D02*
X59650000Y-95810000D01*
X59650000Y-94310000D02*
X59650000Y-93560000D01*
X59650000Y-93560000D02*
X63950000Y-93560000D01*
X59650000Y-91480000D02*
X59650000Y-90730000D01*
X59650000Y-89230000D02*
X59650000Y-88480000D01*
X59650000Y-88480000D02*
X63950000Y-88480000D01*
X59650000Y-86400000D02*
X59650000Y-85650000D01*
X59650000Y-84150000D02*
X59650000Y-83400000D01*
X59650000Y-83400000D02*
X63950000Y-83400000D01*
X58790000Y-97710000D02*
X66260000Y-97710000D01*
X58790000Y-82250000D02*
X58790000Y-97710000D01*
X59650000Y-94310000D02*
G75*
G02*
X59650156Y-95809647I-1700000J-750000D01*
G01*
X59650000Y-89230000D02*
G75*
G02*
X59650156Y-90729647I-1700000J-750000D01*
G01*
X59650000Y-84150000D02*
G75*
G02*
X59650156Y-85649647I-1700000J-750000D01*
G01*
X52770000Y-138770000D02*
X54100000Y-138770000D01*
X52770000Y-140100000D02*
X52770000Y-138770000D01*
X52770000Y-141370000D02*
X52770000Y-146510000D01*
X52770000Y-141370000D02*
X55430000Y-141370000D01*
X52770000Y-146510000D02*
X55430000Y-146510000D01*
X55430000Y-141370000D02*
X55430000Y-146510000D01*
X84900000Y-135040000D02*
X84900000Y-134270000D01*
X83530000Y-134270000D02*
X86270000Y-134270000D01*
X86270000Y-134270000D02*
X86270000Y-127730000D01*
X83530000Y-127730000D02*
X83530000Y-134270000D01*
X86270000Y-127730000D02*
X83530000Y-127730000D01*
X84900000Y-126960000D02*
X84900000Y-127730000D01*
X54200000Y-133840000D02*
X54200000Y-133070000D01*
X52830000Y-133070000D02*
X55570000Y-133070000D01*
X55570000Y-133070000D02*
X55570000Y-126530000D01*
X52830000Y-126530000D02*
X52830000Y-133070000D01*
X55570000Y-126530000D02*
X52830000Y-126530000D01*
X54200000Y-125760000D02*
X54200000Y-126530000D01*
X59200000Y-125660000D02*
X59200000Y-126430000D01*
X60570000Y-126430000D02*
X57830000Y-126430000D01*
X57830000Y-126430000D02*
X57830000Y-132970000D01*
X60570000Y-132970000D02*
X60570000Y-126430000D01*
X57830000Y-132970000D02*
X60570000Y-132970000D01*
X59200000Y-133740000D02*
X59200000Y-132970000D01*
X143370000Y-114390000D02*
X146190000Y-114390000D01*
X143370000Y-114390000D02*
X142070000Y-112690000D01*
X146190000Y-114390000D02*
X147490000Y-112690000D01*
X142070000Y-112690000D02*
X142070000Y-103970000D01*
X147490000Y-112690000D02*
X147490000Y-103970000D01*
X142070000Y-103970000D02*
X147490000Y-103970000D01*
X87635000Y-142055000D02*
X87635000Y-145145000D01*
X87635000Y-142055170D02*
G75*
G02*
X93185000Y-143600462I2560000J-1544830D01*
G01*
X93185000Y-143599538D02*
G75*
G02*
X87635000Y-145144830I-2990000J-462D01*
G01*
X92695000Y-143600000D02*
G75*
G02*
X87695000Y-143600000I-2500000J0D01*
G01*
X87695000Y-143600000D02*
G75*
G02*
X92695000Y-143600000I2500000J0D01*
G01*
X88800000Y-135040000D02*
X88800000Y-134270000D01*
X87430000Y-134270000D02*
X90170000Y-134270000D01*
X90170000Y-134270000D02*
X90170000Y-127730000D01*
X87430000Y-127730000D02*
X87430000Y-134270000D01*
X90170000Y-127730000D02*
X87430000Y-127730000D01*
X88800000Y-126960000D02*
X88800000Y-127730000D01*
X71191666Y-142055000D02*
X71191666Y-145145000D01*
X71191666Y-142055170D02*
G75*
G02*
X76741666Y-143600462I2560000J-1544830D01*
G01*
X76741666Y-143599538D02*
G75*
G02*
X71191666Y-145144830I-2990000J-462D01*
G01*
X76251666Y-143600000D02*
G75*
G02*
X71251666Y-143600000I-2500000J0D01*
G01*
X71251666Y-143600000D02*
G75*
G02*
X76251666Y-143600000I2500000J0D01*
G01*
X58270000Y-138730000D02*
X59600000Y-138730000D01*
X58270000Y-140060000D02*
X58270000Y-138730000D01*
X58270000Y-141330000D02*
X58270000Y-146470000D01*
X58270000Y-141330000D02*
X60930000Y-141330000D01*
X58270000Y-146470000D02*
X60930000Y-146470000D01*
X60930000Y-141330000D02*
X60930000Y-146470000D01*
X72750000Y-135040000D02*
X72750000Y-134270000D01*
X71380000Y-134270000D02*
X74120000Y-134270000D01*
X74120000Y-134270000D02*
X74120000Y-127730000D01*
X71380000Y-127730000D02*
X71380000Y-134270000D01*
X74120000Y-127730000D02*
X71380000Y-127730000D01*
X72750000Y-126960000D02*
X72750000Y-127730000D01*
X91800000Y-119700000D02*
X89000000Y-119700000D01*
X91800000Y-115500000D02*
X89000000Y-115500000D01*
X91800000Y-115500000D02*
G75*
G02*
X91786037Y-119709242I-1400000J-2100000D01*
G01*
X89000000Y-119700000D02*
G75*
G02*
X89013963Y-115490758I1400000J2100000D01*
G01*
X140350000Y-85690000D02*
G75*
G02*
X140349844Y-84190353I1700000J750000D01*
G01*
X140350000Y-90770000D02*
G75*
G02*
X140349844Y-89270353I1700000J750000D01*
G01*
X140350000Y-95850000D02*
G75*
G02*
X140349844Y-94350353I1700000J750000D01*
G01*
X141210000Y-82290000D02*
X133740000Y-82290000D01*
X133740000Y-82290000D02*
X133740000Y-97750000D01*
X140350000Y-83440000D02*
X140350000Y-84190000D01*
X136050000Y-83440000D02*
X140350000Y-83440000D01*
X134700000Y-83440000D02*
X135700000Y-83690000D01*
X135700000Y-83690000D02*
X135700000Y-84190000D01*
X136050000Y-84190000D02*
X136050000Y-83440000D01*
X135700000Y-84190000D02*
X136050000Y-84190000D01*
X140350000Y-85690000D02*
X140350000Y-86440000D01*
X136050000Y-85690000D02*
X135700000Y-85690000D01*
X135700000Y-85690000D02*
X135700000Y-86190000D01*
X135700000Y-86190000D02*
X134700000Y-86440000D01*
X140350000Y-86440000D02*
X136050000Y-86440000D01*
X136050000Y-86440000D02*
X136050000Y-85690000D01*
X134700000Y-86440000D02*
X134700000Y-83440000D01*
X140350000Y-88520000D02*
X140350000Y-89270000D01*
X136050000Y-88520000D02*
X140350000Y-88520000D01*
X134700000Y-88520000D02*
X135700000Y-88770000D01*
X135700000Y-88770000D02*
X135700000Y-89270000D01*
X136050000Y-89270000D02*
X136050000Y-88520000D01*
X135700000Y-89270000D02*
X136050000Y-89270000D01*
X140350000Y-90770000D02*
X140350000Y-91520000D01*
X136050000Y-90770000D02*
X135700000Y-90770000D01*
X135700000Y-90770000D02*
X135700000Y-91270000D01*
X135700000Y-91270000D02*
X134700000Y-91520000D01*
X140350000Y-91520000D02*
X136050000Y-91520000D01*
X136050000Y-91520000D02*
X136050000Y-90770000D01*
X134700000Y-91520000D02*
X134700000Y-88520000D01*
X140350000Y-93600000D02*
X140350000Y-94350000D01*
X136050000Y-93600000D02*
X140350000Y-93600000D01*
X134700000Y-93600000D02*
X135700000Y-93850000D01*
X135700000Y-93850000D02*
X135700000Y-94350000D01*
X136050000Y-94350000D02*
X136050000Y-93600000D01*
X135700000Y-94350000D02*
X136050000Y-94350000D01*
X140350000Y-95850000D02*
X140350000Y-96600000D01*
X136050000Y-95850000D02*
X135700000Y-95850000D01*
X135700000Y-95850000D02*
X135700000Y-96350000D01*
X135700000Y-96350000D02*
X134700000Y-96600000D01*
X140350000Y-96600000D02*
X136050000Y-96600000D01*
X136050000Y-96600000D02*
X136050000Y-95850000D01*
X134700000Y-96600000D02*
X134700000Y-93600000D01*
X141210000Y-97750000D02*
X141210000Y-82290000D01*
X133740000Y-97750000D02*
X141210000Y-97750000D01*
X134600000Y-98140000D02*
X133350000Y-98140000D01*
X133350000Y-98140000D02*
X133350000Y-96140000D01*
X50317500Y-102572500D02*
X52317500Y-102572500D01*
X50317500Y-103822500D02*
X50317500Y-102572500D01*
X50707500Y-102962500D02*
X50707500Y-110432500D01*
X50707500Y-110432500D02*
X66167500Y-110432500D01*
X51857500Y-103922500D02*
X54857500Y-103922500D01*
X51857500Y-105272500D02*
X52607500Y-105272500D01*
X51857500Y-109572500D02*
X51857500Y-105272500D01*
X52107500Y-104922500D02*
X51857500Y-103922500D01*
X52607500Y-104922500D02*
X52107500Y-104922500D01*
X52607500Y-105272500D02*
X52607500Y-104922500D01*
X52607500Y-109572500D02*
X51857500Y-109572500D01*
X54107500Y-104922500D02*
X54107500Y-105272500D01*
X54107500Y-105272500D02*
X54857500Y-105272500D01*
X54607500Y-104922500D02*
X54107500Y-104922500D01*
X54857500Y-103922500D02*
X54607500Y-104922500D01*
X54857500Y-105272500D02*
X54857500Y-109572500D01*
X54857500Y-109572500D02*
X54107500Y-109572500D01*
X56937500Y-103922500D02*
X59937500Y-103922500D01*
X56937500Y-105272500D02*
X57687500Y-105272500D01*
X56937500Y-109572500D02*
X56937500Y-105272500D01*
X57187500Y-104922500D02*
X56937500Y-103922500D01*
X57687500Y-104922500D02*
X57187500Y-104922500D01*
X57687500Y-105272500D02*
X57687500Y-104922500D01*
X57687500Y-109572500D02*
X56937500Y-109572500D01*
X59187500Y-104922500D02*
X59187500Y-105272500D01*
X59187500Y-105272500D02*
X59937500Y-105272500D01*
X59687500Y-104922500D02*
X59187500Y-104922500D01*
X59937500Y-103922500D02*
X59687500Y-104922500D01*
X59937500Y-105272500D02*
X59937500Y-109572500D01*
X59937500Y-109572500D02*
X59187500Y-109572500D01*
X62017500Y-103922500D02*
X65017500Y-103922500D01*
X62017500Y-105272500D02*
X62767500Y-105272500D01*
X62017500Y-109572500D02*
X62017500Y-105272500D01*
X62267500Y-104922500D02*
X62017500Y-103922500D01*
X62767500Y-104922500D02*
X62267500Y-104922500D01*
X62767500Y-105272500D02*
X62767500Y-104922500D01*
X62767500Y-109572500D02*
X62017500Y-109572500D01*
X64267500Y-104922500D02*
X64267500Y-105272500D01*
X64267500Y-105272500D02*
X65017500Y-105272500D01*
X64767500Y-104922500D02*
X64267500Y-104922500D01*
X65017500Y-103922500D02*
X64767500Y-104922500D01*
X65017500Y-105272500D02*
X65017500Y-109572500D01*
X65017500Y-109572500D02*
X64267500Y-109572500D01*
X66167500Y-102962500D02*
X50707500Y-102962500D01*
X66167500Y-110432500D02*
X66167500Y-102962500D01*
X52607500Y-109572500D02*
G75*
G02*
X54107147Y-109572344I750000J-1700000D01*
G01*
X57687500Y-109572500D02*
G75*
G02*
X59187147Y-109572344I750000J-1700000D01*
G01*
X62767500Y-109572500D02*
G75*
G02*
X64267147Y-109572344I750000J-1700000D01*
G01*
X79413332Y-142055000D02*
X79413332Y-145145000D01*
X79413332Y-142055170D02*
G75*
G02*
X84963332Y-143600462I2560000J-1544830D01*
G01*
X84963332Y-143599538D02*
G75*
G02*
X79413332Y-145144830I-2990000J-462D01*
G01*
X84473332Y-143600000D02*
G75*
G02*
X79473332Y-143600000I-2500000J0D01*
G01*
X79473332Y-143600000D02*
G75*
G02*
X84473332Y-143600000I2500000J0D01*
G01*
X80850000Y-135040000D02*
X80850000Y-134270000D01*
X79480000Y-134270000D02*
X82220000Y-134270000D01*
X82220000Y-134270000D02*
X82220000Y-127730000D01*
X79480000Y-127730000D02*
X79480000Y-134270000D01*
X82220000Y-127730000D02*
X79480000Y-127730000D01*
X80850000Y-126960000D02*
X80850000Y-127730000D01*
X62970000Y-142055000D02*
X62970000Y-145145000D01*
X62970000Y-142055170D02*
G75*
G02*
X68520000Y-143600462I2560000J-1544830D01*
G01*
X68520000Y-143599538D02*
G75*
G02*
X62970000Y-145144830I-2990000J-462D01*
G01*
X68030000Y-143600000D02*
G75*
G02*
X63030000Y-143600000I-2500000J0D01*
G01*
X63030000Y-143600000D02*
G75*
G02*
X68030000Y-143600000I2500000J0D01*
G01*
X76800000Y-135040000D02*
X76800000Y-134270000D01*
X75430000Y-134270000D02*
X78170000Y-134270000D01*
X78170000Y-134270000D02*
X78170000Y-127730000D01*
X75430000Y-127730000D02*
X75430000Y-134270000D01*
X78170000Y-127730000D02*
X75430000Y-127730000D01*
X76800000Y-126960000D02*
X76800000Y-127730000D01*
X149340000Y-134200000D02*
X142340000Y-134200000D01*
X142340000Y-125200000D01*
X149340000Y-125200000D01*
X149340000Y-134200000D01*
X105910000Y-115870000D02*
X141530000Y-115870000D01*
X141530000Y-118530000D02*
X141530000Y-115870000D01*
X105910000Y-118530000D02*
X105910000Y-115870000D01*
X105910000Y-118530000D02*
X141530000Y-118530000D01*
X104640000Y-118530000D02*
X103310000Y-118530000D01*
X103310000Y-118530000D02*
X103310000Y-117200000D01*
X105990000Y-140870000D02*
X141610000Y-140870000D01*
X141610000Y-143530000D02*
X141610000Y-140870000D01*
X105990000Y-143530000D02*
X105990000Y-140870000D01*
X105990000Y-143530000D02*
X141610000Y-143530000D01*
X104720000Y-143530000D02*
X103390000Y-143530000D01*
X103390000Y-143530000D02*
X103390000Y-142200000D01*
%LPC*%
D17*
X138450000Y-147200000D03*
X122162500Y-147200000D03*
X105875000Y-147200000D03*
D18*
X148875000Y-55200000D03*
X51100000Y-55000000D03*
D19*
X102300000Y-51900000D03*
X102325000Y-58000000D03*
X102300000Y-54900000D03*
X98125000Y-58000000D03*
X98100000Y-51900000D03*
X98100000Y-54900000D03*
D18*
X148875000Y-65100000D03*
D19*
X57275000Y-65000000D03*
X57300000Y-68100000D03*
X57275000Y-62000000D03*
D18*
X51075000Y-65000000D03*
D19*
X57300000Y-75000000D03*
X57300000Y-72000000D03*
X57325000Y-78100000D03*
D18*
X148900000Y-75100000D03*
X51100000Y-75000000D03*
D20*
X126400000Y-87125000D03*
X128900000Y-87100000D03*
D21*
X127700000Y-92250000D03*
D20*
X131450000Y-87100000D03*
X123850000Y-87125000D03*
D21*
X100100000Y-92250000D03*
D20*
X103850000Y-87100000D03*
X96250000Y-87125000D03*
X98800000Y-87125000D03*
X101300000Y-87100000D03*
X73550000Y-87100000D03*
X68500000Y-87125000D03*
X71050000Y-87125000D03*
X76100000Y-87100000D03*
D21*
X72350000Y-92250000D03*
D22*
X61800000Y-84900000D03*
D23*
X61800000Y-89980000D03*
X61800000Y-95060000D03*
D24*
X54100000Y-140100000D03*
D25*
X54100000Y-142640000D03*
X54100000Y-145180000D03*
D26*
X84900000Y-136080000D03*
D27*
X84900000Y-125920000D03*
D26*
X54200000Y-134880000D03*
D27*
X54200000Y-124720000D03*
D26*
X59200000Y-124620000D03*
D27*
X59200000Y-134780000D03*
D28*
X144780000Y-111680000D03*
D29*
X144780000Y-106680000D03*
D30*
X88925000Y-143600000D03*
D31*
X91465000Y-143600000D03*
D26*
X88800000Y-136080000D03*
D27*
X88800000Y-125920000D03*
D30*
X72481666Y-143600000D03*
D31*
X75021666Y-143600000D03*
D24*
X59600000Y-140060000D03*
D25*
X59600000Y-142600000D03*
X59600000Y-145140000D03*
D26*
X72750000Y-136080000D03*
D27*
X72750000Y-125920000D03*
D26*
X91900000Y-117600000D03*
X88900000Y-117600000D03*
D23*
X138200000Y-84940000D03*
X138200000Y-90020000D03*
D32*
X138200000Y-95100000D03*
D33*
X53357500Y-107422500D03*
D34*
X58437500Y-107422500D03*
X63517500Y-107422500D03*
D30*
X80703332Y-143600000D03*
D31*
X83243332Y-143600000D03*
D26*
X80850000Y-136080000D03*
D27*
X80850000Y-125920000D03*
D30*
X64260000Y-143600000D03*
D31*
X66800000Y-143600000D03*
D26*
X76800000Y-136080000D03*
D27*
X76800000Y-125920000D03*
D25*
X140200000Y-117200000D03*
X137660000Y-117200000D03*
X135120000Y-117200000D03*
X132580000Y-117200000D03*
X130040000Y-117200000D03*
X127500000Y-117200000D03*
X124960000Y-117200000D03*
X122420000Y-117200000D03*
X119880000Y-117200000D03*
X117340000Y-117200000D03*
X114800000Y-117200000D03*
X112260000Y-117200000D03*
X109720000Y-117200000D03*
X107180000Y-117200000D03*
D24*
X104640000Y-117200000D03*
D25*
X140280000Y-142200000D03*
X137740000Y-142200000D03*
X135200000Y-142200000D03*
X132660000Y-142200000D03*
X130120000Y-142200000D03*
X127580000Y-142200000D03*
X125040000Y-142200000D03*
X122500000Y-142200000D03*
X119960000Y-142200000D03*
X117420000Y-142200000D03*
X114880000Y-142200000D03*
X112340000Y-142200000D03*
X109800000Y-142200000D03*
X107260000Y-142200000D03*
D24*
X104720000Y-142200000D03*
%LPD*%
M02*
