G04 #@! TF.GenerationSoftware,KiCad,Pcbnew,8.0.6*
G04 #@! TF.CreationDate,2024-10-17T13:08:26+02:00*
G04 #@! TF.ProjectId,esp_music_vis,6573705f-6d75-4736-9963-5f7669732e6b,rev?*
G04 #@! TF.SameCoordinates,Original*
G04 #@! TF.FileFunction,Copper,L1,Top*
G04 #@! TF.FilePolarity,Positive*
%FSLAX46Y46*%
G04 Gerber Fmt 4.6, Leading zero omitted, Abs format (unit mm)*
G04 Created by KiCad (PCBNEW 8.0.6) date 2024-10-17 13:08:26*
%MOMM*%
%LPD*%
G01*
G04 APERTURE LIST*
G04 Aperture macros list*
%AMRoundRect*
0 Rectangle with rounded corners*
0 $1 Rounding radius*
0 $2 $3 $4 $5 $6 $7 $8 $9 X,Y pos of 4 corners*
0 Add a 4 corners polygon primitive as box body*
4,1,4,$2,$3,$4,$5,$6,$7,$8,$9,$2,$3,0*
0 Add four circle primitives for the rounded corners*
1,1,$1+$1,$2,$3*
1,1,$1+$1,$4,$5*
1,1,$1+$1,$6,$7*
1,1,$1+$1,$8,$9*
0 Add four rect primitives between the rounded corners*
20,1,$1+$1,$2,$3,$4,$5,0*
20,1,$1+$1,$4,$5,$6,$7,0*
20,1,$1+$1,$6,$7,$8,$9,0*
20,1,$1+$1,$8,$9,$2,$3,0*%
G04 Aperture macros list end*
G04 #@! TA.AperFunction,SMDPad,CuDef*
%ADD10RoundRect,1.062500X-1.187500X-1.062500X1.187500X-1.062500X1.187500X1.062500X-1.187500X1.062500X0*%
G04 #@! TD*
G04 #@! TA.AperFunction,SMDPad,CuDef*
%ADD11RoundRect,0.500000X0.500000X-4.000000X0.500000X4.000000X-0.500000X4.000000X-0.500000X-4.000000X0*%
G04 #@! TD*
G04 #@! TA.AperFunction,ComponentPad*
%ADD12R,1.700000X1.700000*%
G04 #@! TD*
G04 #@! TA.AperFunction,ComponentPad*
%ADD13O,1.700000X1.700000*%
G04 #@! TD*
G04 #@! TA.AperFunction,SMDPad,CuDef*
%ADD14RoundRect,0.500000X-1.000000X0.500000X-1.000000X-0.500000X1.000000X-0.500000X1.000000X0.500000X0*%
G04 #@! TD*
G04 #@! TA.AperFunction,SMDPad,CuDef*
%ADD15RoundRect,0.500000X-0.500000X-1.000000X0.500000X-1.000000X0.500000X1.000000X-0.500000X1.000000X0*%
G04 #@! TD*
G04 #@! TA.AperFunction,ComponentPad*
%ADD16C,1.600000*%
G04 #@! TD*
G04 #@! TA.AperFunction,ComponentPad*
%ADD17O,1.600000X1.600000*%
G04 #@! TD*
G04 #@! TA.AperFunction,SMDPad,CuDef*
%ADD18RoundRect,0.500000X-5.000000X-0.500000X5.000000X-0.500000X5.000000X0.500000X-5.000000X0.500000X0*%
G04 #@! TD*
G04 #@! TA.AperFunction,ComponentPad*
%ADD19R,3.000000X3.000000*%
G04 #@! TD*
G04 #@! TA.AperFunction,ComponentPad*
%ADD20C,3.000000*%
G04 #@! TD*
G04 #@! TA.AperFunction,ComponentPad*
%ADD21R,1.800000X1.800000*%
G04 #@! TD*
G04 #@! TA.AperFunction,ComponentPad*
%ADD22C,1.800000*%
G04 #@! TD*
G04 #@! TA.AperFunction,ComponentPad*
%ADD23RoundRect,0.250000X1.550000X-0.650000X1.550000X0.650000X-1.550000X0.650000X-1.550000X-0.650000X0*%
G04 #@! TD*
G04 #@! TA.AperFunction,ComponentPad*
%ADD24O,3.600000X1.800000*%
G04 #@! TD*
G04 #@! TA.AperFunction,ComponentPad*
%ADD25RoundRect,0.250000X-0.650000X-1.550000X0.650000X-1.550000X0.650000X1.550000X-0.650000X1.550000X0*%
G04 #@! TD*
G04 #@! TA.AperFunction,ComponentPad*
%ADD26O,1.800000X3.600000*%
G04 #@! TD*
G04 #@! TA.AperFunction,ComponentPad*
%ADD27RoundRect,0.250000X-1.550000X0.650000X-1.550000X-0.650000X1.550000X-0.650000X1.550000X0.650000X0*%
G04 #@! TD*
G04 #@! TA.AperFunction,ViaPad*
%ADD28C,1.600000*%
G04 #@! TD*
G04 #@! TA.AperFunction,ViaPad*
%ADD29C,0.800000*%
G04 #@! TD*
G04 #@! TA.AperFunction,Conductor*
%ADD30C,0.508000*%
G04 #@! TD*
G04 #@! TA.AperFunction,Conductor*
%ADD31C,1.524000*%
G04 #@! TD*
G04 #@! TA.AperFunction,Conductor*
%ADD32C,0.889000*%
G04 #@! TD*
G04 #@! TA.AperFunction,Conductor*
%ADD33C,2.540000*%
G04 #@! TD*
G04 APERTURE END LIST*
D10*
X122162500Y-147200000D03*
D11*
X51100000Y-75000000D03*
D12*
X54100000Y-140100000D03*
D13*
X54100000Y-142640000D03*
X54100000Y-145180000D03*
D14*
X98100000Y-51900000D03*
D10*
X105875000Y-147200000D03*
D14*
X98125000Y-58000000D03*
X57275000Y-65000000D03*
D15*
X131450000Y-87100000D03*
X96250000Y-87125000D03*
D14*
X102300000Y-54900000D03*
X102300000Y-51900000D03*
D12*
X104720000Y-142200000D03*
D13*
X107260000Y-142200000D03*
X109800000Y-142200000D03*
X112340000Y-142200000D03*
X114880000Y-142200000D03*
X117420000Y-142200000D03*
X119960000Y-142200000D03*
X122500000Y-142200000D03*
X125040000Y-142200000D03*
X127580000Y-142200000D03*
X130120000Y-142200000D03*
X132660000Y-142200000D03*
X135200000Y-142200000D03*
X137740000Y-142200000D03*
X140280000Y-142200000D03*
D12*
X104640000Y-117200000D03*
D13*
X107180000Y-117200000D03*
X109720000Y-117200000D03*
X112260000Y-117200000D03*
X114800000Y-117200000D03*
X117340000Y-117200000D03*
X119880000Y-117200000D03*
X122420000Y-117200000D03*
X124960000Y-117200000D03*
X127500000Y-117200000D03*
X130040000Y-117200000D03*
X132580000Y-117200000D03*
X135120000Y-117200000D03*
X137660000Y-117200000D03*
X140200000Y-117200000D03*
D11*
X148875000Y-65100000D03*
D16*
X84900000Y-136080000D03*
D17*
X84900000Y-125920000D03*
D11*
X51100000Y-55000000D03*
D14*
X57300000Y-75000000D03*
X102325000Y-58000000D03*
D16*
X54200000Y-134880000D03*
D17*
X54200000Y-124720000D03*
D18*
X100100000Y-92250000D03*
D15*
X73550000Y-87100000D03*
D14*
X57275000Y-62000000D03*
D18*
X72350000Y-92250000D03*
D16*
X59200000Y-124620000D03*
D17*
X59200000Y-134780000D03*
D19*
X144780000Y-111680000D03*
D20*
X144780000Y-106680000D03*
D21*
X88925000Y-143600000D03*
D22*
X91465000Y-143600000D03*
D14*
X57300000Y-68100000D03*
D16*
X88800000Y-136080000D03*
D17*
X88800000Y-125920000D03*
D15*
X103850000Y-87100000D03*
D11*
X51075000Y-65000000D03*
D21*
X72481666Y-143600000D03*
D22*
X75021666Y-143600000D03*
D14*
X57325000Y-78100000D03*
D12*
X59600000Y-140060000D03*
D13*
X59600000Y-142600000D03*
X59600000Y-145140000D03*
D11*
X148875000Y-55200000D03*
D15*
X128900000Y-87100000D03*
D16*
X72750000Y-136080000D03*
D17*
X72750000Y-125920000D03*
D15*
X76100000Y-87100000D03*
D16*
X91900000Y-117600000D03*
X88900000Y-117600000D03*
D10*
X138450000Y-147200000D03*
D23*
X138200000Y-95100000D03*
D24*
X138200000Y-90020000D03*
X138200000Y-84940000D03*
D25*
X53357500Y-107422500D03*
D26*
X58437500Y-107422500D03*
X63517500Y-107422500D03*
D15*
X123850000Y-87125000D03*
X98800000Y-87125000D03*
X126400000Y-87125000D03*
X68500000Y-87125000D03*
D11*
X148900000Y-75100000D03*
D21*
X80703332Y-143600000D03*
D22*
X83243332Y-143600000D03*
D14*
X98100000Y-54900000D03*
D16*
X80850000Y-136080000D03*
D17*
X80850000Y-125920000D03*
D21*
X64260000Y-143600000D03*
D22*
X66800000Y-143600000D03*
D15*
X101300000Y-87100000D03*
D16*
X76800000Y-136080000D03*
D17*
X76800000Y-125920000D03*
D14*
X57300000Y-72000000D03*
D18*
X127700000Y-92250000D03*
D15*
X71050000Y-87125000D03*
D27*
X61800000Y-84900000D03*
D24*
X61800000Y-89980000D03*
X61800000Y-95060000D03*
D28*
X96200000Y-84400000D03*
X107900000Y-58000000D03*
X63600000Y-72000000D03*
X123850000Y-84900000D03*
X63575000Y-62000000D03*
X92400000Y-57900000D03*
X68600000Y-84400000D03*
X119400000Y-92000000D03*
X122750000Y-56150000D03*
X60975000Y-64600000D03*
X79800000Y-91900000D03*
X61000000Y-74600000D03*
X107400000Y-91900000D03*
X77800000Y-56200000D03*
D29*
X138900000Y-122800000D03*
X66900000Y-148100000D03*
X146500000Y-121200000D03*
X106000000Y-145800000D03*
X122200000Y-145900000D03*
X127700000Y-130400000D03*
X138500000Y-146000000D03*
X128900000Y-84300000D03*
X54500000Y-75000000D03*
X54475000Y-65000000D03*
X83600000Y-56100000D03*
X116950000Y-55150000D03*
D30*
X97600000Y-139200000D02*
X114800000Y-122000000D01*
X114800000Y-122000000D02*
X114800000Y-117200000D01*
X71200000Y-139200000D02*
X97600000Y-139200000D01*
X66800000Y-143600000D02*
X71200000Y-139200000D01*
X98700000Y-140000000D02*
X117340000Y-121360000D01*
X75021666Y-141578334D02*
X76600000Y-140000000D01*
X117340000Y-121360000D02*
X117340000Y-117200000D01*
X75021666Y-143600000D02*
X75021666Y-141578334D01*
X76600000Y-140000000D02*
X98700000Y-140000000D01*
X119880000Y-121120000D02*
X119880000Y-117200000D01*
X100100000Y-140900000D02*
X119880000Y-121120000D01*
X83243332Y-143600000D02*
X83243332Y-141756668D01*
X84100000Y-140900000D02*
X100100000Y-140900000D01*
X83243332Y-141756668D02*
X84100000Y-140900000D01*
X122420000Y-120680000D02*
X122420000Y-117200000D01*
X94400000Y-143600000D02*
X96300000Y-141700000D01*
X91465000Y-143600000D02*
X94400000Y-143600000D01*
X101400000Y-141700000D02*
X122420000Y-120680000D01*
X96300000Y-141700000D02*
X101400000Y-141700000D01*
X61900000Y-119100000D02*
X63517500Y-117482500D01*
D31*
X63575000Y-67400000D02*
X62675000Y-68300000D01*
D32*
X144200000Y-116900000D02*
X139400000Y-112100000D01*
X140280000Y-126420000D02*
X144200000Y-122500000D01*
D31*
X68500000Y-84500000D02*
X68600000Y-84400000D01*
X62475000Y-68100000D02*
X57300000Y-68100000D01*
X63600000Y-72000000D02*
X63600000Y-77400000D01*
D32*
X139400000Y-112100000D02*
X139400000Y-106880000D01*
D31*
X92400000Y-57900000D02*
X98025000Y-57900000D01*
D30*
X55500000Y-119100000D02*
X61900000Y-119100000D01*
D33*
X139200000Y-106680000D02*
X64260000Y-106680000D01*
D31*
X98025000Y-57900000D02*
X98125000Y-58000000D01*
X107900000Y-58000000D02*
X102325000Y-58000000D01*
D32*
X140280000Y-142200000D02*
X140280000Y-126420000D01*
X139400000Y-106880000D02*
X139200000Y-106680000D01*
D30*
X52600000Y-127800000D02*
X52300000Y-127500000D01*
X52300000Y-127500000D02*
X52300000Y-122300000D01*
X57900000Y-127800000D02*
X52600000Y-127800000D01*
D33*
X64260000Y-106680000D02*
X63517500Y-107422500D01*
D31*
X123850000Y-84900000D02*
X123850000Y-87125000D01*
D30*
X52300000Y-122300000D02*
X55500000Y-119100000D01*
D31*
X68500000Y-87125000D02*
X68500000Y-84500000D01*
X63600000Y-77400000D02*
X62700000Y-78300000D01*
X96250000Y-84450000D02*
X96200000Y-84400000D01*
X62500000Y-78100000D02*
X57325000Y-78100000D01*
X96250000Y-87125000D02*
X96250000Y-84450000D01*
D33*
X144780000Y-106680000D02*
X139200000Y-106680000D01*
D31*
X62675000Y-68300000D02*
X62475000Y-68100000D01*
X62700000Y-78300000D02*
X62500000Y-78100000D01*
D30*
X59600000Y-140060000D02*
X59600000Y-138600000D01*
X63517500Y-117482500D02*
X63517500Y-107422500D01*
D32*
X144200000Y-122500000D02*
X144200000Y-116900000D01*
D31*
X63575000Y-62000000D02*
X63575000Y-67400000D01*
D30*
X59600000Y-138600000D02*
X61000000Y-137200000D01*
X61000000Y-130900000D02*
X57900000Y-127800000D01*
X61000000Y-137200000D02*
X61000000Y-130900000D01*
D31*
X104200000Y-83900000D02*
X103850000Y-84250000D01*
X60700000Y-72000000D02*
X57300000Y-72000000D01*
X122000000Y-81600000D02*
X129300000Y-81600000D01*
X129300000Y-81600000D02*
X131450000Y-83750000D01*
X107400000Y-91900000D02*
X107400000Y-85100000D01*
X60675000Y-62000000D02*
X57275000Y-62000000D01*
X119500000Y-84100000D02*
X122000000Y-81600000D01*
X60975000Y-62300000D02*
X60675000Y-62000000D01*
X76900000Y-83900000D02*
X76100000Y-84700000D01*
X82100000Y-51900000D02*
X98100000Y-51900000D01*
X60975000Y-64600000D02*
X60975000Y-62300000D01*
X77800000Y-56200000D02*
X82100000Y-51900000D01*
X79800000Y-85000000D02*
X78700000Y-83900000D01*
X61000000Y-74600000D02*
X61000000Y-72300000D01*
X76100000Y-84700000D02*
X76100000Y-87100000D01*
X119400000Y-92000000D02*
X119500000Y-91900000D01*
X131450000Y-83750000D02*
X131450000Y-87100000D01*
X79800000Y-91900000D02*
X79800000Y-85000000D01*
X61000000Y-72300000D02*
X60700000Y-72000000D01*
X106200000Y-83900000D02*
X104200000Y-83900000D01*
X103850000Y-84250000D02*
X103850000Y-87100000D01*
X119500000Y-91900000D02*
X119500000Y-84100000D01*
X122750000Y-56150000D02*
X118500000Y-51900000D01*
X118500000Y-51900000D02*
X102300000Y-51900000D01*
X78700000Y-83900000D02*
X76900000Y-83900000D01*
X107400000Y-85100000D02*
X106200000Y-83900000D01*
D30*
X138900000Y-122800000D02*
X140200000Y-121500000D01*
X140200000Y-121500000D02*
X140200000Y-117200000D01*
X56500000Y-142400000D02*
X56500000Y-139200000D01*
X66800000Y-148200000D02*
X66900000Y-148100000D01*
X59100000Y-134880000D02*
X59200000Y-134780000D01*
X54200000Y-134880000D02*
X59100000Y-134880000D01*
X57800000Y-148200000D02*
X66800000Y-148200000D01*
X56500000Y-139200000D02*
X54200000Y-136900000D01*
X56260000Y-142640000D02*
X56500000Y-142400000D01*
X54100000Y-142640000D02*
X56260000Y-142640000D01*
X56500000Y-146900000D02*
X57800000Y-148200000D01*
X56500000Y-142880000D02*
X56500000Y-146900000D01*
X56260000Y-142640000D02*
X56500000Y-142880000D01*
X54200000Y-136900000D02*
X54200000Y-134880000D01*
X54200000Y-124720000D02*
X56020000Y-122900000D01*
X62500000Y-124000000D02*
X62500000Y-141300000D01*
X61400000Y-122900000D02*
X62500000Y-124000000D01*
X62500000Y-141300000D02*
X61200000Y-142600000D01*
X56020000Y-122900000D02*
X61400000Y-122900000D01*
X61200000Y-142600000D02*
X59600000Y-142600000D01*
X58437500Y-107422500D02*
X58437500Y-103614500D01*
X59944000Y-102108000D02*
X146050000Y-102108000D01*
X148200000Y-121200000D02*
X146500000Y-121200000D01*
X58437500Y-103614500D02*
X59944000Y-102108000D01*
X148590000Y-104648000D02*
X148590000Y-120810000D01*
X148590000Y-120810000D02*
X148200000Y-121200000D01*
X146050000Y-102108000D02*
X148590000Y-104648000D01*
X88800000Y-136080000D02*
X88800000Y-130400000D01*
X91300000Y-127900000D02*
X91300000Y-123900000D01*
X88800000Y-130400000D02*
X91300000Y-127900000D01*
X88900000Y-121500000D02*
X88900000Y-117600000D01*
X91300000Y-123900000D02*
X88900000Y-121500000D01*
X105875000Y-147200000D02*
X105875000Y-145925000D01*
X105875000Y-145925000D02*
X106000000Y-145800000D01*
X122162500Y-145937500D02*
X122200000Y-145900000D01*
X122162500Y-147200000D02*
X122162500Y-145937500D01*
X138450000Y-146050000D02*
X138500000Y-146000000D01*
X138450000Y-147200000D02*
X138450000Y-146050000D01*
X127580000Y-130520000D02*
X127580000Y-142200000D01*
X127700000Y-130400000D02*
X127580000Y-130520000D01*
X97200000Y-82100000D02*
X74700000Y-82100000D01*
X73600000Y-83700000D02*
X73550000Y-83750000D01*
X73600000Y-83200000D02*
X73600000Y-83700000D01*
X73550000Y-83750000D02*
X73550000Y-87100000D01*
X98800000Y-83700000D02*
X97200000Y-82100000D01*
X98800000Y-87125000D02*
X98800000Y-83700000D01*
X74700000Y-82100000D02*
X73600000Y-83200000D01*
X65500000Y-89000000D02*
X64520000Y-89980000D01*
X71050000Y-87125000D02*
X71050000Y-84150000D01*
X64520000Y-89980000D02*
X61800000Y-89980000D01*
X71050000Y-84150000D02*
X69400000Y-82500000D01*
X65500000Y-84300000D02*
X65500000Y-89000000D01*
X67300000Y-82500000D02*
X65500000Y-84300000D01*
X69400000Y-82500000D02*
X67300000Y-82500000D01*
X120100000Y-93800000D02*
X110800000Y-93800000D01*
X124421000Y-83646000D02*
X123270000Y-83646000D01*
X126400000Y-87125000D02*
X126400000Y-85625000D01*
X121200000Y-85716000D02*
X121200000Y-92700000D01*
X109700000Y-84000000D02*
X107900000Y-82200000D01*
X121200000Y-92700000D02*
X120100000Y-93800000D01*
X101300000Y-83900000D02*
X101300000Y-87100000D01*
X107900000Y-82200000D02*
X103000000Y-82200000D01*
X103000000Y-82200000D02*
X101300000Y-83900000D01*
X123270000Y-83646000D02*
X121200000Y-85716000D01*
X110800000Y-93800000D02*
X109700000Y-92700000D01*
X109700000Y-92700000D02*
X109700000Y-84000000D01*
X126400000Y-85625000D02*
X124421000Y-83646000D01*
X128900000Y-87100000D02*
X128900000Y-84300000D01*
X54475000Y-65000000D02*
X57275000Y-65000000D01*
X54500000Y-75000000D02*
X57300000Y-75000000D01*
X94500000Y-56100000D02*
X95700000Y-54900000D01*
X95700000Y-54900000D02*
X98100000Y-54900000D01*
X83600000Y-56100000D02*
X94500000Y-56100000D01*
X116950000Y-55150000D02*
X116700000Y-54900000D01*
X116700000Y-54900000D02*
X102300000Y-54900000D01*
G04 #@! TA.AperFunction,Conductor*
G36*
X58112279Y-123682185D02*
G01*
X58158034Y-123734989D01*
X58167978Y-123804147D01*
X58146815Y-123857624D01*
X58069865Y-123967517D01*
X57973734Y-124173673D01*
X57973730Y-124173682D01*
X57914860Y-124393389D01*
X57914858Y-124393400D01*
X57895034Y-124619997D01*
X57895034Y-124620002D01*
X57914858Y-124846599D01*
X57914860Y-124846610D01*
X57973730Y-125066317D01*
X57973735Y-125066331D01*
X58069863Y-125272478D01*
X58120974Y-125345472D01*
X58800000Y-124666446D01*
X58800000Y-124672661D01*
X58827259Y-124774394D01*
X58879920Y-124865606D01*
X58954394Y-124940080D01*
X59045606Y-124992741D01*
X59147339Y-125020000D01*
X59153553Y-125020000D01*
X58474526Y-125699025D01*
X58547513Y-125750132D01*
X58547521Y-125750136D01*
X58753668Y-125846264D01*
X58753682Y-125846269D01*
X58973389Y-125905139D01*
X58973400Y-125905141D01*
X59199998Y-125924966D01*
X59200002Y-125924966D01*
X59426599Y-125905141D01*
X59426610Y-125905139D01*
X59646317Y-125846269D01*
X59646331Y-125846264D01*
X59852478Y-125750136D01*
X59925471Y-125699024D01*
X59246447Y-125020000D01*
X59252661Y-125020000D01*
X59354394Y-124992741D01*
X59445606Y-124940080D01*
X59520080Y-124865606D01*
X59572741Y-124774394D01*
X59600000Y-124672661D01*
X59600000Y-124666447D01*
X60279024Y-125345471D01*
X60330136Y-125272478D01*
X60426264Y-125066331D01*
X60426269Y-125066317D01*
X60485139Y-124846610D01*
X60485141Y-124846599D01*
X60504966Y-124620002D01*
X60504966Y-124619997D01*
X60485141Y-124393400D01*
X60485139Y-124393389D01*
X60426269Y-124173682D01*
X60426265Y-124173673D01*
X60330134Y-123967517D01*
X60253185Y-123857624D01*
X60230858Y-123791418D01*
X60247868Y-123723650D01*
X60298816Y-123675837D01*
X60354760Y-123662500D01*
X61032800Y-123662500D01*
X61099839Y-123682185D01*
X61120481Y-123698819D01*
X61701181Y-124279519D01*
X61734666Y-124340842D01*
X61737500Y-124367200D01*
X61737500Y-130259799D01*
X61717815Y-130326838D01*
X61665011Y-130372593D01*
X61595853Y-130382537D01*
X61532297Y-130353512D01*
X61525819Y-130347480D01*
X58386069Y-127207730D01*
X58372812Y-127198872D01*
X58261179Y-127124282D01*
X58122413Y-127066803D01*
X58122407Y-127066801D01*
X57975102Y-127037500D01*
X57975100Y-127037500D01*
X53186500Y-127037500D01*
X53119461Y-127017815D01*
X53073706Y-126965011D01*
X53062500Y-126913500D01*
X53062500Y-125732360D01*
X53082185Y-125665321D01*
X53134989Y-125619566D01*
X53204147Y-125609622D01*
X53267703Y-125638647D01*
X53274181Y-125644679D01*
X53355700Y-125726198D01*
X53543251Y-125857523D01*
X53564302Y-125867339D01*
X53750750Y-125954281D01*
X53750752Y-125954281D01*
X53750757Y-125954284D01*
X53971913Y-126013543D01*
X54134832Y-126027796D01*
X54199998Y-126033498D01*
X54200000Y-126033498D01*
X54200002Y-126033498D01*
X54257021Y-126028509D01*
X54428087Y-126013543D01*
X54649243Y-125954284D01*
X54856749Y-125857523D01*
X55044300Y-125726198D01*
X55206198Y-125564300D01*
X55337523Y-125376749D01*
X55434284Y-125169243D01*
X55493543Y-124948087D01*
X55513498Y-124720000D01*
X55499618Y-124561357D01*
X55513384Y-124492860D01*
X55535462Y-124462874D01*
X56299519Y-123698819D01*
X56360842Y-123665334D01*
X56387200Y-123662500D01*
X58045240Y-123662500D01*
X58112279Y-123682185D01*
G37*
G04 #@! TD.AperFunction*
G04 #@! TA.AperFunction,Conductor*
G36*
X149943039Y-100619685D02*
G01*
X149988794Y-100672489D01*
X150000000Y-100724000D01*
X150000000Y-149848638D01*
X149980315Y-149915677D01*
X149963681Y-149936319D01*
X149936319Y-149963681D01*
X149874996Y-149997166D01*
X149848638Y-150000000D01*
X140168297Y-150000000D01*
X140101258Y-149980315D01*
X140055503Y-149927511D01*
X140045559Y-149858353D01*
X140074584Y-149794797D01*
X140122000Y-149760967D01*
X140193914Y-149732023D01*
X140341704Y-149672543D01*
X140558772Y-149541322D01*
X140751979Y-149376979D01*
X140916322Y-149183772D01*
X141047543Y-148966704D01*
X141142246Y-148731398D01*
X141197976Y-148483947D01*
X141208500Y-148334890D01*
X141208500Y-147000000D01*
X144897499Y-147000000D01*
X144906896Y-147122407D01*
X144917451Y-147259884D01*
X144917451Y-147259889D01*
X144976840Y-147513677D01*
X144976841Y-147513682D01*
X145074277Y-147755435D01*
X145074281Y-147755441D01*
X145207474Y-147979481D01*
X145373311Y-148180570D01*
X145474794Y-148271011D01*
X145567899Y-148353986D01*
X145567907Y-148353993D01*
X145786676Y-148495666D01*
X145786684Y-148495670D01*
X146024523Y-148602291D01*
X146024525Y-148602292D01*
X146134861Y-148632612D01*
X146275859Y-148671360D01*
X146534790Y-148701252D01*
X146795249Y-148691269D01*
X147051131Y-148641643D01*
X147064220Y-148636942D01*
X147296435Y-148553541D01*
X147296436Y-148553540D01*
X147296440Y-148553539D01*
X147525425Y-148429021D01*
X147732718Y-148271008D01*
X147913461Y-148083204D01*
X148063419Y-147870010D01*
X148179074Y-147636424D01*
X148257718Y-147387921D01*
X148297506Y-147130325D01*
X148300000Y-147000000D01*
X148297506Y-146869675D01*
X148257718Y-146612079D01*
X148179074Y-146363576D01*
X148063419Y-146129990D01*
X147913461Y-145916796D01*
X147732718Y-145728992D01*
X147653497Y-145668604D01*
X147525428Y-145570981D01*
X147525426Y-145570980D01*
X147525425Y-145570979D01*
X147395500Y-145500328D01*
X147296435Y-145446458D01*
X147051134Y-145358357D01*
X146795249Y-145308730D01*
X146534790Y-145298748D01*
X146275857Y-145328640D01*
X146275853Y-145328641D01*
X146024525Y-145397707D01*
X146024523Y-145397708D01*
X145786684Y-145504329D01*
X145786676Y-145504333D01*
X145567907Y-145646006D01*
X145567899Y-145646013D01*
X145373309Y-145819431D01*
X145207473Y-146020520D01*
X145074281Y-146244558D01*
X145074277Y-146244564D01*
X144976841Y-146486317D01*
X144976840Y-146486322D01*
X144917451Y-146740110D01*
X144917451Y-146740114D01*
X144897499Y-147000000D01*
X141208500Y-147000000D01*
X141208500Y-146065110D01*
X141197976Y-145916053D01*
X141142246Y-145668602D01*
X141047543Y-145433296D01*
X140966207Y-145298748D01*
X140916329Y-145216239D01*
X140916326Y-145216236D01*
X140916322Y-145216228D01*
X140907474Y-145205826D01*
X140751981Y-145023022D01*
X140751977Y-145023018D01*
X140558782Y-144858686D01*
X140558777Y-144858683D01*
X140558772Y-144858678D01*
X140558766Y-144858674D01*
X140558760Y-144858670D01*
X140341709Y-144727460D01*
X140341700Y-144727455D01*
X140106402Y-144632755D01*
X140106395Y-144632753D01*
X139858952Y-144577025D01*
X139858942Y-144577023D01*
X139709892Y-144566500D01*
X139709890Y-144566500D01*
X137190110Y-144566500D01*
X137190107Y-144566500D01*
X137041057Y-144577023D01*
X137041047Y-144577025D01*
X136793604Y-144632753D01*
X136793597Y-144632755D01*
X136558299Y-144727455D01*
X136558290Y-144727460D01*
X136341239Y-144858670D01*
X136341217Y-144858686D01*
X136148022Y-145023018D01*
X136148018Y-145023022D01*
X135983686Y-145216217D01*
X135983670Y-145216239D01*
X135852460Y-145433290D01*
X135852455Y-145433299D01*
X135757755Y-145668597D01*
X135757753Y-145668604D01*
X135702025Y-145916047D01*
X135702023Y-145916057D01*
X135691500Y-146065107D01*
X135691500Y-148334892D01*
X135702023Y-148483942D01*
X135702025Y-148483952D01*
X135757753Y-148731395D01*
X135757755Y-148731402D01*
X135852455Y-148966700D01*
X135852460Y-148966709D01*
X135983670Y-149183760D01*
X135983674Y-149183766D01*
X135983678Y-149183772D01*
X135983683Y-149183777D01*
X135983686Y-149183782D01*
X136148018Y-149376977D01*
X136148022Y-149376981D01*
X136341217Y-149541313D01*
X136341228Y-149541322D01*
X136341236Y-149541326D01*
X136341239Y-149541329D01*
X136446376Y-149604885D01*
X136558296Y-149672543D01*
X136648677Y-149708918D01*
X136778000Y-149760967D01*
X136832842Y-149804258D01*
X136855573Y-149870327D01*
X136838976Y-149938197D01*
X136788321Y-149986320D01*
X136731703Y-150000000D01*
X123880797Y-150000000D01*
X123813758Y-149980315D01*
X123768003Y-149927511D01*
X123758059Y-149858353D01*
X123787084Y-149794797D01*
X123834500Y-149760967D01*
X123906414Y-149732023D01*
X124054204Y-149672543D01*
X124271272Y-149541322D01*
X124464479Y-149376979D01*
X124628822Y-149183772D01*
X124760043Y-148966704D01*
X124854746Y-148731398D01*
X124910476Y-148483947D01*
X124921000Y-148334890D01*
X124921000Y-146065110D01*
X124910476Y-145916053D01*
X124854746Y-145668602D01*
X124760043Y-145433296D01*
X124678707Y-145298748D01*
X124628829Y-145216239D01*
X124628826Y-145216236D01*
X124628822Y-145216228D01*
X124619974Y-145205826D01*
X124464481Y-145023022D01*
X124464477Y-145023018D01*
X124271282Y-144858686D01*
X124271277Y-144858683D01*
X124271272Y-144858678D01*
X124271266Y-144858674D01*
X124271260Y-144858670D01*
X124054209Y-144727460D01*
X124054200Y-144727455D01*
X123818902Y-144632755D01*
X123818895Y-144632753D01*
X123571452Y-144577025D01*
X123571442Y-144577023D01*
X123422392Y-144566500D01*
X123422390Y-144566500D01*
X120902610Y-144566500D01*
X120902607Y-144566500D01*
X120753557Y-144577023D01*
X120753547Y-144577025D01*
X120506104Y-144632753D01*
X120506097Y-144632755D01*
X120270799Y-144727455D01*
X120270790Y-144727460D01*
X120053739Y-144858670D01*
X120053717Y-144858686D01*
X119860522Y-145023018D01*
X119860518Y-145023022D01*
X119696186Y-145216217D01*
X119696170Y-145216239D01*
X119564960Y-145433290D01*
X119564955Y-145433299D01*
X119470255Y-145668597D01*
X119470253Y-145668604D01*
X119414525Y-145916047D01*
X119414523Y-145916057D01*
X119404000Y-146065107D01*
X119404000Y-148334892D01*
X119414523Y-148483942D01*
X119414525Y-148483952D01*
X119470253Y-148731395D01*
X119470255Y-148731402D01*
X119564955Y-148966700D01*
X119564960Y-148966709D01*
X119696170Y-149183760D01*
X119696174Y-149183766D01*
X119696178Y-149183772D01*
X119696183Y-149183777D01*
X119696186Y-149183782D01*
X119860518Y-149376977D01*
X119860522Y-149376981D01*
X120053717Y-149541313D01*
X120053728Y-149541322D01*
X120053736Y-149541326D01*
X120053739Y-149541329D01*
X120158876Y-149604885D01*
X120270796Y-149672543D01*
X120361177Y-149708918D01*
X120490500Y-149760967D01*
X120545342Y-149804258D01*
X120568073Y-149870327D01*
X120551476Y-149938197D01*
X120500821Y-149986320D01*
X120444203Y-150000000D01*
X107593297Y-150000000D01*
X107526258Y-149980315D01*
X107480503Y-149927511D01*
X107470559Y-149858353D01*
X107499584Y-149794797D01*
X107547000Y-149760967D01*
X107618914Y-149732023D01*
X107766704Y-149672543D01*
X107983772Y-149541322D01*
X108176979Y-149376979D01*
X108341322Y-149183772D01*
X108472543Y-148966704D01*
X108567246Y-148731398D01*
X108622976Y-148483947D01*
X108633500Y-148334890D01*
X108633500Y-146065110D01*
X108622976Y-145916053D01*
X108567246Y-145668602D01*
X108472543Y-145433296D01*
X108391207Y-145298748D01*
X108341329Y-145216239D01*
X108341326Y-145216236D01*
X108341322Y-145216228D01*
X108332474Y-145205826D01*
X108176981Y-145023022D01*
X108176977Y-145023018D01*
X107983782Y-144858686D01*
X107983777Y-144858683D01*
X107983772Y-144858678D01*
X107983766Y-144858674D01*
X107983760Y-144858670D01*
X107766709Y-144727460D01*
X107766700Y-144727455D01*
X107531402Y-144632755D01*
X107531395Y-144632753D01*
X107283952Y-144577025D01*
X107283942Y-144577023D01*
X107134892Y-144566500D01*
X107134890Y-144566500D01*
X104615110Y-144566500D01*
X104615107Y-144566500D01*
X104466057Y-144577023D01*
X104466047Y-144577025D01*
X104218604Y-144632753D01*
X104218597Y-144632755D01*
X103983299Y-144727455D01*
X103983290Y-144727460D01*
X103766239Y-144858670D01*
X103766217Y-144858686D01*
X103573022Y-145023018D01*
X103573018Y-145023022D01*
X103408686Y-145216217D01*
X103408670Y-145216239D01*
X103277460Y-145433290D01*
X103277455Y-145433299D01*
X103182755Y-145668597D01*
X103182753Y-145668604D01*
X103127025Y-145916047D01*
X103127023Y-145916057D01*
X103116500Y-146065107D01*
X103116500Y-148334892D01*
X103127023Y-148483942D01*
X103127025Y-148483952D01*
X103182753Y-148731395D01*
X103182755Y-148731402D01*
X103277455Y-148966700D01*
X103277460Y-148966709D01*
X103408670Y-149183760D01*
X103408674Y-149183766D01*
X103408678Y-149183772D01*
X103408683Y-149183777D01*
X103408686Y-149183782D01*
X103573018Y-149376977D01*
X103573022Y-149376981D01*
X103766217Y-149541313D01*
X103766228Y-149541322D01*
X103766236Y-149541326D01*
X103766239Y-149541329D01*
X103871376Y-149604885D01*
X103983296Y-149672543D01*
X104073677Y-149708918D01*
X104203000Y-149760967D01*
X104257842Y-149804258D01*
X104280573Y-149870327D01*
X104263976Y-149938197D01*
X104213321Y-149986320D01*
X104156703Y-150000000D01*
X50124000Y-150000000D01*
X50056961Y-149980315D01*
X50011206Y-149927511D01*
X50000000Y-149876000D01*
X50000000Y-127575102D01*
X51537499Y-127575102D01*
X51566801Y-127722407D01*
X51566803Y-127722413D01*
X51624281Y-127861177D01*
X51707730Y-127986069D01*
X52113930Y-128392269D01*
X52113933Y-128392271D01*
X52113935Y-128392273D01*
X52238821Y-128475718D01*
X52377587Y-128533197D01*
X52377591Y-128533197D01*
X52377592Y-128533198D01*
X52524897Y-128562500D01*
X52524900Y-128562500D01*
X57532800Y-128562500D01*
X57599839Y-128582185D01*
X57620481Y-128598819D01*
X60201181Y-131179519D01*
X60234666Y-131240842D01*
X60237500Y-131267200D01*
X60237500Y-133670881D01*
X60217815Y-133737920D01*
X60165011Y-133783675D01*
X60095853Y-133793619D01*
X60042379Y-133772457D01*
X59856749Y-133642477D01*
X59856745Y-133642475D01*
X59649249Y-133545718D01*
X59649238Y-133545714D01*
X59428089Y-133486457D01*
X59428081Y-133486456D01*
X59200002Y-133466502D01*
X59199998Y-133466502D01*
X58971918Y-133486456D01*
X58971910Y-133486457D01*
X58750761Y-133545714D01*
X58750750Y-133545718D01*
X58543254Y-133642475D01*
X58543252Y-133642476D01*
X58543251Y-133642477D01*
X58355700Y-133773802D01*
X58355698Y-133773803D01*
X58355695Y-133773806D01*
X58193806Y-133935695D01*
X58193803Y-133935698D01*
X58193802Y-133935700D01*
X58103527Y-134064625D01*
X58048952Y-134108249D01*
X58001954Y-134117500D01*
X55328025Y-134117500D01*
X55260986Y-134097815D01*
X55226449Y-134064622D01*
X55206199Y-134035702D01*
X55206198Y-134035700D01*
X55044300Y-133873802D01*
X54856749Y-133742477D01*
X54856745Y-133742475D01*
X54649249Y-133645718D01*
X54649238Y-133645714D01*
X54428089Y-133586457D01*
X54428081Y-133586456D01*
X54200002Y-133566502D01*
X54199998Y-133566502D01*
X53971918Y-133586456D01*
X53971910Y-133586457D01*
X53750761Y-133645714D01*
X53750750Y-133645718D01*
X53543254Y-133742475D01*
X53543252Y-133742476D01*
X53543251Y-133742477D01*
X53355700Y-133873802D01*
X53355698Y-133873803D01*
X53355695Y-133873806D01*
X53193806Y-134035695D01*
X53193803Y-134035698D01*
X53193802Y-134035700D01*
X53136525Y-134117500D01*
X53062476Y-134223252D01*
X53062475Y-134223254D01*
X52965718Y-134430750D01*
X52965714Y-134430761D01*
X52906457Y-134651910D01*
X52906456Y-134651918D01*
X52886502Y-134879998D01*
X52886502Y-134880001D01*
X52906456Y-135108081D01*
X52906457Y-135108089D01*
X52965714Y-135329238D01*
X52965718Y-135329249D01*
X53062475Y-135536745D01*
X53062477Y-135536749D01*
X53193802Y-135724300D01*
X53355700Y-135886198D01*
X53384622Y-135906449D01*
X53428248Y-135961026D01*
X53437500Y-136008025D01*
X53437500Y-136975100D01*
X53437500Y-136975102D01*
X53437499Y-136975102D01*
X53459599Y-137086198D01*
X53459599Y-137086199D01*
X53466800Y-137122406D01*
X53466802Y-137122411D01*
X53466803Y-137122413D01*
X53524282Y-137261179D01*
X53607727Y-137386065D01*
X53607730Y-137386069D01*
X53607731Y-137386070D01*
X54751481Y-138529819D01*
X54784966Y-138591142D01*
X54779982Y-138660834D01*
X54738110Y-138716767D01*
X54672646Y-138741184D01*
X54663800Y-138741500D01*
X53201345Y-138741500D01*
X53140797Y-138748011D01*
X53140795Y-138748011D01*
X53003795Y-138799111D01*
X52886739Y-138886739D01*
X52799111Y-139003795D01*
X52748011Y-139140795D01*
X52748011Y-139140797D01*
X52741500Y-139201345D01*
X52741500Y-140998654D01*
X52748011Y-141059202D01*
X52748011Y-141059204D01*
X52786311Y-141161886D01*
X52799111Y-141196204D01*
X52886739Y-141313261D01*
X53003796Y-141400889D01*
X53051696Y-141418755D01*
X53121595Y-141444827D01*
X53177528Y-141486699D01*
X53201944Y-141552163D01*
X53187092Y-141620436D01*
X53169490Y-141644991D01*
X53024279Y-141802730D01*
X53024276Y-141802734D01*
X52901140Y-141991207D01*
X52810703Y-142197385D01*
X52755436Y-142415628D01*
X52755434Y-142415640D01*
X52736844Y-142639994D01*
X52736844Y-142640005D01*
X52755434Y-142864359D01*
X52755436Y-142864371D01*
X52810703Y-143082614D01*
X52901140Y-143288792D01*
X53024276Y-143477265D01*
X53024284Y-143477276D01*
X53176756Y-143642902D01*
X53176760Y-143642906D01*
X53354424Y-143781189D01*
X53397693Y-143804605D01*
X53397695Y-143804606D01*
X53447286Y-143853825D01*
X53462394Y-143922042D01*
X53438224Y-143987597D01*
X53409802Y-144015236D01*
X53228922Y-144141890D01*
X53228920Y-144141891D01*
X53061891Y-144308920D01*
X53061886Y-144308926D01*
X52926400Y-144502420D01*
X52926399Y-144502422D01*
X52826570Y-144716507D01*
X52826567Y-144716513D01*
X52769364Y-144929999D01*
X52769364Y-144930000D01*
X53666988Y-144930000D01*
X53634075Y-144987007D01*
X53600000Y-145114174D01*
X53600000Y-145245826D01*
X53634075Y-145372993D01*
X53666988Y-145430000D01*
X52769364Y-145430000D01*
X52826567Y-145643486D01*
X52826570Y-145643492D01*
X52926399Y-145857578D01*
X53061894Y-146051082D01*
X53228917Y-146218105D01*
X53422421Y-146353600D01*
X53636507Y-146453429D01*
X53636516Y-146453433D01*
X53850000Y-146510634D01*
X53850000Y-145613012D01*
X53907007Y-145645925D01*
X54034174Y-145680000D01*
X54165826Y-145680000D01*
X54292993Y-145645925D01*
X54350000Y-145613012D01*
X54350000Y-146510633D01*
X54563483Y-146453433D01*
X54563492Y-146453429D01*
X54777578Y-146353600D01*
X54971082Y-146218105D01*
X55138105Y-146051082D01*
X55273600Y-145857578D01*
X55373429Y-145643492D01*
X55373432Y-145643486D01*
X55430636Y-145430000D01*
X54533012Y-145430000D01*
X54565925Y-145372993D01*
X54600000Y-145245826D01*
X54600000Y-145114174D01*
X54565925Y-144987007D01*
X54533012Y-144930000D01*
X55430636Y-144930000D01*
X55430635Y-144929999D01*
X55373432Y-144716513D01*
X55373429Y-144716507D01*
X55273600Y-144502422D01*
X55273599Y-144502420D01*
X55138113Y-144308926D01*
X55138108Y-144308920D01*
X54971082Y-144141894D01*
X54790197Y-144015236D01*
X54746572Y-143960659D01*
X54739380Y-143891160D01*
X54770902Y-143828806D01*
X54802300Y-143804608D01*
X54845576Y-143781189D01*
X55023240Y-143642906D01*
X55175722Y-143477268D01*
X55187867Y-143458679D01*
X55241013Y-143413322D01*
X55291676Y-143402500D01*
X55613500Y-143402500D01*
X55680539Y-143422185D01*
X55726294Y-143474989D01*
X55737500Y-143526500D01*
X55737500Y-146975100D01*
X55737500Y-146975102D01*
X55737499Y-146975102D01*
X55766801Y-147122407D01*
X55766803Y-147122413D01*
X55823747Y-147259889D01*
X55824282Y-147261179D01*
X55907727Y-147386065D01*
X55907730Y-147386069D01*
X57313931Y-148792270D01*
X57313939Y-148792276D01*
X57438810Y-148875712D01*
X57438813Y-148875713D01*
X57438821Y-148875719D01*
X57536943Y-148916362D01*
X57577587Y-148933197D01*
X57613661Y-148940372D01*
X57724897Y-148962500D01*
X57724900Y-148962500D01*
X57724901Y-148962500D01*
X57875100Y-148962500D01*
X66578702Y-148962500D01*
X66611309Y-148967664D01*
X66611356Y-148967443D01*
X66615572Y-148968339D01*
X66617017Y-148968568D01*
X66617709Y-148968792D01*
X66617712Y-148968794D01*
X66804513Y-149008500D01*
X66995487Y-149008500D01*
X67182288Y-148968794D01*
X67356752Y-148891118D01*
X67511253Y-148778866D01*
X67639040Y-148636944D01*
X67734527Y-148471556D01*
X67793542Y-148289928D01*
X67813504Y-148100000D01*
X67793542Y-147910072D01*
X67734527Y-147728444D01*
X67639040Y-147563056D01*
X67511253Y-147421134D01*
X67356752Y-147308882D01*
X67182288Y-147231206D01*
X67182286Y-147231205D01*
X66995487Y-147191500D01*
X66804513Y-147191500D01*
X66617714Y-147231205D01*
X66443246Y-147308883D01*
X66298817Y-147413818D01*
X66233010Y-147437298D01*
X66225931Y-147437500D01*
X58167200Y-147437500D01*
X58100161Y-147417815D01*
X58079519Y-147401181D01*
X57298819Y-146620481D01*
X57265334Y-146559158D01*
X57262500Y-146532800D01*
X57262500Y-142804897D01*
X57234511Y-142664191D01*
X57234511Y-142615805D01*
X57237655Y-142600000D01*
X57262500Y-142475100D01*
X57262500Y-139124900D01*
X57262500Y-139124897D01*
X57233198Y-138977592D01*
X57233197Y-138977591D01*
X57233197Y-138977587D01*
X57175718Y-138838821D01*
X57122458Y-138759111D01*
X57122458Y-138759110D01*
X57092271Y-138713932D01*
X54998819Y-136620480D01*
X54965334Y-136559157D01*
X54962500Y-136532799D01*
X54962500Y-136008025D01*
X54982185Y-135940986D01*
X55015376Y-135906450D01*
X55044300Y-135886198D01*
X55206198Y-135724300D01*
X55226449Y-135695377D01*
X55281026Y-135651752D01*
X55328025Y-135642500D01*
X58160640Y-135642500D01*
X58227679Y-135662185D01*
X58248321Y-135678819D01*
X58355700Y-135786198D01*
X58543251Y-135917523D01*
X58593568Y-135940986D01*
X58750750Y-136014281D01*
X58750752Y-136014281D01*
X58750757Y-136014284D01*
X58971913Y-136073543D01*
X59134832Y-136087796D01*
X59199998Y-136093498D01*
X59200000Y-136093498D01*
X59200002Y-136093498D01*
X59257021Y-136088509D01*
X59428087Y-136073543D01*
X59649243Y-136014284D01*
X59856749Y-135917523D01*
X60042379Y-135787542D01*
X60108582Y-135765216D01*
X60176349Y-135782226D01*
X60224162Y-135833173D01*
X60237500Y-135889118D01*
X60237500Y-136832799D01*
X60217815Y-136899838D01*
X60201181Y-136920480D01*
X59007731Y-138113929D01*
X59007730Y-138113930D01*
X58924281Y-138238822D01*
X58866803Y-138377586D01*
X58866801Y-138377592D01*
X58837500Y-138524897D01*
X58837500Y-138577500D01*
X58817815Y-138644539D01*
X58765011Y-138690294D01*
X58713500Y-138701500D01*
X58701345Y-138701500D01*
X58640797Y-138708011D01*
X58640795Y-138708011D01*
X58503795Y-138759111D01*
X58386739Y-138846739D01*
X58299111Y-138963795D01*
X58248011Y-139100795D01*
X58248011Y-139100797D01*
X58241500Y-139161345D01*
X58241500Y-140958654D01*
X58248011Y-141019202D01*
X58248011Y-141019204D01*
X58281585Y-141109216D01*
X58299111Y-141156204D01*
X58386739Y-141273261D01*
X58503796Y-141360889D01*
X58555737Y-141380262D01*
X58621595Y-141404827D01*
X58677528Y-141446699D01*
X58701944Y-141512163D01*
X58687092Y-141580436D01*
X58669490Y-141604991D01*
X58524279Y-141762730D01*
X58524276Y-141762734D01*
X58401140Y-141951207D01*
X58310703Y-142157385D01*
X58255436Y-142375628D01*
X58255434Y-142375640D01*
X58236844Y-142599994D01*
X58236844Y-142600005D01*
X58255434Y-142824359D01*
X58255436Y-142824371D01*
X58310703Y-143042614D01*
X58401140Y-143248792D01*
X58524276Y-143437265D01*
X58524284Y-143437276D01*
X58674089Y-143600005D01*
X58676760Y-143602906D01*
X58854424Y-143741189D01*
X58897693Y-143764605D01*
X58897695Y-143764606D01*
X58947286Y-143813825D01*
X58962394Y-143882042D01*
X58938224Y-143947597D01*
X58909802Y-143975236D01*
X58728922Y-144101890D01*
X58728920Y-144101891D01*
X58561891Y-144268920D01*
X58561886Y-144268926D01*
X58426400Y-144462420D01*
X58426399Y-144462422D01*
X58326570Y-144676507D01*
X58326567Y-144676513D01*
X58269364Y-144889999D01*
X58269364Y-144890000D01*
X59166988Y-144890000D01*
X59134075Y-144947007D01*
X59100000Y-145074174D01*
X59100000Y-145205826D01*
X59134075Y-145332993D01*
X59166988Y-145390000D01*
X58269364Y-145390000D01*
X58326567Y-145603486D01*
X58326570Y-145603492D01*
X58426399Y-145817578D01*
X58561894Y-146011082D01*
X58728917Y-146178105D01*
X58922421Y-146313600D01*
X59136507Y-146413429D01*
X59136516Y-146413433D01*
X59350000Y-146470634D01*
X59350000Y-145573012D01*
X59407007Y-145605925D01*
X59534174Y-145640000D01*
X59665826Y-145640000D01*
X59792993Y-145605925D01*
X59850000Y-145573012D01*
X59850000Y-146470633D01*
X60063483Y-146413433D01*
X60063492Y-146413429D01*
X60277578Y-146313600D01*
X60471082Y-146178105D01*
X60638105Y-146011082D01*
X60773600Y-145817578D01*
X60873429Y-145603492D01*
X60873432Y-145603486D01*
X60930636Y-145390000D01*
X60033012Y-145390000D01*
X60065925Y-145332993D01*
X60100000Y-145205826D01*
X60100000Y-145074174D01*
X60065925Y-144947007D01*
X60033012Y-144890000D01*
X60930636Y-144890000D01*
X60930635Y-144889999D01*
X60873432Y-144676513D01*
X60873429Y-144676507D01*
X60773600Y-144462422D01*
X60773599Y-144462420D01*
X60638113Y-144268926D01*
X60638108Y-144268920D01*
X60471082Y-144101894D01*
X60290197Y-143975236D01*
X60246572Y-143920659D01*
X60239380Y-143851160D01*
X60270902Y-143788806D01*
X60302300Y-143764608D01*
X60345576Y-143741189D01*
X60523240Y-143602906D01*
X60675722Y-143437268D01*
X60687867Y-143418679D01*
X60741013Y-143373322D01*
X60791676Y-143362500D01*
X61275102Y-143362500D01*
X61382245Y-143341187D01*
X61422413Y-143333197D01*
X61561179Y-143275718D01*
X61686065Y-143192273D01*
X63092273Y-141786065D01*
X63175719Y-141661179D01*
X63233197Y-141522412D01*
X63239193Y-141492272D01*
X63250846Y-141433686D01*
X63262500Y-141375102D01*
X63262500Y-136079998D01*
X71436502Y-136079998D01*
X71436502Y-136080001D01*
X71456456Y-136308081D01*
X71456457Y-136308089D01*
X71515714Y-136529238D01*
X71515718Y-136529249D01*
X71558260Y-136620480D01*
X71612477Y-136736749D01*
X71743802Y-136924300D01*
X71905700Y-137086198D01*
X72093251Y-137217523D01*
X72186868Y-137261177D01*
X72300750Y-137314281D01*
X72300752Y-137314281D01*
X72300757Y-137314284D01*
X72521913Y-137373543D01*
X72684832Y-137387796D01*
X72749998Y-137393498D01*
X72750000Y-137393498D01*
X72750002Y-137393498D01*
X72807021Y-137388509D01*
X72978087Y-137373543D01*
X73199243Y-137314284D01*
X73406749Y-137217523D01*
X73594300Y-137086198D01*
X73756198Y-136924300D01*
X73887523Y-136736749D01*
X73984284Y-136529243D01*
X74043543Y-136308087D01*
X74063498Y-136080000D01*
X74063498Y-136079998D01*
X75486502Y-136079998D01*
X75486502Y-136080001D01*
X75506456Y-136308081D01*
X75506457Y-136308089D01*
X75565714Y-136529238D01*
X75565718Y-136529249D01*
X75608260Y-136620480D01*
X75662477Y-136736749D01*
X75793802Y-136924300D01*
X75955700Y-137086198D01*
X76143251Y-137217523D01*
X76236868Y-137261177D01*
X76350750Y-137314281D01*
X76350752Y-137314281D01*
X76350757Y-137314284D01*
X76571913Y-137373543D01*
X76734832Y-137387796D01*
X76799998Y-137393498D01*
X76800000Y-137393498D01*
X76800002Y-137393498D01*
X76857021Y-137388509D01*
X77028087Y-137373543D01*
X77249243Y-137314284D01*
X77456749Y-137217523D01*
X77644300Y-137086198D01*
X77806198Y-136924300D01*
X77937523Y-136736749D01*
X78034284Y-136529243D01*
X78093543Y-136308087D01*
X78113498Y-136080000D01*
X78113498Y-136079998D01*
X79536502Y-136079998D01*
X79536502Y-136080001D01*
X79556456Y-136308081D01*
X79556457Y-136308089D01*
X79615714Y-136529238D01*
X79615718Y-136529249D01*
X79658260Y-136620480D01*
X79712477Y-136736749D01*
X79843802Y-136924300D01*
X80005700Y-137086198D01*
X80193251Y-137217523D01*
X80286868Y-137261177D01*
X80400750Y-137314281D01*
X80400752Y-137314281D01*
X80400757Y-137314284D01*
X80621913Y-137373543D01*
X80784832Y-137387796D01*
X80849998Y-137393498D01*
X80850000Y-137393498D01*
X80850002Y-137393498D01*
X80907021Y-137388509D01*
X81078087Y-137373543D01*
X81299243Y-137314284D01*
X81506749Y-137217523D01*
X81694300Y-137086198D01*
X81856198Y-136924300D01*
X81987523Y-136736749D01*
X82084284Y-136529243D01*
X82143543Y-136308087D01*
X82163498Y-136080000D01*
X82163498Y-136079998D01*
X83586502Y-136079998D01*
X83586502Y-136080001D01*
X83606456Y-136308081D01*
X83606457Y-136308089D01*
X83665714Y-136529238D01*
X83665718Y-136529249D01*
X83708260Y-136620480D01*
X83762477Y-136736749D01*
X83893802Y-136924300D01*
X84055700Y-137086198D01*
X84243251Y-137217523D01*
X84336868Y-137261177D01*
X84450750Y-137314281D01*
X84450752Y-137314281D01*
X84450757Y-137314284D01*
X84671913Y-137373543D01*
X84834832Y-137387796D01*
X84899998Y-137393498D01*
X84900000Y-137393498D01*
X84900002Y-137393498D01*
X84957021Y-137388509D01*
X85128087Y-137373543D01*
X85349243Y-137314284D01*
X85556749Y-137217523D01*
X85744300Y-137086198D01*
X85906198Y-136924300D01*
X86037523Y-136736749D01*
X86134284Y-136529243D01*
X86193543Y-136308087D01*
X86213498Y-136080000D01*
X86213498Y-136079998D01*
X87486502Y-136079998D01*
X87486502Y-136080001D01*
X87506456Y-136308081D01*
X87506457Y-136308089D01*
X87565714Y-136529238D01*
X87565718Y-136529249D01*
X87608260Y-136620480D01*
X87662477Y-136736749D01*
X87793802Y-136924300D01*
X87955700Y-137086198D01*
X88143251Y-137217523D01*
X88236868Y-137261177D01*
X88350750Y-137314281D01*
X88350752Y-137314281D01*
X88350757Y-137314284D01*
X88571913Y-137373543D01*
X88734832Y-137387796D01*
X88799998Y-137393498D01*
X88800000Y-137393498D01*
X88800002Y-137393498D01*
X88857021Y-137388509D01*
X89028087Y-137373543D01*
X89249243Y-137314284D01*
X89456749Y-137217523D01*
X89644300Y-137086198D01*
X89806198Y-136924300D01*
X89937523Y-136736749D01*
X90034284Y-136529243D01*
X90093543Y-136308087D01*
X90113498Y-136080000D01*
X90093543Y-135851913D01*
X90034284Y-135630757D01*
X89937523Y-135423251D01*
X89806198Y-135235700D01*
X89644300Y-135073802D01*
X89615375Y-135053548D01*
X89571751Y-134998970D01*
X89562500Y-134951974D01*
X89562500Y-130767200D01*
X89582185Y-130700161D01*
X89598819Y-130679519D01*
X91892269Y-128386069D01*
X91892273Y-128386065D01*
X91975718Y-128261179D01*
X92033197Y-128122413D01*
X92062500Y-127975100D01*
X92062500Y-123824900D01*
X92062500Y-123824897D01*
X92033198Y-123677592D01*
X92033197Y-123677591D01*
X92033197Y-123677587D01*
X92026948Y-123662500D01*
X92014810Y-123633196D01*
X91975722Y-123538828D01*
X91975721Y-123538827D01*
X91975719Y-123538821D01*
X91959087Y-123513930D01*
X91892276Y-123413939D01*
X91892270Y-123413931D01*
X89698819Y-121220480D01*
X89665334Y-121159157D01*
X89662500Y-121132799D01*
X89662500Y-118728025D01*
X89682185Y-118660986D01*
X89715376Y-118626450D01*
X89744300Y-118606198D01*
X89906198Y-118444300D01*
X90037523Y-118256749D01*
X90134284Y-118049243D01*
X90193543Y-117828087D01*
X90213498Y-117600000D01*
X90213498Y-117599998D01*
X90586502Y-117599998D01*
X90586502Y-117600001D01*
X90606456Y-117828081D01*
X90606457Y-117828089D01*
X90665714Y-118049238D01*
X90665718Y-118049249D01*
X90737370Y-118202907D01*
X90762477Y-118256749D01*
X90893802Y-118444300D01*
X91055700Y-118606198D01*
X91243251Y-118737523D01*
X91368091Y-118795736D01*
X91450750Y-118834281D01*
X91450752Y-118834281D01*
X91450757Y-118834284D01*
X91671913Y-118893543D01*
X91834832Y-118907796D01*
X91899998Y-118913498D01*
X91900000Y-118913498D01*
X91900002Y-118913498D01*
X91957021Y-118908509D01*
X92128087Y-118893543D01*
X92349243Y-118834284D01*
X92556749Y-118737523D01*
X92744300Y-118606198D01*
X92906198Y-118444300D01*
X93037523Y-118256749D01*
X93134284Y-118049243D01*
X93193543Y-117828087D01*
X93213498Y-117600000D01*
X93209788Y-117557600D01*
X93193543Y-117371918D01*
X93193543Y-117371913D01*
X93134284Y-117150757D01*
X93037523Y-116943251D01*
X92906198Y-116755700D01*
X92744300Y-116593802D01*
X92556749Y-116462477D01*
X92526962Y-116448587D01*
X92349249Y-116365718D01*
X92349238Y-116365714D01*
X92128089Y-116306457D01*
X92128081Y-116306456D01*
X91900002Y-116286502D01*
X91899998Y-116286502D01*
X91671918Y-116306456D01*
X91671910Y-116306457D01*
X91450761Y-116365714D01*
X91450750Y-116365718D01*
X91243254Y-116462475D01*
X91243252Y-116462476D01*
X91243251Y-116462477D01*
X91055700Y-116593802D01*
X91055698Y-116593803D01*
X91055695Y-116593806D01*
X90893806Y-116755695D01*
X90893803Y-116755698D01*
X90893802Y-116755700D01*
X90858486Y-116806137D01*
X90762476Y-116943252D01*
X90762475Y-116943254D01*
X90665718Y-117150750D01*
X90665714Y-117150761D01*
X90606457Y-117371910D01*
X90606456Y-117371918D01*
X90586502Y-117599998D01*
X90213498Y-117599998D01*
X90209788Y-117557600D01*
X90193543Y-117371918D01*
X90193543Y-117371913D01*
X90134284Y-117150757D01*
X90037523Y-116943251D01*
X89906198Y-116755700D01*
X89744300Y-116593802D01*
X89556749Y-116462477D01*
X89526962Y-116448587D01*
X89349249Y-116365718D01*
X89349238Y-116365714D01*
X89128089Y-116306457D01*
X89128081Y-116306456D01*
X88900002Y-116286502D01*
X88899998Y-116286502D01*
X88671918Y-116306456D01*
X88671910Y-116306457D01*
X88450761Y-116365714D01*
X88450750Y-116365718D01*
X88243254Y-116462475D01*
X88243252Y-116462476D01*
X88243251Y-116462477D01*
X88055700Y-116593802D01*
X88055698Y-116593803D01*
X88055695Y-116593806D01*
X87893806Y-116755695D01*
X87893803Y-116755698D01*
X87893802Y-116755700D01*
X87858486Y-116806137D01*
X87762476Y-116943252D01*
X87762475Y-116943254D01*
X87665718Y-117150750D01*
X87665714Y-117150761D01*
X87606457Y-117371910D01*
X87606456Y-117371918D01*
X87586502Y-117599998D01*
X87586502Y-117600001D01*
X87606456Y-117828081D01*
X87606457Y-117828089D01*
X87665714Y-118049238D01*
X87665718Y-118049249D01*
X87737370Y-118202907D01*
X87762477Y-118256749D01*
X87893802Y-118444300D01*
X88055700Y-118606198D01*
X88084622Y-118626449D01*
X88128248Y-118681026D01*
X88137500Y-118728025D01*
X88137500Y-121575102D01*
X88153191Y-121653980D01*
X88159573Y-121686065D01*
X88162313Y-121699839D01*
X88166803Y-121722413D01*
X88218021Y-121846065D01*
X88224282Y-121861179D01*
X88291982Y-121962500D01*
X88307730Y-121986069D01*
X88307731Y-121986070D01*
X90501181Y-124179519D01*
X90534666Y-124240842D01*
X90537500Y-124267200D01*
X90537500Y-127532799D01*
X90517815Y-127599838D01*
X90501181Y-127620480D01*
X88207731Y-129913929D01*
X88207730Y-129913930D01*
X88131218Y-130028441D01*
X88131216Y-130028443D01*
X88124284Y-130038816D01*
X88124281Y-130038822D01*
X88066803Y-130177586D01*
X88066801Y-130177592D01*
X88037500Y-130324897D01*
X88037500Y-134951974D01*
X88017815Y-135019013D01*
X87984625Y-135053548D01*
X87955702Y-135073800D01*
X87955696Y-135073805D01*
X87793806Y-135235695D01*
X87662476Y-135423252D01*
X87662475Y-135423254D01*
X87565718Y-135630750D01*
X87565714Y-135630761D01*
X87506457Y-135851910D01*
X87506456Y-135851918D01*
X87486502Y-136079998D01*
X86213498Y-136079998D01*
X86193543Y-135851913D01*
X86134284Y-135630757D01*
X86037523Y-135423251D01*
X85906198Y-135235700D01*
X85744300Y-135073802D01*
X85556749Y-134942477D01*
X85556745Y-134942475D01*
X85349249Y-134845718D01*
X85349238Y-134845714D01*
X85128089Y-134786457D01*
X85128081Y-134786456D01*
X84900002Y-134766502D01*
X84899998Y-134766502D01*
X84671918Y-134786456D01*
X84671910Y-134786457D01*
X84450761Y-134845714D01*
X84450750Y-134845718D01*
X84243254Y-134942475D01*
X84243252Y-134942476D01*
X84243251Y-134942477D01*
X84055700Y-135073802D01*
X84055698Y-135073803D01*
X84055695Y-135073806D01*
X83893806Y-135235695D01*
X83762476Y-135423252D01*
X83762475Y-135423254D01*
X83665718Y-135630750D01*
X83665714Y-135630761D01*
X83606457Y-135851910D01*
X83606456Y-135851918D01*
X83586502Y-136079998D01*
X82163498Y-136079998D01*
X82143543Y-135851913D01*
X82084284Y-135630757D01*
X81987523Y-135423251D01*
X81856198Y-135235700D01*
X81694300Y-135073802D01*
X81506749Y-134942477D01*
X81506745Y-134942475D01*
X81299249Y-134845718D01*
X81299238Y-134845714D01*
X81078089Y-134786457D01*
X81078081Y-134786456D01*
X80850002Y-134766502D01*
X80849998Y-134766502D01*
X80621918Y-134786456D01*
X80621910Y-134786457D01*
X80400761Y-134845714D01*
X80400750Y-134845718D01*
X80193254Y-134942475D01*
X80193252Y-134942476D01*
X80193251Y-134942477D01*
X80005700Y-135073802D01*
X80005698Y-135073803D01*
X80005695Y-135073806D01*
X79843806Y-135235695D01*
X79712476Y-135423252D01*
X79712475Y-135423254D01*
X79615718Y-135630750D01*
X79615714Y-135630761D01*
X79556457Y-135851910D01*
X79556456Y-135851918D01*
X79536502Y-136079998D01*
X78113498Y-136079998D01*
X78093543Y-135851913D01*
X78034284Y-135630757D01*
X77937523Y-135423251D01*
X77806198Y-135235700D01*
X77644300Y-135073802D01*
X77456749Y-134942477D01*
X77456745Y-134942475D01*
X77249249Y-134845718D01*
X77249238Y-134845714D01*
X77028089Y-134786457D01*
X77028081Y-134786456D01*
X76800002Y-134766502D01*
X76799998Y-134766502D01*
X76571918Y-134786456D01*
X76571910Y-134786457D01*
X76350761Y-134845714D01*
X76350750Y-134845718D01*
X76143254Y-134942475D01*
X76143252Y-134942476D01*
X76143251Y-134942477D01*
X75955700Y-135073802D01*
X75955698Y-135073803D01*
X75955695Y-135073806D01*
X75793806Y-135235695D01*
X75662476Y-135423252D01*
X75662475Y-135423254D01*
X75565718Y-135630750D01*
X75565714Y-135630761D01*
X75506457Y-135851910D01*
X75506456Y-135851918D01*
X75486502Y-136079998D01*
X74063498Y-136079998D01*
X74043543Y-135851913D01*
X73984284Y-135630757D01*
X73887523Y-135423251D01*
X73756198Y-135235700D01*
X73594300Y-135073802D01*
X73406749Y-134942477D01*
X73406745Y-134942475D01*
X73199249Y-134845718D01*
X73199238Y-134845714D01*
X72978089Y-134786457D01*
X72978081Y-134786456D01*
X72750002Y-134766502D01*
X72749998Y-134766502D01*
X72521918Y-134786456D01*
X72521910Y-134786457D01*
X72300761Y-134845714D01*
X72300750Y-134845718D01*
X72093254Y-134942475D01*
X72093252Y-134942476D01*
X72093251Y-134942477D01*
X71905700Y-135073802D01*
X71905698Y-135073803D01*
X71905695Y-135073806D01*
X71743806Y-135235695D01*
X71612476Y-135423252D01*
X71612475Y-135423254D01*
X71515718Y-135630750D01*
X71515714Y-135630761D01*
X71456457Y-135851910D01*
X71456456Y-135851918D01*
X71436502Y-136079998D01*
X63262500Y-136079998D01*
X63262500Y-125669999D01*
X71471127Y-125669999D01*
X71471128Y-125670000D01*
X72434314Y-125670000D01*
X72429920Y-125674394D01*
X72377259Y-125765606D01*
X72350000Y-125867339D01*
X72350000Y-125972661D01*
X72377259Y-126074394D01*
X72429920Y-126165606D01*
X72434314Y-126170000D01*
X71471128Y-126170000D01*
X71523730Y-126366317D01*
X71523734Y-126366326D01*
X71619865Y-126572482D01*
X71750342Y-126758820D01*
X71911179Y-126919657D01*
X72097517Y-127050134D01*
X72303673Y-127146265D01*
X72303682Y-127146269D01*
X72499999Y-127198872D01*
X72500000Y-127198871D01*
X72500000Y-126235686D01*
X72504394Y-126240080D01*
X72595606Y-126292741D01*
X72697339Y-126320000D01*
X72802661Y-126320000D01*
X72904394Y-126292741D01*
X72995606Y-126240080D01*
X73000000Y-126235686D01*
X73000000Y-127198872D01*
X73196317Y-127146269D01*
X73196326Y-127146265D01*
X73402482Y-127050134D01*
X73588820Y-126919657D01*
X73749657Y-126758820D01*
X73880134Y-126572482D01*
X73976265Y-126366326D01*
X73976269Y-126366317D01*
X74028872Y-126170000D01*
X73065686Y-126170000D01*
X73070080Y-126165606D01*
X73122741Y-126074394D01*
X73150000Y-125972661D01*
X73150000Y-125867339D01*
X73122741Y-125765606D01*
X73070080Y-125674394D01*
X73065686Y-125670000D01*
X74028872Y-125670000D01*
X74028872Y-125669999D01*
X75521127Y-125669999D01*
X75521128Y-125670000D01*
X76484314Y-125670000D01*
X76479920Y-125674394D01*
X76427259Y-125765606D01*
X76400000Y-125867339D01*
X76400000Y-125972661D01*
X76427259Y-126074394D01*
X76479920Y-126165606D01*
X76484314Y-126170000D01*
X75521128Y-126170000D01*
X75573730Y-126366317D01*
X75573734Y-126366326D01*
X75669865Y-126572482D01*
X75800342Y-126758820D01*
X75961179Y-126919657D01*
X76147517Y-127050134D01*
X76353673Y-127146265D01*
X76353682Y-127146269D01*
X76549999Y-127198872D01*
X76550000Y-127198871D01*
X76550000Y-126235686D01*
X76554394Y-126240080D01*
X76645606Y-126292741D01*
X76747339Y-126320000D01*
X76852661Y-126320000D01*
X76954394Y-126292741D01*
X77045606Y-126240080D01*
X77050000Y-126235686D01*
X77050000Y-127198872D01*
X77246317Y-127146269D01*
X77246326Y-127146265D01*
X77452482Y-127050134D01*
X77638820Y-126919657D01*
X77799657Y-126758820D01*
X77930134Y-126572482D01*
X78026265Y-126366326D01*
X78026269Y-126366317D01*
X78078872Y-126170000D01*
X77115686Y-126170000D01*
X77120080Y-126165606D01*
X77172741Y-126074394D01*
X77200000Y-125972661D01*
X77200000Y-125867339D01*
X77172741Y-125765606D01*
X77120080Y-125674394D01*
X77115686Y-125670000D01*
X78078872Y-125670000D01*
X78078872Y-125669999D01*
X79571127Y-125669999D01*
X79571128Y-125670000D01*
X80534314Y-125670000D01*
X80529920Y-125674394D01*
X80477259Y-125765606D01*
X80450000Y-125867339D01*
X80450000Y-125972661D01*
X80477259Y-126074394D01*
X80529920Y-126165606D01*
X80534314Y-126170000D01*
X79571128Y-126170000D01*
X79623730Y-126366317D01*
X79623734Y-126366326D01*
X79719865Y-126572482D01*
X79850342Y-126758820D01*
X80011179Y-126919657D01*
X80197517Y-127050134D01*
X80403673Y-127146265D01*
X80403682Y-127146269D01*
X80599999Y-127198872D01*
X80600000Y-127198871D01*
X80600000Y-126235686D01*
X80604394Y-126240080D01*
X80695606Y-126292741D01*
X80797339Y-126320000D01*
X80902661Y-126320000D01*
X81004394Y-126292741D01*
X81095606Y-126240080D01*
X81100000Y-126235686D01*
X81100000Y-127198872D01*
X81296317Y-127146269D01*
X81296326Y-127146265D01*
X81502482Y-127050134D01*
X81688820Y-126919657D01*
X81849657Y-126758820D01*
X81980134Y-126572482D01*
X82076265Y-126366326D01*
X82076269Y-126366317D01*
X82128872Y-126170000D01*
X81165686Y-126170000D01*
X81170080Y-126165606D01*
X81222741Y-126074394D01*
X81250000Y-125972661D01*
X81250000Y-125867339D01*
X81222741Y-125765606D01*
X81170080Y-125674394D01*
X81165686Y-125670000D01*
X82128872Y-125670000D01*
X82128872Y-125669999D01*
X83621127Y-125669999D01*
X83621128Y-125670000D01*
X84584314Y-125670000D01*
X84579920Y-125674394D01*
X84527259Y-125765606D01*
X84500000Y-125867339D01*
X84500000Y-125972661D01*
X84527259Y-126074394D01*
X84579920Y-126165606D01*
X84584314Y-126170000D01*
X83621128Y-126170000D01*
X83673730Y-126366317D01*
X83673734Y-126366326D01*
X83769865Y-126572482D01*
X83900342Y-126758820D01*
X84061179Y-126919657D01*
X84247517Y-127050134D01*
X84453673Y-127146265D01*
X84453682Y-127146269D01*
X84649999Y-127198872D01*
X84650000Y-127198871D01*
X84650000Y-126235686D01*
X84654394Y-126240080D01*
X84745606Y-126292741D01*
X84847339Y-126320000D01*
X84952661Y-126320000D01*
X85054394Y-126292741D01*
X85145606Y-126240080D01*
X85150000Y-126235686D01*
X85150000Y-127198872D01*
X85346317Y-127146269D01*
X85346326Y-127146265D01*
X85552482Y-127050134D01*
X85738820Y-126919657D01*
X85899657Y-126758820D01*
X86030134Y-126572482D01*
X86126265Y-126366326D01*
X86126269Y-126366317D01*
X86178872Y-126170000D01*
X85215686Y-126170000D01*
X85220080Y-126165606D01*
X85272741Y-126074394D01*
X85300000Y-125972661D01*
X85300000Y-125867339D01*
X85272741Y-125765606D01*
X85220080Y-125674394D01*
X85215686Y-125670000D01*
X86178872Y-125670000D01*
X86178872Y-125669999D01*
X87521127Y-125669999D01*
X87521128Y-125670000D01*
X88484314Y-125670000D01*
X88479920Y-125674394D01*
X88427259Y-125765606D01*
X88400000Y-125867339D01*
X88400000Y-125972661D01*
X88427259Y-126074394D01*
X88479920Y-126165606D01*
X88484314Y-126170000D01*
X87521128Y-126170000D01*
X87573730Y-126366317D01*
X87573734Y-126366326D01*
X87669865Y-126572482D01*
X87800342Y-126758820D01*
X87961179Y-126919657D01*
X88147517Y-127050134D01*
X88353673Y-127146265D01*
X88353682Y-127146269D01*
X88549999Y-127198872D01*
X88550000Y-127198871D01*
X88550000Y-126235686D01*
X88554394Y-126240080D01*
X88645606Y-126292741D01*
X88747339Y-126320000D01*
X88852661Y-126320000D01*
X88954394Y-126292741D01*
X89045606Y-126240080D01*
X89050000Y-126235686D01*
X89050000Y-127198872D01*
X89246317Y-127146269D01*
X89246326Y-127146265D01*
X89452482Y-127050134D01*
X89638820Y-126919657D01*
X89799657Y-126758820D01*
X89930134Y-126572482D01*
X90026265Y-126366326D01*
X90026269Y-126366317D01*
X90078872Y-126170000D01*
X89115686Y-126170000D01*
X89120080Y-126165606D01*
X89172741Y-126074394D01*
X89200000Y-125972661D01*
X89200000Y-125867339D01*
X89172741Y-125765606D01*
X89120080Y-125674394D01*
X89115686Y-125670000D01*
X90078872Y-125670000D01*
X90078872Y-125669999D01*
X90026269Y-125473682D01*
X90026265Y-125473673D01*
X89930134Y-125267517D01*
X89799657Y-125081179D01*
X89638820Y-124920342D01*
X89452482Y-124789865D01*
X89246328Y-124693734D01*
X89050000Y-124641127D01*
X89050000Y-125604314D01*
X89045606Y-125599920D01*
X88954394Y-125547259D01*
X88852661Y-125520000D01*
X88747339Y-125520000D01*
X88645606Y-125547259D01*
X88554394Y-125599920D01*
X88550000Y-125604314D01*
X88550000Y-124641127D01*
X88353671Y-124693734D01*
X88147517Y-124789865D01*
X87961179Y-124920342D01*
X87800342Y-125081179D01*
X87669865Y-125267517D01*
X87573734Y-125473673D01*
X87573730Y-125473682D01*
X87521127Y-125669999D01*
X86178872Y-125669999D01*
X86126269Y-125473682D01*
X86126265Y-125473673D01*
X86030134Y-125267517D01*
X85899657Y-125081179D01*
X85738820Y-124920342D01*
X85552482Y-124789865D01*
X85346328Y-124693734D01*
X85150000Y-124641127D01*
X85150000Y-125604314D01*
X85145606Y-125599920D01*
X85054394Y-125547259D01*
X84952661Y-125520000D01*
X84847339Y-125520000D01*
X84745606Y-125547259D01*
X84654394Y-125599920D01*
X84650000Y-125604314D01*
X84650000Y-124641127D01*
X84453671Y-124693734D01*
X84247517Y-124789865D01*
X84061179Y-124920342D01*
X83900342Y-125081179D01*
X83769865Y-125267517D01*
X83673734Y-125473673D01*
X83673730Y-125473682D01*
X83621127Y-125669999D01*
X82128872Y-125669999D01*
X82076269Y-125473682D01*
X82076265Y-125473673D01*
X81980134Y-125267517D01*
X81849657Y-125081179D01*
X81688820Y-124920342D01*
X81502482Y-124789865D01*
X81296328Y-124693734D01*
X81100000Y-124641127D01*
X81100000Y-125604314D01*
X81095606Y-125599920D01*
X81004394Y-125547259D01*
X80902661Y-125520000D01*
X80797339Y-125520000D01*
X80695606Y-125547259D01*
X80604394Y-125599920D01*
X80600000Y-125604314D01*
X80600000Y-124641127D01*
X80403671Y-124693734D01*
X80197517Y-124789865D01*
X80011179Y-124920342D01*
X79850342Y-125081179D01*
X79719865Y-125267517D01*
X79623734Y-125473673D01*
X79623730Y-125473682D01*
X79571127Y-125669999D01*
X78078872Y-125669999D01*
X78026269Y-125473682D01*
X78026265Y-125473673D01*
X77930134Y-125267517D01*
X77799657Y-125081179D01*
X77638820Y-124920342D01*
X77452482Y-124789865D01*
X77246328Y-124693734D01*
X77050000Y-124641127D01*
X77050000Y-125604314D01*
X77045606Y-125599920D01*
X76954394Y-125547259D01*
X76852661Y-125520000D01*
X76747339Y-125520000D01*
X76645606Y-125547259D01*
X76554394Y-125599920D01*
X76550000Y-125604314D01*
X76550000Y-124641127D01*
X76353671Y-124693734D01*
X76147517Y-124789865D01*
X75961179Y-124920342D01*
X75800342Y-125081179D01*
X75669865Y-125267517D01*
X75573734Y-125473673D01*
X75573730Y-125473682D01*
X75521127Y-125669999D01*
X74028872Y-125669999D01*
X73976269Y-125473682D01*
X73976265Y-125473673D01*
X73880134Y-125267517D01*
X73749657Y-125081179D01*
X73588820Y-124920342D01*
X73402482Y-124789865D01*
X73196328Y-124693734D01*
X73000000Y-124641127D01*
X73000000Y-125604314D01*
X72995606Y-125599920D01*
X72904394Y-125547259D01*
X72802661Y-125520000D01*
X72697339Y-125520000D01*
X72595606Y-125547259D01*
X72504394Y-125599920D01*
X72500000Y-125604314D01*
X72500000Y-124641127D01*
X72303671Y-124693734D01*
X72097517Y-124789865D01*
X71911179Y-124920342D01*
X71750342Y-125081179D01*
X71619865Y-125267517D01*
X71523734Y-125473673D01*
X71523730Y-125473682D01*
X71471127Y-125669999D01*
X63262500Y-125669999D01*
X63262500Y-123924897D01*
X63233198Y-123777592D01*
X63233197Y-123777591D01*
X63233197Y-123777587D01*
X63175718Y-123638821D01*
X63143844Y-123591118D01*
X63092273Y-123513935D01*
X63092271Y-123513933D01*
X63092269Y-123513930D01*
X61886069Y-122307730D01*
X61886065Y-122307727D01*
X61761179Y-122224282D01*
X61622413Y-122166803D01*
X61622407Y-122166801D01*
X61475102Y-122137500D01*
X61475100Y-122137500D01*
X55944900Y-122137500D01*
X55944898Y-122137500D01*
X55797590Y-122166802D01*
X55797588Y-122166802D01*
X55797587Y-122166803D01*
X55756943Y-122183637D01*
X55756941Y-122183638D01*
X55756940Y-122183637D01*
X55658824Y-122224279D01*
X55658814Y-122224284D01*
X55533935Y-122307726D01*
X55533931Y-122307729D01*
X54457127Y-123384533D01*
X54395804Y-123418018D01*
X54358639Y-123420380D01*
X54200002Y-123406502D01*
X54199998Y-123406502D01*
X53971918Y-123426456D01*
X53971910Y-123426457D01*
X53750761Y-123485714D01*
X53750750Y-123485718D01*
X53543254Y-123582475D01*
X53543252Y-123582476D01*
X53530910Y-123591118D01*
X53355700Y-123713802D01*
X53355698Y-123713803D01*
X53355695Y-123713806D01*
X53274181Y-123795321D01*
X53212858Y-123828806D01*
X53143166Y-123823822D01*
X53087233Y-123781950D01*
X53062816Y-123716486D01*
X53062500Y-123707640D01*
X53062500Y-122667199D01*
X53082185Y-122600160D01*
X53098819Y-122579518D01*
X55779518Y-119898819D01*
X55840841Y-119865334D01*
X55867199Y-119862500D01*
X61975102Y-119862500D01*
X62074204Y-119842786D01*
X62122413Y-119833197D01*
X62261179Y-119775718D01*
X62386065Y-119692273D01*
X64109772Y-117968566D01*
X64193218Y-117843679D01*
X64250697Y-117704913D01*
X64256109Y-117677704D01*
X64280000Y-117557600D01*
X64280000Y-116799997D01*
X78997499Y-116799997D01*
X78997499Y-116800000D01*
X79017451Y-117059884D01*
X79017451Y-117059889D01*
X79076840Y-117313677D01*
X79076841Y-117313682D01*
X79174277Y-117555435D01*
X79174281Y-117555441D01*
X79200772Y-117600001D01*
X79307474Y-117779481D01*
X79393014Y-117883204D01*
X79463409Y-117968564D01*
X79473311Y-117980570D01*
X79628592Y-118118956D01*
X79667899Y-118153986D01*
X79667907Y-118153993D01*
X79886676Y-118295666D01*
X79886684Y-118295670D01*
X80124523Y-118402291D01*
X80124525Y-118402292D01*
X80204557Y-118424285D01*
X80375859Y-118471360D01*
X80634790Y-118501252D01*
X80895249Y-118491269D01*
X81151131Y-118441643D01*
X81230158Y-118413260D01*
X81396435Y-118353541D01*
X81396436Y-118353540D01*
X81396440Y-118353539D01*
X81625425Y-118229021D01*
X81832718Y-118071008D01*
X82013461Y-117883204D01*
X82163419Y-117670010D01*
X82279074Y-117436424D01*
X82357718Y-117187921D01*
X82397506Y-116930325D01*
X82400000Y-116800000D01*
X82397506Y-116669675D01*
X82357718Y-116412079D01*
X82279074Y-116163576D01*
X82163419Y-115929990D01*
X82013461Y-115716796D01*
X81832718Y-115528992D01*
X81625425Y-115370979D01*
X81495500Y-115300328D01*
X81396435Y-115246458D01*
X81151134Y-115158357D01*
X80895249Y-115108730D01*
X80634790Y-115098748D01*
X80375857Y-115128640D01*
X80375853Y-115128641D01*
X80124525Y-115197707D01*
X80124523Y-115197708D01*
X79886684Y-115304329D01*
X79886676Y-115304333D01*
X79667907Y-115446006D01*
X79667899Y-115446013D01*
X79473309Y-115619431D01*
X79307473Y-115820520D01*
X79174281Y-116044558D01*
X79174277Y-116044564D01*
X79076841Y-116286317D01*
X79076840Y-116286322D01*
X79017451Y-116540110D01*
X79017451Y-116540114D01*
X79015865Y-116560769D01*
X78997499Y-116799997D01*
X64280000Y-116799997D01*
X64280000Y-109572693D01*
X64299685Y-109505654D01*
X64331112Y-109472376D01*
X64435076Y-109396843D01*
X64591843Y-109240076D01*
X64722157Y-109060715D01*
X64822808Y-108863176D01*
X64891318Y-108652324D01*
X64901663Y-108587008D01*
X64931592Y-108523873D01*
X64936457Y-108518722D01*
X64960363Y-108494817D01*
X65021686Y-108461333D01*
X65048042Y-108458500D01*
X138323000Y-108458500D01*
X138390039Y-108478185D01*
X138435794Y-108530989D01*
X138447000Y-108582500D01*
X138447000Y-112193866D01*
X138483621Y-112377972D01*
X138483624Y-112377984D01*
X138555459Y-112551410D01*
X138555460Y-112551412D01*
X138659756Y-112707501D01*
X138659759Y-112707505D01*
X143210681Y-117258426D01*
X143244166Y-117319749D01*
X143247000Y-117346107D01*
X143247000Y-122053893D01*
X143227315Y-122120932D01*
X143210681Y-122141574D01*
X139672498Y-125679757D01*
X139626062Y-125726193D01*
X139539755Y-125812499D01*
X139435460Y-125968587D01*
X139435459Y-125968589D01*
X139363624Y-126142015D01*
X139363621Y-126142027D01*
X139327000Y-126326133D01*
X139327000Y-141181035D01*
X139307315Y-141248074D01*
X139294230Y-141265018D01*
X139289089Y-141270603D01*
X139204278Y-141362732D01*
X139119646Y-141492272D01*
X139110252Y-141506650D01*
X139057105Y-141552006D01*
X138987874Y-141561430D01*
X138924538Y-141531928D01*
X138904868Y-141509951D01*
X138778113Y-141328926D01*
X138778108Y-141328920D01*
X138611082Y-141161894D01*
X138417578Y-141026399D01*
X138203492Y-140926570D01*
X138203486Y-140926567D01*
X137990000Y-140869364D01*
X137990000Y-141766988D01*
X137932993Y-141734075D01*
X137805826Y-141700000D01*
X137674174Y-141700000D01*
X137547007Y-141734075D01*
X137490000Y-141766988D01*
X137490000Y-140869364D01*
X137489999Y-140869364D01*
X137276513Y-140926567D01*
X137276507Y-140926570D01*
X137062422Y-141026399D01*
X137062420Y-141026400D01*
X136868926Y-141161886D01*
X136868920Y-141161891D01*
X136701891Y-141328920D01*
X136701890Y-141328922D01*
X136575131Y-141509952D01*
X136520554Y-141553577D01*
X136451055Y-141560769D01*
X136388701Y-141529247D01*
X136369752Y-141506656D01*
X136275722Y-141362732D01*
X136275715Y-141362725D01*
X136275715Y-141362723D01*
X136123243Y-141197097D01*
X136123238Y-141197092D01*
X135992698Y-141095488D01*
X135945576Y-141058811D01*
X135945575Y-141058810D01*
X135945572Y-141058808D01*
X135747580Y-140951661D01*
X135747577Y-140951659D01*
X135747574Y-140951658D01*
X135747571Y-140951657D01*
X135747569Y-140951656D01*
X135534637Y-140878556D01*
X135312569Y-140841500D01*
X135087431Y-140841500D01*
X134865362Y-140878556D01*
X134652430Y-140951656D01*
X134652419Y-140951661D01*
X134454427Y-141058808D01*
X134454422Y-141058812D01*
X134276761Y-141197092D01*
X134276756Y-141197097D01*
X134124284Y-141362723D01*
X134124276Y-141362734D01*
X134033808Y-141501206D01*
X133980662Y-141546562D01*
X133911431Y-141555986D01*
X133848095Y-141526484D01*
X133826192Y-141501206D01*
X133760651Y-141400889D01*
X133735722Y-141362732D01*
X133735719Y-141362729D01*
X133735715Y-141362723D01*
X133583243Y-141197097D01*
X133583238Y-141197092D01*
X133452698Y-141095488D01*
X133405576Y-141058811D01*
X133405575Y-141058810D01*
X133405572Y-141058808D01*
X133207580Y-140951661D01*
X133207577Y-140951659D01*
X133207574Y-140951658D01*
X133207571Y-140951657D01*
X133207569Y-140951656D01*
X132994637Y-140878556D01*
X132772569Y-140841500D01*
X132547431Y-140841500D01*
X132325362Y-140878556D01*
X132112430Y-140951656D01*
X132112419Y-140951661D01*
X131914427Y-141058808D01*
X131914422Y-141058812D01*
X131736761Y-141197092D01*
X131736756Y-141197097D01*
X131584284Y-141362723D01*
X131584276Y-141362734D01*
X131493808Y-141501206D01*
X131440662Y-141546562D01*
X131371431Y-141555986D01*
X131308095Y-141526484D01*
X131286192Y-141501206D01*
X131220651Y-141400889D01*
X131195722Y-141362732D01*
X131195719Y-141362729D01*
X131195715Y-141362723D01*
X131043243Y-141197097D01*
X131043238Y-141197092D01*
X130912698Y-141095488D01*
X130865576Y-141058811D01*
X130865575Y-141058810D01*
X130865572Y-141058808D01*
X130667580Y-140951661D01*
X130667577Y-140951659D01*
X130667574Y-140951658D01*
X130667571Y-140951657D01*
X130667569Y-140951656D01*
X130454637Y-140878556D01*
X130232569Y-140841500D01*
X130007431Y-140841500D01*
X129785362Y-140878556D01*
X129572430Y-140951656D01*
X129572419Y-140951661D01*
X129374427Y-141058808D01*
X129374422Y-141058812D01*
X129196761Y-141197092D01*
X129196756Y-141197097D01*
X129044284Y-141362723D01*
X129044276Y-141362734D01*
X128953808Y-141501206D01*
X128900662Y-141546562D01*
X128831431Y-141555986D01*
X128768095Y-141526484D01*
X128746192Y-141501206D01*
X128680651Y-141400889D01*
X128655722Y-141362732D01*
X128655719Y-141362729D01*
X128655715Y-141362723D01*
X128503243Y-141197097D01*
X128503242Y-141197096D01*
X128503240Y-141197094D01*
X128390335Y-141109215D01*
X128349524Y-141052505D01*
X128342500Y-141011363D01*
X128342500Y-131091761D01*
X128362185Y-131024722D01*
X128374350Y-131008789D01*
X128439040Y-130936944D01*
X128534527Y-130771556D01*
X128593542Y-130589928D01*
X128613504Y-130400000D01*
X128593542Y-130210072D01*
X128534527Y-130028444D01*
X128439040Y-129863056D01*
X128311253Y-129721134D01*
X128156752Y-129608882D01*
X127982288Y-129531206D01*
X127982286Y-129531205D01*
X127795487Y-129491500D01*
X127604513Y-129491500D01*
X127417714Y-129531205D01*
X127243246Y-129608883D01*
X127088745Y-129721135D01*
X126960959Y-129863057D01*
X126865475Y-130028441D01*
X126865470Y-130028450D01*
X126817013Y-130177586D01*
X126806458Y-130210072D01*
X126801232Y-130259799D01*
X126786496Y-130400000D01*
X126806458Y-130589929D01*
X126811431Y-130605232D01*
X126817500Y-130643551D01*
X126817500Y-141011363D01*
X126797815Y-141078402D01*
X126769664Y-141109216D01*
X126656756Y-141197097D01*
X126504284Y-141362723D01*
X126504276Y-141362734D01*
X126413808Y-141501206D01*
X126360662Y-141546562D01*
X126291431Y-141555986D01*
X126228095Y-141526484D01*
X126206192Y-141501206D01*
X126140651Y-141400889D01*
X126115722Y-141362732D01*
X126115719Y-141362729D01*
X126115715Y-141362723D01*
X125963243Y-141197097D01*
X125963238Y-141197092D01*
X125832698Y-141095488D01*
X125785576Y-141058811D01*
X125785575Y-141058810D01*
X125785572Y-141058808D01*
X125587580Y-140951661D01*
X125587577Y-140951659D01*
X125587574Y-140951658D01*
X125587571Y-140951657D01*
X125587569Y-140951656D01*
X125374637Y-140878556D01*
X125152569Y-140841500D01*
X124927431Y-140841500D01*
X124705362Y-140878556D01*
X124492430Y-140951656D01*
X124492419Y-140951661D01*
X124294427Y-141058808D01*
X124294422Y-141058812D01*
X124116761Y-141197092D01*
X124116756Y-141197097D01*
X123964284Y-141362723D01*
X123964276Y-141362734D01*
X123873808Y-141501206D01*
X123820662Y-141546562D01*
X123751431Y-141555986D01*
X123688095Y-141526484D01*
X123666192Y-141501206D01*
X123600651Y-141400889D01*
X123575722Y-141362732D01*
X123575719Y-141362729D01*
X123575715Y-141362723D01*
X123423243Y-141197097D01*
X123423238Y-141197092D01*
X123292698Y-141095488D01*
X123245576Y-141058811D01*
X123245575Y-141058810D01*
X123245572Y-141058808D01*
X123047580Y-140951661D01*
X123047577Y-140951659D01*
X123047574Y-140951658D01*
X123047571Y-140951657D01*
X123047569Y-140951656D01*
X122834637Y-140878556D01*
X122612569Y-140841500D01*
X122387431Y-140841500D01*
X122165362Y-140878556D01*
X121952430Y-140951656D01*
X121952419Y-140951661D01*
X121754427Y-141058808D01*
X121754422Y-141058812D01*
X121576761Y-141197092D01*
X121576756Y-141197097D01*
X121424284Y-141362723D01*
X121424276Y-141362734D01*
X121333808Y-141501206D01*
X121280662Y-141546562D01*
X121211431Y-141555986D01*
X121148095Y-141526484D01*
X121126192Y-141501206D01*
X121060651Y-141400889D01*
X121035722Y-141362732D01*
X121035719Y-141362729D01*
X121035715Y-141362723D01*
X120883243Y-141197097D01*
X120883238Y-141197092D01*
X120752698Y-141095488D01*
X120705576Y-141058811D01*
X120705575Y-141058810D01*
X120705572Y-141058808D01*
X120507580Y-140951661D01*
X120507577Y-140951659D01*
X120507574Y-140951658D01*
X120507571Y-140951657D01*
X120507569Y-140951656D01*
X120294637Y-140878556D01*
X120072569Y-140841500D01*
X119847431Y-140841500D01*
X119625362Y-140878556D01*
X119412430Y-140951656D01*
X119412419Y-140951661D01*
X119214427Y-141058808D01*
X119214422Y-141058812D01*
X119036761Y-141197092D01*
X119036756Y-141197097D01*
X118884284Y-141362723D01*
X118884276Y-141362734D01*
X118793808Y-141501206D01*
X118740662Y-141546562D01*
X118671431Y-141555986D01*
X118608095Y-141526484D01*
X118586192Y-141501206D01*
X118520651Y-141400889D01*
X118495722Y-141362732D01*
X118495719Y-141362729D01*
X118495715Y-141362723D01*
X118343243Y-141197097D01*
X118343238Y-141197092D01*
X118212698Y-141095488D01*
X118165576Y-141058811D01*
X118165575Y-141058810D01*
X118165572Y-141058808D01*
X117967580Y-140951661D01*
X117967577Y-140951659D01*
X117967574Y-140951658D01*
X117967571Y-140951657D01*
X117967569Y-140951656D01*
X117754637Y-140878556D01*
X117532569Y-140841500D01*
X117307431Y-140841500D01*
X117085362Y-140878556D01*
X116872430Y-140951656D01*
X116872419Y-140951661D01*
X116674427Y-141058808D01*
X116674422Y-141058812D01*
X116496761Y-141197092D01*
X116496756Y-141197097D01*
X116344284Y-141362723D01*
X116344276Y-141362734D01*
X116253808Y-141501206D01*
X116200662Y-141546562D01*
X116131431Y-141555986D01*
X116068095Y-141526484D01*
X116046192Y-141501206D01*
X115980651Y-141400889D01*
X115955722Y-141362732D01*
X115955719Y-141362729D01*
X115955715Y-141362723D01*
X115803243Y-141197097D01*
X115803238Y-141197092D01*
X115672698Y-141095488D01*
X115625576Y-141058811D01*
X115625575Y-141058810D01*
X115625572Y-141058808D01*
X115427580Y-140951661D01*
X115427577Y-140951659D01*
X115427574Y-140951658D01*
X115427571Y-140951657D01*
X115427569Y-140951656D01*
X115214637Y-140878556D01*
X114992569Y-140841500D01*
X114767431Y-140841500D01*
X114545362Y-140878556D01*
X114332430Y-140951656D01*
X114332419Y-140951661D01*
X114134427Y-141058808D01*
X114134422Y-141058812D01*
X113956761Y-141197092D01*
X113956756Y-141197097D01*
X113804284Y-141362723D01*
X113804276Y-141362734D01*
X113713808Y-141501206D01*
X113660662Y-141546562D01*
X113591431Y-141555986D01*
X113528095Y-141526484D01*
X113506192Y-141501206D01*
X113440651Y-141400889D01*
X113415722Y-141362732D01*
X113415719Y-141362729D01*
X113415715Y-141362723D01*
X113263243Y-141197097D01*
X113263238Y-141197092D01*
X113132698Y-141095488D01*
X113085576Y-141058811D01*
X113085575Y-141058810D01*
X113085572Y-141058808D01*
X112887580Y-140951661D01*
X112887577Y-140951659D01*
X112887574Y-140951658D01*
X112887571Y-140951657D01*
X112887569Y-140951656D01*
X112674637Y-140878556D01*
X112452569Y-140841500D01*
X112227431Y-140841500D01*
X112005362Y-140878556D01*
X111792430Y-140951656D01*
X111792419Y-140951661D01*
X111594427Y-141058808D01*
X111594422Y-141058812D01*
X111416761Y-141197092D01*
X111416756Y-141197097D01*
X111264284Y-141362723D01*
X111264276Y-141362734D01*
X111173808Y-141501206D01*
X111120662Y-141546562D01*
X111051431Y-141555986D01*
X110988095Y-141526484D01*
X110966192Y-141501206D01*
X110900651Y-141400889D01*
X110875722Y-141362732D01*
X110875719Y-141362729D01*
X110875715Y-141362723D01*
X110723243Y-141197097D01*
X110723238Y-141197092D01*
X110592698Y-141095488D01*
X110545576Y-141058811D01*
X110545575Y-141058810D01*
X110545572Y-141058808D01*
X110347580Y-140951661D01*
X110347577Y-140951659D01*
X110347574Y-140951658D01*
X110347571Y-140951657D01*
X110347569Y-140951656D01*
X110134637Y-140878556D01*
X109912569Y-140841500D01*
X109687431Y-140841500D01*
X109465362Y-140878556D01*
X109252430Y-140951656D01*
X109252419Y-140951661D01*
X109054427Y-141058808D01*
X109054422Y-141058812D01*
X108876761Y-141197092D01*
X108876756Y-141197097D01*
X108724284Y-141362723D01*
X108724276Y-141362734D01*
X108633808Y-141501206D01*
X108580662Y-141546562D01*
X108511431Y-141555986D01*
X108448095Y-141526484D01*
X108426192Y-141501206D01*
X108360651Y-141400889D01*
X108335722Y-141362732D01*
X108335719Y-141362729D01*
X108335715Y-141362723D01*
X108183243Y-141197097D01*
X108183238Y-141197092D01*
X108052698Y-141095488D01*
X108005576Y-141058811D01*
X108005575Y-141058810D01*
X108005572Y-141058808D01*
X107807580Y-140951661D01*
X107807577Y-140951659D01*
X107807574Y-140951658D01*
X107807571Y-140951657D01*
X107807569Y-140951656D01*
X107594637Y-140878556D01*
X107372569Y-140841500D01*
X107147431Y-140841500D01*
X106925362Y-140878556D01*
X106712430Y-140951656D01*
X106712419Y-140951661D01*
X106514427Y-141058808D01*
X106514422Y-141058812D01*
X106336761Y-141197092D01*
X106273548Y-141265760D01*
X106213661Y-141301750D01*
X106143823Y-141299649D01*
X106086207Y-141260124D01*
X106066138Y-141225110D01*
X106020889Y-141103796D01*
X105997074Y-141071983D01*
X105933261Y-140986739D01*
X105816204Y-140899111D01*
X105793589Y-140890676D01*
X105679203Y-140848011D01*
X105618654Y-140841500D01*
X105618638Y-140841500D01*
X103821362Y-140841500D01*
X103821345Y-140841500D01*
X103760797Y-140848011D01*
X103760795Y-140848011D01*
X103623793Y-140899112D01*
X103621698Y-140900256D01*
X103619369Y-140900762D01*
X103615488Y-140902210D01*
X103615279Y-140901651D01*
X103553423Y-140915100D01*
X103487962Y-140890676D01*
X103446096Y-140834738D01*
X103441120Y-140765045D01*
X103474602Y-140703736D01*
X123012269Y-121166069D01*
X123012273Y-121166065D01*
X123095718Y-121041179D01*
X123153197Y-120902413D01*
X123153197Y-120902409D01*
X123153199Y-120902406D01*
X123158862Y-120873936D01*
X123158862Y-120873935D01*
X123182500Y-120755102D01*
X123182500Y-118388635D01*
X123202185Y-118321596D01*
X123230338Y-118290782D01*
X123274068Y-118256745D01*
X123343240Y-118202906D01*
X123464594Y-118071082D01*
X123495715Y-118037276D01*
X123495715Y-118037275D01*
X123495722Y-118037268D01*
X123586193Y-117898790D01*
X123639338Y-117853437D01*
X123708569Y-117844013D01*
X123771905Y-117873515D01*
X123793804Y-117898787D01*
X123884278Y-118037268D01*
X123884283Y-118037273D01*
X123884284Y-118037276D01*
X124010968Y-118174889D01*
X124036760Y-118202906D01*
X124214424Y-118341189D01*
X124214425Y-118341189D01*
X124214427Y-118341191D01*
X124274314Y-118373600D01*
X124412426Y-118448342D01*
X124625365Y-118521444D01*
X124847431Y-118558500D01*
X125072569Y-118558500D01*
X125294635Y-118521444D01*
X125507574Y-118448342D01*
X125705576Y-118341189D01*
X125883240Y-118202906D01*
X126004594Y-118071082D01*
X126035715Y-118037276D01*
X126035715Y-118037275D01*
X126035722Y-118037268D01*
X126126193Y-117898790D01*
X126179338Y-117853437D01*
X126248569Y-117844013D01*
X126311905Y-117873515D01*
X126333804Y-117898787D01*
X126424278Y-118037268D01*
X126424283Y-118037273D01*
X126424284Y-118037276D01*
X126550968Y-118174889D01*
X126576760Y-118202906D01*
X126754424Y-118341189D01*
X126754425Y-118341189D01*
X126754427Y-118341191D01*
X126814314Y-118373600D01*
X126952426Y-118448342D01*
X127165365Y-118521444D01*
X127387431Y-118558500D01*
X127612569Y-118558500D01*
X127834635Y-118521444D01*
X128047574Y-118448342D01*
X128245576Y-118341189D01*
X128423240Y-118202906D01*
X128544594Y-118071082D01*
X128575715Y-118037276D01*
X128575715Y-118037275D01*
X128575722Y-118037268D01*
X128666193Y-117898790D01*
X128719338Y-117853437D01*
X128788569Y-117844013D01*
X128851905Y-117873515D01*
X128873804Y-117898787D01*
X128964278Y-118037268D01*
X128964283Y-118037273D01*
X128964284Y-118037276D01*
X129090968Y-118174889D01*
X129116760Y-118202906D01*
X129294424Y-118341189D01*
X129294425Y-118341189D01*
X129294427Y-118341191D01*
X129354314Y-118373600D01*
X129492426Y-118448342D01*
X129705365Y-118521444D01*
X129927431Y-118558500D01*
X130152569Y-118558500D01*
X130374635Y-118521444D01*
X130587574Y-118448342D01*
X130785576Y-118341189D01*
X130963240Y-118202906D01*
X131084594Y-118071082D01*
X131115715Y-118037276D01*
X131115715Y-118037275D01*
X131115722Y-118037268D01*
X131206193Y-117898790D01*
X131259338Y-117853437D01*
X131328569Y-117844013D01*
X131391905Y-117873515D01*
X131413804Y-117898787D01*
X131504278Y-118037268D01*
X131504283Y-118037273D01*
X131504284Y-118037276D01*
X131630968Y-118174889D01*
X131656760Y-118202906D01*
X131834424Y-118341189D01*
X131834425Y-118341189D01*
X131834427Y-118341191D01*
X131894314Y-118373600D01*
X132032426Y-118448342D01*
X132245365Y-118521444D01*
X132467431Y-118558500D01*
X132692569Y-118558500D01*
X132914635Y-118521444D01*
X133127574Y-118448342D01*
X133325576Y-118341189D01*
X133503240Y-118202906D01*
X133624594Y-118071082D01*
X133655715Y-118037276D01*
X133655715Y-118037275D01*
X133655722Y-118037268D01*
X133746193Y-117898790D01*
X133799338Y-117853437D01*
X133868569Y-117844013D01*
X133931905Y-117873515D01*
X133953804Y-117898787D01*
X134044278Y-118037268D01*
X134044283Y-118037273D01*
X134044284Y-118037276D01*
X134170968Y-118174889D01*
X134196760Y-118202906D01*
X134374424Y-118341189D01*
X134374425Y-118341189D01*
X134374427Y-118341191D01*
X134434314Y-118373600D01*
X134572426Y-118448342D01*
X134785365Y-118521444D01*
X135007431Y-118558500D01*
X135232569Y-118558500D01*
X135454635Y-118521444D01*
X135667574Y-118448342D01*
X135865576Y-118341189D01*
X136043240Y-118202906D01*
X136164594Y-118071082D01*
X136195715Y-118037276D01*
X136195715Y-118037275D01*
X136195722Y-118037268D01*
X136289749Y-117893347D01*
X136342894Y-117847994D01*
X136412125Y-117838570D01*
X136475461Y-117868072D01*
X136495130Y-117890048D01*
X136621890Y-118071078D01*
X136788917Y-118238105D01*
X136982421Y-118373600D01*
X137196507Y-118473429D01*
X137196516Y-118473433D01*
X137410000Y-118530634D01*
X137410000Y-117633012D01*
X137467007Y-117665925D01*
X137594174Y-117700000D01*
X137725826Y-117700000D01*
X137852993Y-117665925D01*
X137910000Y-117633012D01*
X137910000Y-118530633D01*
X138123483Y-118473433D01*
X138123492Y-118473429D01*
X138337578Y-118373600D01*
X138531082Y-118238105D01*
X138698105Y-118071082D01*
X138824868Y-117890048D01*
X138879445Y-117846423D01*
X138948944Y-117839231D01*
X139011298Y-117870753D01*
X139030251Y-117893350D01*
X139124276Y-118037265D01*
X139124284Y-118037276D01*
X139250968Y-118174889D01*
X139276760Y-118202906D01*
X139276763Y-118202908D01*
X139276766Y-118202911D01*
X139389662Y-118290782D01*
X139430475Y-118347492D01*
X139437500Y-118388635D01*
X139437500Y-121132799D01*
X139417815Y-121199838D01*
X139401181Y-121220480D01*
X138736064Y-121885596D01*
X138674741Y-121919081D01*
X138674166Y-121919205D01*
X138617714Y-121931205D01*
X138600608Y-121938821D01*
X138483152Y-121991116D01*
X138443244Y-122008884D01*
X138288745Y-122121135D01*
X138160959Y-122263057D01*
X138065473Y-122428443D01*
X138065470Y-122428450D01*
X138006459Y-122610068D01*
X138006458Y-122610072D01*
X137986496Y-122800000D01*
X138006458Y-122989928D01*
X138006459Y-122989931D01*
X138065470Y-123171549D01*
X138065473Y-123171556D01*
X138160960Y-123336944D01*
X138288747Y-123478866D01*
X138443248Y-123591118D01*
X138617712Y-123668794D01*
X138804513Y-123708500D01*
X138995487Y-123708500D01*
X139182288Y-123668794D01*
X139356752Y-123591118D01*
X139511253Y-123478866D01*
X139639040Y-123336944D01*
X139734527Y-123171556D01*
X139786813Y-123010635D01*
X139817060Y-122961276D01*
X140792273Y-121986065D01*
X140875719Y-121861179D01*
X140933197Y-121722412D01*
X140946515Y-121655462D01*
X140955139Y-121612108D01*
X140962500Y-121575102D01*
X140962500Y-118388635D01*
X140982185Y-118321596D01*
X141010338Y-118290782D01*
X141054068Y-118256745D01*
X141123240Y-118202906D01*
X141244594Y-118071082D01*
X141275715Y-118037276D01*
X141275717Y-118037273D01*
X141275722Y-118037268D01*
X141398860Y-117848791D01*
X141489296Y-117642616D01*
X141544564Y-117424368D01*
X141547164Y-117392993D01*
X141563156Y-117200005D01*
X141563156Y-117199994D01*
X141544565Y-116975640D01*
X141544563Y-116975628D01*
X141489296Y-116757385D01*
X141479071Y-116734075D01*
X141398860Y-116551209D01*
X141391611Y-116540114D01*
X141277673Y-116365718D01*
X141275722Y-116362732D01*
X141275719Y-116362729D01*
X141275715Y-116362723D01*
X141123243Y-116197097D01*
X141123238Y-116197092D01*
X140945577Y-116058812D01*
X140945572Y-116058808D01*
X140747580Y-115951661D01*
X140747577Y-115951659D01*
X140747574Y-115951658D01*
X140747571Y-115951657D01*
X140747569Y-115951656D01*
X140534637Y-115878556D01*
X140312569Y-115841500D01*
X140087431Y-115841500D01*
X139865362Y-115878556D01*
X139652430Y-115951656D01*
X139652419Y-115951661D01*
X139454427Y-116058808D01*
X139454422Y-116058812D01*
X139276761Y-116197092D01*
X139276756Y-116197097D01*
X139124284Y-116362723D01*
X139124276Y-116362734D01*
X139030251Y-116506650D01*
X138977105Y-116552007D01*
X138907873Y-116561430D01*
X138844538Y-116531928D01*
X138824868Y-116509951D01*
X138698113Y-116328926D01*
X138698108Y-116328920D01*
X138531082Y-116161894D01*
X138337578Y-116026399D01*
X138123492Y-115926570D01*
X138123486Y-115926567D01*
X137910000Y-115869364D01*
X137910000Y-116766988D01*
X137852993Y-116734075D01*
X137725826Y-116700000D01*
X137594174Y-116700000D01*
X137467007Y-116734075D01*
X137410000Y-116766988D01*
X137410000Y-115869364D01*
X137409999Y-115869364D01*
X137196513Y-115926567D01*
X137196507Y-115926570D01*
X136982422Y-116026399D01*
X136982420Y-116026400D01*
X136788926Y-116161886D01*
X136788920Y-116161891D01*
X136621891Y-116328920D01*
X136621890Y-116328922D01*
X136495131Y-116509952D01*
X136440554Y-116553577D01*
X136371055Y-116560769D01*
X136308701Y-116529247D01*
X136289752Y-116506656D01*
X136195722Y-116362732D01*
X136195715Y-116362725D01*
X136195715Y-116362723D01*
X136043243Y-116197097D01*
X136043238Y-116197092D01*
X135865577Y-116058812D01*
X135865572Y-116058808D01*
X135667580Y-115951661D01*
X135667577Y-115951659D01*
X135667574Y-115951658D01*
X135667571Y-115951657D01*
X135667569Y-115951656D01*
X135454637Y-115878556D01*
X135232569Y-115841500D01*
X135007431Y-115841500D01*
X134785362Y-115878556D01*
X134572430Y-115951656D01*
X134572419Y-115951661D01*
X134374427Y-116058808D01*
X134374422Y-116058812D01*
X134196761Y-116197092D01*
X134196756Y-116197097D01*
X134044284Y-116362723D01*
X134044276Y-116362734D01*
X133953808Y-116501206D01*
X133900662Y-116546562D01*
X133831431Y-116555986D01*
X133768095Y-116526484D01*
X133746192Y-116501206D01*
X133657673Y-116365718D01*
X133655722Y-116362732D01*
X133655719Y-116362729D01*
X133655715Y-116362723D01*
X133503243Y-116197097D01*
X133503238Y-116197092D01*
X133325577Y-116058812D01*
X133325572Y-116058808D01*
X133127580Y-115951661D01*
X133127577Y-115951659D01*
X133127574Y-115951658D01*
X133127571Y-115951657D01*
X133127569Y-115951656D01*
X132914637Y-115878556D01*
X132692569Y-115841500D01*
X132467431Y-115841500D01*
X132245362Y-115878556D01*
X132032430Y-115951656D01*
X132032419Y-115951661D01*
X131834427Y-116058808D01*
X131834422Y-116058812D01*
X131656761Y-116197092D01*
X131656756Y-116197097D01*
X131504284Y-116362723D01*
X131504276Y-116362734D01*
X131413808Y-116501206D01*
X131360662Y-116546562D01*
X131291431Y-116555986D01*
X131228095Y-116526484D01*
X131206192Y-116501206D01*
X131117673Y-116365718D01*
X131115722Y-116362732D01*
X131115719Y-116362729D01*
X131115715Y-116362723D01*
X130963243Y-116197097D01*
X130963238Y-116197092D01*
X130785577Y-116058812D01*
X130785572Y-116058808D01*
X130587580Y-115951661D01*
X130587577Y-115951659D01*
X130587574Y-115951658D01*
X130587571Y-115951657D01*
X130587569Y-115951656D01*
X130374637Y-115878556D01*
X130152569Y-115841500D01*
X129927431Y-115841500D01*
X129705362Y-115878556D01*
X129492430Y-115951656D01*
X129492419Y-115951661D01*
X129294427Y-116058808D01*
X129294422Y-116058812D01*
X129116761Y-116197092D01*
X129116756Y-116197097D01*
X128964284Y-116362723D01*
X128964276Y-116362734D01*
X128873808Y-116501206D01*
X128820662Y-116546562D01*
X128751431Y-116555986D01*
X128688095Y-116526484D01*
X128666192Y-116501206D01*
X128577673Y-116365718D01*
X128575722Y-116362732D01*
X128575719Y-116362729D01*
X128575715Y-116362723D01*
X128423243Y-116197097D01*
X128423238Y-116197092D01*
X128245577Y-116058812D01*
X128245572Y-116058808D01*
X128047580Y-115951661D01*
X128047577Y-115951659D01*
X128047574Y-115951658D01*
X128047571Y-115951657D01*
X128047569Y-115951656D01*
X127834637Y-115878556D01*
X127612569Y-115841500D01*
X127387431Y-115841500D01*
X127165362Y-115878556D01*
X126952430Y-115951656D01*
X126952419Y-115951661D01*
X126754427Y-116058808D01*
X126754422Y-116058812D01*
X126576761Y-116197092D01*
X126576756Y-116197097D01*
X126424284Y-116362723D01*
X126424276Y-116362734D01*
X126333808Y-116501206D01*
X126280662Y-116546562D01*
X126211431Y-116555986D01*
X126148095Y-116526484D01*
X126126192Y-116501206D01*
X126037673Y-116365718D01*
X126035722Y-116362732D01*
X126035719Y-116362729D01*
X126035715Y-116362723D01*
X125883243Y-116197097D01*
X125883238Y-116197092D01*
X125705577Y-116058812D01*
X125705572Y-116058808D01*
X125507580Y-115951661D01*
X125507577Y-115951659D01*
X125507574Y-115951658D01*
X125507571Y-115951657D01*
X125507569Y-115951656D01*
X125294637Y-115878556D01*
X125072569Y-115841500D01*
X124847431Y-115841500D01*
X124625362Y-115878556D01*
X124412430Y-115951656D01*
X124412419Y-115951661D01*
X124214427Y-116058808D01*
X124214422Y-116058812D01*
X124036761Y-116197092D01*
X124036756Y-116197097D01*
X123884284Y-116362723D01*
X123884276Y-116362734D01*
X123793808Y-116501206D01*
X123740662Y-116546562D01*
X123671431Y-116555986D01*
X123608095Y-116526484D01*
X123586192Y-116501206D01*
X123497673Y-116365718D01*
X123495722Y-116362732D01*
X123495719Y-116362729D01*
X123495715Y-116362723D01*
X123343243Y-116197097D01*
X123343238Y-116197092D01*
X123165577Y-116058812D01*
X123165572Y-116058808D01*
X122967580Y-115951661D01*
X122967577Y-115951659D01*
X122967574Y-115951658D01*
X122967571Y-115951657D01*
X122967569Y-115951656D01*
X122754637Y-115878556D01*
X122532569Y-115841500D01*
X122307431Y-115841500D01*
X122085362Y-115878556D01*
X121872430Y-115951656D01*
X121872419Y-115951661D01*
X121674427Y-116058808D01*
X121674422Y-116058812D01*
X121496761Y-116197092D01*
X121496756Y-116197097D01*
X121344284Y-116362723D01*
X121344276Y-116362734D01*
X121253808Y-116501206D01*
X121200662Y-116546562D01*
X121131431Y-116555986D01*
X121068095Y-116526484D01*
X121046192Y-116501206D01*
X120957673Y-116365718D01*
X120955722Y-116362732D01*
X120955719Y-116362729D01*
X120955715Y-116362723D01*
X120803243Y-116197097D01*
X120803238Y-116197092D01*
X120625577Y-116058812D01*
X120625572Y-116058808D01*
X120427580Y-115951661D01*
X120427577Y-115951659D01*
X120427574Y-115951658D01*
X120427571Y-115951657D01*
X120427569Y-115951656D01*
X120214637Y-115878556D01*
X119992569Y-115841500D01*
X119767431Y-115841500D01*
X119545362Y-115878556D01*
X119332430Y-115951656D01*
X119332419Y-115951661D01*
X119134427Y-116058808D01*
X119134422Y-116058812D01*
X118956761Y-116197092D01*
X118956756Y-116197097D01*
X118804284Y-116362723D01*
X118804276Y-116362734D01*
X118713808Y-116501206D01*
X118660662Y-116546562D01*
X118591431Y-116555986D01*
X118528095Y-116526484D01*
X118506192Y-116501206D01*
X118417673Y-116365718D01*
X118415722Y-116362732D01*
X118415719Y-116362729D01*
X118415715Y-116362723D01*
X118263243Y-116197097D01*
X118263238Y-116197092D01*
X118085577Y-116058812D01*
X118085572Y-116058808D01*
X117887580Y-115951661D01*
X117887577Y-115951659D01*
X117887574Y-115951658D01*
X117887571Y-115951657D01*
X117887569Y-115951656D01*
X117674637Y-115878556D01*
X117452569Y-115841500D01*
X117227431Y-115841500D01*
X117005362Y-115878556D01*
X116792430Y-115951656D01*
X116792419Y-115951661D01*
X116594427Y-116058808D01*
X116594422Y-116058812D01*
X116416761Y-116197092D01*
X116416756Y-116197097D01*
X116264284Y-116362723D01*
X116264276Y-116362734D01*
X116173808Y-116501206D01*
X116120662Y-116546562D01*
X116051431Y-116555986D01*
X115988095Y-116526484D01*
X115966192Y-116501206D01*
X115877673Y-116365718D01*
X115875722Y-116362732D01*
X115875719Y-116362729D01*
X115875715Y-116362723D01*
X115723243Y-116197097D01*
X115723238Y-116197092D01*
X115545577Y-116058812D01*
X115545572Y-116058808D01*
X115347580Y-115951661D01*
X115347577Y-115951659D01*
X115347574Y-115951658D01*
X115347571Y-115951657D01*
X115347569Y-115951656D01*
X115134637Y-115878556D01*
X114912569Y-115841500D01*
X114687431Y-115841500D01*
X114465362Y-115878556D01*
X114252430Y-115951656D01*
X114252419Y-115951661D01*
X114054427Y-116058808D01*
X114054422Y-116058812D01*
X113876761Y-116197092D01*
X113876756Y-116197097D01*
X113724284Y-116362723D01*
X113724276Y-116362734D01*
X113633808Y-116501206D01*
X113580662Y-116546562D01*
X113511431Y-116555986D01*
X113448095Y-116526484D01*
X113426192Y-116501206D01*
X113337673Y-116365718D01*
X113335722Y-116362732D01*
X113335719Y-116362729D01*
X113335715Y-116362723D01*
X113183243Y-116197097D01*
X113183238Y-116197092D01*
X113005577Y-116058812D01*
X113005572Y-116058808D01*
X112807580Y-115951661D01*
X112807577Y-115951659D01*
X112807574Y-115951658D01*
X112807571Y-115951657D01*
X112807569Y-115951656D01*
X112594637Y-115878556D01*
X112372569Y-115841500D01*
X112147431Y-115841500D01*
X111925362Y-115878556D01*
X111712430Y-115951656D01*
X111712419Y-115951661D01*
X111514427Y-116058808D01*
X111514422Y-116058812D01*
X111336761Y-116197092D01*
X111336756Y-116197097D01*
X111184284Y-116362723D01*
X111184276Y-116362734D01*
X111093808Y-116501206D01*
X111040662Y-116546562D01*
X110971431Y-116555986D01*
X110908095Y-116526484D01*
X110886192Y-116501206D01*
X110797673Y-116365718D01*
X110795722Y-116362732D01*
X110795719Y-116362729D01*
X110795715Y-116362723D01*
X110643243Y-116197097D01*
X110643238Y-116197092D01*
X110465577Y-116058812D01*
X110465572Y-116058808D01*
X110267580Y-115951661D01*
X110267577Y-115951659D01*
X110267574Y-115951658D01*
X110267571Y-115951657D01*
X110267569Y-115951656D01*
X110054637Y-115878556D01*
X109832569Y-115841500D01*
X109607431Y-115841500D01*
X109385362Y-115878556D01*
X109172430Y-115951656D01*
X109172419Y-115951661D01*
X108974427Y-116058808D01*
X108974422Y-116058812D01*
X108796761Y-116197092D01*
X108796756Y-116197097D01*
X108644284Y-116362723D01*
X108644276Y-116362734D01*
X108553808Y-116501206D01*
X108500662Y-116546562D01*
X108431431Y-116555986D01*
X108368095Y-116526484D01*
X108346192Y-116501206D01*
X108257673Y-116365718D01*
X108255722Y-116362732D01*
X108255719Y-116362729D01*
X108255715Y-116362723D01*
X108103243Y-116197097D01*
X108103238Y-116197092D01*
X107925577Y-116058812D01*
X107925572Y-116058808D01*
X107727580Y-115951661D01*
X107727577Y-115951659D01*
X107727574Y-115951658D01*
X107727571Y-115951657D01*
X107727569Y-115951656D01*
X107514637Y-115878556D01*
X107292569Y-115841500D01*
X107067431Y-115841500D01*
X106845362Y-115878556D01*
X106632430Y-115951656D01*
X106632419Y-115951661D01*
X106434427Y-116058808D01*
X106434422Y-116058812D01*
X106256761Y-116197092D01*
X106193548Y-116265760D01*
X106133661Y-116301750D01*
X106063823Y-116299649D01*
X106006207Y-116260124D01*
X105986138Y-116225110D01*
X105940889Y-116103796D01*
X105907214Y-116058812D01*
X105853261Y-115986739D01*
X105736204Y-115899111D01*
X105599203Y-115848011D01*
X105538654Y-115841500D01*
X105538638Y-115841500D01*
X103741362Y-115841500D01*
X103741345Y-115841500D01*
X103680797Y-115848011D01*
X103680795Y-115848011D01*
X103543795Y-115899111D01*
X103426739Y-115986739D01*
X103339111Y-116103795D01*
X103288011Y-116240795D01*
X103288011Y-116240797D01*
X103281500Y-116301345D01*
X103281500Y-118098654D01*
X103288011Y-118159202D01*
X103288011Y-118159204D01*
X103324393Y-118256745D01*
X103339111Y-118296204D01*
X103426739Y-118413261D01*
X103543796Y-118500889D01*
X103680799Y-118551989D01*
X103708050Y-118554918D01*
X103741345Y-118558499D01*
X103741362Y-118558500D01*
X105538638Y-118558500D01*
X105538654Y-118558499D01*
X105565692Y-118555591D01*
X105599201Y-118551989D01*
X105736204Y-118500889D01*
X105853261Y-118413261D01*
X105940889Y-118296204D01*
X105986138Y-118174887D01*
X106028009Y-118118956D01*
X106093474Y-118094539D01*
X106161746Y-118109391D01*
X106193545Y-118134236D01*
X106256760Y-118202906D01*
X106434424Y-118341189D01*
X106434425Y-118341189D01*
X106434427Y-118341191D01*
X106494314Y-118373600D01*
X106632426Y-118448342D01*
X106845365Y-118521444D01*
X107067431Y-118558500D01*
X107292569Y-118558500D01*
X107514635Y-118521444D01*
X107727574Y-118448342D01*
X107925576Y-118341189D01*
X108103240Y-118202906D01*
X108224594Y-118071082D01*
X108255715Y-118037276D01*
X108255715Y-118037275D01*
X108255722Y-118037268D01*
X108346193Y-117898790D01*
X108399338Y-117853437D01*
X108468569Y-117844013D01*
X108531905Y-117873515D01*
X108553804Y-117898787D01*
X108644278Y-118037268D01*
X108644283Y-118037273D01*
X108644284Y-118037276D01*
X108770968Y-118174889D01*
X108796760Y-118202906D01*
X108974424Y-118341189D01*
X108974425Y-118341189D01*
X108974427Y-118341191D01*
X109034314Y-118373600D01*
X109172426Y-118448342D01*
X109385365Y-118521444D01*
X109607431Y-118558500D01*
X109832569Y-118558500D01*
X110054635Y-118521444D01*
X110267574Y-118448342D01*
X110465576Y-118341189D01*
X110643240Y-118202906D01*
X110764594Y-118071082D01*
X110795715Y-118037276D01*
X110795715Y-118037275D01*
X110795722Y-118037268D01*
X110886193Y-117898790D01*
X110939338Y-117853437D01*
X111008569Y-117844013D01*
X111071905Y-117873515D01*
X111093804Y-117898787D01*
X111184278Y-118037268D01*
X111184283Y-118037273D01*
X111184284Y-118037276D01*
X111310968Y-118174889D01*
X111336760Y-118202906D01*
X111514424Y-118341189D01*
X111514425Y-118341189D01*
X111514427Y-118341191D01*
X111574314Y-118373600D01*
X111712426Y-118448342D01*
X111925365Y-118521444D01*
X112147431Y-118558500D01*
X112372569Y-118558500D01*
X112594635Y-118521444D01*
X112807574Y-118448342D01*
X113005576Y-118341189D01*
X113183240Y-118202906D01*
X113304594Y-118071082D01*
X113335715Y-118037276D01*
X113335715Y-118037275D01*
X113335722Y-118037268D01*
X113426193Y-117898790D01*
X113479338Y-117853437D01*
X113548569Y-117844013D01*
X113611905Y-117873515D01*
X113633804Y-117898787D01*
X113724278Y-118037268D01*
X113724283Y-118037273D01*
X113724284Y-118037276D01*
X113850968Y-118174889D01*
X113876760Y-118202906D01*
X113876763Y-118202908D01*
X113876766Y-118202911D01*
X113989662Y-118290782D01*
X114030475Y-118347492D01*
X114037500Y-118388635D01*
X114037500Y-121632800D01*
X114017815Y-121699839D01*
X114001181Y-121720481D01*
X97320481Y-138401181D01*
X97259158Y-138434666D01*
X97232800Y-138437500D01*
X71124898Y-138437500D01*
X70977590Y-138466802D01*
X70977588Y-138466802D01*
X70977587Y-138466803D01*
X70936943Y-138483637D01*
X70936941Y-138483638D01*
X70936940Y-138483637D01*
X70838824Y-138524279D01*
X70838814Y-138524284D01*
X70713935Y-138607726D01*
X70713931Y-138607729D01*
X67144770Y-142176890D01*
X67083447Y-142210375D01*
X67036680Y-142211518D01*
X66916712Y-142191500D01*
X66683288Y-142191500D01*
X66648027Y-142197384D01*
X66453045Y-142229920D01*
X66232280Y-142305710D01*
X66232266Y-142305716D01*
X66026988Y-142416806D01*
X66026985Y-142416808D01*
X65842781Y-142560181D01*
X65839010Y-142563653D01*
X65838290Y-142562871D01*
X65782899Y-142596147D01*
X65713061Y-142594034D01*
X65655452Y-142554500D01*
X65635397Y-142519503D01*
X65614135Y-142462500D01*
X65610889Y-142453796D01*
X65523261Y-142336739D01*
X65406204Y-142249111D01*
X65269203Y-142198011D01*
X65208654Y-142191500D01*
X65208638Y-142191500D01*
X63311362Y-142191500D01*
X63311345Y-142191500D01*
X63250797Y-142198011D01*
X63250795Y-142198011D01*
X63113795Y-142249111D01*
X62996739Y-142336739D01*
X62909111Y-142453795D01*
X62858011Y-142590795D01*
X62858011Y-142590797D01*
X62851500Y-142651345D01*
X62851500Y-144548654D01*
X62858011Y-144609202D01*
X62858011Y-144609204D01*
X62902118Y-144727455D01*
X62909111Y-144746204D01*
X62996739Y-144863261D01*
X63113796Y-144950889D01*
X63250799Y-145001989D01*
X63278050Y-145004918D01*
X63311345Y-145008499D01*
X63311362Y-145008500D01*
X65208638Y-145008500D01*
X65208654Y-145008499D01*
X65235692Y-145005591D01*
X65269201Y-145001989D01*
X65406204Y-144950889D01*
X65523261Y-144863261D01*
X65610889Y-144746204D01*
X65635397Y-144680495D01*
X65677268Y-144624563D01*
X65742733Y-144600147D01*
X65811005Y-144614999D01*
X65838724Y-144636656D01*
X65839010Y-144636347D01*
X65842774Y-144639811D01*
X65842780Y-144639818D01*
X66026983Y-144783190D01*
X66026985Y-144783191D01*
X66026988Y-144783193D01*
X66119011Y-144832993D01*
X66232273Y-144894287D01*
X66336298Y-144929999D01*
X66453045Y-144970079D01*
X66453047Y-144970079D01*
X66453049Y-144970080D01*
X66683288Y-145008500D01*
X66683289Y-145008500D01*
X66916711Y-145008500D01*
X66916712Y-145008500D01*
X67146951Y-144970080D01*
X67367727Y-144894287D01*
X67573017Y-144783190D01*
X67757220Y-144639818D01*
X67915314Y-144468083D01*
X68042984Y-144272669D01*
X68136749Y-144058907D01*
X68194051Y-143832626D01*
X68209772Y-143642902D01*
X68213327Y-143600005D01*
X68213327Y-143599994D01*
X68194051Y-143367375D01*
X68193207Y-143362313D01*
X68194839Y-143362040D01*
X68197174Y-143299579D01*
X68227080Y-143251256D01*
X71479519Y-139998819D01*
X71540842Y-139965334D01*
X71567200Y-139962500D01*
X75259801Y-139962500D01*
X75326840Y-139982185D01*
X75372595Y-140034989D01*
X75382539Y-140104147D01*
X75353514Y-140167703D01*
X75347482Y-140174181D01*
X74429392Y-141092269D01*
X74429388Y-141092274D01*
X74409252Y-141122412D01*
X74409252Y-141122413D01*
X74345947Y-141217156D01*
X74288469Y-141355920D01*
X74288467Y-141355926D01*
X74259166Y-141503231D01*
X74259166Y-142348004D01*
X74239481Y-142415043D01*
X74211329Y-142445857D01*
X74064447Y-142560180D01*
X74060676Y-142563653D01*
X74059956Y-142562871D01*
X74004565Y-142596147D01*
X73934727Y-142594034D01*
X73877118Y-142554500D01*
X73857063Y-142519503D01*
X73835801Y-142462500D01*
X73832555Y-142453796D01*
X73744927Y-142336739D01*
X73627870Y-142249111D01*
X73490869Y-142198011D01*
X73430320Y-142191500D01*
X73430304Y-142191500D01*
X71533028Y-142191500D01*
X71533011Y-142191500D01*
X71472463Y-142198011D01*
X71472461Y-142198011D01*
X71335461Y-142249111D01*
X71218405Y-142336739D01*
X71130777Y-142453795D01*
X71079677Y-142590795D01*
X71079677Y-142590797D01*
X71073166Y-142651345D01*
X71073166Y-144548654D01*
X71079677Y-144609202D01*
X71079677Y-144609204D01*
X71123784Y-144727455D01*
X71130777Y-144746204D01*
X71218405Y-144863261D01*
X71335462Y-144950889D01*
X71472465Y-145001989D01*
X71499716Y-145004918D01*
X71533011Y-145008499D01*
X71533028Y-145008500D01*
X73430304Y-145008500D01*
X73430320Y-145008499D01*
X73457358Y-145005591D01*
X73490867Y-145001989D01*
X73627870Y-144950889D01*
X73744927Y-144863261D01*
X73832555Y-144746204D01*
X73857063Y-144680495D01*
X73898934Y-144624563D01*
X73964399Y-144600147D01*
X74032671Y-144614999D01*
X74060390Y-144636656D01*
X74060676Y-144636347D01*
X74064440Y-144639811D01*
X74064446Y-144639818D01*
X74248649Y-144783190D01*
X74248651Y-144783191D01*
X74248654Y-144783193D01*
X74340677Y-144832993D01*
X74453939Y-144894287D01*
X74557964Y-144929999D01*
X74674711Y-144970079D01*
X74674713Y-144970079D01*
X74674715Y-144970080D01*
X74904954Y-145008500D01*
X74904955Y-145008500D01*
X75138377Y-145008500D01*
X75138378Y-145008500D01*
X75368617Y-144970080D01*
X75589393Y-144894287D01*
X75794683Y-144783190D01*
X75978886Y-144639818D01*
X76136980Y-144468083D01*
X76264650Y-144272669D01*
X76358415Y-144058907D01*
X76415717Y-143832626D01*
X76431438Y-143642902D01*
X76434993Y-143600005D01*
X76434993Y-143599994D01*
X76419519Y-143413260D01*
X76415717Y-143367374D01*
X76358415Y-143141093D01*
X76264650Y-142927331D01*
X76223514Y-142864368D01*
X76136979Y-142731915D01*
X75978889Y-142560185D01*
X75978884Y-142560180D01*
X75832003Y-142445857D01*
X75791190Y-142389146D01*
X75784166Y-142348004D01*
X75784166Y-141945533D01*
X75803851Y-141878494D01*
X75820485Y-141857852D01*
X76879518Y-140798819D01*
X76940841Y-140765334D01*
X76967199Y-140762500D01*
X82859800Y-140762500D01*
X82926839Y-140782185D01*
X82972594Y-140834989D01*
X82982538Y-140904147D01*
X82953513Y-140967703D01*
X82947481Y-140974181D01*
X82651063Y-141270597D01*
X82651060Y-141270600D01*
X82605477Y-141338820D01*
X82605478Y-141338821D01*
X82567613Y-141395490D01*
X82510135Y-141534254D01*
X82510133Y-141534260D01*
X82480832Y-141681565D01*
X82480832Y-142348004D01*
X82461147Y-142415043D01*
X82432995Y-142445857D01*
X82286113Y-142560180D01*
X82282342Y-142563653D01*
X82281622Y-142562871D01*
X82226231Y-142596147D01*
X82156393Y-142594034D01*
X82098784Y-142554500D01*
X82078729Y-142519503D01*
X82057467Y-142462500D01*
X82054221Y-142453796D01*
X81966593Y-142336739D01*
X81849536Y-142249111D01*
X81712535Y-142198011D01*
X81651986Y-142191500D01*
X81651970Y-142191500D01*
X79754694Y-142191500D01*
X79754677Y-142191500D01*
X79694129Y-142198011D01*
X79694127Y-142198011D01*
X79557127Y-142249111D01*
X79440071Y-142336739D01*
X79352443Y-142453795D01*
X79301343Y-142590795D01*
X79301343Y-142590797D01*
X79294832Y-142651345D01*
X79294832Y-144548654D01*
X79301343Y-144609202D01*
X79301343Y-144609204D01*
X79345450Y-144727455D01*
X79352443Y-144746204D01*
X79440071Y-144863261D01*
X79557128Y-144950889D01*
X79694131Y-145001989D01*
X79721382Y-145004918D01*
X79754677Y-145008499D01*
X79754694Y-145008500D01*
X81651970Y-145008500D01*
X81651986Y-145008499D01*
X81679024Y-145005591D01*
X81712533Y-145001989D01*
X81849536Y-144950889D01*
X81966593Y-144863261D01*
X82054221Y-144746204D01*
X82078729Y-144680495D01*
X82120600Y-144624563D01*
X82186065Y-144600147D01*
X82254337Y-144614999D01*
X82282056Y-144636656D01*
X82282342Y-144636347D01*
X82286106Y-144639811D01*
X82286112Y-144639818D01*
X82470315Y-144783190D01*
X82470317Y-144783191D01*
X82470320Y-144783193D01*
X82562343Y-144832993D01*
X82675605Y-144894287D01*
X82779630Y-144929999D01*
X82896377Y-144970079D01*
X82896379Y-144970079D01*
X82896381Y-144970080D01*
X83126620Y-145008500D01*
X83126621Y-145008500D01*
X83360043Y-145008500D01*
X83360044Y-145008500D01*
X83590283Y-144970080D01*
X83811059Y-144894287D01*
X84016349Y-144783190D01*
X84200552Y-144639818D01*
X84358646Y-144468083D01*
X84486316Y-144272669D01*
X84580081Y-144058907D01*
X84637383Y-143832626D01*
X84653104Y-143642902D01*
X84656659Y-143600005D01*
X84656659Y-143599994D01*
X84641185Y-143413260D01*
X84637383Y-143367374D01*
X84580081Y-143141093D01*
X84486316Y-142927331D01*
X84445180Y-142864368D01*
X84358645Y-142731915D01*
X84200555Y-142560185D01*
X84200550Y-142560180D01*
X84053669Y-142445857D01*
X84012856Y-142389146D01*
X84005832Y-142348004D01*
X84005832Y-142123868D01*
X84025517Y-142056829D01*
X84042151Y-142036187D01*
X84379519Y-141698819D01*
X84440842Y-141665334D01*
X84467200Y-141662500D01*
X94959800Y-141662500D01*
X95026839Y-141682185D01*
X95072594Y-141734989D01*
X95082538Y-141804147D01*
X95053513Y-141867703D01*
X95047481Y-141874181D01*
X94120481Y-142801181D01*
X94059158Y-142834666D01*
X94032800Y-142837500D01*
X92716400Y-142837500D01*
X92649361Y-142817815D01*
X92612592Y-142781322D01*
X92580315Y-142731919D01*
X92580307Y-142731908D01*
X92422223Y-142560185D01*
X92422222Y-142560184D01*
X92422220Y-142560182D01*
X92238017Y-142416810D01*
X92238015Y-142416809D01*
X92238014Y-142416808D01*
X92238011Y-142416806D01*
X92032733Y-142305716D01*
X92032730Y-142305715D01*
X92032727Y-142305713D01*
X92032721Y-142305711D01*
X92032719Y-142305710D01*
X91811954Y-142229920D01*
X91616973Y-142197384D01*
X91581712Y-142191500D01*
X91348288Y-142191500D01*
X91313027Y-142197384D01*
X91118045Y-142229920D01*
X90897280Y-142305710D01*
X90897266Y-142305716D01*
X90691988Y-142416806D01*
X90691985Y-142416808D01*
X90507781Y-142560181D01*
X90504010Y-142563653D01*
X90503290Y-142562871D01*
X90447899Y-142596147D01*
X90378061Y-142594034D01*
X90320452Y-142554500D01*
X90300397Y-142519503D01*
X90279135Y-142462500D01*
X90275889Y-142453796D01*
X90188261Y-142336739D01*
X90071204Y-142249111D01*
X89934203Y-142198011D01*
X89873654Y-142191500D01*
X89873638Y-142191500D01*
X87976362Y-142191500D01*
X87976345Y-142191500D01*
X87915797Y-142198011D01*
X87915795Y-142198011D01*
X87778795Y-142249111D01*
X87661739Y-142336739D01*
X87574111Y-142453795D01*
X87523011Y-142590795D01*
X87523011Y-142590797D01*
X87516500Y-142651345D01*
X87516500Y-144548654D01*
X87523011Y-144609202D01*
X87523011Y-144609204D01*
X87567118Y-144727455D01*
X87574111Y-144746204D01*
X87661739Y-144863261D01*
X87778796Y-144950889D01*
X87915799Y-145001989D01*
X87943050Y-145004918D01*
X87976345Y-145008499D01*
X87976362Y-145008500D01*
X89873638Y-145008500D01*
X89873654Y-145008499D01*
X89900692Y-145005591D01*
X89934201Y-145001989D01*
X90071204Y-144950889D01*
X90188261Y-144863261D01*
X90275889Y-144746204D01*
X90300397Y-144680495D01*
X90342268Y-144624563D01*
X90407733Y-144600147D01*
X90476005Y-144614999D01*
X90503724Y-144636656D01*
X90504010Y-144636347D01*
X90507774Y-144639811D01*
X90507780Y-144639818D01*
X90691983Y-144783190D01*
X90691985Y-144783191D01*
X90691988Y-144783193D01*
X90784011Y-144832993D01*
X90897273Y-144894287D01*
X91001298Y-144929999D01*
X91118045Y-144970079D01*
X91118047Y-144970079D01*
X91118049Y-144970080D01*
X91348288Y-145008500D01*
X91348289Y-145008500D01*
X91581711Y-145008500D01*
X91581712Y-145008500D01*
X91811951Y-144970080D01*
X92032727Y-144894287D01*
X92238017Y-144783190D01*
X92422220Y-144639818D01*
X92548703Y-144502422D01*
X92580307Y-144468091D01*
X92580308Y-144468089D01*
X92580314Y-144468083D01*
X92612592Y-144418678D01*
X92665738Y-144373321D01*
X92716400Y-144362500D01*
X94475102Y-144362500D01*
X94574204Y-144342786D01*
X94622413Y-144333197D01*
X94761179Y-144275718D01*
X94765730Y-144272676D01*
X94765743Y-144272672D01*
X94765742Y-144272670D01*
X94855779Y-144212508D01*
X94886065Y-144192273D01*
X96579519Y-142498819D01*
X96640842Y-142465334D01*
X96667200Y-142462500D01*
X101475102Y-142462500D01*
X101574204Y-142442786D01*
X101622413Y-142433197D01*
X101761179Y-142375718D01*
X101801254Y-142348941D01*
X101886065Y-142292273D01*
X103223736Y-140954602D01*
X103285059Y-140921117D01*
X103354751Y-140926101D01*
X103410684Y-140967973D01*
X103435101Y-141033437D01*
X103421651Y-141095279D01*
X103422210Y-141095488D01*
X103420762Y-141099368D01*
X103420256Y-141101698D01*
X103419112Y-141103793D01*
X103368011Y-141240795D01*
X103368011Y-141240797D01*
X103361500Y-141301345D01*
X103361500Y-143098654D01*
X103368011Y-143159202D01*
X103368011Y-143159204D01*
X103401427Y-143248792D01*
X103419111Y-143296204D01*
X103506739Y-143413261D01*
X103623796Y-143500889D01*
X103760799Y-143551989D01*
X103788050Y-143554918D01*
X103821345Y-143558499D01*
X103821362Y-143558500D01*
X105618638Y-143558500D01*
X105618654Y-143558499D01*
X105645692Y-143555591D01*
X105679201Y-143551989D01*
X105816204Y-143500889D01*
X105933261Y-143413261D01*
X106020889Y-143296204D01*
X106066138Y-143174887D01*
X106108009Y-143118956D01*
X106173474Y-143094539D01*
X106241746Y-143109391D01*
X106273545Y-143134236D01*
X106336760Y-143202906D01*
X106514424Y-143341189D01*
X106514425Y-143341189D01*
X106514427Y-143341191D01*
X106574314Y-143373600D01*
X106712426Y-143448342D01*
X106925365Y-143521444D01*
X107147431Y-143558500D01*
X107372569Y-143558500D01*
X107594635Y-143521444D01*
X107807574Y-143448342D01*
X108005576Y-143341189D01*
X108183240Y-143202906D01*
X108304594Y-143071082D01*
X108335715Y-143037276D01*
X108335715Y-143037275D01*
X108335722Y-143037268D01*
X108426193Y-142898790D01*
X108479338Y-142853437D01*
X108548569Y-142844013D01*
X108611905Y-142873515D01*
X108633804Y-142898787D01*
X108724278Y-143037268D01*
X108724283Y-143037273D01*
X108724284Y-143037276D01*
X108876756Y-143202902D01*
X108876760Y-143202906D01*
X109054424Y-143341189D01*
X109054425Y-143341189D01*
X109054427Y-143341191D01*
X109114314Y-143373600D01*
X109252426Y-143448342D01*
X109465365Y-143521444D01*
X109687431Y-143558500D01*
X109912569Y-143558500D01*
X110134635Y-143521444D01*
X110347574Y-143448342D01*
X110545576Y-143341189D01*
X110723240Y-143202906D01*
X110844594Y-143071082D01*
X110875715Y-143037276D01*
X110875715Y-143037275D01*
X110875722Y-143037268D01*
X110966193Y-142898790D01*
X111019338Y-142853437D01*
X111088569Y-142844013D01*
X111151905Y-142873515D01*
X111173804Y-142898787D01*
X111264278Y-143037268D01*
X111264283Y-143037273D01*
X111264284Y-143037276D01*
X111416756Y-143202902D01*
X111416760Y-143202906D01*
X111594424Y-143341189D01*
X111594425Y-143341189D01*
X111594427Y-143341191D01*
X111654314Y-143373600D01*
X111792426Y-143448342D01*
X112005365Y-143521444D01*
X112227431Y-143558500D01*
X112452569Y-143558500D01*
X112674635Y-143521444D01*
X112887574Y-143448342D01*
X113085576Y-143341189D01*
X113263240Y-143202906D01*
X113384594Y-143071082D01*
X113415715Y-143037276D01*
X113415715Y-143037275D01*
X113415722Y-143037268D01*
X113506193Y-142898790D01*
X113559338Y-142853437D01*
X113628569Y-142844013D01*
X113691905Y-142873515D01*
X113713804Y-142898787D01*
X113804278Y-143037268D01*
X113804283Y-143037273D01*
X113804284Y-143037276D01*
X113956756Y-143202902D01*
X113956760Y-143202906D01*
X114134424Y-143341189D01*
X114134425Y-143341189D01*
X114134427Y-143341191D01*
X114194314Y-143373600D01*
X114332426Y-143448342D01*
X114545365Y-143521444D01*
X114767431Y-143558500D01*
X114992569Y-143558500D01*
X115214635Y-143521444D01*
X115427574Y-143448342D01*
X115625576Y-143341189D01*
X115803240Y-143202906D01*
X115924594Y-143071082D01*
X115955715Y-143037276D01*
X115955715Y-143037275D01*
X115955722Y-143037268D01*
X116046193Y-142898790D01*
X116099338Y-142853437D01*
X116168569Y-142844013D01*
X116231905Y-142873515D01*
X116253804Y-142898787D01*
X116344278Y-143037268D01*
X116344283Y-143037273D01*
X116344284Y-143037276D01*
X116496756Y-143202902D01*
X116496760Y-143202906D01*
X116674424Y-143341189D01*
X116674425Y-143341189D01*
X116674427Y-143341191D01*
X116734314Y-143373600D01*
X116872426Y-143448342D01*
X117085365Y-143521444D01*
X117307431Y-143558500D01*
X117532569Y-143558500D01*
X117754635Y-143521444D01*
X117967574Y-143448342D01*
X118165576Y-143341189D01*
X118343240Y-143202906D01*
X118464594Y-143071082D01*
X118495715Y-143037276D01*
X118495715Y-143037275D01*
X118495722Y-143037268D01*
X118586193Y-142898790D01*
X118639338Y-142853437D01*
X118708569Y-142844013D01*
X118771905Y-142873515D01*
X118793804Y-142898787D01*
X118884278Y-143037268D01*
X118884283Y-143037273D01*
X118884284Y-143037276D01*
X119036756Y-143202902D01*
X119036760Y-143202906D01*
X119214424Y-143341189D01*
X119214425Y-143341189D01*
X119214427Y-143341191D01*
X119274314Y-143373600D01*
X119412426Y-143448342D01*
X119625365Y-143521444D01*
X119847431Y-143558500D01*
X120072569Y-143558500D01*
X120294635Y-143521444D01*
X120507574Y-143448342D01*
X120705576Y-143341189D01*
X120883240Y-143202906D01*
X121004594Y-143071082D01*
X121035715Y-143037276D01*
X121035715Y-143037275D01*
X121035722Y-143037268D01*
X121126193Y-142898790D01*
X121179338Y-142853437D01*
X121248569Y-142844013D01*
X121311905Y-142873515D01*
X121333804Y-142898787D01*
X121424278Y-143037268D01*
X121424283Y-143037273D01*
X121424284Y-143037276D01*
X121576756Y-143202902D01*
X121576760Y-143202906D01*
X121754424Y-143341189D01*
X121754425Y-143341189D01*
X121754427Y-143341191D01*
X121814314Y-143373600D01*
X121952426Y-143448342D01*
X122165365Y-143521444D01*
X122387431Y-143558500D01*
X122612569Y-143558500D01*
X122834635Y-143521444D01*
X123047574Y-143448342D01*
X123245576Y-143341189D01*
X123423240Y-143202906D01*
X123544594Y-143071082D01*
X123575715Y-143037276D01*
X123575715Y-143037275D01*
X123575722Y-143037268D01*
X123666193Y-142898790D01*
X123719338Y-142853437D01*
X123788569Y-142844013D01*
X123851905Y-142873515D01*
X123873804Y-142898787D01*
X123964278Y-143037268D01*
X123964283Y-143037273D01*
X123964284Y-143037276D01*
X124116756Y-143202902D01*
X124116760Y-143202906D01*
X124294424Y-143341189D01*
X124294425Y-143341189D01*
X124294427Y-143341191D01*
X124354314Y-143373600D01*
X124492426Y-143448342D01*
X124705365Y-143521444D01*
X124927431Y-143558500D01*
X125152569Y-143558500D01*
X125374635Y-143521444D01*
X125587574Y-143448342D01*
X125785576Y-143341189D01*
X125963240Y-143202906D01*
X126084594Y-143071082D01*
X126115715Y-143037276D01*
X126115715Y-143037275D01*
X126115722Y-143037268D01*
X126206193Y-142898790D01*
X126259338Y-142853437D01*
X126328569Y-142844013D01*
X126391905Y-142873515D01*
X126413804Y-142898787D01*
X126504278Y-143037268D01*
X126504283Y-143037273D01*
X126504284Y-143037276D01*
X126656756Y-143202902D01*
X126656760Y-143202906D01*
X126834424Y-143341189D01*
X126834425Y-143341189D01*
X126834427Y-143341191D01*
X126894314Y-143373600D01*
X127032426Y-143448342D01*
X127245365Y-143521444D01*
X127467431Y-143558500D01*
X127692569Y-143558500D01*
X127914635Y-143521444D01*
X128127574Y-143448342D01*
X128325576Y-143341189D01*
X128503240Y-143202906D01*
X128624594Y-143071082D01*
X128655715Y-143037276D01*
X128655715Y-143037275D01*
X128655722Y-143037268D01*
X128746193Y-142898790D01*
X128799338Y-142853437D01*
X128868569Y-142844013D01*
X128931905Y-142873515D01*
X128953804Y-142898787D01*
X129044278Y-143037268D01*
X129044283Y-143037273D01*
X129044284Y-143037276D01*
X129196756Y-143202902D01*
X129196760Y-143202906D01*
X129374424Y-143341189D01*
X129374425Y-143341189D01*
X129374427Y-143341191D01*
X129434314Y-143373600D01*
X129572426Y-143448342D01*
X129785365Y-143521444D01*
X130007431Y-143558500D01*
X130232569Y-143558500D01*
X130454635Y-143521444D01*
X130667574Y-143448342D01*
X130865576Y-143341189D01*
X131043240Y-143202906D01*
X131164594Y-143071082D01*
X131195715Y-143037276D01*
X131195715Y-143037275D01*
X131195722Y-143037268D01*
X131286193Y-142898790D01*
X131339338Y-142853437D01*
X131408569Y-142844013D01*
X131471905Y-142873515D01*
X131493804Y-142898787D01*
X131584278Y-143037268D01*
X131584283Y-143037273D01*
X131584284Y-143037276D01*
X131736756Y-143202902D01*
X131736760Y-143202906D01*
X131914424Y-143341189D01*
X131914425Y-143341189D01*
X131914427Y-143341191D01*
X131974314Y-143373600D01*
X132112426Y-143448342D01*
X132325365Y-143521444D01*
X132547431Y-143558500D01*
X132772569Y-143558500D01*
X132994635Y-143521444D01*
X133207574Y-143448342D01*
X133405576Y-143341189D01*
X133583240Y-143202906D01*
X133704594Y-143071082D01*
X133735715Y-143037276D01*
X133735715Y-143037275D01*
X133735722Y-143037268D01*
X133826193Y-142898790D01*
X133879338Y-142853437D01*
X133948569Y-142844013D01*
X134011905Y-142873515D01*
X134033804Y-142898787D01*
X134124278Y-143037268D01*
X134124283Y-143037273D01*
X134124284Y-143037276D01*
X134276756Y-143202902D01*
X134276760Y-143202906D01*
X134454424Y-143341189D01*
X134454425Y-143341189D01*
X134454427Y-143341191D01*
X134514314Y-143373600D01*
X134652426Y-143448342D01*
X134865365Y-143521444D01*
X135087431Y-143558500D01*
X135312569Y-143558500D01*
X135534635Y-143521444D01*
X135747574Y-143448342D01*
X135945576Y-143341189D01*
X136123240Y-143202906D01*
X136244594Y-143071082D01*
X136275715Y-143037276D01*
X136275715Y-143037275D01*
X136275722Y-143037268D01*
X136369749Y-142893347D01*
X136422894Y-142847994D01*
X136492125Y-142838570D01*
X136555461Y-142868072D01*
X136575130Y-142890048D01*
X136701890Y-143071078D01*
X136868917Y-143238105D01*
X137062421Y-143373600D01*
X137276507Y-143473429D01*
X137276516Y-143473433D01*
X137490000Y-143530634D01*
X137490000Y-142633012D01*
X137547007Y-142665925D01*
X137674174Y-142700000D01*
X137805826Y-142700000D01*
X137932993Y-142665925D01*
X137990000Y-142633012D01*
X137990000Y-143530633D01*
X138203483Y-143473433D01*
X138203492Y-143473429D01*
X138417578Y-143373600D01*
X138611082Y-143238105D01*
X138778105Y-143071082D01*
X138904868Y-142890048D01*
X138959445Y-142846423D01*
X139028944Y-142839231D01*
X139091298Y-142870753D01*
X139110251Y-142893350D01*
X139204276Y-143037265D01*
X139204284Y-143037276D01*
X139356756Y-143202902D01*
X139356760Y-143202906D01*
X139534424Y-143341189D01*
X139534425Y-143341189D01*
X139534427Y-143341191D01*
X139594314Y-143373600D01*
X139732426Y-143448342D01*
X139945365Y-143521444D01*
X140167431Y-143558500D01*
X140392569Y-143558500D01*
X140614635Y-143521444D01*
X140827574Y-143448342D01*
X141025576Y-143341189D01*
X141203240Y-143202906D01*
X141324594Y-143071082D01*
X141355715Y-143037276D01*
X141355717Y-143037273D01*
X141355722Y-143037268D01*
X141478860Y-142848791D01*
X141569296Y-142642616D01*
X141624564Y-142424368D01*
X141624565Y-142424359D01*
X141643156Y-142200005D01*
X141643156Y-142199994D01*
X141624565Y-141975640D01*
X141624563Y-141975628D01*
X141599965Y-141878494D01*
X141569296Y-141757384D01*
X141478860Y-141551209D01*
X141453350Y-141512163D01*
X141355724Y-141362734D01*
X141265770Y-141265018D01*
X141234848Y-141202363D01*
X141233000Y-141181035D01*
X141233000Y-126866107D01*
X141252685Y-126799068D01*
X141269319Y-126778426D01*
X144940240Y-123107505D01*
X144940243Y-123107502D01*
X145044538Y-122951415D01*
X145116377Y-122777980D01*
X145153000Y-122593862D01*
X145153000Y-122406138D01*
X145153000Y-116806138D01*
X145116377Y-116622020D01*
X145116375Y-116622015D01*
X145044540Y-116448589D01*
X145044539Y-116448587D01*
X144940244Y-116292499D01*
X144888540Y-116240795D01*
X144807502Y-116159757D01*
X140389319Y-111741574D01*
X140355834Y-111680251D01*
X140353000Y-111653893D01*
X140353000Y-110132155D01*
X142780000Y-110132155D01*
X142780000Y-111430000D01*
X143912096Y-111430000D01*
X143880000Y-111591358D01*
X143880000Y-111768642D01*
X143912096Y-111930000D01*
X142780000Y-111930000D01*
X142780000Y-113227844D01*
X142786401Y-113287372D01*
X142786403Y-113287379D01*
X142836645Y-113422086D01*
X142836649Y-113422093D01*
X142922809Y-113537187D01*
X142922812Y-113537190D01*
X143037906Y-113623350D01*
X143037913Y-113623354D01*
X143172620Y-113673596D01*
X143172627Y-113673598D01*
X143232155Y-113679999D01*
X143232172Y-113680000D01*
X144530000Y-113680000D01*
X144530000Y-112547904D01*
X144691358Y-112580000D01*
X144868642Y-112580000D01*
X145030000Y-112547904D01*
X145030000Y-113680000D01*
X146327828Y-113680000D01*
X146327844Y-113679999D01*
X146387372Y-113673598D01*
X146387379Y-113673596D01*
X146522086Y-113623354D01*
X146522093Y-113623350D01*
X146637187Y-113537190D01*
X146637190Y-113537187D01*
X146723350Y-113422093D01*
X146723354Y-113422086D01*
X146773596Y-113287379D01*
X146773598Y-113287372D01*
X146779999Y-113227844D01*
X146780000Y-113227827D01*
X146780000Y-111930000D01*
X145647904Y-111930000D01*
X145680000Y-111768642D01*
X145680000Y-111591358D01*
X145647904Y-111430000D01*
X146780000Y-111430000D01*
X146780000Y-110132172D01*
X146779999Y-110132155D01*
X146773598Y-110072627D01*
X146773596Y-110072620D01*
X146723354Y-109937913D01*
X146723350Y-109937906D01*
X146637190Y-109822812D01*
X146637187Y-109822809D01*
X146522093Y-109736649D01*
X146522086Y-109736645D01*
X146387379Y-109686403D01*
X146387372Y-109686401D01*
X146327844Y-109680000D01*
X145030000Y-109680000D01*
X145030000Y-110812095D01*
X144868642Y-110780000D01*
X144691358Y-110780000D01*
X144530000Y-110812095D01*
X144530000Y-109680000D01*
X143232155Y-109680000D01*
X143172627Y-109686401D01*
X143172620Y-109686403D01*
X143037913Y-109736645D01*
X143037906Y-109736649D01*
X142922812Y-109822809D01*
X142922809Y-109822812D01*
X142836649Y-109937906D01*
X142836645Y-109937913D01*
X142786403Y-110072620D01*
X142786401Y-110072627D01*
X142780000Y-110132155D01*
X140353000Y-110132155D01*
X140353000Y-108582500D01*
X140372685Y-108515461D01*
X140425489Y-108469706D01*
X140477000Y-108458500D01*
X143807348Y-108458500D01*
X143856750Y-108468766D01*
X144000003Y-108530989D01*
X144105823Y-108576953D01*
X144370404Y-108651085D01*
X144609720Y-108683978D01*
X144642614Y-108688500D01*
X144642615Y-108688500D01*
X144917386Y-108688500D01*
X144946733Y-108684466D01*
X145189596Y-108651085D01*
X145454177Y-108576953D01*
X145681564Y-108478185D01*
X145706198Y-108467485D01*
X145716315Y-108461333D01*
X145940969Y-108324718D01*
X146154111Y-108151314D01*
X146341657Y-107950502D01*
X146500111Y-107726023D01*
X146626523Y-107482058D01*
X146718538Y-107223153D01*
X146718539Y-107223146D01*
X146718541Y-107223141D01*
X146749369Y-107074787D01*
X146774442Y-106954130D01*
X146793193Y-106680000D01*
X146774442Y-106405870D01*
X146730140Y-106192678D01*
X146718541Y-106136858D01*
X146718536Y-106136841D01*
X146626523Y-105877943D01*
X146626523Y-105877942D01*
X146500111Y-105633977D01*
X146500110Y-105633975D01*
X146500106Y-105633969D01*
X146341659Y-105409500D01*
X146272535Y-105335487D01*
X146154111Y-105208686D01*
X145940969Y-105035282D01*
X145940967Y-105035281D01*
X145940965Y-105035279D01*
X145706198Y-104892514D01*
X145454178Y-104783047D01*
X145189602Y-104708916D01*
X145189597Y-104708915D01*
X145189596Y-104708915D01*
X145053490Y-104690207D01*
X144917386Y-104671500D01*
X144917385Y-104671500D01*
X144642615Y-104671500D01*
X144642614Y-104671500D01*
X144370404Y-104708915D01*
X144370397Y-104708916D01*
X144105821Y-104783047D01*
X143856750Y-104891234D01*
X143807348Y-104901500D01*
X64143430Y-104901500D01*
X64113001Y-104905506D01*
X63912291Y-104931929D01*
X63687092Y-104992271D01*
X63471713Y-105081483D01*
X63471703Y-105081488D01*
X63438597Y-105100602D01*
X63395996Y-105115687D01*
X63187675Y-105148681D01*
X62976819Y-105217193D01*
X62779284Y-105317843D01*
X62676952Y-105392192D01*
X62599924Y-105448157D01*
X62599922Y-105448159D01*
X62599921Y-105448159D01*
X62443159Y-105604921D01*
X62443159Y-105604922D01*
X62443157Y-105604924D01*
X62422050Y-105633975D01*
X62312843Y-105784284D01*
X62212193Y-105981821D01*
X62143681Y-106192678D01*
X62128906Y-106285959D01*
X62104811Y-106342043D01*
X62035555Y-106432302D01*
X62035551Y-106432308D01*
X61918992Y-106634194D01*
X61918987Y-106634205D01*
X61829771Y-106849592D01*
X61769429Y-107074790D01*
X61739000Y-107305930D01*
X61739000Y-107539069D01*
X61769429Y-107770209D01*
X61829771Y-107995407D01*
X61918987Y-108210794D01*
X61918992Y-108210805D01*
X62035557Y-108412700D01*
X62104809Y-108502952D01*
X62128906Y-108559039D01*
X62143681Y-108652321D01*
X62143682Y-108652323D01*
X62143682Y-108652324D01*
X62212192Y-108863176D01*
X62312843Y-109060715D01*
X62443157Y-109240076D01*
X62599924Y-109396843D01*
X62703886Y-109472376D01*
X62746551Y-109527704D01*
X62755000Y-109572693D01*
X62755000Y-117115300D01*
X62735315Y-117182339D01*
X62718681Y-117202981D01*
X61620481Y-118301181D01*
X61559158Y-118334666D01*
X61532800Y-118337500D01*
X55424898Y-118337500D01*
X55277592Y-118366801D01*
X55277586Y-118366803D01*
X55138823Y-118424280D01*
X55138814Y-118424285D01*
X55013935Y-118507727D01*
X55013931Y-118507730D01*
X51707731Y-121813929D01*
X51707730Y-121813930D01*
X51707727Y-121813935D01*
X51655234Y-121892498D01*
X51642491Y-121911569D01*
X51624282Y-121938820D01*
X51624280Y-121938823D01*
X51566803Y-122077586D01*
X51566801Y-122077592D01*
X51537500Y-122224897D01*
X51537500Y-122224900D01*
X51537500Y-127575100D01*
X51537500Y-127575102D01*
X51537499Y-127575102D01*
X50000000Y-127575102D01*
X50000000Y-113399997D01*
X56897499Y-113399997D01*
X56897499Y-113400000D01*
X56917451Y-113659884D01*
X56917451Y-113659889D01*
X56976840Y-113913677D01*
X56976841Y-113913682D01*
X57074277Y-114155435D01*
X57074281Y-114155441D01*
X57207474Y-114379481D01*
X57373311Y-114580570D01*
X57474794Y-114671011D01*
X57567899Y-114753986D01*
X57567907Y-114753993D01*
X57786676Y-114895666D01*
X57786684Y-114895670D01*
X58024523Y-115002291D01*
X58024525Y-115002292D01*
X58134861Y-115032612D01*
X58275859Y-115071360D01*
X58534790Y-115101252D01*
X58795249Y-115091269D01*
X59051131Y-115041643D01*
X59051134Y-115041642D01*
X59296435Y-114953541D01*
X59296436Y-114953540D01*
X59296440Y-114953539D01*
X59525425Y-114829021D01*
X59732718Y-114671008D01*
X59913461Y-114483204D01*
X60063419Y-114270010D01*
X60179074Y-114036424D01*
X60257718Y-113787921D01*
X60297506Y-113530325D01*
X60300000Y-113400000D01*
X60297506Y-113269675D01*
X60257718Y-113012079D01*
X60179074Y-112763576D01*
X60063419Y-112529990D01*
X59913461Y-112316796D01*
X59732718Y-112128992D01*
X59525425Y-111970979D01*
X59395500Y-111900328D01*
X59296435Y-111846458D01*
X59051134Y-111758357D01*
X58795249Y-111708730D01*
X58534790Y-111698748D01*
X58275857Y-111728640D01*
X58275853Y-111728641D01*
X58024525Y-111797707D01*
X58024523Y-111797708D01*
X57786684Y-111904329D01*
X57786676Y-111904333D01*
X57567907Y-112046006D01*
X57567899Y-112046013D01*
X57373309Y-112219431D01*
X57207473Y-112420520D01*
X57074281Y-112644558D01*
X57074277Y-112644564D01*
X56976841Y-112886317D01*
X56976840Y-112886322D01*
X56917451Y-113140110D01*
X56917451Y-113140115D01*
X56897499Y-113399997D01*
X50000000Y-113399997D01*
X50000000Y-105822513D01*
X51957500Y-105822513D01*
X51957500Y-107172500D01*
X52809018Y-107172500D01*
X52798389Y-107190909D01*
X52757500Y-107343509D01*
X52757500Y-107501491D01*
X52798389Y-107654091D01*
X52809018Y-107672500D01*
X51957501Y-107672500D01*
X51957501Y-109022486D01*
X51967994Y-109125197D01*
X52023141Y-109291619D01*
X52023143Y-109291624D01*
X52115184Y-109440845D01*
X52239154Y-109564815D01*
X52388375Y-109656856D01*
X52388380Y-109656858D01*
X52554802Y-109712005D01*
X52554809Y-109712006D01*
X52657519Y-109722499D01*
X53107499Y-109722499D01*
X53107500Y-109722498D01*
X53107500Y-107970982D01*
X53125909Y-107981611D01*
X53278509Y-108022500D01*
X53436491Y-108022500D01*
X53589091Y-107981611D01*
X53607500Y-107970982D01*
X53607500Y-109722499D01*
X54057472Y-109722499D01*
X54057486Y-109722498D01*
X54160197Y-109712005D01*
X54326619Y-109656858D01*
X54326624Y-109656856D01*
X54475845Y-109564815D01*
X54599815Y-109440845D01*
X54691856Y-109291624D01*
X54691858Y-109291619D01*
X54747005Y-109125197D01*
X54747006Y-109125190D01*
X54757499Y-109022486D01*
X54757500Y-109022473D01*
X54757500Y-107672500D01*
X53905982Y-107672500D01*
X53916611Y-107654091D01*
X53957500Y-107501491D01*
X53957500Y-107343509D01*
X53916611Y-107190909D01*
X53905982Y-107172500D01*
X54757499Y-107172500D01*
X54757499Y-106411649D01*
X57029000Y-106411649D01*
X57029000Y-108433351D01*
X57043337Y-108523873D01*
X57063682Y-108652324D01*
X57132193Y-108863180D01*
X57213358Y-109022473D01*
X57232843Y-109060715D01*
X57363157Y-109240076D01*
X57519924Y-109396843D01*
X57699285Y-109527157D01*
X57773193Y-109564815D01*
X57896819Y-109627806D01*
X57896821Y-109627806D01*
X57896824Y-109627808D01*
X58107676Y-109696318D01*
X58326649Y-109731000D01*
X58326650Y-109731000D01*
X58548350Y-109731000D01*
X58548351Y-109731000D01*
X58767324Y-109696318D01*
X58978176Y-109627808D01*
X59175715Y-109527157D01*
X59355076Y-109396843D01*
X59511843Y-109240076D01*
X59642157Y-109060715D01*
X59742808Y-108863176D01*
X59811318Y-108652324D01*
X59846000Y-108433351D01*
X59846000Y-106411649D01*
X59811318Y-106192676D01*
X59742808Y-105981824D01*
X59742806Y-105981821D01*
X59742806Y-105981819D01*
X59689710Y-105877614D01*
X59642157Y-105784285D01*
X59511843Y-105604924D01*
X59355076Y-105448157D01*
X59301870Y-105409500D01*
X59251113Y-105372622D01*
X59208448Y-105317292D01*
X59200000Y-105272305D01*
X59200000Y-103981700D01*
X59219685Y-103914661D01*
X59236319Y-103894019D01*
X60223519Y-102906819D01*
X60284842Y-102873334D01*
X60311200Y-102870500D01*
X145682800Y-102870500D01*
X145749839Y-102890185D01*
X145770481Y-102906819D01*
X147791181Y-104927519D01*
X147824666Y-104988842D01*
X147827500Y-105015200D01*
X147827500Y-120313500D01*
X147807815Y-120380539D01*
X147755011Y-120426294D01*
X147703500Y-120437500D01*
X147036432Y-120437500D01*
X146969393Y-120417815D01*
X146963548Y-120413819D01*
X146956755Y-120408884D01*
X146956756Y-120408884D01*
X146956752Y-120408882D01*
X146782288Y-120331206D01*
X146782286Y-120331205D01*
X146595487Y-120291500D01*
X146404513Y-120291500D01*
X146217714Y-120331205D01*
X146043246Y-120408883D01*
X145888745Y-120521135D01*
X145760959Y-120663057D01*
X145665473Y-120828443D01*
X145665470Y-120828450D01*
X145612070Y-120992800D01*
X145606458Y-121010072D01*
X145586496Y-121200000D01*
X145606458Y-121389928D01*
X145606459Y-121389931D01*
X145665470Y-121571549D01*
X145665473Y-121571556D01*
X145760960Y-121736944D01*
X145830283Y-121813935D01*
X145885912Y-121875718D01*
X145888747Y-121878866D01*
X146043248Y-121991118D01*
X146217712Y-122068794D01*
X146404513Y-122108500D01*
X146595487Y-122108500D01*
X146782288Y-122068794D01*
X146956752Y-121991118D01*
X146960623Y-121988305D01*
X146963548Y-121986181D01*
X147029355Y-121962702D01*
X147036432Y-121962500D01*
X148275102Y-121962500D01*
X148374204Y-121942786D01*
X148422413Y-121933197D01*
X148561179Y-121875718D01*
X148574223Y-121867002D01*
X148582939Y-121861179D01*
X148653654Y-121813929D01*
X148686065Y-121792273D01*
X149182272Y-121296065D01*
X149265718Y-121171179D01*
X149323197Y-121032413D01*
X149323321Y-121031787D01*
X149323838Y-121029193D01*
X149323838Y-121029188D01*
X149352500Y-120885100D01*
X149352500Y-104572900D01*
X149352500Y-104572897D01*
X149323198Y-104425592D01*
X149323197Y-104425591D01*
X149323197Y-104425587D01*
X149265718Y-104286821D01*
X149212232Y-104206773D01*
X149182272Y-104161934D01*
X149182270Y-104161931D01*
X146536069Y-101515730D01*
X146536065Y-101515727D01*
X146411179Y-101432282D01*
X146272413Y-101374803D01*
X146272407Y-101374801D01*
X146125102Y-101345500D01*
X146125100Y-101345500D01*
X59868900Y-101345500D01*
X59868898Y-101345500D01*
X59721590Y-101374802D01*
X59721588Y-101374802D01*
X59721587Y-101374803D01*
X59680943Y-101391637D01*
X59680941Y-101391638D01*
X59680940Y-101391637D01*
X59582824Y-101432279D01*
X59582814Y-101432284D01*
X59457935Y-101515726D01*
X59457931Y-101515729D01*
X57845230Y-103128430D01*
X57761781Y-103253322D01*
X57704303Y-103392086D01*
X57704301Y-103392092D01*
X57675000Y-103539397D01*
X57675000Y-105272305D01*
X57655315Y-105339344D01*
X57623887Y-105372622D01*
X57519924Y-105448156D01*
X57363159Y-105604921D01*
X57363159Y-105604922D01*
X57363157Y-105604924D01*
X57342050Y-105633975D01*
X57232843Y-105784284D01*
X57132193Y-105981819D01*
X57063682Y-106192675D01*
X57029916Y-106405867D01*
X57029000Y-106411649D01*
X54757499Y-106411649D01*
X54757499Y-105822528D01*
X54757498Y-105822513D01*
X54747005Y-105719802D01*
X54691858Y-105553380D01*
X54691856Y-105553375D01*
X54599815Y-105404154D01*
X54475845Y-105280184D01*
X54326624Y-105188143D01*
X54326619Y-105188141D01*
X54160197Y-105132994D01*
X54160190Y-105132993D01*
X54057486Y-105122500D01*
X53607500Y-105122500D01*
X53607500Y-106874017D01*
X53589091Y-106863389D01*
X53436491Y-106822500D01*
X53278509Y-106822500D01*
X53125909Y-106863389D01*
X53107500Y-106874017D01*
X53107500Y-105122500D01*
X52657528Y-105122500D01*
X52657512Y-105122501D01*
X52554802Y-105132994D01*
X52388380Y-105188141D01*
X52388375Y-105188143D01*
X52239154Y-105280184D01*
X52115184Y-105404154D01*
X52023143Y-105553375D01*
X52023141Y-105553380D01*
X51967994Y-105719802D01*
X51967993Y-105719809D01*
X51957500Y-105822513D01*
X50000000Y-105822513D01*
X50000000Y-100724000D01*
X50019685Y-100656961D01*
X50072489Y-100611206D01*
X50124000Y-100600000D01*
X149876000Y-100600000D01*
X149943039Y-100619685D01*
G37*
G04 #@! TD.AperFunction*
M02*
