G04 #@! TF.GenerationSoftware,KiCad,Pcbnew,8.0.6*
G04 #@! TF.CreationDate,2024-10-17T13:08:26+02:00*
G04 #@! TF.ProjectId,esp_music_vis,6573705f-6d75-4736-9963-5f7669732e6b,rev?*
G04 #@! TF.SameCoordinates,Original*
G04 #@! TF.FileFunction,Profile,NP*
%FSLAX46Y46*%
G04 Gerber Fmt 4.6, Leading zero omitted, Abs format (unit mm)*
G04 Created by KiCad (PCBNEW 8.0.6) date 2024-10-17 13:08:26*
%MOMM*%
%LPD*%
G01*
G04 APERTURE LIST*
G04 #@! TA.AperFunction,Profile*
%ADD10C,0.100000*%
G04 #@! TD*
G04 APERTURE END LIST*
D10*
X73200000Y-90000000D02*
G75*
G02*
X71220102Y-90000000I-989949J0D01*
G01*
X71220102Y-90000000D02*
G75*
G02*
X73200000Y-90000000I989949J0D01*
G01*
X68800000Y-90000000D02*
G75*
G02*
X66820102Y-90000000I-989949J0D01*
G01*
X66820102Y-90000000D02*
G75*
G02*
X68800000Y-90000000I989949J0D01*
G01*
X77800000Y-89962500D02*
G75*
G02*
X75820102Y-89962500I-989949J0D01*
G01*
X75820102Y-89962500D02*
G75*
G02*
X77800000Y-89962500I989949J0D01*
G01*
X101000000Y-90000000D02*
G75*
G02*
X99020102Y-90000000I-989949J0D01*
G01*
X99020102Y-90000000D02*
G75*
G02*
X101000000Y-90000000I989949J0D01*
G01*
X96600000Y-90000000D02*
G75*
G02*
X94620102Y-90000000I-989949J0D01*
G01*
X94620102Y-90000000D02*
G75*
G02*
X96600000Y-90000000I989949J0D01*
G01*
X105550000Y-89962500D02*
G75*
G02*
X103570102Y-89962500I-989949J0D01*
G01*
X103570102Y-89962500D02*
G75*
G02*
X105550000Y-89962500I989949J0D01*
G01*
X128758384Y-89994316D02*
G75*
G02*
X126778486Y-89994316I-989949J0D01*
G01*
X126778486Y-89994316D02*
G75*
G02*
X128758384Y-89994316I989949J0D01*
G01*
X133150000Y-89962500D02*
G75*
G02*
X131170102Y-89962500I-989949J0D01*
G01*
X131170102Y-89962500D02*
G75*
G02*
X133150000Y-89962500I989949J0D01*
G01*
X124189949Y-89989949D02*
G75*
G02*
X122210051Y-89989949I-989949J0D01*
G01*
X122210051Y-89989949D02*
G75*
G02*
X124189949Y-89989949I989949J0D01*
G01*
X82400000Y-116800000D02*
G75*
G02*
X79000000Y-116800000I-1700000J0D01*
G01*
X79000000Y-116800000D02*
G75*
G02*
X82400000Y-116800000I1700000J0D01*
G01*
X148300000Y-147000000D02*
G75*
G02*
X144900000Y-147000000I-1700000J0D01*
G01*
X144900000Y-147000000D02*
G75*
G02*
X148300000Y-147000000I1700000J0D01*
G01*
X57500000Y-90000000D02*
G75*
G02*
X54100000Y-90000000I-1700000J0D01*
G01*
X54100000Y-90000000D02*
G75*
G02*
X57500000Y-90000000I1700000J0D01*
G01*
X60300000Y-113400000D02*
G75*
G02*
X56900000Y-113400000I-1700000J0D01*
G01*
X56900000Y-113400000D02*
G75*
G02*
X60300000Y-113400000I1700000J0D01*
G01*
X50000000Y-50000000D02*
X150000000Y-50000000D01*
X150000000Y-150000000D01*
X50000000Y-150000000D01*
X50000000Y-50000000D01*
X145900000Y-90000000D02*
G75*
G02*
X142500000Y-90000000I-1700000J0D01*
G01*
X142500000Y-90000000D02*
G75*
G02*
X145900000Y-90000000I1700000J0D01*
G01*
M02*
